<svg width="30" height="28" viewBox="0 0 30 28" fill="none" xmlns="http://www.w3.org/2000/svg">
<path d="M0 0V21.42H15.5254C15.5154 21.2507 15.5 21.0824 15.5 20.91C15.5 19.4218 15.8971 18.031 16.5791 16.83H4L5 13.77L9.5 10.71L11 11.73L10 13.77L11 14.79L14.5 9.69L16.5 9.18L19 5.61L22.5 10.71L23.0059 12.7759C23.1704 12.7657 23.3335 12.75 23.5 12.75C25.169 12.75 26.7175 13.273 28 14.1645V0H0ZM6.5 3.57C7.3285 3.57 8 4.25493 8 5.1C8 5.94507 7.3285 6.63 6.5 6.63C5.6715 6.63 5 5.94507 5 5.1C5 4.25493 5.6715 3.57 6.5 3.57ZM23.5 13.77C19.91 13.77 17 16.7382 17 20.4C17 24.0618 19.91 27.03 23.5 27.03C27.09 27.03 30 24.0618 30 20.4C30 16.7382 27.09 13.77 23.5 13.77ZM23 16.83H24L24.25 19.635L27 19.89V20.91L24.25 21.165L24 23.97H23L22.75 21.165L20 20.91V19.89L22.75 19.635L23 16.83Z" fill="#D5D5D5"/>
</svg>
