<?xml version="1.0" encoding="utf-8"?>
<!-- Generator: Adobe Illustrator 24.1.2, SVG Export Plug-In . SVG Version: 6.00 Build 0)  -->
<svg version="1.1" id="Layer_1" xmlns="http://www.w3.org/2000/svg" xmlns:xlink="http://www.w3.org/1999/xlink" x="0px" y="0px"
	 viewBox="0 0 300 300" style="enable-background:new 0 0 300 300;" xml:space="preserve">
<style type="text/css">
	.st0{fill:#0B44B1;}
	.st1{fill:#FFFFFF;}
</style>
<path class="st0" d="M-322.5,300h-178.8c-33.5,0-60.6-27.1-60.6-60.6V60.6c0-33.5,27.1-60.6,60.6-60.6h178.8
	c33.5,0,60.6,27.1,60.6,60.6v178.8C-261.9,272.9-289,300-322.5,300z"/>
<path class="st0" d="M239.4,300H60.6C27.1,300,0,272.9,0,239.4V60.6C0,27.1,27.1,0,60.6,0h178.8C272.9,0,300,27.1,300,60.6v178.8
	C300,272.9,272.9,300,239.4,300z"/>
<g>
	<path class="st1" d="M-368.7,212.4l-105.5-105.5c-5.3-5.3-5.3-13.9,0-19.2v0c5.3-5.3,13.9-5.3,19.2,0l105.5,105.5
		c5.3,5.3,5.3,13.9,0,19.2v0C-354.8,217.7-363.4,217.7-368.7,212.4z"/>
	<path class="st1" d="M-474.3,193.1l105.5-105.5c5.3-5.3,13.9-5.3,19.2,0v0c5.3,5.3,5.3,13.9,0,19.2L-455,212.4
		c-5.3,5.3-13.9,5.3-19.2,0v0C-479.6,207.1-479.6,198.5-474.3,193.1z"/>
</g>
<g>
	<g>
		<g>
			<path class="st1" d="M219.9,176v25.4c0,9.2-7.5,16.6-16.6,16.6h-25.4c-1.1,0-2.1-0.4-2.8-1.2c-0.7-0.7-1.2-1.7-1.2-2.8
				c0-2.2,1.8-3.9,3.9-3.9h25.4c4.9,0,8.8-3.9,8.8-8.8V176c0-1.1,0.4-2.1,1.2-2.8c0.7-0.7,1.7-1.2,2.8-1.2
				C218.1,172,219.9,173.8,219.9,176z"/>
		</g>
		<g>
			<path class="st1" d="M219.9,101.9v25.4c0,1.1-0.4,2.1-1.2,2.8c-0.7,0.7-1.7,1.2-2.8,1.2c-2.2,0-3.9-1.8-3.9-3.9v-25.4
				c0-4.9-3.9-8.8-8.8-8.8h-25.4c-1.1,0-2.1-0.4-2.8-1.2c-0.7-0.7-1.2-1.7-1.2-2.8c0-2.2,1.8-3.9,3.9-3.9h25.4
				C212.4,85.2,219.9,92.7,219.9,101.9z"/>
		</g>
		<g>
			<path class="st1" d="M133.1,89.2c0,2.2-1.8,3.9-3.9,3.9h-25.4c-4.9,0-8.8,3.9-8.8,8.8v25.4c0,1.1-0.4,2.1-1.2,2.8
				c-0.7,0.7-1.7,1.2-2.8,1.2c-2.2,0-3.9-1.8-3.9-3.9v-25.4c0-9.2,7.5-16.6,16.6-16.6h25.4c1.1,0,2.1,0.4,2.8,1.2
				C132.7,87.1,133.1,88.1,133.1,89.2z"/>
			<path class="st1" d="M133.1,214c0,2.2-1.8,3.9-3.9,3.9h-25.4c-9.2,0-16.6-7.5-16.6-16.6V176c0-1.1,0.4-2.1,1.2-2.8
				c0.7-0.7,1.7-1.2,2.8-1.2c2.2,0,3.9,1.8,3.9,3.9v25.4c0,4.9,3.9,8.8,8.8,8.8h25.4c1.1,0,2.1,0.4,2.8,1.2
				C132.7,212,133.1,212.9,133.1,214z"/>
		</g>
	</g>
	<g>
		<g>
			<path class="st1" d="M131,163h-14.2c-6.2,0-11.2,5-11.2,11.2v14.2c0,6.2,5,11.2,11.2,11.2H131c6.2,0,11.2-5,11.2-11.2v-14.2
				C142.1,168,137.1,163,131,163z M134.5,188.4c0,1.9-1.6,3.5-3.5,3.5h-14.2c-1.9,0-3.5-1.6-3.5-3.5v-14.2c0-1.9,1.6-3.5,3.5-3.5
				H131c1.9,0,3.5,1.6,3.5,3.5V188.4z"/>
		</g>
		<g>
			<path class="st1" d="M199.9,180.2h-6.1v8.2c0,1.9-1.6,3.5-3.5,3.5h-8.2v6.1c0,0.6,0.1,1.1,0.4,1.6h7.8c6.2,0,11.2-5,11.2-11.2
				v-7.8C201,180.4,200.5,180.2,199.9,180.2z"/>
		</g>
		<g>
			<path class="st1" d="M170.3,199.6h6.1v-8.2c0-1.9,1.6-3.5,3.5-3.5h8.2v-6.1c0-0.6-0.1-1.1-0.4-1.6h-7.8c-6.2,0-11.2,5-11.2,11.2
				v7.8C169.2,199.4,169.8,199.6,170.3,199.6z"/>
		</g>
		<g>
			<path class="st1" d="M182.7,163c-0.3,0-0.7,0-1.1,0h-11.6c-0.4,0-0.8,0.3-1,0.7c-0.2,0.6-0.3,1.2-0.3,1.9v8.6c0,0.6,0.5,1,1,1
				h11.9c0,0,0,0,0,0c0.6,0,1.1-0.5,1.1-1v-10.3C182.7,163.5,182.7,163.3,182.7,163z"/>
		</g>
		<g>
			<path class="st1" d="M201.5,163c-0.3,0-0.7,0-1.1,0h-11.6c-0.4,0-0.8,0.3-1,0.7c-0.2,0.6-0.3,1.2-0.3,1.9v8.6c0,0.6,0.5,1,1,1
				h11.9c0,0,0,0,0,0c0.6,0,1.1-0.5,1.1-1v-10.3C201.5,163.5,201.5,163.3,201.5,163z"/>
		</g>
		<g>
			<path class="st1" d="M142.1,114.8V129c0,6.2-5,11.2-11.2,11.2h-14.2c-6.2,0-11.2-5-11.2-11.2v-14.2c0-6.2,5-11.2,11.2-11.2h14.2
				C137.1,103.6,142.1,108.6,142.1,114.8z"/>
			<path class="st1" d="M190.3,103.6h-14.2c-6.2,0-11.2,5-11.2,11.2V129c0,6.2,5,11.2,11.2,11.2h14.2c6.2,0,11.2-5,11.2-11.2v-14.2
				C201.5,108.6,196.5,103.6,190.3,103.6z M193.8,129c0,1.9-1.6,3.5-3.5,3.5h-14.2c-1.9,0-3.5-1.6-3.5-3.5v-14.2
				c0-1.9,1.6-3.5,3.5-3.5h14.2c1.9,0,3.5,1.6,3.5,3.5V129z"/>
		</g>
	</g>
</g>
</svg>
