<?xml version="1.0" encoding="utf-8"?>
<!-- Generator: Adobe Illustrator 24.1.2, SVG Export Plug-In . SVG Version: 6.00 Build 0)  -->
<svg version="1.1" id="Layer_1" xmlns="http://www.w3.org/2000/svg" xmlns:xlink="http://www.w3.org/1999/xlink" x="0px" y="0px"
	 viewBox="0 0 301 301" style="enable-background:new 0 0 301 301;" xml:space="preserve">
<style type="text/css">
	.st0{fill:#0B44B1;}
	.st1{fill:#FFFFFF;}
</style>
<path class="st0" d="M-1399-382.4h-178.8c-33.5,0-60.6-27.1-60.6-60.6v-178.8c0-33.5,27.1-60.6,60.6-60.6h178.8
	c33.5,0,60.6,27.1,60.6,60.6V-443C-1338.4-409.5-1365.5-382.4-1399-382.4z"/>
<path class="st0" d="M-837.1-382.4h-178.8c-33.5,0-60.6-27.1-60.6-60.6v-178.8c0-33.5,27.1-60.6,60.6-60.6h178.8
	c33.5,0,60.6,27.1,60.6,60.6V-443C-776.5-409.5-803.6-382.4-837.1-382.4z"/>
<g>
	<path class="st1" d="M-1445.2-470l-105.5-105.5c-5.3-5.3-5.3-13.9,0-19.2l0,0c5.3-5.3,13.9-5.3,19.2,0l105.5,105.5
		c5.3,5.3,5.3,13.9,0,19.2l0,0C-1431.3-464.7-1439.9-464.7-1445.2-470z"/>
	<path class="st1" d="M-1550.8-489.3l105.5-105.5c5.3-5.3,13.9-5.3,19.2,0l0,0c5.3,5.3,5.3,13.9,0,19.2L-1531.5-470
		c-5.3,5.3-13.9,5.3-19.2,0l0,0C-1556.1-475.3-1556.1-483.9-1550.8-489.3z"/>
</g>
<g>
	<g>
		<g>
			<path class="st1" d="M-856.6-506.4v25.4c0,9.2-7.5,16.6-16.6,16.6h-25.4c-1.1,0-2.1-0.4-2.8-1.2c-0.7-0.7-1.2-1.7-1.2-2.8
				c0-2.2,1.8-3.9,3.9-3.9h25.4c4.9,0,8.8-3.9,8.8-8.8v-25.3c0-1.1,0.4-2.1,1.2-2.8c0.7-0.7,1.7-1.2,2.8-1.2
				C-858.4-510.4-856.6-508.6-856.6-506.4z"/>
		</g>
		<g>
			<path class="st1" d="M-856.6-580.5v25.4c0,1.1-0.4,2.1-1.2,2.8c-0.7,0.7-1.7,1.2-2.8,1.2c-2.2,0-3.9-1.8-3.9-3.9v-25.4
				c0-4.9-3.9-8.8-8.8-8.8h-25.4c-1.1,0-2.1-0.4-2.8-1.2c-0.7-0.7-1.2-1.7-1.2-2.8c0-2.2,1.8-3.9,3.9-3.9h25.4
				C-864.1-597.2-856.6-589.7-856.6-580.5z"/>
		</g>
		<g>
			<path class="st1" d="M-943.4-593.2c0,2.2-1.8,3.9-3.9,3.9h-25.4c-4.9,0-8.8,3.9-8.8,8.8v25.4c0,1.1-0.4,2.1-1.2,2.8
				c-0.7,0.7-1.7,1.2-2.8,1.2c-2.2,0-3.9-1.8-3.9-3.9v-25.4c0-9.2,7.5-16.6,16.6-16.6h25.4c1.1,0,2.1,0.4,2.8,1.2
				C-943.8-595.3-943.4-594.3-943.4-593.2z"/>
			<path class="st1" d="M-943.4-468.4c0,2.2-1.8,3.9-3.9,3.9h-25.4c-9.2,0-16.6-7.5-16.6-16.6v-25.3c0-1.1,0.4-2.1,1.2-2.8
				c0.7-0.7,1.7-1.2,2.8-1.2c2.2,0,3.9,1.8,3.9,3.9v25.4c0,4.9,3.9,8.8,8.8,8.8h25.4c1.1,0,2.1,0.4,2.8,1.2
				C-943.8-470.4-943.4-469.5-943.4-468.4z"/>
		</g>
	</g>
	<g>
		<g>
			<path class="st1" d="M-945.5-519.4h-14.2c-6.2,0-11.2,5-11.2,11.2v14.2c0,6.2,5,11.2,11.2,11.2h14.2c6.2,0,11.2-5,11.2-11.2
				v-14.2C-934.4-514.4-939.4-519.4-945.5-519.4z M-942-494c0,1.9-1.6,3.5-3.5,3.5h-14.2c-1.9,0-3.5-1.6-3.5-3.5v-14.2
				c0-1.9,1.6-3.5,3.5-3.5h14.2c1.9,0,3.5,1.6,3.5,3.5V-494z"/>
		</g>
		<g>
			<path class="st1" d="M-876.6-502.2h-6.1v8.2c0,1.9-1.6,3.5-3.5,3.5h-8.2v6.1c0,0.6,0.1,1.1,0.4,1.6h7.8c6.2,0,11.2-5,11.2-11.2
				v-7.8C-875.5-502-876-502.2-876.6-502.2z"/>
		</g>
		<g>
			<path class="st1" d="M-906.2-482.8h6.1v-8.2c0-1.9,1.6-3.5,3.5-3.5h8.2v-6.1c0-0.6-0.1-1.1-0.4-1.6h-7.8c-6.2,0-11.2,5-11.2,11.2
				v7.8C-907.3-483-906.7-482.8-906.2-482.8z"/>
		</g>
		<g>
			<path class="st1" d="M-893.8-519.4c-0.3,0-0.7,0-1.1,0h-11.6c-0.4,0-0.8,0.3-1,0.7c-0.2,0.6-0.3,1.2-0.3,1.9v8.6c0,0.6,0.5,1,1,1
				h11.9l0,0c0.6,0,1.1-0.5,1.1-1v-10.3C-893.8-518.9-893.8-519.1-893.8-519.4z"/>
		</g>
		<g>
			<path class="st1" d="M-875-519.4c-0.3,0-0.7,0-1.1,0h-11.6c-0.4,0-0.8,0.3-1,0.7c-0.2,0.6-0.3,1.2-0.3,1.9v8.6c0,0.6,0.5,1,1,1
				h11.9l0,0c0.6,0,1.1-0.5,1.1-1v-10.3C-875-518.9-875-519.1-875-519.4z"/>
		</g>
		<g>
			<path class="st1" d="M-934.4-567.6v14.2c0,6.2-5,11.2-11.2,11.2h-14.2c-6.2,0-11.2-5-11.2-11.2v-14.2c0-6.2,5-11.2,11.2-11.2
				h14.2C-939.4-578.8-934.4-573.8-934.4-567.6z"/>
			<path class="st1" d="M-886.2-578.8h-14.2c-6.2,0-11.2,5-11.2,11.2v14.2c0,6.2,5,11.2,11.2,11.2h14.2c6.2,0,11.2-5,11.2-11.2
				v-14.2C-875-573.8-880-578.8-886.2-578.8z M-882.7-553.4c0,1.9-1.6,3.5-3.5,3.5h-14.2c-1.9,0-3.5-1.6-3.5-3.5v-14.2
				c0-1.9,1.6-3.5,3.5-3.5h14.2c1.9,0,3.5,1.6,3.5,3.5V-553.4z"/>
		</g>
	</g>
</g>
<g>
	<path class="st0" d="M135.6,176.8c-0.3-2,0.1-3.7,1.1-5c1.2-1.6,3.2-2.6,6-2.9c6.5-0.8,9.6-4.7,9.6-11.9c0-10.1,0-20.2,0-30.3
		c0-11.5,0-22.9,0-34.4c0-4.6,2.5-7.4,6.5-7.4c0.2,0,0.3,0,0.5,0c3.9,0.2,6.1,2.9,6.2,7.3c0.1,5.9,0.1,11.9,0.1,17.7
		c0,2.5,0,5,0,7.5c0,3,0,6,0,9.1c0,3.3,0,6.6,0,10c0,7.1,0.1,14.4-0.1,21.6c-0.2,13.3-8.1,22.4-21.1,24.3c-0.5,0.1-1.1,0.1-1.6,0.1
		C139,182.4,136.1,180.2,135.6,176.8z"/>
	<path class="st0" d="M220.5,10.7c-1.1-1.7-1.2-3.8-0.3-5.9c1.2-2.8,3.3-4.1,6.4-4.1c2.6,0,5.1,0,7.6,0h12.6c0,0,4.3-0.3,6.4-0.2
		c5.6,0.2,11.4,0.5,16.8,1.7c0.2,0,0.4,0.1,0.6,0.1c17.4,4,29.7,19.8,29.8,38.3c0.1,10.6,0,20.8,0,33.1c0,4.5-2.7,7.7-6.6,7.7l0,0
		c-3.8,0-6.6-3.1-6.6-7.3c-0.1-5.5-0.1-11.1,0-16.5c0-5.1,0-10.3,0-15.4c-0.2-13.8-7.7-23.9-20.1-27.1c-3.1-0.8-6.3-0.9-9.4-1
		c-2.6,0-5.3,0-7.9,0c-1.9,0-9.6,0-11.5,0c-4.4,0-7.8,0-10.9-0.1C224.2,13.9,221.8,12.7,220.5,10.7z"/>
	<path class="st0" d="M300.5,253.2c-0.3,6-0.6,12.1-2,17.9c-3.9,16.7-19.8,29-37.7,29.1c-4.8,0-9.7,0-14.5,0c-4.9,0-9.7,0-14.6,0
		h-4.4c-4.6,0-7.7-2.6-7.8-6.6c0-1.7,0.6-3.2,1.7-4.5c1.4-1.4,3.5-2.3,5.9-2.3c3.2,0,6.5,0,9.7,0c2.1,0,10.7,0,12.8,0c3,0,6,0,9,0
		c14-0.2,24.2-7.8,27.4-20.4c0.8-3.1,0.8-6.3,0.9-9.4c0-4.5,0-9.1,0-13.5c0-5.4,0-11,0.1-16.5c0.1-4.4,2.8-7.7,6.4-7.7
		c0.9,0,1.8,0.2,2.7,0.6c2.8,1.2,4.2,3.2,4.2,6.3v20.2C300.3,246.5,300.6,251,300.5,253.2z"/>
	<path class="st0" d="M80.6,290.1c1.1,1.7,1.2,3.8,0.4,5.9c-1.2,2.8-3.3,4.2-6.4,4.2H54.4c0,0-4.3,0.3-6.4,0.2
		c-5.8-0.3-11.8-0.5-17.3-1.8c-17.5-4-29.8-19.7-29.9-38.3c-0.1-10.6,0-21.4,0-31.8v-1.3c0-4.6,2.6-7.7,6.5-7.8c2,0,3.7,0.8,4.8,2.1
		c1.2,1.3,1.9,3.2,1.9,5.5c0.1,6.1,0.1,12.2,0,18.2c0,4.2,0,8.4,0,12.6c0.1,17.8,11.2,29,29,29.1c1.8,0,3.6,0,5.4,0
		c2.4,0,4.7,0,7.1,0c2.3,0,4.7,0,7.1,0c4.4,0,7.9,0,11.2,0.1C76.8,286.9,79.2,288.1,80.6,290.1z"/>
	<path class="st0" d="M219.6,108.1c-0.2-5.5-0.2-11,0-16.4c0.1-4,2.9-6.8,6.7-6.8s6.5,2.8,6.8,6.9c0.1,1.8,0.1,3.7,0,5.6
		c0,0.9,0,1.7,0,2.6s0,1.7,0,2.6c0,1.8,0.1,3.7,0,5.6c-0.2,4.1-2.9,6.8-6.8,6.8l0,0C222.5,114.9,219.7,112.1,219.6,108.1z"/>
	<path class="st0" d="M81.5,7c0.1,1.7-0.5,3.3-1.7,4.6c-1.4,1.5-3.4,2.3-5.7,2.3c-3.3,0-6.6,0.1-9.9,0.1c-2.1,0-10.6,0-12.7,0
		c-3.1,0-6.3,0-9.4,0C28.3,14.2,18.2,21.7,15,34.2c-0.8,3-0.9,6.1-0.9,9c-0.1,6.3,0,12.6,0,18.8c0,3.3,0,6.7,0,10
		c0,1.4,0,2.8-0.2,4.1c-0.5,3.4-3,5.6-6.5,5.6c-0.2,0-0.4,0-0.5,0c-3.5-0.2-6-2.8-6.1-6.2C0.7,71,0.7,66.4,0.7,62c0-1.9,0-3.9,0-5.8
		v-1.6c0,0-0.3-4.6-0.2-6.8c0.3-6.1,0.6-12.3,2-18.2c3.8-16.4,19.9-28.8,37.4-29c5,0,9.9,0,14.9,0c5.1,0,10.1,0,15.2,0h3.8
		C78.4,0.6,81.3,3.2,81.5,7z"/>
	<path class="st0" d="M85.2,109.2c-0.3-6.2-0.3-12.5,0-18.7c0.2-3.3,2.8-5.7,6.4-5.7c0.1,0,0.2,0,0.3,0c3.6,0.1,6.1,2.8,6.3,6.4
		c0.1,2,0.1,4,0,5.9c0,0.9,0,1.8,0,2.7c0,0.9,0,1.8,0,2.7c0,1.9,0,3.9,0,5.9c-0.1,3.6-2.7,6.3-6.3,6.4c-0.1,0-0.2,0-0.3,0
		C88,114.9,85.3,112.6,85.2,109.2z"/>
	<path class="st0" d="M214.9,213.2c-15.2,20.2-31.4,31.5-51.1,35.3c-3,0.6-6.1,0.9-9.2,1.1c-1.4,0.1-2.8,0.3-4.2,0.4
		c-22.2-0.5-41.3-10.1-58.3-29.5c-1.6-1.8-3.1-3.7-5.1-6.3c-2.8-3.7-2.5-7.7,0.6-10.1c1.2-1,2.6-1.4,3.9-1.4c2.1,0,4.2,1.2,6.1,3.4
		c0.9,1,1.7,2,2.6,3c2.2,2.7,4.6,5.5,7.2,8c12.9,12.6,27.9,19.3,43.5,19.3c16.4,0,32.4-7.6,45.3-21.5c1.6-1.7,3.1-3.5,4.5-5.2
		c1.3-1.6,2.6-3.2,4-4.7s3.2-2.4,5-2.4c1.5,0,3,0.5,4.2,1.6C216.4,206.4,217,210.4,214.9,213.2z"/>
</g>
<g>
	<path class="st0" d="M-391.8-74.2c-0.3,0-0.6,0-1,0c-26.8-0.5-47.2-21.4-47.4-48.5c-0.3-34.5-0.3-69.6,0-107.4
		c0.2-23.6,15.8-42.8,39-47.6c1-0.2,2.1-0.5,3.1-0.7l0.7-0.2h10.7c1,0.2,1.9,0.4,2.9,0.7c2.4,0.5,4.7,1.1,6.8,1.8
		c20.3,7.1,33,24.7,33.1,46c0.2,34.6,0.2,70.9,0,107.7C-344-95.4-365-74.2-391.8-74.2z M-392-268.7c-2.4,0-4.8,0.2-7.2,0.7
		c-18.1,3.8-30.8,19.3-30.9,37.8c-0.1,12.3,0,24.8,0,36.9c0,5.5,0,11.1,0,16.6c0,5.3,0,10.6,0,15.9c0,12.1,0,24.6,0,37
		c0,15.8,7.3,28.1,21.3,35.6c5.1,2.7,10.7,4.1,16.6,4.1c20.6,0,38.1-16.8,38.2-36.6c0.2-33.6,0.2-69.9,0-110.9
		C-354.1-251.8-371.5-268.7-392-268.7z"/>
	<path class="st0" d="M-391.8-74.2c-0.3,0-0.6,0-1,0c-26.8-0.5-47.2-21.4-47.4-48.5c-0.3-34.5-0.3-69.6,0-107.4
		c0.2-23.6,15.8-42.8,39-47.6c1-0.2,2.1-0.5,3.1-0.7l0.7-0.2h10.7c1,0.2,1.9,0.4,2.9,0.7c2.4,0.5,4.7,1.1,6.8,1.8
		c20.3,7.1,33,24.7,33.1,46c0.2,34.6,0.2,70.9,0,107.7C-344-95.4-365-74.2-391.8-74.2z M-392-268.7c-2.4,0-4.8,0.2-7.2,0.7
		c-18.1,3.8-30.8,19.3-30.9,37.8c-0.1,12.3,0,24.8,0,36.9c0,5.5,0,11.1,0,16.6c0,5.3,0,10.6,0,15.9c0,12.1,0,24.6,0,37
		c0,15.8,7.3,28.1,21.3,35.6c5.1,2.7,10.7,4.1,16.6,4.1c20.6,0,38.1-16.8,38.2-36.6c0.2-33.6,0.2-69.9,0-110.9
		C-354.1-251.8-371.5-268.7-392-268.7z"/>
	<path class="st0" d="M-390.8,21.3c-9.7,0-20.2,0-31.9-0.1c-2.1,0-4.1-2.2-4.2-4.6c-0.1-2.6,1.5-4.9,3.7-5.1c3.5-0.3,7-0.3,10.7-0.3
		c1.6,0,3.3,0,4.9,0c0.4,0,0.9,0,1.3,0h2.6h6.4V-28l-4.6-1.4c-2.7-0.8-5.3-1.5-7.9-2.2c-5.5-1.5-10.7-2.9-15.6-4.8
		c-20.6-8.1-36.6-22.5-47.4-43c-7.7-14.6-11-31.5-10.1-51.6c0.1-2.3,2.1-4.2,4.5-4.3h0.2c2.3,0,4.7,1.2,4.9,4
		c0.2,2.4,0.2,4.9,0.3,7.5c0.1,2.4,0.1,4.9,0.3,7.4c1.8,27.3,14.1,48.6,36.5,63.1c13.6,8.8,29,13.5,44.5,13.5
		c23.1,0,44.6-10,60.6-28.2c12.2-13.9,18.8-30.3,19.7-48.9c0.1-2.1,0.1-4.1,0.2-6.1c0.1-2.8,0.1-5.4,0.3-8.1c0.1-2.2,1.8-4,3.9-4.2
		c0.3,0,0.5,0,0.8,0c1.7,0,3.9,0.6,4.8,3.3c0.1,0.4,0.2,0.6,0.2,0.7c1.9,37-11.1,65-39.8,85.6c-10.7,7.7-23.5,12.5-40.2,15.2
		l-5.4,0.9v40.7h6.4c1.8,0,3.5,0,5.3,0c1.7,0,3.4,0,5.2,0c2.5,0,4.5,0,6.5,0c4.6,0.1,5.5,2,6,3.9c0.4,1.4,0.1,3.1-0.9,4.3
		c-0.5,0.6-1.5,1.7-3.2,1.7C-370.7,21.3-380.3,21.3-390.8,21.3z"/>
	<path class="st0" d="M-390.8,21.3c-9.7,0-20.2,0-31.9-0.1c-2.1,0-4.1-2.2-4.2-4.6c-0.1-2.6,1.5-4.9,3.7-5.1c3.5-0.3,7-0.3,10.7-0.3
		c1.6,0,3.3,0,4.9,0c0.4,0,0.9,0,1.3,0h2.6h6.4V-28l-4.6-1.4c-2.7-0.8-5.3-1.5-7.9-2.2c-5.5-1.5-10.7-2.9-15.6-4.8
		c-20.6-8.1-36.6-22.5-47.4-43c-7.7-14.6-11-31.5-10.1-51.6c0.1-2.3,2.1-4.2,4.5-4.3h0.2c2.3,0,4.7,1.2,4.9,4
		c0.2,2.4,0.2,4.9,0.3,7.5c0.1,2.4,0.1,4.9,0.3,7.4c1.8,27.3,14.1,48.6,36.5,63.1c13.6,8.8,29,13.5,44.5,13.5
		c23.1,0,44.6-10,60.6-28.2c12.2-13.9,18.8-30.3,19.7-48.9c0.1-2.1,0.1-4.1,0.2-6.1c0.1-2.8,0.1-5.4,0.3-8.1c0.1-2.2,1.8-4,3.9-4.2
		c0.3,0,0.5,0,0.8,0c1.7,0,3.9,0.6,4.8,3.3c0.1,0.4,0.2,0.6,0.2,0.7c1.9,37-11.1,65-39.8,85.6c-10.7,7.7-23.5,12.5-40.2,15.2
		l-5.4,0.9v40.7h6.4c1.8,0,3.5,0,5.3,0c1.7,0,3.4,0,5.2,0c2.5,0,4.5,0,6.5,0c4.6,0.1,5.5,2,6,3.9c0.4,1.4,0.1,3.1-0.9,4.3
		c-0.5,0.6-1.5,1.7-3.2,1.7C-370.7,21.3-380.3,21.3-390.8,21.3z"/>
</g>
<path class="st0" d="M703.4,21.3l-0.6-0.2c-0.7-0.3-1.5-0.5-2.2-0.7c-11.5-3-19.5-13.1-19.5-24.6c-0.1-47.5-0.1-91.6,0-134.8
	c0-12.3,9.3-23,21.6-24.9c3-0.5,6.1-0.6,9.4-0.6c1.6,0,3.1-0.1,4.7-0.2l2.3-0.1v-5.6c0-3.8,0-7.6,0-11.4c0-8.1,0-16.4,0.1-24.6
	c0.4-30.7,21-58.8,50.1-68.3c3.8-1.2,7.9-2.1,11.9-2.9c1.8-0.4,3.7-0.7,5.5-1.1h12.6l1.3,0.2c1.1,0.2,2.1,0.4,3.2,0.5
	c37,6.1,62.9,36.7,63,74.3c0,7.7,0,15.3,0,23v16.3h2.4c1.2,0,5.6,0,6.6,0c1.2,0,2.4,0,3.6,0c14,0.3,25.4,11.7,25.4,25.4
	c0.1,39,0.1,80.6,0,134.8c0,10.5-6.9,20.1-17.2,23.8c-1.2,0.4-2.4,0.8-3.7,1.2c-0.5,0.1-1,0.3-1.4,0.4H703.4V21.3z M708.7-150.2
	c-8.7,0-13.5,4.7-13.5,13.4c0,43.5,0,86.9,0,130.4c0,8.9,4.7,13.5,13.6,13.5H877c8.9,0,13.6-4.7,13.6-13.5c0-43.4,0-86.7,0-130.1
	c0-9.1-4.6-13.7-13.7-13.7h-132L708.7-150.2z M793.4-264.5c-33.6,0-59.9,26.3-60,60c0,8,0,16,0,24v16h119.1v-2.4
	c0-4.3,0.1-8.7,0.1-13c0.1-9.4,0.2-19.1-0.2-28.6c-1.4-30.1-26.2-54.6-56.4-55.8C795.1-264.5,794.2-264.5,793.4-264.5z"/>
</svg>
