<svg width="146" height="146" viewBox="0 0 146 146" fill="none" xmlns="http://www.w3.org/2000/svg">
<path d="M134.571 100.347C134.571 100.347 127.761 91.8924 121.369 92.368C114.977 92.8318 108.318 99.1815 108.318 99.1815L42.562 98.5156C42.562 98.5156 37.5682 90.7866 29.3783 90.5012C21.1885 90.2039 16.8511 98.3491 16.8511 98.3491L9.27002 86.9934L14.8821 74.7102L134.857 79.9778L137.197 96.0542L134.571 100.347Z" fill="black"/>
<path d="M114.967 108.909C112.285 106.685 110.382 103.118 109.888 98.9679C109.802 98.2544 109.754 97.5291 109.754 96.7919C109.754 94.3186 110.249 91.9999 111.115 89.9666C111.096 90.0022 111.086 90.0379 111.067 90.0736C111.343 91.7026 111.847 93.2246 112.522 94.604C112.408 95.3174 112.351 96.0428 112.351 96.7919C112.351 103.011 116.394 108.064 121.369 108.064C126.125 108.064 130.024 103.451 130.357 97.6123C131.309 96.4946 132.117 95.1866 132.726 93.724C132.697 93.5338 132.659 93.3554 132.621 93.1652C132.859 94.3305 132.983 95.5433 132.983 96.7919C132.983 97.5529 132.935 98.302 132.84 99.0392C132.288 103.486 130.12 107.268 127.104 109.42C125.411 110.633 123.452 111.322 121.359 111.322C119 111.311 116.803 110.419 114.967 108.909Z" fill="#17191C"/>
<path d="M121.368 82.261C126.781 82.261 131.327 86.8984 132.621 93.1649C132.659 93.3551 132.697 93.5335 132.726 93.7237C132.117 95.1863 131.308 96.4943 130.357 97.612C130.376 97.3385 130.386 97.065 130.386 96.7915C130.386 90.5727 126.343 85.5191 121.368 85.5191C116.993 85.5191 113.34 89.4311 112.522 94.6036C111.847 93.2243 111.352 91.7023 111.067 90.0732C111.086 90.0376 111.095 90.0019 111.114 89.9662C113.074 85.3764 116.926 82.261 121.368 82.261Z" fill="#282F39"/>
<path d="M112.542 96.7792C112.542 102.867 116.508 107.826 121.379 107.826C126.249 107.826 130.215 102.867 130.215 96.7792C130.215 90.6911 126.249 85.7327 121.379 85.7327C116.499 85.7446 112.542 90.6911 112.542 96.7792ZM119.134 87.7303L120.228 92.6055C119.705 92.8315 119.238 93.1882 118.858 93.6757L116.033 90.0609C116.898 88.9907 117.954 88.1822 119.134 87.7303ZM121.369 95.2453C122.044 95.2453 122.596 95.935 122.596 96.7792C122.596 97.6235 122.044 98.3131 121.369 98.3131C120.694 98.3131 120.142 97.6235 120.142 96.7792C120.142 95.935 120.694 95.2453 121.369 95.2453ZM123.129 87.5638L122.13 92.4629C121.883 92.3915 121.635 92.3558 121.369 92.3558C121.036 92.3558 120.713 92.4153 120.408 92.5223L119.315 87.659C119.971 87.4331 120.656 87.3023 121.379 87.3023C121.978 87.3141 122.568 87.3974 123.129 87.5638ZM126.772 90.1442L123.88 93.6757C123.452 93.1406 122.91 92.7363 122.311 92.5342L123.31 87.6352C124.641 88.0633 125.83 88.9432 126.772 90.1442ZM128.722 94.4843L124.803 95.7328C124.66 95.0194 124.384 94.3654 124.004 93.8422L126.896 90.3106C127.771 91.464 128.408 92.9028 128.722 94.4843ZM128.646 99.4309L124.755 98.0634C124.85 97.6591 124.908 97.2311 124.908 96.7911C124.908 96.5057 124.889 96.2322 124.841 95.9706L128.76 94.7221C128.884 95.388 128.941 96.0777 128.941 96.7911C128.95 97.7067 128.846 98.5866 128.646 99.4309ZM126.62 103.616L123.795 100.002C124.194 99.526 124.499 98.9433 124.689 98.2894L128.589 99.6568C128.208 101.179 127.523 102.534 126.62 103.616ZM123.414 105.911L122.32 101.048C122.824 100.87 123.281 100.572 123.661 100.156L126.487 103.783C125.621 104.758 124.575 105.495 123.414 105.911ZM119.562 105.983L120.561 101.084C120.817 101.155 121.093 101.203 121.369 101.203C121.635 101.203 121.892 101.167 122.14 101.096L123.233 105.971C122.634 106.161 122.016 106.256 121.369 106.256C120.751 106.256 120.142 106.161 119.562 105.983ZM116.052 103.533L118.944 100.002C119.343 100.477 119.838 100.834 120.38 101.024L119.381 105.923C118.116 105.495 116.975 104.663 116.052 103.533ZM114.083 99.3833L118.002 98.1348C118.164 98.7769 118.449 99.3595 118.82 99.8352L115.928 103.367C115.072 102.261 114.435 100.905 114.083 99.3833ZM114.016 94.52L117.907 95.8874C117.859 96.1728 117.831 96.4701 117.831 96.7792C117.831 97.1716 117.878 97.5521 117.954 97.9088L114.035 99.1574C113.874 98.3964 113.798 97.5997 113.798 96.7792C113.798 96.0063 113.874 95.2453 114.016 94.52ZM114.054 94.294C114.387 92.7363 115.034 91.3451 115.909 90.2155L118.734 93.8422C118.363 94.3535 118.097 94.9837 117.945 95.6734L114.054 94.294Z" fill="#989B9E"/>
<path d="M112.522 94.5919C112.408 95.3053 112.351 96.0307 112.351 96.7798C112.351 102.999 116.394 108.052 121.368 108.052C126.124 108.052 130.024 103.439 130.357 97.6003C130.376 97.3268 130.386 97.0533 130.386 96.7798C130.386 90.5609 126.343 85.5073 121.368 85.5073C117.002 85.5073 113.34 89.4194 112.522 94.5919ZM112.541 96.7798C112.541 90.6917 116.508 85.7332 121.378 85.7332C126.248 85.7332 130.215 90.6917 130.215 96.7798C130.215 102.868 126.248 107.826 121.378 107.826C116.498 107.826 112.541 102.868 112.541 96.7798Z" fill="#545759"/>
<path d="M123.661 100.145L126.486 103.771C125.62 104.758 124.574 105.496 123.413 105.912L122.319 101.048C122.823 100.87 123.271 100.561 123.661 100.145Z" fill="black"/>
<path d="M124.698 98.2778L128.598 99.6453C128.208 101.167 127.523 102.523 126.629 103.605L123.804 99.9901C124.194 99.5264 124.508 98.9318 124.698 98.2778Z" fill="black"/>
<path d="M121.368 101.203C121.635 101.203 121.891 101.167 122.139 101.096L123.233 105.971C122.633 106.161 122.015 106.256 121.368 106.256C120.75 106.256 120.141 106.161 119.561 105.983L120.56 101.084C120.826 101.155 121.092 101.203 121.368 101.203Z" fill="black"/>
<path d="M124.907 96.7797C124.907 96.4943 124.888 96.2208 124.841 95.9592L128.76 94.7107C128.883 95.3766 128.94 96.0662 128.94 96.7797C128.94 97.6953 128.836 98.5871 128.636 99.4195L124.746 98.052C124.85 97.6596 124.907 97.2315 124.907 96.7797Z" fill="black"/>
<path d="M118.819 99.8356L115.927 103.367C115.071 102.261 114.433 100.906 114.082 99.3838L118 98.1353C118.172 98.7892 118.448 99.36 118.819 99.8356Z" fill="black"/>
<path d="M121.368 92.368C121.035 92.368 120.712 92.4275 120.407 92.5345L119.313 87.6712C119.97 87.4453 120.655 87.3145 121.378 87.3145C121.986 87.3145 122.567 87.4096 123.137 87.5761L122.139 92.4751C121.882 92.4037 121.634 92.368 121.368 92.368Z" fill="black"/>
<path d="M124.003 93.8428L126.895 90.3113C127.761 91.4647 128.398 92.9035 128.721 94.485L124.802 95.7335C124.66 95.02 124.384 94.3779 124.003 93.8428Z" fill="black"/>
<path d="M122.31 92.5228L123.309 87.6238C124.64 88.0637 125.839 88.9437 126.771 90.1446L123.88 93.6762C123.451 93.1292 122.909 92.7368 122.31 92.5228Z" fill="black"/>
<path d="M117.829 96.7793C117.829 97.1717 117.877 97.5522 117.953 97.9089L114.034 99.1574C113.872 98.3964 113.796 97.5997 113.796 96.7793C113.796 95.9945 113.872 95.2454 114.015 94.52L117.906 95.8875C117.858 96.1847 117.829 96.482 117.829 96.7793Z" fill="black"/>
<path d="M120.389 101.025L119.39 105.924C118.116 105.496 116.974 104.652 116.061 103.534L118.953 100.002C119.352 100.478 119.837 100.835 120.389 101.025Z" fill="black"/>
<path d="M118.857 93.6642L116.032 90.0494C116.888 88.9911 117.944 88.1826 119.124 87.7307L120.217 92.6059C119.704 92.82 119.238 93.1886 118.857 93.6642Z" fill="black"/>
<path d="M118.733 93.8428C118.362 94.3541 118.096 94.9843 117.944 95.6739L114.053 94.2946C114.386 92.7369 115.033 91.3457 115.908 90.2161L118.733 93.8428Z" fill="black"/>
<path d="M121.369 95.4834C121.949 95.4834 122.415 96.066 122.415 96.7914C122.415 97.5167 121.949 98.0994 121.369 98.0994C120.788 98.0994 120.322 97.5167 120.322 96.7914C120.322 96.066 120.798 95.4834 121.369 95.4834Z" fill="#989B9E"/>
<path d="M120.141 96.7793C120.141 97.6235 120.693 98.3132 121.368 98.3132C122.044 98.3132 122.595 97.6235 122.595 96.7793C122.595 95.935 122.044 95.2454 121.368 95.2454C120.693 95.2454 120.141 95.935 120.141 96.7793ZM120.322 96.7793C120.322 96.0539 120.788 95.4713 121.368 95.4713C121.948 95.4713 122.414 96.0539 122.414 96.7793C122.414 97.5046 121.948 98.0873 121.368 98.0873C120.797 98.0873 120.322 97.5046 120.322 96.7793Z" fill="#545759"/>
<path d="M23.0529 108.909C20.3705 106.685 18.4681 103.118 17.9735 98.9679C17.8879 98.2544 17.8403 97.5291 17.8403 96.7919C17.8403 94.3186 18.335 91.9999 19.2005 89.9666C19.1815 90.0022 19.172 90.0379 19.153 90.0736C19.4288 91.7026 19.933 93.2246 20.6083 94.604C20.4942 95.3174 20.4371 96.0428 20.4371 96.7919C20.4371 103.011 24.4797 108.064 29.4545 108.064C34.2104 108.064 38.1104 103.451 38.4433 97.6123C39.3945 96.4946 40.203 95.1866 40.8118 93.724C40.7832 93.5338 40.7452 93.3554 40.7071 93.1652C40.9449 94.3305 41.0686 95.5433 41.0686 96.7919C41.0686 97.5529 41.021 98.302 40.9259 99.0392C40.3742 103.486 38.2055 107.268 35.1902 109.42C33.4971 110.633 31.5376 111.322 29.4449 111.322C27.0955 111.311 24.8887 110.419 23.0529 108.909Z" fill="#17191C"/>
<path d="M29.4641 82.261C34.8764 82.261 39.4231 86.8984 40.7167 93.1649C40.7548 93.3551 40.7928 93.5335 40.8214 93.7237C40.2126 95.1863 39.4041 96.4943 38.4529 97.612C38.4719 97.3385 38.4814 97.065 38.4814 96.7915C38.4814 90.5727 34.4388 85.5191 29.4641 85.5191C25.0886 85.5191 21.436 89.4311 20.6179 94.6036C19.9426 93.2243 19.448 91.7023 19.1626 90.0732C19.1816 90.0376 19.1911 90.0019 19.2102 89.9662C21.1601 85.3764 25.022 82.261 29.4641 82.261Z" fill="#282F39"/>
<path d="M20.6279 96.7792C20.6279 102.867 24.5944 107.826 29.4646 107.826C34.3347 107.826 38.3012 102.867 38.3012 96.7792C38.3012 90.6911 34.3347 85.7327 29.4646 85.7327C24.5944 85.7446 20.6279 90.6911 20.6279 96.7792ZM27.2292 87.7303L28.3231 92.6055C27.8 92.8315 27.3339 93.1882 26.9534 93.6757L24.1283 90.0609C24.9844 88.9907 26.0402 88.1822 27.2292 87.7303ZM29.4646 95.2453C30.1399 95.2453 30.6916 95.935 30.6916 96.7792C30.6916 97.6235 30.1399 98.3131 29.4646 98.3131C28.7892 98.3131 28.2375 97.6235 28.2375 96.7792C28.2375 95.935 28.7892 95.2453 29.4646 95.2453ZM31.2148 87.5638L30.216 92.4629C29.9687 92.3915 29.7214 92.3558 29.455 92.3558C29.1221 92.3558 28.7987 92.4153 28.4943 92.5223L27.4005 87.6709C28.0568 87.4449 28.7416 87.3141 29.4646 87.3141C30.0638 87.3141 30.6536 87.3974 31.2148 87.5638ZM34.8674 90.1442L31.9757 93.6757C31.5477 93.1406 31.0055 92.7363 30.4062 92.5342L31.405 87.6352C32.7367 88.0633 33.9257 88.9432 34.8674 90.1442ZM36.8173 94.4843L32.8984 95.7328C32.7557 95.0194 32.4799 94.3654 32.0994 93.8422L34.991 90.3106C35.8566 91.464 36.4939 92.9028 36.8173 94.4843ZM36.7412 99.4309L32.8508 98.0634C32.9459 97.6591 33.003 97.2311 33.003 96.7911C33.003 96.5057 32.984 96.2322 32.9364 95.9706L36.8554 94.7221C36.979 95.388 37.0361 96.0777 37.0361 96.7911C37.0361 97.7067 36.9315 98.5866 36.7412 99.4309ZM34.7152 103.616L31.8901 100.002C32.2896 99.526 32.594 98.9433 32.7842 98.2894L36.6842 99.6568C36.3037 101.179 35.6093 102.534 34.7152 103.616ZM31.5096 105.911L30.4158 101.048C30.9199 100.87 31.3765 100.572 31.7569 100.156L34.582 103.783C33.7164 104.758 32.6701 105.495 31.5096 105.911ZM27.6573 105.983L28.656 101.084C28.9129 101.155 29.1887 101.203 29.4646 101.203C29.7309 101.203 29.9877 101.167 30.235 101.096L31.3289 105.971C30.7297 106.161 30.1114 106.256 29.4646 106.256C28.8368 106.256 28.2375 106.161 27.6573 105.983ZM24.1474 103.533L27.039 100.002C27.4385 100.477 27.9331 100.834 28.4753 101.024L27.4766 105.923C26.2019 105.495 25.0605 104.663 24.1474 103.533ZM22.1784 99.3833L26.0973 98.1348C26.259 98.7769 26.5444 99.3595 26.9153 99.8352L24.0237 103.367C23.1676 102.261 22.5208 100.905 22.1784 99.3833ZM22.1023 94.52L25.9927 95.8874C25.9451 96.1728 25.9166 96.4701 25.9166 96.7792C25.9166 97.1716 25.9642 97.5521 26.0402 97.9088L22.1308 99.1693C21.9691 98.4083 21.893 97.6116 21.893 96.7911C21.8835 96.0063 21.9596 95.2453 22.1023 94.52ZM22.1498 94.294C22.4828 92.7363 23.1296 91.3451 24.0047 90.2155L26.8297 93.8422C26.4588 94.3535 26.1924 94.9837 26.0402 95.6734L22.1498 94.294Z" fill="#989B9E"/>
<path d="M20.618 94.5919C20.5038 95.3053 20.4468 96.0307 20.4468 96.7798C20.4468 102.999 24.4894 108.052 29.4641 108.052C34.2201 108.052 38.12 103.439 38.453 97.6003C38.472 97.3268 38.4815 97.0533 38.4815 96.7798C38.4815 90.5609 34.4389 85.5073 29.4641 85.5073C25.0886 85.5073 21.436 89.4194 20.618 94.5919ZM20.6275 96.7798C20.6275 90.6917 24.594 85.7332 29.4641 85.7332C34.3343 85.7332 38.3008 90.6917 38.3008 96.7798C38.3008 102.868 34.3343 107.826 29.4641 107.826C24.594 107.826 20.6275 102.868 20.6275 96.7798Z" fill="#545759"/>
<path d="M31.7562 100.145L34.5813 103.771C33.7157 104.758 32.6694 105.496 31.5089 105.912L30.415 101.048C30.9097 100.87 31.3662 100.561 31.7562 100.145Z" fill="black"/>
<path d="M32.7838 98.2778L36.6837 99.6453C36.2937 101.167 35.6088 102.523 34.7147 103.605L31.8896 99.9901C32.2892 99.5264 32.5935 98.9318 32.7838 98.2778Z" fill="black"/>
<path d="M29.464 101.203C29.7304 101.203 29.9872 101.167 30.2345 101.096L31.3284 105.971C30.7291 106.161 30.1108 106.256 29.464 106.256C28.8457 106.256 28.237 106.161 27.6567 105.983L28.6555 101.084C28.9123 101.155 29.1882 101.203 29.464 101.203Z" fill="black"/>
<path d="M33.002 96.7797C33.002 96.4943 32.983 96.2208 32.9355 95.9592L36.8544 94.7107C36.978 95.3766 37.0351 96.0662 37.0351 96.7797C37.0351 97.6953 36.9305 98.5871 36.7307 99.4195L32.8403 98.052C32.945 97.6596 33.002 97.2315 33.002 96.7797Z" fill="black"/>
<path d="M26.9152 99.8356L24.0235 103.367C23.1675 102.261 22.5302 100.906 22.1782 99.3838L26.0972 98.1353C26.2589 98.7892 26.5442 99.36 26.9152 99.8356Z" fill="black"/>
<path d="M29.4635 92.368C29.1306 92.368 28.8072 92.4275 28.5028 92.5345L27.3994 87.6712C28.0557 87.4453 28.7406 87.3145 29.4635 87.3145C30.0723 87.3145 30.6525 87.4096 31.2232 87.5761L30.2245 92.4751C29.9772 92.4037 29.7203 92.368 29.4635 92.368Z" fill="black"/>
<path d="M32.0991 93.8428L34.9908 90.3113C35.8564 91.4647 36.4937 92.9035 36.8171 94.485L32.8981 95.7335C32.7554 95.02 32.4796 94.3779 32.0991 93.8428Z" fill="black"/>
<path d="M30.396 92.5228L31.3948 87.6238C32.7264 88.0637 33.9249 88.9437 34.8571 90.1446L31.9655 93.6762C31.5469 93.1292 31.0048 92.7368 30.396 92.5228Z" fill="black"/>
<path d="M25.9252 96.7798C25.9252 97.1722 25.9727 97.5527 26.0488 97.9095L22.1299 99.1699C21.9682 98.4089 21.8921 97.6122 21.8921 96.7917C21.8921 96.0069 21.9682 95.2578 22.1109 94.5325L26.0013 95.8999C25.9537 96.1853 25.9252 96.4826 25.9252 96.7798Z" fill="black"/>
<path d="M28.4749 101.025L27.4762 105.924C26.2016 105.496 25.0601 104.652 24.147 103.534L27.0386 100.002C27.4476 100.478 27.9327 100.835 28.4749 101.025Z" fill="black"/>
<path d="M26.953 93.6642L24.1279 90.0494C24.984 88.9911 26.0398 88.1826 27.2193 87.7307L28.3132 92.6059C27.7996 92.82 27.3335 93.1886 26.953 93.6642Z" fill="black"/>
<path d="M26.8298 93.8428C26.4588 94.3541 26.1925 94.9843 26.0403 95.6739L22.1499 94.2946C22.4828 92.7369 23.1296 91.3457 24.0047 90.2161L26.8298 93.8428Z" fill="black"/>
<path d="M29.4643 95.4834C30.0445 95.4834 30.5106 96.066 30.5106 96.7914C30.5106 97.5167 30.0445 98.0994 29.4643 98.0994C28.8841 98.0994 28.418 97.5167 28.418 96.7914C28.418 96.066 28.8841 95.4834 29.4643 95.4834Z" fill="#989B9E"/>
<path d="M28.2368 96.7793C28.2368 97.6235 28.7885 98.3132 29.4639 98.3132C30.1392 98.3132 30.6909 97.6235 30.6909 96.7793C30.6909 95.935 30.1392 95.2454 29.4639 95.2454C28.7885 95.2454 28.2368 95.935 28.2368 96.7793ZM28.4175 96.7793C28.4175 96.0539 28.8836 95.4713 29.4639 95.4713C30.0441 95.4713 30.5102 96.0539 30.5102 96.7793C30.5102 97.5046 30.0441 98.0873 29.4639 98.0873C28.8836 98.0873 28.4175 97.5046 28.4175 96.7793Z" fill="#545759"/>
<path d="M108.328 99.1813L42.5717 98.5154C42.5717 98.5154 42.7049 81.9396 29.8447 80.7743C16.994 79.5852 16.8608 98.337 16.8608 98.337C16.8608 98.337 2.92575 95.9945 1.45139 95.6616C-0.0229665 95.3287 -0.156134 91.1431 0.110201 87.6234C0.386049 84.1037 4.66644 69.5494 4.66644 69.5494C4.66644 69.5494 4.13377 66.0297 4.79961 64.8644C5.46545 63.6872 15.6433 63.3543 15.6433 63.3543C15.6433 63.3543 34.5245 52.4742 46.1767 49.7988C57.8289 47.1234 80.7242 49.2994 87.2875 52.4742C93.8508 55.6609 106.977 64.8644 110.459 66.1962C113.94 67.5399 133.364 70.2153 137.511 73.5566C141.658 76.9098 144.607 81.4283 145.415 86.1133C146.214 90.7983 145.948 98.1706 145.948 98.1706C145.948 98.1706 141.258 100.68 134.562 100.347C134.562 100.347 135.504 81.4283 122.111 80.4295C108.585 79.4069 108.328 99.1813 108.328 99.1813Z" fill="#F7D035"/>
<path d="M108.328 99.1813L42.5717 98.5154C42.5717 98.5154 42.7334 81.0478 29.8447 80.7743C16.1759 80.4652 16.8608 98.337 16.8608 98.337C16.8608 98.337 2.92575 95.9945 1.45139 95.6616C-0.0229665 95.3287 -0.156134 91.1431 0.110201 87.6234C0.386049 84.1037 4.66644 69.5494 4.66644 69.5494C4.66644 69.5494 4.13377 66.0297 4.79961 64.8644C5.46545 63.6872 15.6433 63.3543 15.6433 63.3543C15.6433 63.3543 34.5245 52.4742 46.1767 49.7988C57.8289 47.1234 80.7242 49.2994 87.2875 52.4742C93.8508 55.6609 106.977 64.8644 110.459 66.1962C113.94 67.5399 133.364 70.2153 137.511 73.5566C141.658 76.9098 144.607 81.4283 145.415 86.1133C146.214 90.7983 145.948 98.1706 145.948 98.1706C145.948 98.1706 141.258 100.68 134.562 100.347C134.562 100.347 135.504 81.4283 122.111 80.4295C108.585 79.4069 108.328 99.1813 108.328 99.1813Z" fill="#DDDDDD"/>
<path d="M135.78 82.2727C135.78 82.2727 135.38 78.9195 133.373 76.9099C131.366 74.9004 132.165 73.5567 134.581 74.068C136.988 74.5674 140.612 76.244 142.619 82.4391C142.609 82.4391 139.527 83.105 135.78 82.2727Z" fill="#E8F2F4"/>
<path d="M106.445 68.3726C106.445 68.3726 94.7925 58.6578 83.6825 54.1393C72.563 49.6208 48.8591 52.1297 43.7702 53.4734C38.6813 54.817 30.3773 58.6578 30.111 59.835C29.8447 61.0122 34.5341 65.0194 36.2748 65.5307C38.0154 66.0301 105.113 69.3833 105.113 69.3833C105.113 69.3833 106.587 69.2049 106.445 68.3726Z" fill="black"/>
<path d="M126.401 73.0571L4.66657 69.5494L4.48584 66.3745L122.254 71.2141L126.401 73.0571Z" fill="#E5E5E5"/>
<path d="M74.5795 73.7351C70.6986 73.4854 71.4977 78.0872 74.4464 78.0872C77.3951 78.0872 77.1192 73.9016 74.5795 73.7351Z" fill="#B9B9B9"/>
<path d="M78.9928 75.7091C78.9928 76.4463 76.9857 76.5771 74.8455 76.5771C72.7053 76.5771 70.0229 76.5771 70.0229 75.7091C70.0229 74.8411 72.7053 74.8411 74.446 74.8411C76.1867 74.8411 78.9928 74.9719 78.9928 75.7091Z" fill="#E8F2F4"/>
<path d="M41.9156 72.2252C38.0347 71.9279 38.8051 76.5534 41.7539 76.5772C44.7026 76.601 44.4553 72.4154 41.9156 72.2252Z" fill="#B9B9B9"/>
<path d="M46.3189 74.6269C46.3094 75.3642 44.3024 75.4831 42.1622 75.4593C40.022 75.4474 37.3396 75.4236 37.3491 74.5556C37.3587 73.6876 40.0315 73.7113 41.7722 73.7232C43.5129 73.747 46.3189 73.8897 46.3189 74.6269Z" fill="#E8F2F4"/>
<path d="M42.1533 94.3306L108.585 95.9834C108.338 97.8859 108.319 99.1701 108.319 99.1701L42.5623 98.5042C42.5718 98.5042 42.5814 96.7444 42.1533 94.3306Z" fill="#1481DA"/>
<path d="M16.8608 98.3376C16.8608 98.3376 2.93525 95.9952 1.46089 95.6622C0.347989 95.4125 -0.00395405 92.9987 0.00555793 90.3232C0.528717 91.0248 1.32772 91.7382 2.52623 92.1425C5.07544 93.0106 14.635 94.378 17.1652 94.7347C16.8703 96.8513 16.8608 98.3376 16.8608 98.3376Z" fill="#1481DA"/>
<path d="M145.958 98.171C145.958 98.171 141.268 100.68 134.572 100.347C134.572 100.347 134.724 97.2554 134.02 93.498C135.58 93.2958 137.406 92.9867 139.394 92.4753C145.282 90.9652 145.425 86.1138 145.425 86.1138C146.224 90.8106 145.958 98.171 145.958 98.171Z" fill="#1481DA"/>
<path d="M34.6953 64.7696L39.0898 54.9597C40.7069 54.3414 42.3144 53.7944 43.6841 53.4258L38.9852 65.8754C37.4252 65.7565 36.4741 65.6733 36.2838 65.6139C35.8843 65.4949 35.3136 65.1858 34.6953 64.7696Z" fill="#ADA5B0"/>
<path d="M36.2745 65.8163C36.2365 65.8163 36.1985 65.8044 36.1604 65.7806C36.0463 65.7093 36.0082 65.5309 36.0653 65.3882L40.9449 54.1514C41.002 54.0088 41.1447 53.9612 41.2588 54.0325C41.373 54.1039 41.411 54.2822 41.3539 54.4249L36.4743 65.6617C36.4362 65.7688 36.3602 65.8163 36.2745 65.8163Z" fill="#E5E5E5"/>
<path d="M98.4924 70.3579C98.6922 70.3579 98.9014 70.239 99.0346 70.0249L101.346 66.1723C101.565 65.8037 101.508 65.2805 101.213 64.9951C100.918 64.7216 100.499 64.793 100.271 65.1616L97.9598 69.0142C97.741 69.3828 97.798 69.906 98.0929 70.1914C98.2166 70.3103 98.3593 70.3579 98.4924 70.3579Z" fill="#383D4A"/>
<path d="M96.067 62.4628L96.1621 65.9111C96.1811 66.577 96.5902 67.1002 97.1228 67.1597C98.7399 67.3142 101.888 67.2548 101.888 64.5318C101.888 61.2618 98.7208 61.0359 97.0467 61.1429C96.4855 61.1667 96.048 61.7493 96.067 62.4628Z" fill="#383D4A"/>
<path d="M93.9943 68.8128C87.3549 68.4798 78.5373 68.0161 69.7958 67.5524L68.0171 55.9826C68.0171 55.9826 76.4542 55.4832 82.3421 57.8257C87.4976 59.8709 92.7577 67.053 93.9943 68.8128Z" fill="#273033"/>
<path d="M48.46 57.825C51.6751 55.982 62.3856 56.1484 62.3856 56.1484L62.2619 67.1474C55.6701 66.7907 49.5254 66.4459 44.855 66.1605C44.9596 65.0546 45.5779 59.4779 48.46 57.825Z" fill="#273033"/>
<path d="M68.1501 51.5118C66.847 51.4642 65.5248 51.4524 64.2217 51.4642L64.45 67.3385L70.8135 67.6476L68.1501 51.5118Z" fill="#ADA5B0"/>
<path d="M67.7492 67.8257C67.6351 67.8257 67.5304 67.7187 67.5209 67.5641L65.999 51.785C65.98 51.6304 66.0751 51.4759 66.1988 51.464C66.3319 51.4402 66.4461 51.5591 66.4556 51.7137L67.9775 67.4928C67.9965 67.6474 67.9014 67.8019 67.7778 67.8138C67.7682 67.8257 67.7587 67.8257 67.7492 67.8257Z" fill="white"/>
<path d="M133.364 76.9103C133.212 76.7557 133.079 76.613 132.955 76.4704C134.401 76.2682 135.894 76.2682 137.074 77.2551C137.702 77.7902 138.187 78.5631 138.567 79.3836C139.043 80.3943 139.395 81.5239 139.404 82.6892C138.348 82.6773 137.112 82.5703 135.78 82.2731C135.78 82.2731 135.381 78.9199 133.364 76.9103Z" fill="#FFFDD1"/>
<path d="M103.695 99.2295C103.581 99.2295 103.486 99.1225 103.467 98.9798C103.448 98.8252 103.534 98.6706 103.657 98.6468C103.705 98.635 104.808 98.3852 105.293 96.887C105.797 95.3055 105.75 75.3171 105.626 73.4027C105.503 71.5001 104.399 69.776 104.39 69.7641C104.304 69.6333 104.323 69.4549 104.428 69.3479C104.532 69.2409 104.675 69.2647 104.761 69.3955C104.808 69.4668 105.959 71.2861 106.102 73.3551C106.225 75.1625 106.311 95.3055 105.74 97.101C105.16 98.9084 103.809 99.2057 103.752 99.2176C103.724 99.2295 103.714 99.2295 103.695 99.2295Z" fill="#1481DA"/>
<path d="M68.3642 99.6467C68.3357 99.6467 68.3071 99.6467 68.2881 99.6348C68.1645 99.5753 68.1074 99.4089 68.1454 99.2662C68.155 99.2424 68.7352 97.2091 68.8588 95.5919C68.973 94.2126 69.2869 75.5559 69.1632 70.324C69.1537 69.7175 68.6496 68.8971 68.4498 68.6236C68.3642 68.5047 68.3737 68.3144 68.4689 68.2074C68.564 68.1004 68.7162 68.1123 68.8018 68.2312C68.8303 68.2787 69.6103 69.3727 69.6293 70.3002C69.753 75.544 69.4296 94.2601 69.3249 95.6395C69.1918 97.328 68.6115 99.3732 68.583 99.4564C68.5449 99.5753 68.4593 99.6467 68.3642 99.6467Z" fill="#1481DA"/>
<path d="M48.8023 98.5277C48.7357 98.5277 48.6691 98.4921 48.6216 98.4207C48.4694 98.1948 33.7163 75.5785 33.7163 73.0933C33.7163 70.4179 35.8565 65.7686 35.9516 65.5664C36.0182 65.4237 36.1609 65.3762 36.275 65.4594C36.3892 65.5427 36.4272 65.721 36.3606 65.8637C36.3416 65.9113 34.1919 70.5725 34.1919 73.0933C34.1919 74.8531 44.3507 90.9652 48.9925 98.0521C49.0782 98.1829 49.0591 98.3613 48.964 98.4683C48.9069 98.5039 48.8499 98.5277 48.8023 98.5277Z" fill="#1481DA"/>
<path d="M8.32826 79.5265C8.918 77.4575 7.729 75.2696 5.96929 75.1744L3.09667 75.0317C2.53546 77.0532 1.90767 79.3719 1.375 81.5003L5.76953 81.7025C6.91097 81.7619 7.94778 80.882 8.32826 79.5265Z" fill="#FF6F57"/>
</svg>
