<svg width="147" height="146" viewBox="0 0 147 146" fill="none" xmlns="http://www.w3.org/2000/svg">
<g clip-path="url(#clip0_363_281)">
<path d="M17.5566 93.398L47.8358 96.9018L105.753 98.5L134.858 98.7766L137.549 90.8162L134.858 75.2335L122.947 70.8384H13.5454L17.5566 93.398Z" fill="#162026"/>
<path d="M145.693 81.565C145.693 81.565 145.179 72.6211 142.758 68.5948C142.758 68.5948 141.291 66.72 136.888 65.4598C136.888 65.4598 124.341 61.8331 110.008 60.6037C110.008 60.6037 100.421 52.0593 90.124 44.4677C90.124 44.4677 83.667 40.9332 75.2534 40.9332C75.2534 40.9332 22.4236 39.1505 12.0044 42.0089C11.9065 42.0396 11.8087 42.1011 11.7353 42.2241L11.1973 43.0232C11.0505 43.2383 11.0994 43.5457 11.2951 43.6686L11.7109 43.9145C11.8821 44.0067 11.9065 44.2833 11.7843 44.437C10.7081 45.8508 6.59911 51.6597 4.76475 59.4357C4.66691 59.8045 4.64245 60.1734 4.64245 60.5729V76.8011C4.64245 76.8011 2.34338 77.1084 1.31614 78.8603L0.924805 83.4399C0.924805 83.4399 1.2183 89.1873 3.83533 90.2631C3.83533 90.2631 13.1784 92.7833 17.5564 93.398C17.5564 93.398 18.07 85.4684 19.7821 79.7517C19.7821 79.7517 21.8366 72.8977 30.1524 72.8977C30.1524 72.8977 42.1614 72.7748 43.7022 78.4608C43.7022 78.4608 45.5611 84.7615 46.3193 92.0764L47.8112 96.9019L105.728 98.5001L106.266 93.4903C106.266 93.4903 107.343 80.0897 110.326 77.0162C110.326 77.0162 112.528 74.6189 119.596 74.6189C119.596 74.6189 131.336 74.3423 132.779 80.7966C132.779 80.7966 134.711 87.4969 134.858 97.3014H143.394C143.394 97.3014 144.446 96.1335 144.861 94.9655L144.617 93.7361L145.424 89.802H145.913C145.913 89.802 146.378 89.5254 146.378 88.8185C146.378 88.757 146.378 88.7263 146.378 88.6648L146.525 82.7022C146.549 82.7637 146.207 81.9953 145.693 81.565Z" fill="#EAEAEA"/>
<path d="M145.938 89.8636C145.938 89.8636 146.402 89.587 146.402 88.8801C146.402 88.8186 146.402 88.7879 146.402 88.7264L146.549 82.7638C146.549 82.7638 146.207 81.9954 145.693 81.5651C145.693 81.5651 145.669 81.0119 145.571 80.0899L132.339 79.5366C132.535 79.9362 132.706 80.3665 132.804 80.8275C132.804 80.8275 134.736 87.5278 134.883 97.3323H143.418C143.418 97.3323 144.47 96.1643 144.886 94.9964L144.641 93.767L145.448 89.8329H145.938V89.8636Z" fill="#1481DA"/>
<path d="M19.8066 79.7517C19.8066 79.7517 20.6626 76.9241 23.4753 74.8956L4.66691 74.0964V76.8011C4.66691 76.8011 2.36784 77.1085 1.34059 78.8604L0.924805 83.4399C0.924805 83.4399 1.2183 89.1874 3.83533 90.2631C3.83533 90.2631 13.1784 92.7834 17.5564 93.3981C17.5564 93.3981 18.07 85.4684 19.8066 79.7517Z" fill="#1481DA"/>
<path d="M106.291 93.4902C106.291 93.4902 107.123 83.1325 109.348 78.5529L41.6968 75.6638C42.6751 76.4015 43.4089 77.2928 43.7268 78.4607C43.7268 78.4607 45.5856 84.7614 46.3438 92.0764L47.8358 96.9018L105.753 98.5L106.291 93.4902Z" fill="#1481DA"/>
<path d="M67.769 39.2422C47.5176 36.2916 20.5891 38.689 20.5891 38.689C18.5591 39.2115 17.4829 41.9162 17.4829 41.9162H23.7198L24.3557 40.3487C24.478 40.0413 24.7225 39.8262 25.016 39.7954C34.1879 38.689 56.934 39.6418 60.7495 39.8262C61.0919 39.8262 61.3854 40.1028 61.5322 40.5023L61.8991 41.5166H70.3371C69.0653 39.6725 67.769 39.2422 67.769 39.2422Z" fill="#979EA2"/>
<path opacity="0.2" d="M6.72119 53.4731H101.692C98.3417 50.7377 94.3061 47.5105 90.1482 44.437C90.1482 44.437 83.6912 40.9024 75.2776 40.9024C75.2776 40.9024 22.4478 39.1198 12.0286 41.9781C11.9308 42.0089 11.833 42.0704 11.7596 42.1933L11.197 43.0231C11.0503 43.2383 11.0992 43.5456 11.2949 43.6686L11.7107 43.9145C11.8819 44.0067 11.9063 44.2833 11.784 44.437C11.0258 45.482 8.67785 48.7706 6.72119 53.4731Z" fill="white"/>
<path d="M132.706 93.7976C132.706 102.219 127.276 109.042 120.575 109.042C113.873 109.042 108.443 102.219 108.443 93.7976C108.443 85.3762 113.873 78.553 120.575 78.553C127.276 78.553 132.706 85.3762 132.706 93.7976Z" fill="black"/>
<path d="M120.575 78.553C113.873 78.553 108.443 85.3762 108.443 93.7976C108.443 102.219 113.873 109.042 120.575 109.042C127.276 109.042 132.706 102.219 132.706 93.7976C132.706 85.3762 127.276 78.553 120.575 78.553ZM128.524 103.787C127.496 105.077 126.298 106.092 124.953 106.829C123.559 107.567 122.091 107.936 120.575 107.936C119.058 107.936 117.591 107.567 116.197 106.829C114.851 106.122 113.653 105.108 112.626 103.787C111.598 102.496 110.791 100.99 110.204 99.2992C109.617 97.5473 109.324 95.7032 109.324 93.7976C109.324 91.892 109.617 90.0479 110.204 88.296C110.767 86.6056 111.574 85.0996 112.626 83.8087C113.653 82.5178 114.851 81.5036 116.197 80.7659C117.591 80.0283 119.058 79.6594 120.575 79.6594C122.091 79.6594 123.559 80.0283 124.953 80.7659C126.298 81.4728 127.496 82.4871 128.524 83.8087C129.551 85.0996 130.358 86.6056 130.945 88.296C131.532 90.0479 131.825 91.892 131.825 93.7976C131.825 95.7032 131.532 97.5473 130.945 99.2992C130.358 100.99 129.551 102.496 128.524 103.787Z" fill="black"/>
<path d="M120.575 81.9031C115.365 81.9031 111.109 87.251 111.109 93.7976C111.109 100.344 115.365 105.692 120.575 105.692C125.784 105.692 130.04 100.344 130.04 93.7976C130.04 87.251 125.784 81.9031 120.575 81.9031ZM128.817 93.7976C128.817 95.2114 128.597 96.5637 128.181 97.8239C127.765 99.0533 127.178 100.16 126.42 101.113C125.662 102.065 124.782 102.803 123.803 103.325C122.776 103.879 121.7 104.125 120.599 104.125C119.474 104.125 118.398 103.848 117.395 103.325C116.417 102.803 115.536 102.065 114.778 101.113C114.02 100.16 113.433 99.0533 113.017 97.8239C112.577 96.533 112.381 95.1807 112.381 93.7976C112.381 92.3838 112.601 91.0314 113.017 89.7713C113.433 88.5419 114.02 87.4354 114.778 86.4826C115.536 85.5298 116.417 84.7922 117.395 84.2697C118.422 83.7164 119.499 83.4706 120.599 83.4706C121.724 83.4706 122.8 83.7472 123.803 84.2697C124.782 84.7922 125.662 85.5298 126.42 86.4826C127.178 87.4354 127.765 88.5419 128.181 89.7713C128.597 91.0621 128.817 92.4145 128.817 93.7976Z" fill="black"/>
<path d="M129.013 93.7977C129.013 99.6681 125.221 104.401 120.55 104.401C115.878 104.401 112.112 99.6681 112.136 93.7977C112.136 87.9273 115.927 83.1941 120.599 83.1941C125.246 83.1941 129.013 87.958 129.013 93.7977Z" fill="#D0D2D3"/>
<path d="M128.108 93.7977C128.108 99.0227 124.708 103.264 120.55 103.264C116.392 103.264 113.017 99.0227 113.042 93.7977C113.042 88.5727 116.441 84.3313 120.599 84.3313C124.757 84.3313 128.108 88.5727 128.108 93.7977Z" fill="black"/>
<path d="M128.108 94.8118V92.814H125.417C125.368 92.4144 125.271 92.0149 125.173 91.6153L127.521 89.9249L126.738 88.2037L124.39 89.8941C124.194 89.5868 123.95 89.2794 123.705 89.0336L125.05 86.1137L123.681 85.1302L122.336 88.05C122.042 87.8964 121.724 87.8042 121.382 87.7427V84.3618H119.792V87.7427C119.474 87.8042 119.156 87.9271 118.838 88.05L117.493 85.1302L116.123 86.1137L117.468 89.0336C117.224 89.2794 116.979 89.5868 116.784 89.8941L114.46 88.2037L113.677 89.9249L116.001 91.6153C115.879 91.9841 115.805 92.3837 115.756 92.814H113.066V94.8118H115.756C115.805 95.2113 115.903 95.6109 116.001 96.0104L113.653 97.7009L114.436 99.422L116.784 97.7316C116.979 98.039 117.224 98.3463 117.468 98.5922L116.123 101.512L117.493 102.496L118.838 99.5757C119.132 99.7294 119.45 99.8216 119.792 99.8831V103.264H121.382V99.8831C121.7 99.8216 122.018 99.6986 122.336 99.5757L123.681 102.496L125.05 101.512L123.705 98.5922C123.95 98.3463 124.194 98.039 124.39 97.7316L126.714 99.422L127.496 97.7009L125.173 96.0104C125.295 95.6416 125.368 95.2421 125.417 94.8118H128.108Z" fill="#919396"/>
<path d="M122.874 93.7976C122.874 95.3958 121.846 96.6867 120.574 96.6867C119.303 96.6867 118.275 95.3958 118.275 93.7976C118.275 92.1993 119.303 90.9084 120.574 90.9084C121.846 90.9084 122.874 92.1993 122.874 93.7976Z" fill="black"/>
<path d="M120.574 98.4079C118.569 98.4079 116.93 96.3486 116.93 93.8283C116.93 91.308 118.569 89.2488 120.574 89.2488C122.58 89.2488 124.219 91.308 124.219 93.8283C124.219 96.3486 122.58 98.4079 120.574 98.4079ZM120.574 89.7098C118.789 89.7098 117.322 91.5539 117.322 93.7976C117.322 96.0412 118.789 97.8854 120.574 97.8854C122.36 97.8854 123.827 96.0412 123.827 93.7976C123.827 91.5539 122.36 89.7098 120.574 89.7098Z" fill="#D0D2D3"/>
<path d="M121.895 93.7976C121.895 94.7197 121.284 95.488 120.55 95.488C119.817 95.488 119.205 94.7504 119.205 93.7976C119.205 92.8756 119.817 92.1072 120.55 92.1072C121.284 92.1072 121.92 92.8756 121.895 93.7976Z" fill="#CBCDCE"/>
<path d="M120.575 87.7734C117.933 87.7734 115.781 90.4781 115.781 93.7975C115.781 97.1169 117.933 99.8216 120.575 99.8216C123.216 99.8216 125.368 97.1169 125.368 93.7975C125.368 90.4781 123.216 87.7734 120.575 87.7734ZM124.732 93.7975C124.732 94.5044 124.635 95.1806 124.415 95.826C124.194 96.4407 123.901 97.0247 123.51 97.4857C123.118 97.9775 122.678 98.3463 122.189 98.6229C121.675 98.8996 121.137 99.0225 120.575 99.0225C120.012 99.0225 119.474 98.8688 118.96 98.6229C118.471 98.3463 118.006 97.9775 117.64 97.4857C117.248 96.994 116.955 96.4407 116.735 95.826C116.515 95.1806 116.417 94.5044 116.417 93.7975C116.417 93.0906 116.539 92.4144 116.735 91.769C116.955 91.1543 117.248 90.5703 117.64 90.1093C118.031 89.6175 118.471 89.2487 118.96 88.9721C119.474 88.6955 120.012 88.5726 120.575 88.5726C121.137 88.5726 121.675 88.7262 122.189 88.9721C122.678 89.2487 123.143 89.6175 123.51 90.1093C123.901 90.6011 124.194 91.1543 124.415 91.769C124.635 92.4144 124.732 93.0906 124.732 93.7975Z" fill="#D0D2D3"/>
<path d="M120.599 83.5627C116.099 83.5627 112.43 88.1423 112.406 93.8283C112.406 99.4835 116.05 104.094 120.55 104.094C125.051 104.094 128.719 99.5143 128.744 93.8283C128.744 88.1423 125.1 83.5627 120.599 83.5627ZM120.55 103.11C116.466 103.11 113.164 98.961 113.164 93.8283C113.164 88.6955 116.49 84.5463 120.575 84.5463C124.659 84.5463 127.961 88.6955 127.961 93.8283C127.961 98.9303 124.635 103.11 120.55 103.11Z" fill="#D0D2D3"/>
<path d="M128.108 94.8118V92.814H125.417C125.368 92.4144 125.271 92.0149 125.173 91.6153L127.521 89.9249L126.738 88.2037L124.39 89.8941C124.194 89.5868 123.95 89.2794 123.705 89.0336L125.05 86.1137L123.681 85.1302L122.336 88.05C122.042 87.8964 121.724 87.8042 121.382 87.7427V84.3618H119.792V87.7427C119.474 87.8042 119.156 87.9271 118.838 88.05L117.493 85.1302L116.123 86.1137L117.468 89.0336C117.224 89.2794 116.979 89.5868 116.784 89.8941L114.46 88.2037L113.677 89.9249L116.001 91.6153C115.879 91.9841 115.805 92.3837 115.756 92.814H113.066V94.8118H115.756C115.805 95.2113 115.903 95.6109 116.001 96.0104L113.653 97.7009L114.436 99.422L116.784 97.7316C116.979 98.039 117.224 98.3463 117.468 98.5922L116.123 101.512L117.493 102.496L118.838 99.5757C119.132 99.7294 119.45 99.8216 119.792 99.8831V103.264H121.382V99.8831C121.7 99.8216 122.018 99.6986 122.336 99.5757L123.681 102.496L125.05 101.512L123.705 98.5922C123.95 98.3463 124.194 98.039 124.39 97.7316L126.714 99.422L127.496 97.7009L125.173 96.0104C125.295 95.6416 125.368 95.2421 125.417 94.8118H128.108ZM124.953 96.41L126.934 97.8545L126.542 98.7151L124.561 97.2706L124.268 97.0554L124.048 97.3935C123.852 97.6701 123.632 97.9467 123.412 98.1926L123.143 98.4692L123.314 98.8381L124.463 101.328L123.779 101.819L122.629 99.3298L122.458 98.961L122.14 99.1147C121.871 99.2376 121.577 99.3606 121.284 99.3913L120.941 99.4528V99.8831V102.772H120.159V99.8831V99.4528L119.816 99.3913C119.523 99.3298 119.229 99.2376 118.96 99.1147L118.642 98.961L118.471 99.3298L117.322 101.819L116.637 101.328L117.786 98.8381L117.958 98.4692L117.689 98.1926C117.468 97.9467 117.248 97.7009 117.053 97.3935L116.832 97.0554L116.539 97.2706L114.533 98.7151L114.142 97.8545L116.148 96.41L116.441 96.1948L116.319 95.7953C116.221 95.4572 116.148 95.0884 116.099 94.7196L116.05 94.2893H115.707H113.433V93.3057H115.732H116.074L116.123 92.8754C116.172 92.5066 116.245 92.1378 116.368 91.7997L116.49 91.4002L116.197 91.185L114.215 89.7405L114.607 88.8799L116.588 90.3244L116.881 90.5396L117.102 90.2015C117.297 89.9249 117.517 89.6483 117.737 89.4024L118.006 89.1258L117.835 88.7569L116.686 86.2674L117.371 85.7756L118.52 88.2652L118.691 88.634L119.009 88.4803C119.278 88.3574 119.572 88.2344 119.865 88.2037L120.208 88.1422V87.7119V84.8228H120.99V87.7119V88.1422L121.333 88.2037C121.626 88.2652 121.92 88.3574 122.189 88.4803L122.507 88.634L122.678 88.2652L123.828 85.7756L124.512 86.2674L123.363 88.7569L123.192 89.1258L123.461 89.4024C123.681 89.6483 123.901 89.8941 124.097 90.2015L124.317 90.5396L124.61 90.3244L126.616 88.8799L127.007 89.7405L125.002 91.185L124.708 91.4002L124.83 91.7997C124.928 92.1378 125.002 92.5066 125.05 92.8754L125.099 93.3057H125.442H127.741V94.2893H125.442H125.099L125.05 94.7196C125.002 95.0884 124.928 95.4572 124.806 95.7953L124.684 96.1948L124.953 96.41Z" fill="#D0D2D3"/>
<path d="M44.1913 93.7976C44.1913 102.219 38.7615 109.042 32.06 109.042C25.3584 109.042 19.9287 102.219 19.9287 93.7976C19.9287 85.3762 25.3584 78.553 32.06 78.553C38.7615 78.553 44.1913 85.3762 44.1913 93.7976Z" fill="black"/>
<path d="M32.06 78.553C25.3584 78.553 19.9287 85.3762 19.9287 93.7976C19.9287 102.219 25.3584 109.042 32.06 109.042C38.7615 109.042 44.1913 102.219 44.1913 93.7976C44.1913 85.3762 38.7615 78.553 32.06 78.553ZM40.0089 103.787C38.9817 105.077 37.7832 106.092 36.438 106.829C35.0439 107.567 33.5764 107.936 32.06 107.936C30.5436 107.936 29.0761 107.567 27.682 106.829C26.3368 106.122 25.1383 105.108 24.1111 103.787C23.0838 102.496 22.2767 100.99 21.6897 99.2992C21.1027 97.5473 20.8092 95.7032 20.8092 93.7976C20.8092 91.892 21.1027 90.0479 21.6897 88.296C22.2522 86.6056 23.0594 85.0996 24.1111 83.8087C25.1383 82.5178 26.3368 81.5036 27.682 80.7659C29.0761 80.0283 30.5436 79.6594 32.06 79.6594C33.5764 79.6594 35.0439 80.0283 36.438 80.7659C37.7832 81.4728 38.9817 82.4871 40.0089 83.8087C41.0362 85.0996 41.8433 86.6056 42.4303 88.296C43.0173 90.0479 43.3108 91.892 43.3108 93.7976C43.3108 95.7032 43.0173 97.5473 42.4303 99.2992C41.8433 100.99 41.0362 102.496 40.0089 103.787Z" fill="black"/>
<path d="M32.0601 81.9031C26.8505 81.9031 22.5947 87.251 22.5947 93.7976C22.5947 100.344 26.8505 105.692 32.0601 105.692C37.2697 105.692 41.5254 100.344 41.5254 93.7976C41.5254 87.251 37.2697 81.9031 32.0601 81.9031ZM40.3025 93.7976C40.3025 95.2114 40.0824 96.5637 39.6666 97.8239C39.2508 99.0533 38.6638 100.16 37.9056 101.113C37.1474 102.065 36.2669 102.803 35.2885 103.325C34.2613 103.879 33.1851 104.125 32.0845 104.125C30.9594 104.125 29.8833 103.848 28.8805 103.325C27.9022 102.803 27.0217 102.065 26.2635 101.113C25.5053 100.16 24.9183 99.0533 24.5025 97.8239C24.0622 96.533 23.8666 95.1807 23.8666 93.7976C23.8666 92.3838 24.0867 91.0314 24.5025 89.7713C24.9183 88.5419 25.5053 87.4354 26.2635 86.4826C27.0217 85.5298 27.9022 84.7922 28.8805 84.2697C29.9077 83.7164 30.9839 83.4706 32.0845 83.4706C33.2096 83.4706 34.2858 83.7472 35.2885 84.2697C36.2669 84.7922 37.1474 85.5298 37.9056 86.4826C38.6638 87.4354 39.2508 88.5419 39.6666 89.7713C40.0824 91.0621 40.3025 92.4145 40.3025 93.7976Z" fill="black"/>
<path d="M40.4979 93.7977C40.4979 99.6681 36.7068 104.401 32.0353 104.401C27.3638 104.401 23.5972 99.6681 23.6217 93.7977C23.6217 87.9273 27.4127 83.1941 32.0842 83.1941C36.7313 83.1941 40.4979 87.958 40.4979 93.7977Z" fill="#D0D2D3"/>
<path d="M39.5933 93.7977C39.5933 99.0227 36.1936 103.264 32.0357 103.264C27.8778 103.264 24.5025 99.0227 24.527 93.7977C24.527 88.5727 27.9267 84.3313 32.0846 84.3313C36.2425 84.3313 39.5933 88.5727 39.5933 93.7977Z" fill="black"/>
<path d="M39.5931 94.8118V92.814H36.9027C36.8538 92.4144 36.7559 92.0149 36.6581 91.6153L39.0061 89.9249L38.2234 88.2037L35.8754 89.8941C35.6798 89.5868 35.4352 89.2794 35.1906 89.0336L36.5358 86.1137L35.1661 85.1302L33.8209 88.05C33.5274 87.8964 33.2095 87.8042 32.8671 87.7427V84.3618H31.2773V87.7427C30.9593 87.8042 30.6414 87.9271 30.3234 88.05L28.9782 85.1302L27.6085 86.1137L28.9538 89.0336C28.7092 89.2794 28.4646 89.5868 28.2689 89.8941L25.9454 88.2037L25.1627 89.9249L27.4863 91.6153C27.364 91.9841 27.2906 92.3837 27.2417 92.814H24.5513V94.8118H27.2417C27.2906 95.2113 27.3884 95.6109 27.4863 96.0104L25.1383 97.7009L25.9209 99.422L28.2689 97.7316C28.4646 98.039 28.7092 98.3463 28.9538 98.5922L27.6085 101.512L28.9782 102.496L30.3234 99.5757C30.6169 99.7294 30.9349 99.8216 31.2773 99.8831V103.264H32.8671V99.8831C33.185 99.8216 33.503 99.6986 33.8209 99.5757L35.1661 102.496L36.5358 101.512L35.1906 98.5922C35.4352 98.3463 35.6798 98.039 35.8754 97.7316L38.199 99.422L38.9816 97.7009L36.6581 96.0104C36.7804 95.6416 36.8538 95.2421 36.9027 94.8118H39.5931Z" fill="#919396"/>
<path d="M34.3589 93.7976C34.3589 95.3958 33.3316 96.6867 32.0598 96.6867C30.788 96.6867 29.7607 95.3958 29.7607 93.7976C29.7607 92.1993 30.788 90.9084 32.0598 90.9084C33.3316 90.9084 34.3589 92.1993 34.3589 93.7976Z" fill="black"/>
<path d="M32.0598 98.4079C30.0542 98.4079 28.4155 96.3486 28.4155 93.8283C28.4155 91.308 30.0542 89.2488 32.0598 89.2488C34.0654 89.2488 35.7041 91.308 35.7041 93.8283C35.7041 96.3486 34.0654 98.4079 32.0598 98.4079ZM32.0598 89.7098C30.2499 89.7098 28.8069 91.5539 28.8069 93.7976C28.8069 96.0412 30.2744 97.8854 32.0598 97.8854C33.8453 97.8854 35.3127 96.0412 35.3127 93.7976C35.3127 91.5539 33.8453 89.7098 32.0598 89.7098Z" fill="#D0D2D3"/>
<path d="M33.3808 93.7976C33.3808 94.7197 32.7694 95.488 32.0356 95.488C31.3019 95.488 30.6904 94.7504 30.6904 93.7976C30.6904 92.8756 31.3019 92.1072 32.0356 92.1072C32.7694 92.1072 33.4053 92.8756 33.3808 93.7976Z" fill="#CBCDCE"/>
<path d="M32.0599 87.7734C29.4184 87.7734 27.2661 90.4781 27.2661 93.7975C27.2661 97.1169 29.4184 99.8216 32.0599 99.8216C34.7014 99.8216 36.8537 97.1169 36.8537 93.7975C36.8537 90.4781 34.7014 87.7734 32.0599 87.7734ZM36.2178 93.7975C36.2178 94.5044 36.12 95.1806 35.8999 95.826C35.6797 96.4407 35.3862 97.0247 34.9949 97.4857C34.6036 97.9775 34.1633 98.3463 33.6742 98.6229C33.1605 98.8996 32.6225 99.0225 32.0599 99.0225C31.4974 99.0225 30.9593 98.8688 30.4457 98.6229C29.9565 98.3463 29.4918 97.9775 29.1249 97.4857C28.7336 96.994 28.4401 96.4407 28.22 95.826C27.9999 95.1806 27.902 94.5044 27.902 93.7975C27.902 93.0906 28.0243 92.4144 28.22 91.769C28.4401 91.1543 28.7336 90.5703 29.1249 90.1093C29.5163 89.6175 29.9565 89.2487 30.4457 88.9721C30.9593 88.6955 31.4974 88.5726 32.0599 88.5726C32.6225 88.5726 33.1605 88.7262 33.6742 88.9721C34.1633 89.2487 34.628 89.6175 34.9949 90.1093C35.3862 90.6011 35.6797 91.1543 35.8999 91.769C36.12 92.4144 36.2178 93.0906 36.2178 93.7975Z" fill="#D0D2D3"/>
<path d="M32.0846 83.5627C27.5843 83.5627 23.9156 88.1423 23.8911 93.8283C23.8911 99.4835 27.5354 104.094 32.0357 104.094C36.536 104.094 40.2047 99.5143 40.2292 93.8283C40.2292 88.1423 36.5849 83.5627 32.0846 83.5627ZM32.0357 103.11C27.9512 103.11 24.6493 98.961 24.6493 93.8283C24.6493 88.6955 27.9756 84.5463 32.0602 84.5463C36.1447 84.5463 39.4465 88.6955 39.4465 93.8283C39.4465 98.9303 36.1202 103.11 32.0357 103.11Z" fill="#D0D2D3"/>
<path d="M39.5931 94.8118V92.814H36.9027C36.8538 92.4144 36.7559 92.0149 36.6581 91.6153L39.0061 89.9249L38.2234 88.2037L35.8754 89.8941C35.6798 89.5868 35.4352 89.2794 35.1906 89.0336L36.5358 86.1137L35.1661 85.1302L33.8209 88.05C33.5274 87.8964 33.2095 87.8042 32.8671 87.7427V84.3618H31.2773V87.7427C30.9593 87.8042 30.6414 87.9271 30.3234 88.05L28.9782 85.1302L27.6085 86.1137L28.9538 89.0336C28.7092 89.2794 28.4646 89.5868 28.2689 89.8941L25.9454 88.2037L25.1627 89.9249L27.4863 91.6153C27.364 91.9841 27.2906 92.3837 27.2417 92.814H24.5513V94.8118H27.2417C27.2906 95.2113 27.3884 95.6109 27.4863 96.0104L25.1383 97.7009L25.9209 99.422L28.2689 97.7316C28.4646 98.039 28.7092 98.3463 28.9538 98.5922L27.6085 101.512L28.9782 102.496L30.3234 99.5757C30.6169 99.7294 30.9349 99.8216 31.2773 99.8831V103.264H32.8671V99.8831C33.185 99.8216 33.503 99.6986 33.8209 99.5757L35.1661 102.496L36.5358 101.512L35.1906 98.5922C35.4352 98.3463 35.6798 98.039 35.8754 97.7316L38.199 99.422L38.9816 97.7009L36.6581 96.0104C36.7804 95.6416 36.8538 95.2421 36.9027 94.8118H39.5931ZM36.438 96.41L38.4191 97.8545L38.0278 98.7151L36.0466 97.2706L35.7531 97.0554L35.533 97.3935C35.3373 97.6701 35.1172 97.9467 34.8971 98.1926L34.6281 98.4692L34.7993 98.8381L35.9488 101.328L35.264 101.819L34.1144 99.3298L33.9432 98.961L33.6253 99.1147C33.3562 99.2376 33.0627 99.3606 32.7692 99.3913L32.4268 99.4528V99.8831V102.772H31.6442V99.8831V99.4528L31.3017 99.3913C31.0082 99.3298 30.7147 99.2376 30.4457 99.1147L30.1277 98.961L29.9565 99.3298L28.807 101.819L28.1222 101.328L29.2717 98.8381L29.4429 98.4692L29.1739 98.1926C28.9538 97.9467 28.7336 97.7009 28.538 97.3935L28.3178 97.0554L28.0243 97.2706L26.0188 98.7151L25.6274 97.8545L27.633 96.41L27.9265 96.1948L27.8042 95.7953C27.7064 95.4572 27.633 95.0884 27.5841 94.7196L27.5352 94.2893H27.1928H24.8937V93.3057H27.1928H27.5352L27.5841 92.8754C27.633 92.5066 27.7064 92.1378 27.8287 91.7997L27.951 91.4002L27.6575 91.185L25.6763 89.7405L26.0677 88.8799L28.0488 90.3244L28.3423 90.5396L28.5624 90.2015C28.7581 89.9249 28.9782 89.6483 29.1983 89.4024L29.4674 89.1258L29.2962 88.7877L28.1466 86.2981L28.8315 85.8064L29.981 88.2959L30.1522 88.6647L30.4702 88.5111C30.7392 88.3881 31.0327 88.2652 31.3262 88.2344L31.6686 88.173V87.7427V84.8536H32.4513V87.7427V88.173L32.7937 88.2344C33.0872 88.2959 33.3807 88.3881 33.6497 88.5111L33.9677 88.6647L34.1389 88.2959L35.2884 85.8064L35.9733 86.2981L34.8237 88.7877L34.6525 89.1565L34.9216 89.4331C35.1417 89.679 35.3618 89.9249 35.5575 90.2322L35.7776 90.5703L36.0711 90.3552L38.0767 88.9106L38.468 89.7712L36.4624 91.2157L36.1689 91.4309L36.2912 91.8304C36.3891 92.1685 36.4624 92.5374 36.5113 92.9062L36.5603 93.3365H36.9027H39.2017V94.32H36.8782H36.5358L36.4869 94.7503C36.438 95.1191 36.3646 95.4879 36.2423 95.826L36.12 96.2256L36.438 96.41Z" fill="#D0D2D3"/>
<path d="M8.99609 60.2041C8.99609 60.2041 12.7137 48.033 16.3825 43.3305C16.3825 43.3305 35.0196 42.8081 40.4249 42.7466C40.4249 42.7466 41.9169 43.2076 40.9141 45.2976L34.6772 58.2986C34.6772 58.2986 33.6744 60.2041 31.9624 60.2041C30.2748 60.2041 8.99609 60.2041 8.99609 60.2041Z" fill="black"/>
<path d="M43.6045 54.9484C43.8246 53.9956 44.1426 53.0736 44.4361 52.1823C45.0964 50.0615 45.8302 47.9408 46.7107 45.943C46.8574 45.6357 46.9797 45.3283 47.1509 45.021C47.2243 44.8673 47.5423 44.437 47.5423 44.2833C47.5423 44.2833 48.1782 42.7466 49.7924 42.7466C49.7924 42.7466 71.5847 43.0539 82.0528 44.6214C82.0528 44.6214 86.8955 45.6357 89.9039 48.8629L98.8556 58.1449C98.8556 58.1449 101.668 63.1547 97.0946 64.046C92.5209 64.9681 47.5912 61.956 47.5912 61.956C47.5912 61.956 46.246 61.7716 45.3899 60.6037C44.8274 59.8353 43.9714 58.9747 43.6045 58.0527C43.5311 57.8683 43.4822 57.6531 43.4577 57.438C43.3354 56.5774 43.4088 55.7475 43.6045 54.9484Z" fill="black"/>
<path d="M90.2218 44.4985L89.4391 44.8366C89.219 44.9288 89.1701 45.3284 89.3902 45.4821C91.3958 47.0496 98.9289 53.1044 106.364 60.3579C106.658 60.6345 107.025 60.7882 107.391 60.7574L110.082 60.573C110.033 60.573 100.494 52.0594 90.2218 44.4985Z" fill="#312935"/>
<path opacity="0.4" d="M103.38 61.3106L103.136 60.2964C102.891 59.3436 102.426 58.5137 101.79 57.899L89.7081 46.4348C89.7081 46.4348 85.966 43.1462 78.9954 42.2856L46.0501 41.3635C46.0501 41.3635 41.1096 51.9979 39.7399 61.1877C39.7399 61.1877 39.104 68.5949 38.835 74.1886C41.134 74.9878 43.1396 76.3094 43.7266 78.4301C43.7266 78.4301 45.5854 84.7308 46.3436 92.0458L47.2241 94.9041H102.084L103.38 89.1874C103.38 89.2489 106.095 73.912 103.38 61.3106ZM103.111 89.1567L101.888 94.5968H47.4198L46.6127 91.9843C45.8545 84.7923 44.0446 78.5223 43.9956 78.3379C43.482 76.4323 41.8433 74.9878 39.1285 73.9735C39.3975 68.5949 39.9845 61.618 40.0334 61.2799C41.2808 52.8892 45.5854 43.1462 46.2213 41.7323L78.9954 42.6237C85.6969 43.4535 89.439 46.5885 89.5613 46.7114L101.693 58.2064C102.255 58.7289 102.671 59.4665 102.867 60.2964L103.136 61.4028C104.53 67.8572 104.456 75.0492 104.138 79.9669C103.796 85.1611 103.136 88.9415 103.111 89.1567Z" fill="#FCFCFC"/>
<path d="M106.829 65.5212C106.829 65.5212 106.609 68.0107 107.147 68.8406L113.09 68.8713C113.09 68.8713 114.558 67.7341 114.655 66.1974C114.655 66.1974 114.582 65.6441 113.824 65.6441L107.465 65.1831C107.465 65.1831 106.853 65.2753 106.829 65.5212Z" fill="#1F1916"/>
<path d="M8.99613 60.2041H4.64256C4.64256 60.2041 3.71315 68.1952 4.64256 76.8011H8.50696C8.53142 76.8011 8.36022 63.8923 8.99613 60.2041Z" fill="#FF0000"/>
<path opacity="0.2" d="M133.708 84.9767H146.5L146.549 82.7638C146.549 82.7638 146.207 81.9954 145.693 81.5651C145.693 81.5651 145.693 81.5344 145.693 81.4729H132.975C133.146 82.1491 133.415 83.3477 133.708 84.9767Z" fill="white"/>
<path d="M141.755 89.8635C141.56 89.8635 141.364 90.0479 141.34 90.2938L141.022 92.4145C140.973 92.7219 141.144 93.0292 141.388 93.0907L144.617 93.7976L145.424 89.8635H141.755Z" fill="#949494"/>
<path d="M145.693 81.4727C145.644 80.5814 145.106 73.3894 143.174 69.3631C142.611 69.2094 141.731 69.0865 141.364 68.9943C141.021 68.9328 140.728 69.3016 140.777 69.7319C141.804 76.7088 141.731 81.4727 141.731 81.4727H145.693Z" fill="#FFF200"/>
<path d="M143.516 81.4727C143.296 76.4014 141.877 70.5003 141.511 69.025C141.462 69.025 141.413 68.9943 141.388 68.9943C141.046 68.9328 140.752 69.3016 140.801 69.7319C141.828 76.7088 141.755 81.4727 141.755 81.4727H143.516Z" fill="#FFFAA5"/>
<path opacity="0.5" d="M145.4 81.1333H144.642H142C142 79.9039 141.902 75.5395 141.046 69.6691C141.022 69.5462 141.071 69.4539 141.095 69.4232C141.144 69.3617 141.193 69.331 141.266 69.331C141.291 69.331 141.291 69.331 141.315 69.331C141.756 69.4232 142.563 69.5462 143.003 69.6691L143.345 69.7613C143.296 69.6384 143.223 69.4847 143.174 69.3617C142.612 69.2081 141.731 69.0851 141.364 68.9929C141.34 68.9929 141.315 68.9929 141.291 68.9929C140.973 68.9929 140.728 69.3617 140.802 69.7306C141.829 76.7074 141.756 81.4714 141.756 81.4714H145.718C145.718 81.4099 145.693 81.287 145.693 81.1333H145.4Z" fill="#FFF200"/>
<path d="M143.565 98.1314L143.418 97.363H134.882L134.858 98.7769H143.149C143.418 98.7769 143.614 98.4695 143.565 98.1314Z" fill="#404041"/>
<path opacity="0.4" d="M8.99623 60.2041H7.7244H4.64267L4.59375 60.7573C4.59375 60.7573 6.01233 60.7573 6.77053 60.7573C7.52874 60.7573 7.50428 62.2941 7.50428 62.2941C7.13741 67.3347 7.2597 76.8011 7.2597 76.8011H8.53152C8.53152 76.8011 8.36032 63.8923 8.99623 60.2041Z" fill="#909596"/>
<path opacity="0.3" d="M18.4367 85.9601L1.02246 84.4233C1.24258 86.1138 1.90296 89.4639 3.83516 90.263C3.83516 90.263 13.1782 92.7833 17.5562 93.398C17.5562 93.398 17.7763 89.9557 18.4367 85.9601Z" fill="#909596"/>
<path opacity="0.2" d="M134.785 81.4729H135.519C135.396 80.3357 135.176 78.9526 134.809 77.4773C133.562 72.529 128.817 70.0394 124.977 68.9329C120.917 67.7343 116.466 67.888 112.552 69.7321C107.612 72.0372 104.75 78.3072 104.921 84.6079C105.166 83.0096 105.655 81.5958 106.095 80.0283C106.536 78.5223 107.196 77.3236 108.101 76.1557C109.642 74.1579 111.794 72.9593 113.946 72.3753C116.392 71.7298 118.911 71.484 121.406 71.6991C124.904 71.9757 128.744 73.0822 131.605 75.6639C132.902 76.8319 133.953 78.3686 134.442 80.2127L134.785 81.4729Z" fill="white"/>
<g opacity="0.4">
<path d="M40.4249 42.7466C34.9952 42.8388 16.3825 43.3305 16.3825 43.3305C12.7137 48.033 8.99609 60.2041 8.99609 60.2041C8.99609 60.2041 30.2747 60.2041 31.9868 60.2041C33.6989 60.2041 34.7017 58.2986 34.7017 58.2986L40.9385 45.2976C41.9169 43.2076 40.4249 42.7466 40.4249 42.7466ZM40.4983 44.9902L34.2614 57.9605C34.1881 58.0834 33.332 59.5894 31.9624 59.5894H9.70538C10.6103 56.8233 13.6187 47.9101 16.5781 43.976C18.6082 43.9145 35.1909 43.4842 40.3515 43.392C40.4494 43.4228 40.6695 43.5457 40.7429 43.7916C40.8162 44.0375 40.7429 44.4677 40.4983 44.9902Z" fill="#909596"/>
<path d="M98.8309 58.1449L89.8792 48.8629C86.8464 45.6664 82.0281 44.6214 82.0281 44.6214C71.56 43.0539 49.7677 42.7466 49.7677 42.7466C48.1535 42.7466 47.5176 44.2833 47.5176 44.2833C47.5176 44.437 47.1996 44.8673 47.1262 45.021C46.9795 45.3283 46.8328 45.6357 46.686 45.943C45.8055 47.9408 45.0962 50.0615 44.4114 52.1823C44.1179 53.0736 43.7999 53.9956 43.5798 54.9484C43.4086 55.7475 43.3108 56.5774 43.4331 57.4072C43.4575 57.6224 43.5064 57.8375 43.5798 58.0219C43.9467 58.944 44.8027 59.8046 45.3653 60.573C46.2213 61.7716 47.5665 61.9253 47.5665 61.9253C47.5665 61.9253 81.4901 64.1997 93.3768 64.1997C95.1622 64.1997 96.4585 64.1382 97.0699 64.0153C101.644 63.124 98.8309 58.1449 98.8309 58.1449ZM99.0755 61.956C98.8309 62.7244 98.1216 63.2162 96.9966 63.4313C96.4585 63.5543 95.2356 63.585 93.3768 63.585C81.7346 63.585 48.4715 61.3721 47.591 61.3106C47.4931 61.2799 46.3925 61.0955 45.7077 60.1427C45.5365 59.8968 45.3408 59.6509 45.1207 59.405C44.6804 58.8518 44.2157 58.2986 43.9956 57.7453C43.9467 57.6224 43.9222 57.4994 43.8978 57.2843C43.7999 56.6389 43.8488 55.932 44.0445 55.1021C44.1913 54.4259 44.4114 53.7498 44.6315 53.0736C44.7049 52.8584 44.7783 52.6126 44.8516 52.3974C45.4876 50.3996 46.1968 48.2482 47.1018 46.2197C47.2485 45.8816 47.3953 45.5742 47.5176 45.3283C47.542 45.2976 47.5665 45.2361 47.6154 45.1747C47.7866 44.898 47.9089 44.6829 47.9823 44.4677C48.1046 44.2219 48.6427 43.3305 49.7677 43.3305C50.1346 43.3305 71.6578 43.6379 81.9548 45.2054C82.1993 45.2669 86.7486 46.3119 89.5613 49.2932L98.4396 58.5137C98.8065 59.1899 99.4668 60.8188 99.0755 61.956Z" fill="#909596"/>
</g>
<path opacity="0.2" d="M76.2316 67.9186C76.1826 69.271 74.9842 70.2852 73.5656 70.2238C72.147 70.1316 71.022 68.9944 71.0709 67.642C71.1198 66.2897 72.3182 65.2754 73.7368 65.3369C75.1554 65.3984 76.2805 66.5663 76.2316 67.9186Z" fill="#404041"/>
<path d="M77.0631 66.9965L70.1659 66.5969C69.9213 66.5969 69.7257 66.8121 69.7012 67.1194L69.6768 67.8263C69.6768 68.1337 69.848 68.3796 70.0925 68.4103L76.9898 68.8099C77.2343 68.8099 77.43 68.5947 77.4545 68.2874L77.4789 67.5804C77.5034 67.2424 77.3077 66.9965 77.0631 66.9965Z" fill="#D0D2D3"/>
<path opacity="0.2" d="M69.7012 67.5498V67.8572C69.7012 68.1645 69.8724 68.4104 70.117 68.4411L77.0142 68.8407C77.2588 68.8407 77.4544 68.6255 77.4789 68.3182V68.0108L69.7012 67.5498Z" fill="#404041"/>
<path opacity="0.2" d="M71.2726 66.6636L71.1016 66.6541L71.0376 68.4656L71.2086 68.4752L71.2726 66.6636Z" fill="#404041"/>
<path d="M70.8018 67.5499C70.8018 67.7958 70.6306 67.9802 70.4349 67.9802C70.2392 67.9802 70.0925 67.765 70.1169 67.5192C70.1169 67.2733 70.2881 67.0889 70.4838 67.0889C70.655 67.1196 70.8262 67.3347 70.8018 67.5499Z" fill="#404041"/>
<path opacity="0.2" d="M49.9391 66.4433C49.8902 67.7956 48.6917 68.8099 47.2731 68.7484C45.8546 68.6562 44.7295 67.519 44.7784 66.1667C44.8273 64.8143 46.0258 63.8001 47.4443 63.8615C48.8629 63.923 49.988 65.0909 49.9391 66.4433Z" fill="#404041"/>
<path d="M50.7707 65.5211L43.8734 65.1216C43.6289 65.1216 43.4332 65.3367 43.4087 65.6441L43.3843 66.351C43.3843 66.6583 43.5555 66.9042 43.8001 66.935L50.6973 67.3345C50.9419 67.3345 51.1375 67.1194 51.162 66.812L51.1864 66.1051C51.2109 65.767 51.0152 65.5211 50.7707 65.5211Z" fill="#D0D2D3"/>
<path opacity="0.2" d="M43.4087 66.0745V66.3818C43.4087 66.6892 43.5799 66.935 43.8245 66.9658L50.7217 67.3653C50.9663 67.3653 51.1619 67.1502 51.1864 66.8428V66.5355L43.4087 66.0745Z" fill="#404041"/>
<path opacity="0.2" d="M44.983 65.1894L44.812 65.1797L44.7468 66.9912L44.9179 67.001L44.983 65.1894Z" fill="#404041"/>
<path d="M44.5096 66.0746C44.5096 66.3204 44.3384 66.5048 44.1427 66.5048C43.947 66.5048 43.8003 66.2897 43.8003 66.0438C43.8003 65.7979 43.9715 65.6135 44.1672 65.6135C44.3873 65.6443 44.534 65.8594 44.5096 66.0746Z" fill="#404041"/>
<path opacity="0.2" d="M1.31592 78.8603C8.48218 77.8153 17.0426 77.9075 20.589 78.0304C20.8091 77.6616 21.1026 77.2313 21.445 76.801H4.64224C4.64224 76.801 2.34316 77.1084 1.31592 78.8603Z" fill="white"/>
<path opacity="0.2" d="M46.5394 76.5244C45.292 71.5761 40.5472 69.0865 36.7072 67.9801C32.6471 66.7814 28.1957 66.9351 24.2824 68.7792C21.1762 70.2237 18.9016 73.2358 17.6787 76.8318H18.7793C19.0973 76.2786 19.4397 75.7561 19.831 75.2336C21.3719 73.2358 23.5242 72.0371 25.6765 71.4531C28.1224 70.8077 30.6416 70.5618 33.1363 70.777C36.6338 71.0536 40.4738 72.16 43.3354 74.7418C44.6317 75.9097 45.6834 77.4465 46.1725 79.2906L47.371 84.0853C47.3955 84.0545 47.6156 80.8274 46.5394 76.5244Z" fill="white"/>
<path opacity="0.3" d="M47.8354 96.9019L105.753 98.5001L105.948 96.6867L47.5664 96.072L47.8354 96.9019Z" fill="#909596"/>
<path d="M102.769 74.2502L69.041 73.2974C68.7719 73.2974 68.5273 73.574 68.5273 73.9121V74.0965C68.5273 74.4346 68.7475 74.7419 69.0165 74.7419L102.744 75.6947C103.013 75.6947 103.258 75.4181 103.258 75.08V74.8956C103.258 74.5268 103.038 74.2502 102.769 74.2502Z" fill="white"/>
<path d="M65.7882 73.2051L48.1293 72.7134C47.8603 72.7134 47.6157 72.99 47.6157 73.3281V73.5125C47.6157 73.8506 47.8358 74.1579 48.1049 74.1579L65.7637 74.6497C66.0328 74.6497 66.2774 74.3731 66.2774 74.035V73.8506C66.3018 73.5125 66.0817 73.2051 65.7882 73.2051Z" fill="white"/>
<path d="M95.8959 59.989L94.8687 61.9253L95.26 64.5071C95.3089 64.8144 95.5046 64.9988 95.7492 64.9988H98.0238C98.0238 64.9988 99.5646 63.4006 99.5891 61.8946C99.6135 60.45 95.8959 59.989 95.8959 59.989Z" fill="#162026"/>
<path d="M92.2761 60.9418L91.9092 56.3623C91.9092 56.3623 91.9092 55.6246 92.9609 55.4709C92.9609 55.4709 95.3333 55.5017 96.2383 56.7618C96.2383 56.7618 97.5346 59.0055 98.0482 61.7409C98.0482 61.7409 97.8525 62.9396 97.1922 62.9703C97.1922 62.9703 94.7953 63.0933 93.6457 62.5708C93.6457 62.6015 92.3494 61.8639 92.2761 60.9418Z" fill="#A0A0A0"/>
<path opacity="0.2" d="M92.9609 55.4709C92.8631 55.4709 92.7653 55.5017 92.6919 55.5324C93.4501 56.4545 95.6024 59.3436 96.434 63.0011C96.8987 63.0011 97.1922 63.0011 97.1922 63.0011C97.8526 62.9703 98.0482 61.7716 98.0482 61.7716C97.5346 59.0362 96.2383 56.7926 96.2383 56.7926C95.3334 55.5017 92.9609 55.4709 92.9609 55.4709Z" fill="white"/>
<path opacity="0.3" d="M143.174 69.3632C142.611 69.2095 141.731 69.0866 141.364 68.9944C141.144 68.9329 140.948 69.0866 140.85 69.3017C141.78 70.4389 143.541 72.9285 145.204 76.924C144.812 74.4652 144.201 71.4839 143.174 69.3632Z" fill="white"/>
<path opacity="0.2" d="M142.782 68.5949C142.782 68.5949 141.315 66.7201 136.912 65.4599C136.912 65.4599 124.365 61.8332 110.033 60.6038C110.033 60.6038 111.647 63.4621 115.952 64.2305C119.767 64.9067 133.537 66.4434 143.002 69.0559C142.929 68.8715 142.856 68.7178 142.782 68.5949Z" fill="white"/>
<path d="M4.39768 73.7277H5.54722C5.93855 73.7277 6.23205 73.3281 6.23205 72.8671V71.9451C6.23205 71.4533 5.91409 71.0845 5.54722 71.0845H4.27539C4.29985 71.9451 4.32431 72.8364 4.39768 73.7277Z" fill="#EBE7C7"/>
<path d="M4.27539 65.798H5.52276C5.91409 65.798 6.20759 65.3985 6.20759 64.9374V64.0154C6.20759 63.5236 5.88963 63.1548 5.52276 63.1548H4.39768C4.34877 63.8924 4.32431 64.7837 4.27539 65.798Z" fill="#EBE7C7"/>
<path d="M66.2281 43.2998C65.6411 47.6027 65.103 57.6838 64.834 63.0318C66.8151 63.1547 68.8696 63.2469 70.9241 63.3698C70.4349 55.7168 71.1687 46.4041 71.4377 43.6072C69.7256 43.4842 67.9646 43.3613 66.2281 43.2998Z" fill="#1F1916"/>
<path opacity="0.4" d="M68.9433 42.3777L68.6987 42.3469C68.6742 42.6235 66.2284 70.6233 68.0383 94.6274L68.2829 94.5967C66.4485 70.6232 68.9188 42.6543 68.9433 42.3777Z" fill="#909596"/>
</g>
<defs>
<clipPath id="clip0_363_281">
<rect width="145.624" height="71.3055" fill="white" transform="translate(0.924805 37.7676)"/>
</clipPath>
</defs>
</svg>
