<svg width="148" height="38" viewBox="0 0 148 38" fill="none" xmlns="http://www.w3.org/2000/svg">
<path d="M147.5 19C147.5 21.344 145.64 23.7134 141.925 25.9682C138.241 28.205 132.875 30.2372 126.202 31.9507C112.861 35.3759 94.4052 37.5 74 37.5C53.5948 37.5 35.1386 35.3759 21.7984 31.9507C15.1246 30.2372 9.75945 28.205 6.07474 25.9682C2.36022 23.7134 0.5 21.344 0.5 19C0.5 16.656 2.36022 14.2866 6.07474 12.0318C9.75945 9.79498 15.1246 7.76282 21.7984 6.04926C35.1386 2.62409 53.5948 0.5 74 0.5C94.4052 0.5 112.861 2.62409 126.202 6.04926C132.875 7.76282 138.241 9.79498 141.925 12.0318C145.64 14.2866 147.5 16.656 147.5 19Z" fill="white" stroke="#8DD3FF"/>
<ellipse cx="74.5" cy="19" rx="70.5" ry="17" fill="#ACDFFF"/>
</svg>
