<svg width="50" height="45" viewBox="0 0 50 45" fill="none" xmlns="http://www.w3.org/2000/svg">
<g clip-path="url(#clip0_371_16)">
<path d="M8.95361 39.0199H40.7547V34.4038H9.15431L8.95361 39.0199Z" fill="#273033"/>
<path d="M3.17236 41.7647C3.17236 43.4609 4.54489 44.8334 6.24112 44.8334C7.93735 44.8334 9.30988 43.4609 9.30988 41.7647V36.2422H3.17236V41.7647Z" fill="#383D4A"/>
<path d="M40.5928 41.7647C40.5928 43.4609 41.9653 44.8334 43.6615 44.8334C45.3578 44.8334 46.7303 43.4609 46.7303 41.7647V36.2422H40.5928V41.7647Z" fill="#383D4A"/>
<path d="M44.0955 16.5869C44.0955 16.5869 40.198 7.45836 38.6377 5.89808C37.2005 4.46082 28.8488 4.4414 24.8542 4.44787C20.8532 4.4414 12.508 4.46082 11.0707 5.89808C9.51046 7.45836 5.61301 16.5869 5.61301 16.5869C5.61301 16.5869 1.94216 23.0482 1.6055 25.2753C1.26885 27.5024 1.82563 33.6787 2.05222 35.4591C2.27234 37.2395 3.05572 37.6863 3.83262 37.9064C4.60952 38.1265 8.28685 38.1265 8.95369 37.7963C9.62052 37.4597 12.8511 35.4591 14.9682 35.1225C17.0852 34.7858 24.7636 34.7858 24.7636 34.7858L24.8542 32.099L24.9449 34.7858C24.9449 34.7858 32.6297 34.7858 34.7403 35.1225C36.8573 35.4591 40.088 37.4597 40.7548 37.7963C41.4216 38.133 45.099 38.133 45.8759 37.9064C46.6528 37.6863 47.4361 37.2395 47.6563 35.4591C47.8764 33.6787 48.4332 27.5024 48.103 25.2753C47.7728 23.0482 44.0955 16.5869 44.0955 16.5869Z" fill="#0A95E5"/>
<path d="M4.68062 13.803C4.12384 13.4663 -0.110268 14.0231 0.00626701 15.81C0.116328 17.5904 6.35095 17.2602 6.35095 17.2602L6.57107 16.1466L5.12086 16.2567C5.12086 16.2567 5.2374 14.1396 4.68062 13.803Z" fill="#273033"/>
<path d="M45.9857 28.1238C44.652 29.2179 37.4139 29.8265 37.4139 29.8265H24.99H24.7181H12.2941C12.2941 29.8265 5.05602 29.2179 3.72234 28.1238C2.38866 27.0297 3.0555 24.7119 3.0555 24.7119L1.51465 28.8101C1.57292 32.3514 1.89662 35.09 2.052 36.4625C2.27213 38.4113 3.0555 38.8968 3.8324 39.1428C4.6093 39.3889 8.28663 39.3889 8.95347 39.0198C9.62031 38.6573 12.8509 36.4625 14.968 36.1C17.085 35.7374 24.7634 35.7374 24.7634 35.7374H24.9382C24.9382 35.7374 32.623 35.7374 34.7336 36.1C36.8507 36.4625 40.0813 38.6573 40.7481 39.0198C41.4149 39.3824 45.0923 39.3824 45.8692 39.1428C46.6461 38.8968 47.4294 38.4113 47.6496 36.4625C47.8049 35.09 48.1287 32.3514 48.1869 28.8101L46.6461 24.7184C46.659 24.7184 47.3259 27.0297 45.9857 28.1238Z" fill="#D7DDD9"/>
<path d="M35.1869 26.272H25.5468H24.1678H14.5213C14.5213 26.272 12.6309 28.0783 12.6309 29.5738C12.6309 31.0305 15.0781 31.7944 15.6349 34.0539C15.9651 35.3876 16.4118 35.9379 16.4118 35.9379H24.7181H24.9836H33.2899C33.2899 35.9379 33.7431 35.3811 34.0668 34.0539C34.6236 31.8009 37.0708 31.0305 37.0708 29.5738C37.0838 28.0783 35.1869 26.272 35.1869 26.272Z" fill="#ACB6BA"/>
<path d="M34.6172 26.9326H25.508H24.2002H15.0911C15.0911 26.9326 13.3042 28.4929 13.3042 29.7877C13.3042 31.0502 15.622 31.7106 16.1464 33.6658C16.4571 34.8182 16.8844 35.2972 16.8844 35.2972H24.7311H24.9836H32.8303C32.8303 35.2972 33.2576 34.8182 33.5683 33.6658C34.0928 31.7106 36.4105 31.0502 36.4105 29.7877C36.4105 28.4929 34.6172 26.9326 34.6172 26.9326Z" fill="#3B4749"/>
<path d="M38.029 7.34803C36.8184 6.73945 29.5932 6.49991 25.4368 6.46106V6.45459C25.2555 6.45459 25.0613 6.45459 24.8606 6.45459C24.6599 6.45459 24.4657 6.45459 24.2844 6.45459V6.46106C20.128 6.49991 12.9028 6.73945 11.6921 7.34803C10.3585 8.01486 7.15374 16.2565 7.60046 16.7032C8.00833 17.1111 22.4069 16.8651 24.8671 16.8197C27.3208 16.8651 41.7258 17.1111 42.1337 16.7032C42.5674 16.2565 39.3627 8.01486 38.029 7.34803Z" fill="#273033"/>
<path d="M45.3188 13.8031C44.762 14.1397 44.8721 16.2503 44.8721 16.2503L43.4219 16.1402L43.642 17.2538C43.642 17.2538 49.8766 17.5904 49.9867 15.8036C50.1097 14.0296 45.8756 13.4729 45.3188 13.8031Z" fill="#273033"/>
<path d="M38.029 7.34803C36.8184 6.73945 29.5932 6.49991 25.4368 6.46106V6.45459H24.2779V6.46106C20.1215 6.49991 12.8963 6.73945 11.6856 7.34803C10.3779 8.00192 7.27027 15.9328 7.57455 16.6644L7.59397 16.7032C7.59397 16.7032 11.6144 10.4815 24.4916 10.4815C37.3687 10.4815 42.1207 16.7032 42.1207 16.7032L42.1596 16.4766C42.0948 15.0523 39.2591 7.96307 38.029 7.34803Z" fill="black"/>
<path d="M42.5286 18.4513L25.4109 18.1664V18.147L24.8023 18.1599L24.1873 18.147V18.1664L7.36091 18.4513C7.36091 18.4513 5.42514 19.6814 7.03721 20.905C8.64927 22.1351 13.4855 24.278 15.0975 24.5888C16.4506 24.8477 22.8018 24.6729 24.8023 24.6082C26.8417 24.6729 33.29 24.8477 34.669 24.5888C36.3069 24.2845 41.2208 22.1351 42.8588 20.905C44.4967 19.6814 42.5286 18.4513 42.5286 18.4513Z" fill="#78CBFB"/>
<path d="M6.24112 42.8915C4.54489 42.8915 3.17236 41.519 3.17236 39.8228V41.765C3.17236 43.4612 4.54489 44.8338 6.24112 44.8338C7.93735 44.8338 9.30988 43.4612 9.30988 41.765V39.8228C9.30988 41.519 7.93735 42.8915 6.24112 42.8915Z" fill="#273033"/>
<path d="M43.662 42.8915C41.9658 42.8915 40.5933 41.519 40.5933 39.8228V41.765C40.5933 43.4612 41.9658 44.8338 43.662 44.8338C45.3583 44.8338 46.7308 43.4612 46.7308 41.765V39.8228C46.7308 41.519 45.3583 42.8915 43.662 42.8915Z" fill="#273033"/>
<path d="M15.7126 32.7331H33.9957C34.0345 32.6749 34.0733 32.6231 34.1122 32.5713H15.6025C15.6414 32.6231 15.6802 32.6813 15.7126 32.7331Z" fill="#ACB6BA"/>
<path d="M16.5479 34.7659H33.1606C33.1865 34.7141 33.2124 34.6623 33.2383 34.604H16.4702C16.4961 34.6558 16.522 34.7141 16.5479 34.7659Z" fill="#ACB6BA"/>
<path d="M16.14 33.6656C16.1465 33.698 16.153 33.7238 16.1659 33.7497H33.5426C33.5491 33.7238 33.562 33.6915 33.5685 33.6656C33.575 33.6397 33.5879 33.6138 33.5944 33.5879H16.1206C16.1271 33.6138 16.1336 33.6397 16.14 33.6656Z" fill="#ACB6BA"/>
<path d="M14.8128 31.7229H34.9021C34.9604 31.6646 35.0251 31.6128 35.0834 31.561H14.625C14.6897 31.6128 14.748 31.6646 14.8128 31.7229Z" fill="#ACB6BA"/>
<path d="M14.5215 27.502C14.4761 27.5537 14.4244 27.612 14.3726 27.6638H35.3424C35.2906 27.6055 35.2453 27.5537 35.1935 27.502H14.5215Z" fill="#ACB6BA"/>
<path d="M13.7184 30.7068H35.9895C36.0348 30.655 36.0801 30.5967 36.1254 30.5449H13.5889C13.6277 30.5967 13.673 30.655 13.7184 30.7068Z" fill="#ACB6BA"/>
<path d="M13.7377 28.5117C13.7054 28.5635 13.673 28.6218 13.6406 28.6736H36.0671C36.0348 28.6153 36.0024 28.5635 35.97 28.5117H13.7377Z" fill="#ACB6BA"/>
<path d="M13.3236 29.5283C13.3171 29.5866 13.3107 29.6384 13.3042 29.6902H36.404C36.3976 29.6384 36.3976 29.5801 36.3846 29.5283H13.3236Z" fill="#ACB6BA"/>
<path d="M31.2829 31.1924H18.6064V34.0928H31.2829V31.1924Z" fill="#F99D1C"/>
<path d="M5.04953 20.7109C4.27263 21.2677 2.3757 24.4983 3.15907 26.1687C3.94245 27.839 8.06002 28.2857 9.73036 27.9491C11.4007 27.6124 13.071 25.7219 13.071 25.7219C13.071 25.7219 9.28364 24.3883 7.16658 23.2747C5.04953 22.1612 5.04953 20.7109 5.04953 20.7109Z" fill="#F2F2F2"/>
<path d="M6.64886 25.0419C5.36051 24.8218 4.01388 25.4045 3.17871 26.395C4.21458 27.8712 8.01491 28.2661 9.60756 27.9488C9.2709 26.531 8.09908 25.2944 6.64886 25.0419Z" fill="white"/>
<path d="M44.6587 20.7109C44.6587 20.7109 44.6587 22.1612 42.5416 23.2747C40.4246 24.3883 36.6372 25.7219 36.6372 25.7219C36.6372 25.7219 38.3075 27.6124 39.9779 27.9491C41.6482 28.2857 45.7658 27.839 46.5492 26.1687C47.3325 24.4983 45.4421 21.2677 44.6587 20.7109Z" fill="#F2F2F2"/>
<path d="M42.9494 25.042C41.4992 25.2945 40.3209 26.531 39.9907 27.9424C41.5834 28.2596 45.3837 27.8712 46.4196 26.3886C45.5779 25.4045 44.2313 24.8218 42.9494 25.042Z" fill="white"/>
<path d="M30.5509 4H19.4488C18.6511 4 18 4.25897 18 4.5762C18 4.89343 18.6511 5.1524 19.4488 5.1524H30.5509C31.3486 5.1524 31.9997 4.89343 31.9997 4.5762C32.016 4.25897 31.3648 4 30.5509 4Z" fill="#FF3D3D"/>
<path d="M19 4H31L30.09 0H19.91L19 4Z" fill="#00AFEF"/>
</g>
<defs>
<clipPath id="clip0_371_16">
<rect width="50" height="44.8336" fill="white"/>
</clipPath>
</defs>
</svg>
