<svg width="187" height="146" viewBox="0 0 187 146" fill="none" xmlns="http://www.w3.org/2000/svg">
<path fill-rule="evenodd" clip-rule="evenodd" d="M145.235 77.7692C142.648 73.2809 138.91 70.2146 133.736 68.4814C131.867 67.8148 129.663 67.8148 127.795 67.4593C127.795 66.7927 127.795 66.0817 127.795 65.4151C127.795 62.6599 126.693 61.9933 124.105 61.2823C123.722 61.2823 123.722 61.2823 123.387 61.2823C120.416 61.2823 118.548 59.5492 117.829 57.1495C115.625 52.35 112.99 47.8617 110.786 43.0623C112.271 42.7067 113.373 42.7067 114.475 42.7067C115.194 42.7067 115.96 42.0402 115.96 41.6846C116.727 38.2628 117.062 35.1521 116.344 32.0414C115.625 29.6417 114.14 28.9306 111.504 29.2861C108.151 29.9527 104.845 31.0193 101.874 33.0635C100.389 34.0856 99.2867 34.7966 100.005 36.4853C98.1368 36.8408 96.3161 37.5074 94.8308 37.8629C93.7288 38.2184 93.3455 38.885 93.7288 39.596C94.1121 40.2626 94.8308 40.6181 95.5974 40.2626C97.466 39.9071 98.9513 39.596 100.772 38.885C100.772 39.2405 101.155 39.9071 101.491 40.2626C100.772 41.2847 98.9034 41.6402 100.005 43.0178C100.724 44.0399 101.491 43.6844 102.593 43.3733C102.593 43.7288 102.976 44.0399 102.976 44.0399C104.461 47.8172 105.947 51.5946 107.432 55.3719C108.917 58.4826 109.3 61.5489 108.534 65.0152C107.815 68.7925 107.049 72.5698 105.18 76.0361C103.695 78.7913 101.491 80.5244 98.1368 81.191C91.8123 82.5686 85.5357 82.9241 79.2113 81.8576C75.1387 81.191 71.0661 77.0582 71.0661 73.5919C71.0661 72.2143 71.7848 70.8367 72.5514 69.8146C73.6534 67.7704 75.522 66.0373 77.0073 64.3042C77.3906 63.9486 77.3906 63.6376 77.726 63.2821C78.4926 62.26 79.2113 61.5489 78.4926 60.5268C78.1093 59.5047 76.624 59.8602 75.9053 59.8602C61.819 59.8602 48.1159 59.8602 34.0296 59.8602C32.9276 59.8602 31.8256 60.2158 31.059 60.8823C29.5737 62.26 28.0884 63.2821 26.6031 64.3042C26.2198 64.6597 25.5011 64.9707 24.7345 64.9707C21.0453 64.6152 18.0747 65.6373 15.4874 68.3926C14.3854 69.7702 13.6188 70.7923 14.3854 72.1699C14.7687 72.5254 14.7687 73.192 14.7687 73.5475C14.7687 74.5696 15.4874 75.5917 16.6373 75.9472C15.5353 78.3469 14.4333 80.4355 13.2834 82.8353C12.9001 83.5018 12.5647 84.5684 12.5647 85.235C12.1814 86.9681 12.948 87.9902 14.4333 88.3457C15.9186 88.7012 17.7872 89.0123 19.2725 89.3678C18.8892 94.8783 20.7578 99.3222 25.2137 103.144C28.1843 105.899 32.2568 107.277 36.3294 107.277C44.1392 107.632 52.6197 102.788 54.4883 93.5006C54.8716 93.5006 55.5903 93.5006 55.9736 93.5006C69.3412 93.5006 82.2777 93.5006 95.6453 93.5006C98.9992 93.5006 102.305 93.1451 105.659 91.4564C106.378 91.1009 107.144 90.7899 107.863 90.0788C107.863 90.7454 108.246 91.1009 108.246 91.4564C108.63 92.8341 108.63 92.8341 110.115 92.4785C111.217 92.123 111.984 91.812 113.086 91.1009C113.469 99.3666 117.158 104.877 125.687 106.921C131.628 108.299 137.569 106.566 141.641 101.411C146.816 95.2338 146.481 89.0123 142.025 82.8353C143.127 81.4576 144.229 80.4355 145.379 79.0579C145.379 78.7024 145.379 78.3913 145.379 77.6803L145.235 77.7692ZM128.945 100.478C123.003 100.478 118.548 94.9671 120.799 89.4567C120.799 89.1012 121.518 88.4346 121.901 88.4346C125.591 87.4125 129.711 86.3904 133.401 85.6794C133.784 85.6794 134.502 85.6794 134.886 86.0349C137.856 88.0791 138.575 91.9008 137.09 94.9671C135.988 98.3889 132.634 100.478 128.945 100.478ZM47.0139 90.8343C47.0139 94.6116 45.1453 97.3668 41.8394 99.1C38.1501 101.144 34.0296 101.144 30.3403 98.7445C26.9864 96.7003 25.8844 93.945 25.8844 90.1677C33.3109 90.5232 39.9708 90.5232 47.0139 90.8343Z" fill="#0098DA"/>
<path fill-rule="evenodd" clip-rule="evenodd" d="M145.236 77.7687C142.649 73.2804 138.912 70.2141 133.737 68.481C131.869 67.8144 129.665 67.8144 127.796 67.4589V66.4368C127.796 66.4368 127.796 66.4368 119.411 72.0361C111.027 77.6354 107.769 90.1672 107.769 90.1672L108.631 92.7003L111.889 91.8115C112.224 91.6337 112.56 91.456 112.943 91.1893V91.5004L120.753 89.3229C120.897 88.9674 121.519 88.4341 121.855 88.4341C125.544 87.412 129.665 86.3899 133.354 85.6789C133.498 85.6789 133.689 85.6789 133.881 85.6789L142.218 83.3681L141.882 82.8792C142.984 81.5016 144.086 80.4795 145.236 79.1019C145.236 78.7464 145.236 78.4353 145.236 77.7243V77.7687Z" fill="#96989A"/>
<path fill-rule="evenodd" clip-rule="evenodd" d="M19.1771 89.4558C18.7938 94.9663 20.6624 99.4102 25.1183 103.232C28.0889 105.987 32.1615 107.365 36.2341 107.365C44.0438 107.72 52.5244 102.876 54.393 93.5887L46.9665 90.8334C46.9665 94.6108 45.0979 97.366 41.7919 99.0991C38.1027 101.143 33.9822 101.143 30.2929 98.7436C26.939 96.6994 25.837 93.9442 25.837 90.1669L35.9466 90.4779C32.6885 90.389 29.3346 90.3002 25.837 90.1669L19.1771 89.5003V89.4558ZM112.99 91.189C113.373 99.4546 117.063 104.965 125.591 107.009C131.532 108.387 137.474 106.654 141.546 101.499C146.625 95.4551 146.385 89.4114 142.265 83.4121L133.401 85.6785C133.784 85.6785 134.503 85.6785 134.886 86.034C137.857 88.0782 138.576 91.9 137.09 94.9663C135.988 98.3881 132.634 100.477 128.945 100.477C123.004 100.477 118.548 94.9663 120.8 89.4558C120.8 89.3225 120.896 89.1892 121.04 89.0114L113.038 91.189H112.99Z" fill="#373435"/>
<path fill-rule="evenodd" clip-rule="evenodd" d="M54.5844 58.2599C62.3941 58.2599 70.156 58.2599 77.9658 58.2599C82.0383 58.2599 79.7385 53.3271 79.0677 50.3497C78.6844 49.3276 77.9658 48.9721 76.8638 48.9721C65.3647 48.6166 53.4824 47.95 42.0312 47.5945C38.6774 47.5945 35.3714 47.95 32.4008 47.95C31.6821 47.95 31.2988 48.3055 30.5322 48.3055C27.9449 49.3276 26.8429 51.0607 27.5616 53.4604C27.5616 54.8381 28.2803 55.8602 29.0469 57.2378C29.4302 58.2599 30.1489 58.2599 31.2509 58.2599C39.0607 58.2599 46.8225 58.2599 54.5844 58.2599V58.2599Z" fill="#5F5F5F"/>
</svg>
