<svg width="293" height="173" viewBox="0 0 293 173" fill="none" xmlns="http://www.w3.org/2000/svg">
<g clip-path="url(#clip0_350_193)">
<path d="M216.522 47.7811L218.091 42.5066C221.543 43.4374 234.095 45.9195 234.409 46.2298L238.174 49.3325C238.488 50.8838 238.802 53.0557 237.547 54.2968C235.35 56.1584 220.288 50.5735 216.522 47.7811Z" fill="#FFC89F"/>
<path d="M242.881 50.8838C241.94 49.6427 241.312 48.4016 240.998 46.8503C240.685 45.6092 240.057 44.3682 239.429 43.1271C239.116 42.8168 239.116 42.5066 238.802 42.1963C236.605 43.4374 234.095 44.9887 230.643 46.54C229.388 47.1606 231.271 52.7454 231.898 52.7454C233.781 53.0556 235.664 54.2967 236.919 53.9864C239.116 53.6762 239.743 53.0556 243.195 51.5043C243.509 51.5043 243.509 51.194 243.509 51.194C243.195 51.194 242.881 51.194 242.881 50.8838Z" fill="#FFC89F"/>
<path d="M263.592 160.098C263.906 159.477 263.906 158.547 263.906 157.616C263.592 156.375 262.965 155.444 262.023 154.513C261.71 154.203 261.396 153.582 261.082 153.582C261.082 153.582 261.082 153.582 260.768 153.582H260.454C259.199 153.582 257.944 153.582 256.689 153.893C255.12 154.203 255.12 153.893 253.865 154.513C253.551 154.823 249.785 157.926 249.471 158.236C248.844 158.547 248.216 159.167 247.589 159.477C246.647 160.098 245.706 160.718 244.764 161.649C243.509 162.58 242.254 164.752 244.451 165.372C244.764 165.372 245.078 165.683 245.706 165.683C247.589 165.993 249.785 165.372 251.354 165.062C253.551 164.442 255.12 163.201 257.003 162.27C258.885 160.408 262.965 161.959 263.592 160.098Z" fill="#1C1C1F"/>
<path d="M280.224 160.098C280.537 159.477 280.537 158.547 280.537 157.616C280.224 156.375 279.596 155.444 278.655 154.513C278.341 154.203 278.027 153.582 277.713 153.582C277.713 153.582 277.713 153.582 277.399 153.582H277.086C275.83 153.582 274.575 153.582 273.32 153.893C271.751 154.203 271.751 153.893 270.496 154.513C270.182 154.823 266.416 157.926 266.103 158.236C265.475 158.547 264.847 159.167 264.22 159.477C263.278 160.098 262.337 160.718 261.396 161.649C260.14 162.58 258.885 164.752 261.082 165.372C261.396 165.372 261.709 165.683 262.337 165.683C264.22 165.993 266.416 165.372 267.985 165.062C270.182 164.442 271.751 163.201 273.634 162.27C275.203 160.408 279.596 161.959 280.224 160.098Z" fill="#1C1C1F"/>
<path d="M252.296 90.2878L247.902 120.074L251.04 156.995H264.848L261.71 120.074C261.71 120.074 263.592 112.627 264.534 108.904C265.161 106.111 266.103 103.009 266.417 100.216C266.73 98.3548 267.986 91.8392 270.182 90.2878H252.296Z" fill="#17283D"/>
<path d="M263.592 89.9775C265.161 95.252 263.906 122.245 263.906 122.245L265.789 157.306H279.91L280.537 120.384C280.537 120.384 282.42 103.629 283.362 90.2878C283.048 90.2878 263.592 89.6672 263.592 89.9775Z" fill="#17283D"/>
<path d="M263.592 89.9775L252.296 90.2878L251.668 94.3212C251.668 94.3212 272.065 94.011 274.262 97.4239C276.458 101.457 277.086 143.654 276.772 146.756C276.458 149.549 275.831 152.962 273.32 154.823C272.379 155.754 271.124 156.064 269.868 156.375C269.241 156.375 267.672 156.375 267.358 157.306H279.282L279.91 120.384C279.91 120.384 281.793 103.629 282.734 90.2878C283.048 90.2878 263.592 89.6672 263.592 89.9775Z" fill="#15202E"/>
<path d="M291.834 57.7097L292.148 72.6026L290.265 93.7007L285.244 91.5289L284.93 71.6718L281.792 59.2611L291.834 57.7097Z" fill="#FFC89F"/>
<path d="M285.872 98.0444V96.1828C285.872 96.1828 285.872 96.1828 285.872 95.8725C285.872 95.5622 285.872 95.252 285.872 95.252C286.186 95.252 286.499 95.252 286.499 94.9417C287.127 94.6314 287.441 94.0109 287.755 93.7006L288.068 93.3903C288.068 93.3903 288.382 93.3903 288.382 93.0801C288.696 93.3903 289.01 94.0109 289.324 94.6314L289.637 94.9417L289.01 95.8725C289.01 97.1136 288.696 99.5957 288.696 99.5957L287.127 102.388C287.127 102.388 286.499 104.56 286.186 104.87C286.186 104.87 285.872 104.87 285.558 104.56C285.244 104.25 284.93 103.319 285.244 103.009C285.558 102.388 285.872 101.147 285.872 101.147V98.0444Z" fill="#D4A47D"/>
<path d="M283.675 100.527C283.361 100.527 283.048 100.216 282.734 99.5958C282.734 98.9752 282.734 98.3547 282.734 98.3547V96.4931C283.048 96.1828 284.617 91.5288 284.617 91.5288L285.558 89.3569L288.696 89.6672C288.696 89.6672 289.01 94.0109 287.755 94.6315C286.499 95.252 284.617 97.4239 284.617 97.4239C284.617 97.4239 284.617 98.665 284.617 98.9752C284.617 100.216 284.303 100.527 283.675 100.527Z" fill="#FFC89F"/>
<path d="M287.441 89.6672L288.382 90.598L289.638 91.8391L291.207 97.7342L289.01 102.388L286.186 104.56C285.872 104.87 285.558 104.87 285.558 104.56C285.244 104.25 285.244 103.94 285.558 103.94L288.069 100.216C288.069 100.216 289.01 94.9418 286.813 95.5623C285.558 95.5623 287.755 89.6672 287.441 89.6672Z" fill="#FFC89F"/>
<path d="M277.085 31.0267C276.772 30.7165 276.458 30.4062 275.83 30.0959C275.83 30.0959 274.889 29.1651 275.516 29.7857C274.889 29.1651 273.947 28.2343 273.634 27.3035C273.634 27.3035 271.123 26.0625 270.809 25.7522V19.2366H261.082V27.3035C260.454 27.9241 255.119 29.4754 252.923 30.0959C252.923 30.4062 258.571 29.7857 259.199 30.0959C259.513 30.4062 260.14 31.0267 260.14 31.337C260.14 31.337 260.14 31.337 260.14 31.6473C261.082 31.9575 262.023 32.5781 262.651 33.1986C263.278 32.8883 265.161 39.7142 265.789 39.7142C267.358 39.404 267.671 32.2678 269.24 32.5781C270.182 32.5781 271.123 32.8883 272.065 32.8883C271.751 32.8883 272.692 32.8883 272.692 32.8883C273.006 32.8883 273.32 32.8883 273.634 32.8883C273.947 32.8883 273.947 32.8883 274.261 32.8883C274.261 32.8883 274.575 32.8883 274.889 32.8883L275.516 32.5781C275.516 32.5781 275.83 32.5781 275.83 32.2678C276.144 32.2678 276.144 31.9575 276.458 31.9575L276.772 31.6473C276.458 31.6473 276.772 31.337 277.085 31.0267Z" fill="#D4A47D"/>
<path opacity="0.3" d="M277.086 31.0267C276.772 30.7165 276.458 30.4062 275.831 30.0959C275.831 30.0959 274.889 29.1651 275.517 29.7857C274.889 29.1651 273.948 28.2343 273.634 27.3035C273.634 27.3035 271.124 26.0625 270.81 25.7522V19.2366H261.082V26.9933C266.417 29.1651 271.437 31.9575 277.086 31.0267C277.086 31.337 277.086 31.337 277.086 31.0267Z" fill="#A88F7B"/>
<path d="M280.224 63.2947C281.165 71.9821 283.048 90.2879 283.048 90.2879H250.726V89.9777C250.726 89.9777 250.726 89.9777 250.726 89.6674C250.726 89.6674 250.726 89.6674 250.726 89.3571V89.0469V88.7366V88.4263C250.726 88.1161 250.726 87.8058 250.726 87.4955C250.726 87.4955 250.726 87.4955 250.726 87.1852C250.726 87.1852 250.726 87.1852 250.726 86.875V86.5647V86.2544C251.354 75.3951 252.609 48.0916 252.609 46.2299L242.881 53.6764L234.723 43.4375L252.609 30.7166C252.609 30.7166 254.806 29.7858 258.885 28.855C258.885 28.5447 260.454 31.6474 260.768 32.2679C262.023 33.8193 264.22 34.1295 265.789 33.509C267.044 32.8885 267.985 32.2679 268.927 31.0268C269.241 30.4063 269.554 29.7858 269.868 29.1652C270.182 28.5447 270.81 27.6139 270.81 26.6831C270.81 26.6831 284.931 32.5782 285.558 33.1987C288.382 36.3014 292.148 59.2612 292.148 59.2612L281.165 62.3639L278.341 48.0916C278.968 49.9532 279.91 58.0201 280.224 63.2947Z" fill="white"/>
<path d="M280.224 63.2944C281.165 71.9819 283.048 90.2877 283.048 90.2877H250.727V89.9774C250.727 89.9774 250.727 89.9774 250.727 89.6672C250.727 89.6672 250.727 89.6672 250.727 89.3569V89.0466V88.7364V88.4261C250.727 88.1158 250.727 87.8056 250.727 87.4953C250.727 87.4953 250.727 87.4953 250.727 87.185C250.727 87.185 250.727 87.185 250.727 86.8748V86.5645V86.2542C253.551 85.944 256.375 85.6337 258.885 85.0132C263.906 84.0824 268.927 85.944 273.32 84.0824C275.831 82.8413 276.144 79.7386 276.144 77.2565C276.772 69.8101 275.203 62.3637 275.203 54.9172C275.203 52.1248 273.948 48.7119 275.831 46.2297C276.772 44.9887 277.4 42.1963 278.341 40.9552C280.851 36.6115 268.927 31.3369 268.613 31.3369C268.927 30.7164 269.241 30.0958 269.555 29.4753C269.868 28.8548 270.496 27.924 270.496 26.9932C270.496 26.9932 284.617 32.8882 285.245 33.5088C288.069 36.6115 291.834 59.5712 291.834 59.5712L280.851 62.6739L278.027 48.4016C278.969 49.953 279.91 58.0199 280.224 63.2944Z" fill="#E0E0E0"/>
<path d="M272.065 16.7545C272.065 16.7545 272.065 16.4442 271.751 16.4442C271.751 16.1339 271.751 15.5134 271.751 15.2031C272.065 9.61833 272.065 3.72324 263.906 2.79244C253.864 1.86164 255.12 13.3415 255.12 13.6518C255.12 15.2031 255.433 19.2366 255.747 20.788C256.375 22.9598 257.316 25.7522 259.199 26.9933C259.827 27.3036 260.454 27.3036 260.454 27.3036C263.906 27.3036 267.985 24.2009 268.613 23.8906C271.123 22.6496 272.065 19.2366 272.065 16.7545Z" fill="#FFC89F"/>
<path d="M272.065 16.7545C272.065 16.7545 272.065 16.4442 271.751 16.4442C271.751 16.1339 271.751 15.5134 271.751 15.2031C272.065 9.61833 272.065 3.72324 263.906 2.79244C253.864 1.86164 255.12 13.3415 255.12 13.6518C255.12 15.2031 255.433 19.2366 255.747 20.788C256.375 22.9598 257.316 25.7522 259.199 26.9933C259.827 27.3036 260.454 27.3036 260.454 27.3036C263.906 27.3036 267.985 24.2009 268.613 23.8906C271.123 22.6496 272.065 19.2366 272.065 16.7545Z" fill="#FFC89F"/>
<path d="M272.065 16.7544C272.065 16.7544 272.065 16.4441 271.751 16.4441C271.751 16.1338 271.751 15.5133 271.751 15.203C272.065 9.61822 272.065 3.72314 263.906 2.79234C259.513 2.48207 257.002 4.65394 256.061 7.13608C258.885 7.13608 261.709 8.68742 264.534 9.92849C265.789 10.549 266.103 12.7209 265.475 13.962C264.534 15.5133 262.965 17.0646 264.534 18.616C265.161 19.5468 266.103 19.857 266.416 20.7878C267.672 24.5111 262.651 24.8213 259.827 25.7521C259.199 25.7521 258.571 25.7521 258.258 26.0624C258.571 26.3727 259.199 26.9932 259.513 27.3035C259.827 27.3035 260.454 27.3035 260.454 27.3035C263.906 27.3035 267.985 24.2008 268.613 23.8905C271.123 22.6495 272.065 19.2365 272.065 16.7544Z" fill="#F0B990"/>
<path d="M275.516 7.44642C274.889 5.27455 274.575 3.10267 272.692 1.8616C270.809 0.620535 268.927 0.310267 266.73 0C264.22 0 261.709 0 259.513 1.24107C257.63 2.17187 255.747 4.03348 255.119 5.89508C254.806 6.51562 254.806 6.82588 254.806 7.44642C254.806 7.75669 254.806 8.37722 254.806 8.68749C255.119 8.99775 255.747 8.99776 256.061 9.30802C256.688 9.30802 257.316 9.30802 257.944 9.61829C260.454 9.92856 262.651 8.37722 264.847 7.44642C265.475 7.13615 267.044 6.51562 267.044 7.75669C267.044 8.68749 266.102 9.92856 266.102 10.8594C266.102 11.7902 267.044 12.1004 267.671 12.4107C268.299 13.0312 268.299 14.2723 268.299 14.8928C268.299 15.5134 267.671 16.4442 267.671 17.0647C267.671 17.9955 268.299 18.616 269.24 17.9955C269.868 17.6852 270.182 16.7544 270.496 16.1339C270.809 15.8236 270.809 15.2031 271.123 14.8928C271.437 14.5826 272.065 14.5826 272.378 14.2723C271.751 15.2031 271.123 16.1339 270.809 17.0647C270.496 17.6852 271.437 17.9955 272.065 17.6852C271.751 18.616 271.123 19.5468 270.809 20.1674C270.496 20.7879 270.809 21.7187 271.437 21.0982C272.692 20.1674 273.634 18.616 274.261 17.375C274.575 16.7544 274.889 15.8236 275.203 14.8928C275.516 13.962 275.516 13.0312 275.516 12.1004C275.83 12.721 276.144 12.4107 276.144 12.1004C276.144 11.4799 276.144 11.1696 276.144 10.5491C275.83 9.61829 275.83 8.37722 275.516 7.44642ZM273.947 16.4442C273.947 16.4442 274.261 15.8236 274.261 15.5134C274.261 15.8236 273.947 16.1339 273.947 16.4442Z" fill="#2B1E16"/>
<path d="M270.81 15.5132C269.868 16.7543 269.868 18.3057 270.496 18.6159C271.124 19.2365 272.379 18.3057 273.32 17.0646C274.262 15.8235 274.262 14.2722 273.634 13.9619C272.693 13.3414 271.437 13.9619 270.81 15.5132Z" fill="#FFC89F"/>
<path d="M262.964 110.455C261.081 112.317 259.826 114.178 259.199 116.35C257.002 123.797 258.885 130.933 260.14 138.379C260.768 143.033 261.081 148.618 257.316 151.721C255.747 152.962 252.923 152.962 250.726 151.721L251.04 156.995H264.847L261.709 120.074C261.709 120.074 262.964 114.489 263.906 110.766V110.455C264.219 109.524 263.278 110.145 262.964 110.455Z" fill="#15202E"/>
<path d="M10.9826 157.616C10.6688 157.926 10.6688 160.098 10.355 160.719C10.0412 161.649 8.47222 163.201 8.47222 163.201C7.84462 163.511 6.90322 163.511 6.27562 162.89C5.96182 162.27 5.33422 157.926 5.64802 156.995C4.39282 158.547 3.13762 167.855 6.27562 168.165C12.8654 169.096 10.9826 157.306 10.9826 157.616Z" fill="#15202E"/>
<path d="M41.4213 161.339C40.4799 162.89 33.2625 161.029 32.6349 160.408C30.7521 158.857 27.3003 156.685 26.9865 156.685C26.3589 158.236 25.4175 159.788 25.4175 161.649C25.4175 162.58 25.4175 163.821 26.3589 164.131C27.9279 165.373 32.3211 164.442 32.9487 164.442C33.5763 165.062 38.5971 166.303 41.4213 165.993C42.3627 165.993 43.3041 165.373 43.6179 164.752C43.9317 164.442 45.1869 162.58 41.4213 161.339Z" fill="#15202E"/>
<path d="M42.9905 70.7409C42.9905 70.7409 42.3629 67.328 42.0491 66.0869C42.0491 65.4664 42.0491 64.5356 41.7353 63.915C41.7353 62.9842 41.7353 58.02 41.7353 57.0892C41.7353 55.2275 41.7353 53.3659 41.4215 51.5043C41.4215 51.5043 41.4215 47.7811 40.7939 45.9195C40.4801 44.9887 40.1663 44.0579 39.8525 43.1271C39.8525 43.1271 39.8525 43.1271 39.8525 42.8169C39.5387 41.8861 38.9111 41.2655 37.9697 40.3347C36.4007 39.0936 34.2041 38.1628 32.3213 38.1628C31.0661 38.1628 31.0661 40.0244 32.3213 40.3347C33.2627 40.3347 34.2041 40.3347 34.8317 40.645C35.1455 40.645 35.7731 40.9552 36.0869 41.2655C35.7731 41.5758 35.7731 42.1963 35.4593 42.5066C35.1455 43.7477 34.2041 45.299 32.9489 45.6093C32.6351 46.5401 32.0075 47.1606 32.0075 48.0914C31.6937 49.953 34.5179 49.953 34.5179 49.953C34.8317 51.1941 35.7731 58.6405 36.0869 59.8816C36.4007 61.1226 36.4007 62.3637 36.7145 63.915C36.7145 64.8458 37.0283 67.6382 37.0283 67.9485C37.0283 68.569 37.6559 70.7409 37.9697 71.982L39.8525 83.7722L42.9905 84.0824C42.9905 84.0824 43.6181 72.9128 43.6181 72.6025C43.3043 72.2923 43.3043 71.6717 42.9905 70.7409Z" fill="#FFC89F"/>
<path d="M41.7355 51.5043C41.7355 51.5043 41.7355 47.7811 41.1079 45.9195C40.7941 44.9887 40.4803 44.0579 40.1665 43.1271C40.1665 43.1271 40.1665 43.1271 40.1665 42.8169C39.8527 41.8861 39.2251 41.2655 38.2837 40.3347C36.7147 39.0936 34.518 38.1628 32.6352 38.1628C31.38 38.1628 31.38 40.0244 32.6352 40.3347C33.5766 40.3347 34.518 40.3347 35.1457 40.645C35.4595 40.645 36.0871 40.9552 36.4009 41.2655C36.0871 41.5758 36.087 42.1963 35.7733 42.5066C35.4594 43.7477 34.5181 45.299 33.2629 45.6093C32.9491 46.5401 32.3214 47.1606 32.3214 48.0914C32.0076 49.953 34.8319 49.953 34.8319 49.953C35.1457 50.8838 35.7733 55.5378 36.0871 58.3302C37.9699 58.02 40.1665 57.7097 42.0493 57.0892C42.0493 56.7789 42.0493 56.4686 42.0493 56.4686C42.0493 55.2276 42.0493 53.3659 41.7355 51.5043Z" fill="#F0B990"/>
<path d="M42.049 66.0869C42.049 65.4664 42.049 64.5356 41.7352 63.9151C41.7352 62.9843 41.7352 59.5713 41.7352 57.7097C39.8524 58.02 37.6558 58.6405 35.7729 58.9508C35.7729 59.8816 36.0868 60.5021 36.0868 60.5021C36.4006 61.7432 36.4006 62.9843 36.7144 64.5356C36.7144 65.4664 37.0282 68.2588 37.0282 68.5691C37.0282 69.1896 37.6558 71.3615 37.9696 72.6026L39.8524 84.3927L42.9904 84.703C42.9904 84.703 43.618 73.5334 43.618 73.2231C43.618 72.6026 43.618 71.6717 43.3042 71.0512C42.9904 70.7409 42.6766 67.6383 42.049 66.0869Z" fill="#FFC89F"/>
<path d="M40.48 89.357V88.1159C40.48 88.1159 40.48 88.1159 40.48 87.8056C40.48 87.4954 40.48 87.4954 40.48 87.1851C40.7938 87.1851 40.7938 87.1851 41.1076 86.8748C41.4214 86.5646 41.7352 86.2543 42.049 85.944C42.049 85.944 42.049 85.6338 42.3628 85.6338C42.3628 85.6338 42.3628 85.6338 42.6766 85.3235C42.9904 85.6338 43.3042 85.944 43.3042 86.2543C43.3042 86.2543 43.3042 86.5646 43.618 86.5646L43.3042 87.1851C43.3042 88.1159 43.3042 89.9775 43.3042 89.9775L42.3628 91.8391C42.3628 91.8391 42.049 93.3904 41.7352 93.7007C41.7352 93.7007 41.4214 93.7007 41.4214 93.3904C41.1076 93.0802 41.1076 92.4596 41.1076 92.1494C41.1076 91.8391 41.4214 90.9083 41.4214 90.9083L40.48 89.357Z" fill="#D4A47D"/>
<path d="M39.2251 91.2186C38.9113 91.2186 38.5975 90.9083 38.5975 90.598C38.5975 90.2878 38.5975 89.6672 38.5975 89.6672L38.2837 88.4262C38.2837 88.1159 39.2251 84.7029 39.2251 84.7029L39.8527 83.1516H42.0493C42.0493 83.1516 42.6769 86.2543 41.7355 86.5646C40.7941 87.1851 39.5389 88.7364 39.5389 88.7364C39.5389 88.7364 39.5389 89.6672 39.5389 89.9775C39.5389 90.9083 39.5389 91.2186 39.2251 91.2186Z" fill="#FFC89F"/>
<path d="M40.7941 83.1516L41.4217 83.7721L42.3631 84.7029L43.9321 88.7364L42.6769 92.1494L40.7941 94.011C40.7941 94.3212 40.4803 94.3212 40.1665 94.011C39.8527 94.011 39.8527 93.7007 40.1665 93.3904L41.7355 90.2878C41.7355 90.2878 41.7355 86.5646 40.4803 86.8748C40.1665 87.4954 41.1079 83.1516 40.7941 83.1516Z" fill="#FFC89F"/>
<path d="M31.0659 56.1584V58.02C32.9487 57.7097 40.4799 56.4687 42.6765 56.1584L42.0489 39.7142C41.7351 36.6115 39.2247 34.1294 35.7729 34.1294C32.6349 34.4397 30.1245 36.9218 30.1245 40.3347L31.0659 56.1584Z" fill="#15202E"/>
<path d="M5.33422 52.4353C5.33422 52.4353 4.39282 52.125 3.76522 52.125L0.627218 63.6049C-0.314182 66.087 1.25482 68.8794 3.76522 69.5C6.27562 70.4308 7.21702 67.9486 8.15842 65.4665L12.8654 53.9866C12.5516 53.9866 8.15842 52.7455 5.33422 52.4353Z" fill="#FFC89F"/>
<path d="M5.33461 52.4353C5.33461 52.4353 4.39321 52.125 3.76561 52.125L1.88281 58.3303C4.39321 59.2612 7.21742 60.192 9.72782 60.8125L12.552 53.6763C12.552 53.9866 8.15882 52.7455 5.33461 52.4353Z" fill="#F0B990"/>
<path d="M10.6689 116.04C9.72749 116.661 7.84469 118.832 7.53089 125.348C7.53089 126.279 7.21709 130.002 7.21709 130.933C7.21709 133.725 6.90329 136.828 7.21709 139.931C7.21709 140.861 7.21709 143.964 7.21709 144.585C7.21709 145.515 7.21709 146.446 6.90329 147.377C6.58949 148.618 6.27569 150.169 6.27569 152.031C5.96189 152.652 5.96189 153.272 5.64809 153.582C5.64809 154.203 5.64809 154.513 5.64809 155.134C5.64809 155.444 5.64809 155.444 5.64809 155.754C5.64809 156.375 5.33429 156.995 5.33429 157.926C5.33429 158.857 5.02049 159.788 5.33429 160.719C5.96189 162.27 8.47229 162.58 9.72749 161.649C10.9827 160.719 11.2965 158.857 11.2965 157.616C11.2965 157.306 11.2965 156.685 11.2965 156.375C11.2965 156.065 11.2965 156.065 11.2965 155.754C11.6103 155.134 11.6103 154.823 11.9241 154.203C11.9241 153.893 11.6103 151.411 11.9241 150.79C12.5517 148.308 13.4931 144.895 14.1207 142.723C15.3759 138.379 16.9449 134.036 18.2001 129.692C19.4553 125.348 19.7691 120.694 20.0829 116.35H10.6689V116.04Z" fill="#FFC89F"/>
<path d="M33.5766 154.203C30.7524 149.549 33.8904 128.761 34.2042 121.935C34.2042 120.073 34.518 118.832 35.4594 116.971H24.7902C23.8488 120.073 22.9074 123.486 22.5936 126.589C22.2798 132.794 26.9868 150.169 26.9868 153.893V158.857C26.9868 158.857 31.0662 160.408 31.38 160.408C31.6938 160.408 37.3422 161.649 41.7354 161.029C38.5974 159.788 35.7732 158.236 33.5766 154.203Z" fill="#FFC89F"/>
<path d="M10.3553 118.522C11.2967 119.143 12.5519 120.073 13.8071 120.073C15.0623 120.384 16.3175 120.384 17.5727 120.384C18.2003 120.384 18.8279 120.384 19.1417 120.073H19.4555C19.4555 118.522 19.7693 116.971 19.7693 115.73H10.6691C10.0415 116.04 9.7277 116.661 9.1001 117.902C9.4139 118.212 9.7277 118.522 10.3553 118.522Z" fill="#F0B990"/>
<path d="M27.3006 120.694C28.242 121.004 29.1834 121.625 30.1248 121.625C31.0662 121.625 32.0076 121.625 33.2628 121.625C33.5766 121.625 33.8904 121.625 34.2042 121.625C34.2042 119.763 34.518 118.832 35.4594 117.281H24.7902C24.4764 118.212 24.4764 118.832 24.1626 119.763C25.104 119.763 26.3592 120.384 27.3006 120.694Z" fill="#F0B990"/>
<path d="M40.4799 160.719C39.5385 162.27 33.2625 159.478 32.6349 158.857C30.7521 157.306 27.3003 155.134 26.9865 155.134C26.3589 156.685 25.4175 158.236 25.4175 160.098C25.4175 161.029 25.4175 162.27 26.3589 162.58C27.9279 163.821 32.3211 162.89 32.9487 162.89C33.5763 163.511 38.5971 164.752 41.4213 164.442C42.3627 164.442 43.3041 163.821 43.6179 163.201C43.9317 162.89 44.2455 161.649 40.4799 160.719Z" fill="#17283D"/>
<path d="M210.56 53.9865C211.501 52.4352 214.012 50.8839 215.894 50.2633C225.622 48.4017 252.609 43.4374 262.023 41.5758C263.906 41.2656 265.789 42.5066 265.789 44.3682L269.554 76.6361L266.102 108.594C265.789 110.455 264.22 112.317 262.337 112.937L190.477 130.002L192.987 82.2209C193.301 81.9106 205.853 61.7432 210.56 53.9865Z" fill="#FF4140"/>
<path d="M266.102 44.3683C265.789 42.5067 264.533 41.5759 262.651 41.5759L266.102 71.6719L262.651 103.629C262.337 105.491 260.768 107.353 258.885 107.973L190.79 124.107L190.477 129.692L262.337 112.627C264.22 112.317 265.789 110.145 266.102 108.283L269.554 76.3259L266.102 44.3683Z" fill="#CC2221"/>
<path d="M213.384 123.176C213.384 120.384 213.384 117.591 213.384 114.799C213.384 112.627 213.384 110.455 212.756 108.283C211.815 103.94 210.246 99.9062 208.363 96.183C206.166 92.1495 203.97 88.4263 201.459 84.7031C200.204 82.8415 198.949 80.9799 198.008 79.1183C197.38 78.1875 197.066 77.2567 196.439 76.0156C194.242 79.7388 192.673 82.221 192.673 82.221L190.163 130.002L213.384 124.107C213.384 123.797 213.384 123.487 213.384 123.176Z" fill="#CC2221"/>
<path d="M265.475 75.395L209.618 83.7722L195.497 85.9441C196.125 84.703 197.694 82.2209 199.89 78.8079C201.145 76.9463 202.401 74.4642 203.656 72.2923C204.597 70.741 205.539 68.8794 206.48 67.328C210.559 60.1919 214.325 53.9865 214.325 53.9865L242.567 48.712L252.922 46.8504L262.337 44.9888V46.2298L263.278 55.8481L265.475 75.395Z" fill="#26252E"/>
<path opacity="0.3" d="M252.923 46.8503L203.342 71.982C204.284 70.4307 205.225 68.5691 206.166 67.0177L242.253 48.7119L252.923 46.8503Z" fill="#242130"/>
<path opacity="0.3" d="M263.592 56.1583L209.618 83.7721L195.497 85.944C196.125 84.7029 197.694 82.2208 199.89 78.8078L262.65 46.54L263.592 56.1583Z" fill="#242130"/>
<path d="M69.3495 92.1494H57.7389C57.1113 92.1494 56.4837 91.5289 56.1699 90.9084L54.2871 82.8414C54.2871 82.2209 54.6009 81.6003 55.2285 81.6003H69.0357C69.6633 81.6003 70.2909 82.2209 70.2909 82.8414V90.9084C70.6047 91.5289 69.9771 92.1494 69.3495 92.1494Z" fill="#FA5555"/>
<path d="M74.9978 93.3906C75.3116 93.7009 75.3116 94.6317 74.9978 94.9419C74.684 95.2522 73.7426 95.2522 73.4288 94.9419L68.0942 89.9776C67.7804 89.6674 67.7804 88.7366 68.0942 88.4263C68.408 88.116 69.3494 88.116 69.6632 88.4263L74.9978 93.3906Z" fill="#FF4140"/>
<path d="M203.028 92.1494H214.639C215.267 92.1494 215.894 91.5289 216.208 90.9084L218.091 82.8414C218.091 82.2209 217.777 81.6003 217.149 81.6003H203.342C202.715 81.6003 202.087 82.2209 202.087 82.8414V90.9084C201.46 91.5289 202.087 92.1494 203.028 92.1494Z" fill="#FA5555"/>
<path d="M197.38 93.3906C197.066 93.7009 197.066 94.6317 197.38 94.9419C197.694 95.2522 198.635 95.2522 198.949 94.9419L203.97 89.9776C204.283 89.6674 204.283 88.7366 203.97 88.4263C203.656 88.116 202.714 88.116 202.401 88.4263L197.38 93.3906Z" fill="#FF4140"/>
<path d="M94.1395 127.52V149.549C94.1395 154.513 90.0601 158.236 85.3531 158.547H77.8219C72.8011 158.547 68.7217 154.513 68.7217 149.549V127.52C68.7217 122.556 72.8011 118.522 77.8219 118.522H85.0393C90.3739 118.522 94.1395 122.556 94.1395 127.52Z" fill="#26252E"/>
<path d="M84.098 140.241H82.8428V158.547H84.098V140.241Z" fill="#26252E"/>
<path d="M80.0184 140.241H78.7632V158.547H80.0184V140.241Z" fill="#26252E"/>
<path d="M94.1396 141.792V143.654L84.098 153.582L83.7842 154.203V152.341L84.098 151.721L94.1396 141.792Z" fill="#26252E"/>
<path d="M94.1396 147.687V149.549L85.3532 158.547H83.7842V158.236L84.098 157.616L94.1396 147.687Z" fill="#26252E"/>
<path d="M94.1396 135.587V137.449L84.098 147.687L83.7842 147.998V146.136L84.098 145.515L94.1396 135.587Z" fill="#26252E"/>
<path d="M69.0356 141.792V143.654L78.7635 153.582L79.391 154.203V152.341L78.7635 151.721L69.0356 141.792Z" fill="#26252E"/>
<path d="M69.0356 147.687V149.549L77.822 158.547H79.391V158.236L78.7635 157.616L69.0356 147.687Z" fill="#26252E"/>
<path d="M69.0356 135.587V137.449L78.7635 147.687L79.391 147.998V146.136L78.7635 145.515L69.0356 135.587Z" fill="#26252E"/>
<path d="M203.342 127.52V149.549C203.342 154.513 199.263 158.236 194.556 158.547H187.025C182.004 158.547 177.924 154.513 177.924 149.549V127.52C177.924 122.556 182.004 118.522 187.025 118.522H194.242C199.263 118.522 203.342 122.556 203.342 127.52Z" fill="#26252E"/>
<path d="M192.987 140.241H191.731V158.547H192.987V140.241Z" fill="#26252E"/>
<path d="M189.221 140.241H187.966V158.547H189.221V140.241Z" fill="#26252E"/>
<path d="M203.342 141.792V143.654L193.3 153.582L192.673 154.203V152.341L193.3 151.721L203.342 141.792Z" fill="#26252E"/>
<path d="M203.342 147.687V149.549L194.242 158.547H192.673V158.236L193.3 157.616L203.342 147.687Z" fill="#26252E"/>
<path d="M203.342 135.587V137.449L193.3 147.687L192.673 147.998V146.136L193.3 145.515L203.342 135.587Z" fill="#26252E"/>
<path d="M177.924 141.792V143.654L187.966 153.582L188.594 154.203V152.341L187.966 151.721L177.924 141.792Z" fill="#26252E"/>
<path d="M177.924 147.687V149.549L186.711 158.547H188.594V158.236L187.966 157.616L177.924 147.687Z" fill="#26252E"/>
<path d="M177.924 135.587V137.449L187.966 147.687L188.594 147.998V146.136L187.966 145.515L177.924 135.587Z" fill="#26252E"/>
<path d="M205.539 112.007V127.52C205.539 134.346 205.539 133.105 205.539 138.069C205.539 143.033 201.459 147.067 196.752 147.687C160.038 150.48 123.323 150.79 86.6086 148.618C82.843 148.308 79.0774 147.998 75.3118 147.687C72.4876 147.377 69.9772 145.826 68.4082 143.654C67.153 142.103 66.5254 140.241 66.5254 138.069C66.5254 133.105 66.5254 134.036 66.5254 127.52V112.007C66.5254 109.524 67.7806 107.042 69.3496 105.491C69.6634 105.181 69.9772 104.87 70.291 104.56C71.2324 103.629 72.4876 103.319 73.7428 102.699C74.3704 102.699 74.6842 102.388 75.3118 102.388C115.792 99.2856 156.272 99.2856 196.752 102.388C199.263 102.699 201.459 103.629 203.028 105.491C204.597 107.042 205.539 109.524 205.539 112.007Z" fill="#CC2221"/>
<path d="M208.049 105.181V121.315C208.049 128.14 208.049 127.21 208.049 132.174C208.049 137.138 203.97 141.482 198.949 142.102C160.979 145.205 123.009 145.515 85.0394 143.033C81.2738 142.723 77.1944 142.413 73.4288 142.102C70.6046 141.792 68.0942 140.241 66.2114 138.069C64.9562 136.518 64.3286 134.346 64.3286 132.174C64.3286 126.899 64.3286 128.14 64.3286 121.315V105.181C64.3286 102.699 65.5838 100.216 67.1528 98.3548C67.4666 98.0445 67.7804 97.7342 68.0942 97.424C69.0356 96.4932 70.2908 95.8726 71.8598 95.5624C72.4874 95.5624 72.8012 95.2521 73.4288 95.2521C115.164 91.8391 157.213 91.8391 198.949 95.2521C201.459 95.5624 203.656 96.8034 205.225 98.3548C207.108 100.216 208.049 102.388 208.049 105.181Z" fill="#FF4140"/>
<path d="M201.146 93.7007C197.38 84.3927 194.242 74.7744 191.104 65.1561C188.594 59.261 182.945 52.7454 176.355 51.5044C149.368 47.4709 122.382 47.4709 95.3949 51.5044C88.8051 52.7454 82.8429 58.9508 80.6463 65.1561C77.8221 74.7744 74.6841 84.3927 70.9185 93.7007C113.909 104.25 158.155 104.25 201.146 93.7007Z" fill="#FF4140"/>
<path d="M73.1152 92.1493C73.1152 92.1493 79.3912 73.8435 81.9016 65.7766C84.0982 60.502 89.119 54.9172 95.0812 53.6762C108.575 51.8146 122.068 50.5735 135.248 50.5735C148.427 50.5735 161.921 51.5043 175.1 53.3659C181.062 54.607 186.083 60.1918 188.28 65.4663C190.79 73.5333 197.38 91.8391 197.38 91.8391L73.1152 92.1493Z" fill="#26252E"/>
<path d="M143.72 58.02C143.72 59.5713 142.465 60.8124 140.896 60.8124H129.285C127.716 60.8124 126.461 59.5713 126.461 58.02C126.461 56.4686 127.716 55.2275 129.285 55.2275H140.896C142.465 55.5378 143.72 56.7789 143.72 58.02Z" fill="#1C1C1F"/>
<path d="M120.499 92.1494V74.7744C120.499 71.0512 117.361 67.9485 113.595 67.9485H96.6502C92.8846 67.9485 89.7466 71.0512 89.7466 74.7744V92.1494H120.499Z" fill="#1C1C1F"/>
<path d="M180.435 92.1494V74.7744C180.435 71.0512 177.297 67.9485 173.531 67.9485H156.586C152.821 67.9485 149.683 71.0512 149.683 74.7744V92.1494H180.435Z" fill="#1C1C1F"/>
<path d="M205.852 99.2855L201.145 93.7007H71.2322L66.2114 99.2855H205.852Z" fill="#FF4140"/>
<path d="M153.448 148.308H118.93C117.988 148.308 117.361 147.687 117.361 146.756V142.102C117.361 141.172 117.988 140.551 118.93 140.551H153.448C154.389 140.551 155.017 141.172 155.017 142.102V146.756C155.017 147.687 154.389 148.308 153.448 148.308Z" fill="#26252E"/>
<path d="M198.635 96.4931L184.2 108.283C182.945 109.524 180.435 110.455 178.866 110.455H93.1984C91.3156 110.455 89.119 109.524 87.8638 108.283L73.429 96.4931C72.1738 95.2521 72.8014 94.011 74.3704 94.011H197.694C199.577 94.3213 199.89 95.2521 198.635 96.4931Z" fill="#FA5555"/>
<path d="M86.2948 120.074V122.866C86.2948 125.658 83.7844 128.141 80.9602 128.141H67.153C64.3288 128.141 61.8184 125.658 61.8184 122.866V113.248C61.8184 110.455 64.3288 107.973 67.153 107.973H71.86C73.429 107.973 75.9394 108.904 76.8808 109.835L84.0982 115.73C85.3534 116.661 86.2948 118.522 86.2948 120.074Z" fill="#CC2221"/>
<path d="M67.4668 126.589C65.2702 126.589 63.7012 125.038 63.7012 122.866V113.248C63.7012 111.076 65.2702 109.524 67.4668 109.524H72.1738C73.429 109.524 75.3118 110.145 76.2532 111.076L83.1568 116.971C84.0982 117.591 84.7258 119.453 84.7258 120.384V123.176C84.7258 125.348 83.1568 126.899 80.9602 126.899H67.4668V126.589Z" fill="#E0E0E0"/>
<path d="M185.77 120.074V122.866C185.77 125.658 188.28 128.141 191.104 128.141H204.911C207.736 128.141 210.246 125.658 210.246 122.866V113.248C210.246 110.455 207.736 107.973 204.911 107.973H200.204C198.635 107.973 196.125 108.904 195.184 109.835L188.28 115.73C186.711 116.661 185.77 118.522 185.77 120.074Z" fill="#CC2221"/>
<path d="M191.104 126.589C188.907 126.589 187.338 125.038 187.338 122.866V120.073C187.338 119.143 188.28 117.281 188.907 116.661L195.811 110.765C196.752 109.835 198.635 109.214 199.89 109.214H204.597C206.794 109.214 208.363 110.765 208.363 112.937V122.556C208.363 124.727 206.794 126.279 204.597 126.279H191.104V126.589Z" fill="#E0E0E0"/>
<path d="M96.0223 134.035H76.2529V140.551H96.0223V134.035Z" fill="#CC2221"/>
<path d="M195.811 134.035H176.042V140.551H195.811V134.035Z" fill="#CC2221"/>
<g opacity="0.3">
<path d="M136.189 50.8838C134.306 50.8838 132.424 50.8838 130.541 50.8838L79.3914 76.9462C79.0776 78.1873 78.45 79.7387 78.1362 80.9797L137.444 50.8838C136.817 50.8838 136.503 50.8838 136.189 50.8838Z" fill="#242130"/>
<path d="M140.582 50.8838L77.1946 82.8413C75.3118 88.1159 74.0566 92.1494 74.0566 92.1494C74.0566 92.1494 75.9394 92.1494 79.0774 92.1494L158.783 51.8146C152.507 51.1941 146.544 50.8838 140.582 50.8838Z" fill="#242130"/>
<path d="M192.359 75.395L159.097 92.1495C161.921 92.1495 164.745 92.1495 167.255 92.1495L193.301 78.808C192.987 77.5669 192.673 76.3258 192.359 75.395Z" fill="#242130"/>
</g>
<path d="M173.531 128.761C173.531 132.484 170.393 135.897 166.941 136.518C146.544 139 126.147 139 105.75 136.518C101.985 135.897 99.1606 132.484 99.1606 128.761C99.1606 126.589 99.1606 125.348 99.1606 123.176C99.1606 119.453 102.299 116.04 105.75 115.419C126.147 112.937 146.544 112.937 166.941 115.419C170.707 116.04 173.531 119.453 173.531 123.176C173.531 125.658 173.531 126.589 173.531 128.761Z" fill="#CCCCCC"/>
<path d="M136.189 136.207C126.148 136.207 116.106 135.587 106.064 134.346C103.554 133.725 101.357 131.553 101.357 128.761V123.176C101.357 120.384 103.554 118.212 106.064 117.591C116.106 116.35 126.148 115.73 136.189 115.73C146.231 115.73 156.272 116.35 166.314 117.591C168.824 118.212 171.021 120.384 171.021 123.176V128.761C171.021 131.553 168.824 133.725 166.314 134.346C156.586 135.587 146.231 136.207 136.189 136.207Z" fill="#26252E"/>
<path d="M169.452 121.315C169.452 121.935 168.824 122.556 168.197 122.556H103.867C103.24 122.556 102.612 121.935 102.612 121.315C102.612 120.694 103.24 120.073 103.867 120.073H167.883C168.824 120.073 169.452 120.694 169.452 121.315Z" fill="#1C1C1F"/>
<path d="M169.452 125.969C169.452 126.589 168.824 127.21 168.197 127.21H103.867C103.24 127.21 102.612 126.589 102.612 125.969C102.612 125.348 103.24 124.728 103.867 124.728H167.883C168.824 124.728 169.452 125.348 169.452 125.969Z" fill="#1C1C1F"/>
<path d="M169.452 130.933C169.452 131.553 168.824 132.174 168.197 132.174H103.867C103.24 132.174 102.612 131.553 102.612 130.933C102.612 130.312 103.24 129.692 103.867 129.692H167.883C168.824 129.382 169.452 130.002 169.452 130.933Z" fill="#1C1C1F"/>
<path d="M72.4877 115.73C72.4877 117.591 70.9187 119.453 68.7221 119.453C66.8393 119.453 64.9565 117.902 64.9565 115.73C64.9565 113.868 66.5255 112.007 68.7221 112.007C70.9187 112.007 72.4877 113.558 72.4877 115.73Z" fill="white"/>
<path d="M203.028 115.73C203.028 117.591 201.459 119.453 199.263 119.453C197.38 119.453 195.497 117.902 195.497 115.73C195.497 113.868 197.066 112.007 199.263 112.007C201.459 112.007 203.028 113.558 203.028 115.73Z" fill="white"/>
<path d="M136.817 50.8838H133.679V58.3302H136.817V50.8838Z" fill="#1C1C1F"/>
<path d="M92.2571 129.382H77.8223V135.897H92.2571V129.382Z" fill="#E0E0E0"/>
<path d="M194.242 129.382H179.807V135.897H194.242V129.382Z" fill="#E0E0E0"/>
<path d="M76.2529 135.587C76.2529 133.725 74.6839 131.864 72.4873 131.864C70.6045 131.864 68.7217 133.415 68.7217 135.587C68.7217 137.448 70.2907 139.31 72.4873 139.31C74.6839 139.31 76.2529 137.448 76.2529 135.587Z" fill="#E0E0E0"/>
<path d="M203.028 135.587C203.028 133.725 201.459 131.864 199.263 131.864C197.38 131.864 195.497 133.415 195.497 135.587C195.497 137.448 197.066 139.31 199.263 139.31C201.459 139.31 203.028 137.448 203.028 135.587Z" fill="#E0E0E0"/>
<path d="M139.013 109.524C139.013 108.594 137.13 107.973 134.934 107.973C132.737 107.973 130.854 108.594 130.854 109.524C130.854 110.455 132.737 111.076 134.934 111.076C137.444 111.076 139.013 110.455 139.013 109.524Z" fill="white"/>
<path d="M263.905 82.5311C264.219 83.7722 263.278 85.3235 261.709 85.3235L251.981 86.8749C250.726 87.1851 249.157 86.2543 249.157 84.703C248.843 83.4619 249.784 81.9106 251.353 81.9106L261.081 80.6695C262.336 80.3592 263.592 81.29 263.905 82.5311Z" fill="#CC2221"/>
<path d="M262.337 81.9105C262.65 83.1516 261.709 84.7029 260.14 84.7029L250.412 85.944C249.157 86.2543 247.588 85.3235 247.588 83.7721C247.274 82.5311 248.216 80.9797 249.785 80.9797L259.512 79.7386C260.768 79.4284 262.023 80.3592 262.337 81.9105Z" fill="#E0E0E0"/>
<path d="M32.949 35.3705H37.656C36.4008 31.9575 37.0284 28.5446 37.656 24.8214C37.656 21.7187 37.656 18.616 37.0284 15.5133C36.087 10.8593 33.5766 8.06693 29.1834 6.51559C28.5558 6.51559 28.242 6.20532 27.6144 6.20532C26.9868 6.82586 26.9868 8.68746 28.5558 8.99773C32.949 9.308 34.518 13.6517 34.518 17.9955C34.2042 17.6852 33.8904 17.3749 33.5766 17.0647C32.949 14.2723 31.6938 11.7901 28.5558 10.8593C27.9282 10.5491 27.3006 10.2388 26.673 10.2388C25.4178 9.61826 24.1626 9.308 22.9074 9.61826C23.535 8.68746 23.535 7.44639 22.2798 7.13612C21.966 6.82586 21.3384 6.51559 21.0246 6.51559C20.7108 6.51559 20.397 6.82586 20.0832 6.82586C17.5728 7.75666 16.0038 9.61826 15.0624 11.7901C14.7486 13.0312 14.4348 13.962 14.121 14.8928C12.2382 23.5803 16.0038 32.2678 13.1796 40.645C12.2382 43.1271 16.0038 44.9887 16.9452 42.5066C16.9452 42.1963 17.259 41.8861 17.259 41.5758C17.5728 41.8861 17.8866 42.1963 18.2004 42.5066C18.2004 42.8169 18.2004 42.8169 18.2004 43.1271C18.5142 44.3682 19.7694 45.6093 21.0246 45.299C25.104 44.6785 28.8696 44.3682 32.949 43.4374V35.3705Z" fill="#B05223"/>
<path d="M27.6143 31.337L28.8695 23.8906L20.7107 23.27L20.3969 31.337C20.0831 31.0267 19.7693 30.4062 19.7693 30.4062C19.4555 30.7164 18.5141 31.0267 16.9451 31.6472V31.9575C16.6313 32.8883 15.6899 33.8191 15.0623 34.1294C15.6899 34.1294 14.7485 34.7499 14.7485 34.7499C14.4347 35.0602 14.1209 35.3705 13.8071 35.6807C14.1209 35.6807 13.8071 35.6807 13.8071 35.6807C14.1209 35.991 14.4347 36.3013 14.7485 36.6115L15.0623 36.9218C15.3761 36.9218 15.3761 37.2321 15.6899 37.2321C15.6899 37.2321 16.0037 37.2321 16.0037 37.5423C16.0037 37.5423 16.3175 37.5423 16.6313 37.8526C16.6313 37.8526 16.9451 37.8526 17.2589 37.8526C17.5727 37.8526 17.5727 37.8526 17.8865 37.8526C18.2003 37.8526 18.5141 37.8526 18.8279 37.8526C18.8279 37.8526 19.7693 37.8526 19.4555 37.8526C20.0831 37.5423 21.0245 37.2321 21.9659 37.2321C23.5349 36.9218 25.1039 37.2321 26.6729 37.5423C27.3005 37.5423 27.6143 37.8526 28.2419 37.8526C28.8695 37.2321 29.8109 36.6115 30.4385 36.3013C30.4385 36.3013 30.4385 36.3013 30.4385 35.991C30.4385 35.3705 30.7523 35.0602 31.0661 34.7499C31.6937 34.4396 37.3421 34.7499 37.0283 34.4396C35.1455 33.8191 28.5557 31.9575 27.6143 31.337Z" fill="#D4A47D"/>
<path opacity="0.3" d="M31.0659 32.8883C31.3797 32.8883 31.3797 32.8883 31.6935 32.578C29.8107 31.9575 27.9279 31.337 27.3003 31.0267L28.5555 23.5803L20.7104 23.27V27.3035C23.2209 30.7164 27.3003 34.1294 31.0659 32.8883Z" fill="#A88F7B"/>
<path d="M41.4216 115.73C40.794 119.143 21.966 118.833 16.0038 117.591C12.2382 116.971 8.15882 116.971 4.70701 115.109C3.13801 114.178 2.82421 113.248 2.82421 112.317L3.13801 111.076C3.13801 111.076 3.45181 110.455 3.45181 110.145L4.39321 107.973C6.90361 103.009 7.21742 97.424 7.84502 91.8392C8.15882 89.6674 8.47262 87.1852 9.10022 85.0133C9.41402 83.7723 9.72782 82.8415 10.0416 81.6004C10.0416 79.1183 10.983 76.6361 11.6106 74.154V73.8437V73.5335C12.2382 71.6719 12.8658 69.8102 13.4934 68.2589C14.7486 65.1562 16.0038 62.0536 16.3176 58.9509C16.0038 54.6071 15.3762 50.2634 15.3762 49.0223L12.552 59.5714L1.88281 56.4688C1.88281 56.4688 7.84502 38.163 10.3554 35.0603C10.983 34.4398 19.7694 30.7166 19.7694 30.7166C19.7694 31.3371 20.397 32.2679 20.7108 32.8884C21.966 34.75 23.2212 36.3014 25.104 36.9219C26.9868 37.5424 28.8696 37.2322 30.1248 35.6808C30.4386 35.3706 30.7524 34.1295 31.38 33.1987C31.6938 32.5782 31.6938 32.5782 31.6938 32.5782C34.8318 33.1987 36.7146 33.509 37.3422 34.1295C38.5974 35.3706 39.5388 38.4732 39.225 40.0246C39.225 43.1272 37.0284 56.4687 36.7146 59.8817C36.7146 60.192 40.794 97.1138 40.794 97.7343C41.1078 98.3549 42.6768 109.524 41.4216 115.73Z" fill="#17283D"/>
<path d="M21.6521 62.3638C20.7107 61.433 20.0831 60.1919 19.7693 58.9508C18.5141 55.5379 17.2589 52.7455 15.6899 49.6428C15.6899 51.1942 16.3175 55.2276 16.6313 58.9508C16.3175 60.5022 16.0037 62.0535 15.6899 63.6049C17.5727 62.6741 19.4555 62.3638 21.6521 62.3638Z" fill="#15202E"/>
<path d="M41.1077 97.7343C41.1077 97.1137 37.0283 59.8817 37.0283 59.8817C37.3421 56.779 39.2249 43.4375 39.5387 40.0245C39.5387 38.1629 38.9111 35.3705 37.6559 34.1295C37.0283 33.5089 34.8317 33.5089 32.0075 32.5781C32.0075 32.5781 31.6937 32.8884 31.6937 33.1987C31.6937 33.5089 31.3799 33.5089 31.3799 33.8192C33.2627 34.75 35.1455 36.6116 36.4007 38.1629C39.2249 41.8861 38.2835 45.9196 36.0869 49.3326C33.8903 53.366 27.9281 53.0558 23.8487 54.9174C23.5349 54.9174 23.5349 55.8482 23.5349 55.8482C26.6729 56.1584 29.8109 53.366 32.9489 53.9866C35.7731 54.6071 35.1455 58.9509 34.8317 61.7433C33.5765 76.0156 35.1455 89.9776 37.0283 104.25C37.6559 107.973 36.7145 112.007 33.2627 113.868C26.9867 117.281 19.4555 114.799 12.5519 114.799C9.41386 114.799 6.58966 113.558 3.45166 113.248C3.76546 113.868 4.07926 114.489 5.33446 115.109C8.78626 116.971 12.8657 116.971 16.6313 117.591C22.5935 118.832 41.4215 119.143 42.0491 115.73C42.6767 109.524 41.1077 98.3548 41.1077 97.7343Z" fill="#15202E"/>
<path d="M20.0829 18.3058C20.0829 17.9955 19.7691 8.37724 27.3003 8.06697C36.4005 7.7567 34.8315 17.9955 34.8315 17.9955C34.8315 19.2366 34.2039 22.9598 33.8901 24.5111C33.2625 26.3727 31.6935 29.7857 30.1245 30.096C27.6141 30.7165 22.5933 26.683 21.9657 26.683C20.0829 25.4419 20.0829 18.3058 20.0829 18.3058Z" fill="#FFC89F"/>
<path d="M27.3004 8.06697C23.5348 8.06697 21.9658 10.5491 21.0244 12.721C24.79 12.4107 28.2418 13.6518 30.7522 15.5134C35.1454 18.6161 33.5764 25.4419 29.8108 28.5446C28.2418 29.7857 26.359 28.5446 24.1624 27.9241C26.0452 29.1652 28.5556 30.4062 29.8108 30.096C31.3798 29.7857 32.9488 26.3727 33.5764 24.5111C33.8902 22.9598 34.5178 19.2366 34.5178 17.9955C34.8316 17.9955 36.4006 7.7567 27.3004 8.06697Z" fill="#F0B990"/>
<path d="M17.2588 18.9263C17.2588 19.2365 17.5726 19.5468 17.5726 19.8571C17.2588 19.5468 17.2588 19.2365 17.2588 18.9263Z" fill="#2B1E16"/>
<path d="M21.3383 19.8572C22.2797 21.0983 22.2797 22.6496 21.6521 23.2702C20.7107 23.5804 19.4555 22.9599 18.8279 21.7188C17.8865 20.1675 17.8865 18.9264 18.5141 18.3059C19.4555 17.9956 20.7107 18.6161 21.3383 19.8572Z" fill="#FFC89F"/>
<path d="M37.342 17.0646C37.342 16.4441 37.0282 16.1338 37.0282 15.5133C37.0282 15.203 37.0282 14.8928 36.7144 14.5825C36.4006 13.962 35.773 13.3414 35.4592 12.7209C35.4592 12.4106 35.4592 12.1004 35.4592 11.7901V11.4798C34.204 9.30796 32.0074 7.75662 29.1832 6.51555C27.928 6.20529 26.0452 5.89502 24.4762 5.89502C22.9072 5.89502 21.652 6.20529 20.083 6.82582C18.8278 7.44636 17.8864 8.06689 16.945 8.99769C16.945 9.61823 16.6312 9.9285 16.6312 10.549C14.4346 13.0312 13.807 15.5133 13.1794 18.3057C12.8656 19.2365 12.8656 20.4776 12.5518 21.4084C12.238 22.6495 12.238 23.8905 11.9242 25.1316C11.9242 26.0624 11.9242 26.9932 11.6104 27.924C11.6104 31.6472 11.9242 35.0602 13.1794 38.4731C14.4346 41.5758 16.3174 44.3682 19.4554 45.6092C20.3968 45.9195 21.3382 45.9195 22.2796 45.6092C23.221 44.6784 23.8486 43.1271 24.1624 41.886C25.1038 39.4039 24.79 37.232 24.4762 35.0602C24.1624 33.5088 23.5348 31.9575 23.221 30.0959C23.221 29.1651 22.9072 28.2343 22.9072 26.9932C22.9072 25.7521 22.9072 24.2008 22.9072 22.9597C22.9072 22.3392 23.221 21.7187 23.221 21.4084C23.8486 19.2365 26.0452 17.6852 27.6142 15.8236C28.2418 14.8928 28.8694 13.962 29.8108 13.0312L30.1246 12.7209C31.066 13.6517 32.0074 14.5825 32.9488 15.203C33.8902 16.4441 34.5178 17.9954 35.1454 19.8571C35.773 22.0289 35.4592 24.2008 35.1454 26.0624C34.8316 26.9932 34.8316 28.2343 34.204 29.1651C33.8902 30.0959 33.2626 31.0267 33.2626 31.9575C33.2626 32.2678 33.5764 32.2678 33.8902 31.9575C35.773 27.924 36.7144 23.27 35.773 18.9263C35.773 18.3057 35.4592 17.6852 35.1454 17.0646C35.773 17.3749 36.4006 17.3749 37.342 17.3749C37.342 17.3749 37.342 17.3749 37.342 17.0646C37.342 17.3749 37.342 17.0646 37.342 17.0646Z" fill="#B05223"/>
<path d="M10.9826 156.065C10.6688 156.375 10.6688 158.547 10.355 159.167C10.355 160.098 8.47222 161.339 8.47222 161.339C7.84462 161.649 6.90322 161.649 6.27562 161.029C5.96182 160.408 5.33422 156.065 5.64802 155.134C4.39282 156.685 3.13762 165.993 6.27562 166.303C12.8654 167.234 10.9826 155.754 10.9826 156.065Z" fill="#17283D"/>
<path d="M16.3174 64.2253C16.3174 64.2253 17.5726 64.2253 19.1416 64.8459C20.083 65.4664 20.7106 66.3972 21.0244 67.328C21.652 70.4307 21.3382 73.5334 20.083 78.8079H18.8278C18.8278 78.8079 21.3382 65.7767 16.3174 64.2253Z" fill="#2278BA"/>
<path d="M32.3214 67.6385C32.3214 67.3282 32.3214 67.3282 32.0076 67.0179L31.6938 66.7077C31.38 66.3974 31.38 66.3974 31.0662 66.3974C30.7524 66.3974 30.7524 66.0871 30.4386 66.0871C29.811 65.7769 29.4972 65.7769 28.8696 65.7769C28.5558 65.7769 28.242 65.7769 27.9282 65.7769C27.9282 66.0871 27.9282 66.3974 27.9282 66.7077C28.242 66.7077 28.5558 66.7077 28.8696 66.7077C29.1834 66.7077 29.811 66.7077 30.4386 67.0179C30.7524 67.0179 30.4386 67.3282 30.4386 67.3282C31.0662 67.3282 31.38 67.9487 31.6938 68.5693C32.0076 68.8795 32.3214 68.8795 32.3214 68.5693L32.6352 68.8795C32.949 68.8795 33.2628 68.5693 33.2628 68.259C32.6352 68.5693 32.3214 67.9487 32.3214 67.6385Z" fill="#D4A47D"/>
<path d="M32.9489 67.3281C32.6351 67.0179 32.3213 65.7768 32.0075 65.4665C31.3799 65.1563 29.1833 63.9152 28.8695 63.9152L22.2796 64.846C22.2796 64.846 10.9828 63.2946 6.27584 62.9844C2.82404 62.9844 0.627439 63.9152 0.627439 63.9152C-0.000161797 65.4665 -0.000161797 67.0179 0.627439 68.2589C2.19644 70.7411 16.6312 69.8103 22.2796 67.3281C23.8486 67.6384 25.7315 68.5692 27.3005 67.9487C27.9281 67.6384 28.5557 67.3281 29.1833 67.6384C29.4971 67.6384 30.4385 67.9487 30.4385 67.3281C30.4385 66.7076 29.4971 66.3973 29.1833 66.3973C28.8695 66.3973 27.9281 66.0871 27.9281 66.3973C27.9281 66.3973 28.5557 66.3973 28.8695 66.087C29.8109 66.087 30.7523 66.0871 31.6937 66.3973C32.3213 66.7076 32.3213 67.6384 32.9489 67.9487L33.5765 68.2589C33.8903 68.2589 33.2627 67.6384 32.9489 67.3281Z" fill="#FFC89F"/>
<path d="M15.3761 63.915C15.3761 63.915 14.1209 63.6047 12.5519 63.915C11.6105 64.2253 10.6691 64.8458 10.0415 65.7766C8.47249 68.569 7.84489 71.6717 7.21729 76.9462L8.47249 77.2565C8.47249 76.9462 10.0415 63.915 15.3761 63.915Z" fill="#62B2F0"/>
<path d="M17.5725 89.6672L6.27571 87.8056C4.39291 87.4953 3.13771 85.944 3.76531 84.0824L6.27571 76.3257L21.3381 78.4976L21.0243 86.5645C21.3381 88.4261 19.4553 89.9774 17.5725 89.6672Z" fill="#2278BA"/>
<path d="M20.3967 78.1875V85.3236C20.3967 87.1853 18.8277 88.4263 16.9449 88.1161L5.3343 86.875C5.0205 86.875 4.3929 86.5647 4.0791 86.5647C4.3929 87.4955 5.3343 87.8058 6.2757 88.1161L17.5725 89.6674C19.4553 89.9777 21.0243 88.7366 21.0243 86.875L21.3381 78.808L20.3967 78.1875Z" fill="#2278BA"/>
<path d="M18.5138 84.0825L15.6896 84.3927C13.8068 84.3927 10.6688 84.0825 9.09976 83.4619L7.21696 82.5311C5.33416 81.9106 4.39276 79.7387 5.33416 78.1874L6.58936 75.0847L21.6518 77.2566C21.6518 77.2566 21.6518 78.8079 21.9656 80.6695C21.9656 82.2209 20.7104 83.7722 18.5138 84.0825Z" fill="#62B2F0"/>
<path d="M13.8073 83.462C13.8073 82.8415 13.1797 82.2209 12.5521 82.2209C11.9245 82.2209 11.2969 82.8415 11.2969 83.462C11.2969 84.0826 11.9245 84.7031 12.5521 84.7031C13.1797 84.7031 13.8073 84.0826 13.8073 83.462Z" fill="white"/>
<path d="M37.6559 131.553C37.6559 130.312 38.5973 129.381 39.8525 129.381H52.0907C53.3459 129.381 54.2873 130.312 54.2873 131.553V134.346H57.7391V131.553C57.7391 128.14 55.2287 125.658 52.0907 125.658H39.8525C36.7145 125.658 34.2041 128.14 34.2041 131.553V134.346H37.3421L37.6559 131.553Z" fill="#15202E"/>
<path d="M54.2876 130.623C54.6014 130.933 54.6014 131.243 54.6014 131.553V134.346H58.0532V131.553C58.0532 131.243 58.0532 130.933 58.0532 130.623H54.2876Z" fill="#15202E"/>
<path d="M34.5181 130.623C34.5181 130.933 34.5181 131.243 34.5181 131.553V134.346H37.6561L37.9699 131.553C37.9699 131.243 37.9699 130.933 38.2837 130.623H34.5181Z" fill="#15202E"/>
<path d="M28.5558 172.819C23.535 172.819 19.4556 168.785 19.4556 163.821V142.102C19.4556 137.138 23.535 133.105 28.5558 133.105H63.7014C68.7222 133.105 72.8016 137.138 72.8016 142.102V163.821C72.8016 168.785 68.7222 172.819 63.7014 172.819H28.5558Z" fill="#17283D"/>
<path d="M63.0738 172.198H61.8186H63.0738C63.0738 171.888 63.3876 171.888 63.0738 172.198C63.3876 172.198 63.0738 172.198 63.0738 172.198ZM60.5634 172.198H59.3082H60.5634C60.8772 171.888 60.8772 171.888 60.5634 172.198C60.8772 172.198 60.8772 172.198 60.5634 172.198ZM58.3668 172.198H57.1116H58.3668C58.3668 171.888 58.3668 171.888 58.3668 172.198ZM55.8564 172.198H54.6012H55.8564C55.8564 171.888 55.8564 171.888 55.8564 172.198ZM53.346 172.198H52.0908H53.346C53.346 171.888 53.346 171.888 53.346 172.198ZM50.8356 172.198H49.5804H50.8356C50.8356 171.888 50.8356 171.888 50.8356 172.198ZM48.3252 172.198H47.07H48.3252C48.3252 171.888 48.3252 171.888 48.3252 172.198ZM45.8148 172.198H44.5596H45.8148C45.8148 171.888 46.1286 171.888 45.8148 172.198C46.1286 172.198 45.8148 172.198 45.8148 172.198ZM43.3044 172.198H42.0492H43.3044C43.6182 171.888 43.6182 171.888 43.3044 172.198C43.6182 172.198 43.6182 172.198 43.3044 172.198ZM41.1078 172.198H39.8526H41.1078C41.1078 171.888 41.1078 171.888 41.1078 172.198ZM38.5974 172.198H37.3422H38.5974C38.5974 171.888 38.5974 171.888 38.5974 172.198ZM36.087 172.198H34.8318H36.087C36.087 171.888 36.087 171.888 36.087 172.198ZM33.5766 172.198H32.3214H33.5766C33.5766 171.888 33.5766 171.888 33.5766 172.198ZM31.0662 172.198H29.811H31.0662C31.0662 171.888 31.0662 171.888 31.0662 172.198ZM28.5558 172.198C28.242 172.198 27.6144 172.198 27.3006 172.198C27.6144 171.888 28.242 171.888 28.5558 172.198C28.5558 171.888 28.8696 171.888 28.5558 172.198C28.8696 172.198 28.5558 172.198 28.5558 172.198ZM64.329 172.198C64.329 171.888 64.329 171.888 64.329 172.198C64.6428 171.888 65.2704 171.888 65.5842 171.888C65.2704 171.888 64.9566 172.198 64.329 172.198ZM26.0454 171.888C25.7316 171.888 25.104 171.578 24.7902 171.578C24.7902 171.578 24.7902 171.578 24.7902 171.267C24.7902 171.267 24.7902 171.267 25.104 171.267C25.4178 171.267 25.7316 171.578 26.0454 171.888C26.3592 171.578 26.3592 171.578 26.0454 171.888C26.3592 171.888 26.0454 171.888 26.0454 171.888ZM66.8394 171.578C66.5256 171.267 66.5256 171.267 66.8394 171.578C67.1532 171.267 67.467 170.957 67.7808 170.957C67.7808 170.957 67.7808 170.957 68.0946 170.957C68.0946 170.957 68.0946 170.957 68.0946 171.267C67.467 171.267 67.1532 171.267 66.8394 171.578ZM23.8488 170.647C23.535 170.337 23.2212 170.026 22.9074 169.716C22.9074 169.716 22.9074 169.716 22.9074 169.406C22.9074 169.406 22.9074 169.406 23.2212 169.406C23.2212 170.026 23.535 170.337 23.8488 170.647C24.1626 170.647 24.1626 170.647 23.8488 170.647C24.1626 170.647 23.8488 170.647 23.8488 170.647ZM69.036 170.337C68.7222 170.337 68.7222 170.337 69.036 170.337C68.7222 170.337 68.7222 170.026 69.036 170.337C69.3498 169.716 69.6636 169.716 69.9774 169.406C69.9774 169.406 69.9774 169.406 70.2912 169.406C70.2912 169.406 70.2912 169.406 70.2912 169.716C69.6636 169.716 69.3498 170.026 69.036 170.337ZM22.2798 169.096C22.2798 169.096 21.966 169.096 22.2798 169.096C21.966 168.785 21.6522 168.475 21.3384 168.165C21.3384 168.165 21.3384 168.165 21.3384 167.855C21.3384 167.855 21.3384 167.855 21.6522 167.855C21.6522 168.165 21.966 168.475 22.2798 169.096C22.2798 168.785 22.2798 169.096 22.2798 169.096ZM70.605 168.475C70.2912 168.475 70.2912 168.475 70.605 168.475C70.605 167.855 70.9188 167.544 71.2326 167.234C71.2326 167.234 71.2326 167.234 71.5464 167.234C71.5464 167.234 71.5464 167.234 71.5464 167.544C70.9188 167.855 70.9188 168.165 70.605 168.475ZM21.0246 166.924C21.0246 166.924 20.7108 166.924 21.0246 166.924C20.7108 166.303 20.7108 165.993 20.7108 165.683C20.7108 165.993 21.0246 166.303 21.0246 166.924ZM71.5464 166.303C71.5464 166.303 71.2326 166.303 71.5464 166.303C71.5464 165.683 71.5464 165.372 71.5464 165.062C71.8602 165.372 71.8602 165.683 71.5464 166.303ZM20.397 164.442C20.397 164.131 20.397 164.131 20.397 163.821V162.89V163.821C20.7108 164.131 20.7108 164.442 20.397 164.442C20.7108 164.442 20.397 164.442 20.397 164.442ZM71.8602 163.821C71.8602 163.821 71.5464 163.821 71.8602 163.821V162.58V163.821ZM20.397 162.27C20.397 162.27 20.397 161.959 20.397 162.27V161.029V162.27C20.7108 161.959 20.397 162.27 20.397 162.27ZM71.8602 161.339C71.8602 161.339 71.5464 161.339 71.8602 161.339V160.098V161.339ZM20.397 159.788C20.397 159.788 20.397 159.477 20.397 159.788V158.547V159.788C20.7108 159.477 20.397 159.788 20.397 159.788ZM71.8602 158.857C71.8602 158.857 71.5464 158.857 71.8602 158.857V157.616V158.857ZM20.397 157.305V156.064V157.305C20.7108 157.305 20.397 157.305 20.397 157.305ZM71.8602 156.685C71.8602 156.685 71.5464 156.375 71.8602 156.685V155.444V156.685C71.8602 156.375 71.8602 156.685 71.8602 156.685ZM20.397 154.823V153.582V154.823C20.7108 154.823 20.397 154.823 20.397 154.823ZM71.8602 154.203C71.8602 154.203 71.5464 153.893 71.8602 154.203V152.962V154.203C71.8602 153.893 71.8602 154.203 71.8602 154.203ZM20.397 152.341V151.1V152.341C20.7108 152.341 20.397 152.341 20.397 152.341ZM71.8602 151.721C71.8602 151.721 71.5464 151.721 71.8602 151.721V150.48V151.721ZM20.397 149.859V148.618V149.859C20.7108 149.859 20.397 149.859 20.397 149.859ZM71.8602 149.238C71.8602 149.238 71.5464 149.238 71.8602 149.238V147.997V149.238ZM20.397 147.377V146.136V147.377C20.7108 147.377 20.397 147.377 20.397 147.377ZM71.8602 146.756C71.8602 146.756 71.5464 146.756 71.8602 146.756V145.515V146.756ZM20.397 144.895V143.654V144.895C20.7108 144.895 20.397 144.895 20.397 144.895ZM71.8602 144.274C71.8602 144.274 71.5464 144.274 71.8602 144.274V143.033V144.274ZM20.397 142.723C20.397 142.723 20.397 142.413 20.397 142.723V142.413C20.397 142.102 20.397 141.792 20.397 141.482C20.397 141.792 20.397 142.102 20.397 142.413V142.723C20.7108 142.413 20.397 142.723 20.397 142.723ZM71.8602 141.792C71.8602 141.792 71.5464 141.792 71.8602 141.792C71.8602 141.172 71.5464 140.861 71.5464 140.551C71.8602 140.861 71.8602 141.482 71.8602 141.792ZM20.7108 140.241C20.7108 139.62 20.7108 139.31 21.0246 139C21.0246 139 21.0246 139 21.3384 139C21.3384 139 21.3384 139 21.3384 139.31C21.0246 139.31 21.0246 139.62 20.7108 140.241ZM71.2326 139.62C70.9188 139.31 70.9188 138.689 70.605 138.379C70.605 138.379 70.605 138.379 70.605 138.069C70.605 138.069 70.605 138.069 70.9188 138.069C71.2326 138.689 71.2326 139 71.2326 139.62C71.5464 139.31 71.5464 139.62 71.2326 139.62ZM21.6522 138.069C21.6522 138.069 21.6522 137.759 21.6522 138.069C21.6522 137.448 21.966 137.138 22.2798 136.828C22.2798 136.828 22.2798 136.828 22.5936 136.828C22.5936 136.828 22.5936 136.828 22.5936 137.138C22.2798 137.138 21.966 137.448 21.6522 138.069C21.966 138.069 21.6522 138.069 21.6522 138.069ZM69.9774 137.448C69.6636 137.138 69.3498 136.828 69.036 136.518C69.036 136.518 69.036 136.518 69.036 136.207C69.036 136.207 69.036 136.207 69.3498 136.207C69.6636 136.518 69.9774 136.828 69.9774 137.448C70.2912 137.138 70.2912 137.448 69.9774 137.448C70.2912 137.448 69.9774 137.448 69.9774 137.448ZM23.535 136.207C23.2212 136.207 23.2212 136.207 23.535 136.207C23.2212 136.207 23.2212 135.897 23.535 136.207C23.8488 135.587 24.1626 135.587 24.4764 135.276C24.4764 135.276 24.4764 135.276 24.7902 135.276C24.7902 135.276 24.7902 135.276 24.7902 135.587C24.1626 135.587 23.8488 135.897 23.535 136.207ZM68.4084 135.587C68.0946 135.276 67.7808 135.276 67.1532 134.966C67.1532 134.966 67.1532 134.966 67.1532 134.656C67.1532 134.656 67.1532 134.656 67.467 134.656C67.7808 134.966 68.0946 135.276 68.4084 135.587ZM25.4178 134.966C25.4178 134.656 25.4178 134.656 25.4178 134.966C25.7316 134.656 26.0454 134.346 26.673 134.346C26.3592 134.656 26.0454 134.656 25.4178 134.966ZM66.2118 134.656C65.898 134.656 65.2704 134.346 64.9566 134.346C65.2704 134.346 65.5842 134.346 66.2118 134.656C66.2118 134.346 66.2118 134.656 66.2118 134.656ZM27.9282 134.346C27.9282 134.346 27.6144 134.346 27.9282 134.346C27.6144 134.035 27.9282 134.035 27.9282 134.346C28.242 134.035 28.242 134.035 28.5558 134.035H29.1834H28.5558C28.242 134.346 28.242 134.346 27.9282 134.346ZM63.7014 134.346H62.4462H63.7014C63.7014 134.035 63.7014 134.035 63.7014 134.346ZM61.191 134.346H59.9358H61.191C61.191 134.035 61.191 134.035 61.191 134.346ZM58.6806 134.346H57.4254H58.6806C58.6806 134.035 58.9944 134.035 58.6806 134.346C58.9944 134.346 58.6806 134.346 58.6806 134.346ZM56.1702 134.346H54.915H56.1702C56.484 134.035 56.484 134.035 56.1702 134.346C56.484 134.346 56.484 134.346 56.1702 134.346ZM53.6598 134.346H52.4046H53.6598C53.9736 134.035 53.9736 134.035 53.6598 134.346C53.9736 134.346 53.9736 134.346 53.6598 134.346ZM51.4632 134.346H50.208H51.4632C51.4632 134.035 51.4632 134.035 51.4632 134.346ZM48.9528 134.346H47.6976H48.9528C48.9528 134.035 48.9528 134.035 48.9528 134.346ZM46.4424 134.346H45.1872H46.4424C46.4424 134.035 46.4424 134.035 46.4424 134.346ZM43.932 134.346H42.6768H43.932C43.932 134.035 43.932 134.035 43.932 134.346ZM41.4216 134.346H40.1664H41.4216C41.4216 134.035 41.4216 134.035 41.4216 134.346ZM38.9112 134.346H37.656H38.9112C38.9112 134.035 39.225 134.035 38.9112 134.346C39.225 134.346 38.9112 134.346 38.9112 134.346ZM36.4008 134.346H35.1456H36.4008C36.7146 134.035 36.7146 134.035 36.4008 134.346C36.7146 134.346 36.7146 134.346 36.4008 134.346ZM34.2042 134.346H32.949H34.2042C34.2042 134.035 34.2042 134.035 34.2042 134.346ZM31.6938 134.346H30.4386H31.6938C31.6938 134.035 31.6938 134.035 31.6938 134.346Z" fill="#E0E0E0"/>
<path d="M70.9188 164.131C70.9188 168.165 67.7808 171.268 63.7014 171.268H28.5558C24.4764 171.268 21.3384 168.165 21.3384 164.131V142.413C21.3384 138.379 24.4764 135.277 28.5558 135.277H63.7014C67.7808 135.277 70.9188 138.379 70.9188 142.413V164.131Z" fill="#17283D"/>
<path d="M64.6426 135.277V171.268C68.0944 170.647 70.6048 167.855 70.6048 164.131V142.413C70.9186 138.69 68.0944 135.587 64.6426 135.277Z" fill="#15202E"/>
<path d="M26.9868 135.277C23.8488 135.897 21.3384 138.69 21.3384 142.102V163.821C21.3384 167.234 23.8488 170.027 26.9868 170.647V135.277Z" fill="#15202E"/>
<path d="M31.3799 134.966H29.4971V170.957H31.3799V134.966Z" fill="#15202E"/>
<path d="M62.1323 134.966H60.2495V170.957H62.1323V134.966Z" fill="#15202E"/>
<path d="M37.97 141.792C35.1458 141.792 32.9492 143.964 32.9492 146.757C32.9492 149.549 35.1458 151.721 37.97 151.721C40.7942 151.721 42.9908 149.549 42.9908 146.757C42.9908 143.964 40.7942 141.792 37.97 141.792Z" fill="#17283D"/>
<path d="M37.9702 142.103C35.4598 142.103 33.2632 144.274 33.2632 146.757C33.2632 149.239 35.4598 151.411 37.9702 151.411C40.4806 151.411 42.6772 149.239 42.6772 146.757C42.6772 143.964 40.4806 142.103 37.9702 142.103Z" fill="#85B53C"/>
<path d="M41.1082 148.618L38.5978 147.067C38.284 147.687 38.284 148.308 37.9702 148.618L38.5978 149.549V149.859L37.6564 148.928L37.3426 149.239H37.0288V148.928H35.7736V148.618L37.0288 148.308C37.0288 147.687 37.3426 147.067 37.3426 146.446L34.2046 146.136L34.5184 145.515L36.4012 145.205V144.895C36.4012 144.895 36.4012 144.895 36.715 144.895C36.715 144.895 36.715 144.895 36.715 145.205L37.9702 144.895C38.284 143.964 38.9116 143.344 38.9116 143.344C39.2254 143.344 38.9116 144.274 38.9116 145.205L39.853 146.136C39.853 146.136 39.853 146.136 40.1668 146.136C40.1668 146.136 40.1668 146.136 40.1668 146.446V146.756L41.422 148.308L41.1082 148.618Z" fill="white"/>
<path d="M51.8408 138.041L48.0625 144.122L54.2124 147.857L57.9908 141.777L51.8408 138.041Z" fill="#FF4140"/>
<path d="M51.8348 138.043L48.2256 143.862L54.1109 147.43L57.7201 141.611L51.8348 138.043Z" fill="#FF4140"/>
<path d="M54.6011 143.964H54.2873V141.482L53.9735 141.172C53.9735 141.172 53.9735 141.172 53.6597 141.172H53.3459C53.3459 141.482 53.6597 141.792 53.6597 141.792C53.3459 141.792 53.3459 141.482 53.3459 141.482C53.3459 141.482 53.3459 141.482 53.6597 141.482L53.9735 141.792V143.033L52.4045 142.413V142.102C52.7183 142.102 52.7183 142.102 52.7183 142.102C52.7183 142.102 52.7183 141.792 52.4045 141.792C52.0907 141.792 51.7769 141.482 51.7769 141.792C51.7769 141.792 51.7769 142.102 52.0907 142.102V142.413L51.4631 142.723L51.1493 142.413C50.8355 142.102 50.2079 142.413 49.8941 142.723C49.5803 143.033 49.8941 143.654 50.2079 143.964C50.5217 144.274 51.1493 144.274 51.4631 143.654L52.0907 143.964H52.4045L53.9735 143.344V144.274C53.6597 144.274 53.3459 144.585 53.3459 144.585C53.0321 144.895 53.3459 145.515 53.6597 145.826C53.9735 146.136 54.6011 145.826 54.9149 145.515C55.2287 144.895 55.2287 144.274 54.6011 143.964ZM50.2079 142.102L50.8355 142.413H50.2079C49.8941 142.413 49.8941 142.413 50.2079 142.102ZM50.2079 143.344C49.8941 143.344 49.8941 143.033 49.8941 142.723H50.5217L50.2079 143.344ZM50.8355 142.413L50.2079 142.102C50.5217 142.102 50.8355 142.102 50.8355 142.102V142.413ZM51.4631 142.413C51.4631 142.413 51.4631 142.723 51.4631 142.413C51.4631 142.723 51.4631 142.723 51.4631 142.413L51.1493 142.723L51.4631 142.413ZM51.1493 142.102C51.1493 142.102 51.4631 142.102 51.1493 142.102L50.8355 142.723L51.1493 142.102ZM50.2079 143.344L50.5217 142.723L50.8355 143.344C50.8355 143.344 50.5217 143.344 50.2079 143.344ZM51.1493 143.344L50.8355 143.033L51.1493 143.344ZM50.8355 142.723H51.4631V143.033L50.8355 142.723ZM52.0907 143.344L51.4631 143.033C51.4631 142.723 51.4631 142.413 51.4631 142.413L52.0907 142.102V143.344ZM52.4045 143.654V142.102L53.9735 142.723L52.4045 143.654ZM53.9735 143.964V144.585V143.964ZM53.6597 144.274C53.6597 143.964 53.6597 143.964 53.6597 144.274L54.2873 144.585H53.6597C53.3459 144.585 53.3459 144.585 53.6597 144.274ZM53.6597 145.515C53.3459 145.515 53.3459 145.205 53.3459 144.895H53.9735L53.6597 145.515ZM54.2873 144.585V143.964H54.6011L54.2873 144.585ZM54.6011 144.274C54.9149 144.274 54.9149 144.585 54.9149 144.895H54.2873L54.6011 144.274ZM53.9735 145.515L54.2873 144.895L54.6011 145.515C54.2873 145.515 53.9735 145.515 53.9735 145.515ZM54.6011 145.515L54.2873 144.895H54.9149C54.9149 144.895 54.9149 145.205 54.6011 145.515C54.9149 145.205 54.6011 145.515 54.6011 145.515Z" fill="white"/>
<path d="M219.66 44.3683C219.66 44.0581 217.149 41.2657 216.836 41.2657C216.208 40.6451 215.894 40.0246 215.267 39.404C214.325 38.4732 212.756 37.5424 211.815 36.6116C211.501 36.3014 210.56 35.0603 210.246 35.0603C210.246 35.0603 209.932 35.0603 209.932 35.3706C208.991 36.9219 210.873 38.163 211.815 38.7835C212.129 39.0938 212.442 39.404 212.756 40.0246C211.501 39.7143 210.246 39.0938 208.677 38.7835C208.049 38.4732 204.284 37.2322 203.97 38.163C203.97 38.4732 204.597 38.7835 204.911 39.0938C206.48 39.7143 207.735 40.3348 209.304 40.6451C208.049 40.3348 206.794 40.0246 205.539 39.7143C204.911 39.404 202.715 39.0938 202.401 40.0246C202.401 40.3348 202.401 40.6451 202.715 40.6451C204.597 41.5759 206.48 41.8862 208.363 42.1965C206.794 41.8862 205.539 41.5759 203.97 41.5759C203.656 41.5759 202.715 41.5759 202.715 41.8862C202.401 42.5067 203.028 42.817 203.342 42.817C204.911 43.4375 206.48 43.7478 208.049 44.0581C206.794 44.0581 202.715 43.4375 203.342 44.3683C203.656 44.6786 203.97 44.6786 204.284 44.9889C206.166 45.6094 207.108 46.2299 208.991 46.8505C209.618 47.1607 210.873 47.471 211.815 47.471C212.756 47.7813 213.698 47.7813 214.639 48.0915C215.894 48.4018 217.149 48.4018 218.718 48.0915L219.66 44.3683Z" fill="#FFC89F"/>
</g>
<defs>
<clipPath id="clip0_350_193">
<rect width="292.462" height="172.819" fill="white"/>
</clipPath>
</defs>
</svg>
