<svg width="1861" height="4" viewBox="0 0 1861 4" fill="none" xmlns="http://www.w3.org/2000/svg">
<path opacity="0.5" d="M10.0064 0.240057V3.84091H0.0561081V0.240057H10.0064ZM54.0689 0.240057V3.84091H44.1186V0.240057H54.0689ZM98.1314 0.240057V3.84091H88.1811V0.240057H98.1314ZM142.194 0.240057V3.84091H132.244V0.240057H142.194ZM186.256 0.240057V3.84091H176.306V0.240057H186.256ZM230.319 0.240057V3.84091H220.369V0.240057H230.319ZM274.381 0.240057V3.84091H264.431V0.240057H274.381ZM318.444 0.240057V3.84091H308.494V0.240057H318.444ZM362.506 0.240057V3.84091H352.556V0.240057H362.506ZM406.569 0.240057V3.84091H396.619V0.240057H406.569ZM450.631 0.240057V3.84091H440.681V0.240057H450.631ZM494.694 0.240057V3.84091H484.744V0.240057H494.694ZM538.756 0.240057V3.84091H528.806V0.240057H538.756ZM582.819 0.240057V3.84091H572.869V0.240057H582.819ZM626.881 0.240057V3.84091H616.931V0.240057H626.881ZM670.944 0.240057V3.84091H660.994V0.240057H670.944ZM715.006 0.240057V3.84091H705.056V0.240057H715.006ZM759.069 0.240057V3.84091H749.119V0.240057H759.069ZM803.131 0.240057V3.84091H793.181V0.240057H803.131ZM847.194 0.240057V3.84091H837.244V0.240057H847.194ZM891.256 0.240057V3.84091H881.306V0.240057H891.256ZM935.319 0.240057V3.84091H925.369V0.240057H935.319ZM979.381 0.240057V3.84091H969.431V0.240057H979.381ZM1023.44 0.240057V3.84091H1013.49V0.240057H1023.44ZM1067.51 0.240057V3.84091H1057.56V0.240057H1067.51ZM1111.57 0.240057V3.84091H1101.62V0.240057H1111.57ZM1155.63 0.240057V3.84091H1145.68V0.240057H1155.63ZM1199.69 0.240057V3.84091H1189.74V0.240057H1199.69ZM1243.76 0.240057V3.84091H1233.81V0.240057H1243.76ZM1287.82 0.240057V3.84091H1277.87V0.240057H1287.82ZM1331.88 0.240057V3.84091H1321.93V0.240057H1331.88ZM1375.94 0.240057V3.84091H1365.99V0.240057H1375.94ZM1420.01 0.240057V3.84091H1410.06V0.240057H1420.01ZM1464.07 0.240057V3.84091H1454.12V0.240057H1464.07ZM1508.13 0.240057V3.84091H1498.18V0.240057H1508.13ZM1552.19 0.240057V3.84091H1542.24V0.240057H1552.19ZM1596.26 0.240057V3.84091H1586.31V0.240057H1596.26ZM1640.32 0.240057V3.84091H1630.37V0.240057H1640.32ZM1684.38 0.240057V3.84091H1674.43V0.240057H1684.38ZM1728.44 0.240057V3.84091H1718.49V0.240057H1728.44ZM1772.51 0.240057V3.84091H1762.56V0.240057H1772.51ZM1816.57 0.240057V3.84091H1806.62V0.240057H1816.57ZM1860.63 0.240057V3.84091H1850.68V0.240057H1860.63Z" fill="white"/>
</svg>
