<svg width="1015" height="633" viewBox="0 0 1015 633" fill="none" xmlns="http://www.w3.org/2000/svg">
<path d="M44.5271 570.903V444.777H87.5973V351.726H129.052V393.156H163.382V379.8V297.7H219.531V384.99L236.348 385.529V297.51H255.951V260.005H267.7V234.811H313.652V260.005H325.402V297.51H345.005V345.206L354.062 345.776L356.786 204.522H417.274V279.659L438.556 280.197V162.776H445.84V137.994H509.685V162.776H516.969V321.026H530.429V271.684H541.608V247.566H557.854V177.113H581.384V247.566H597.631V271.684H608.842V355.176H616.664L622.84 355.081V258.359L788.628 259.941V477.757H802.626V449.208H853.043V504.089H867.611V483.928H899.534V518.648V524.789H931.457V570.903H44.5271Z" fill="#66C3FF" fill-opacity="0.5"/>
<path d="M776.087 568.118C776.087 568.118 797.084 446.993 805.571 434.491C817.321 417.21 831.888 470.256 832.617 465.572C839.331 421.546 837.937 366.001 869.385 357.613C887.246 352.834 868.213 399.075 870.43 411.007C872.647 422.939 902.384 380.37 920.689 357.867C938.994 335.363 950.205 347.77 939.596 375.084C929.335 401.48 892.155 432.434 900.484 435.093C908.813 437.751 955.462 400.942 962.493 414.52C971.107 431.136 899.217 460.476 906.438 463.799C913.659 467.122 947.893 451.551 947.893 464.78C947.893 478.01 900.579 481.333 901.814 487.062C903.809 496.335 933.547 472.598 935.859 485.448C938.234 498.614 895.512 499.595 897 509.882C897.856 515.8 908.623 509.597 910.555 517.731C914.989 536.278 847.66 562.262 847.66 562.262L776.087 568.118Z" fill="#3C8F7C"/>
<path d="M742.581 571.251C751.132 560.142 801.613 498.013 832.142 488.075C865.87 477.124 834.074 520.611 834.074 520.611C834.074 520.611 893.929 455.032 915.875 460.951C935.985 466.363 915.875 507.033 915.875 507.033C915.875 507.033 938.551 484.53 966.04 484.53C992.8 484.53 946.626 567.01 944.156 571.282H742.581V571.251Z" fill="#96D9C9"/>
<path d="M951.693 527.131C951.852 528.144 952.929 531.151 952.263 534.094C951.883 537.006 949.762 539.854 949.73 539.728C949.54 539.728 953.024 538.778 955.367 535.803C957.869 533.05 959.262 528.27 958.724 526.181C958.122 521.814 954.512 519.693 953.024 520.959C951.503 522.194 951.472 524.852 951.693 527.131Z" fill="#50BFA5"/>
<path d="M929.715 535.012C929.873 536.025 930.95 539.031 930.285 541.975C929.905 544.887 927.783 547.735 927.751 547.608C927.561 547.608 931.045 546.659 933.389 543.684C935.89 540.93 937.284 536.151 936.745 534.062C936.144 529.695 932.533 527.574 931.045 528.84C929.525 530.106 929.493 532.765 929.715 535.012Z" fill="#50BFA5"/>
<path d="M907.357 545.013C907.515 546.026 908.592 549.033 907.927 551.976C907.547 554.888 905.425 557.736 905.393 557.61C905.203 557.61 908.687 556.66 911.03 553.685C913.532 550.932 914.925 546.152 914.387 544.064C913.785 539.696 910.175 537.575 908.687 538.841C907.166 540.076 907.135 542.734 907.357 545.013Z" fill="#50BFA5"/>
<path d="M958.249 547.735C957.806 546.88 956.919 544.095 954.797 542.291C952.897 540.361 949.73 539.443 949.793 539.538C949.667 539.633 952.739 538.398 956.159 539.284C959.547 539.886 963.221 542.639 963.981 544.507C965.976 548.051 964.488 551.628 962.683 551.533C960.878 551.47 959.357 549.539 958.249 547.735Z" fill="#50BFA5"/>
<path d="M935.384 555.837C934.94 554.983 934.054 552.198 931.932 550.394C930.032 548.463 926.865 547.545 926.928 547.64C926.801 547.735 929.873 546.501 933.294 547.387C936.682 547.988 940.356 550.742 941.116 552.609C943.111 556.154 941.623 559.73 939.818 559.635C937.981 559.572 936.492 557.642 935.384 555.837Z" fill="#50BFA5"/>
<path d="M973.039 528.587C972.944 529.188 973.007 531.087 972.12 532.638C971.392 534.22 969.682 535.455 969.682 535.36C969.587 535.328 971.709 535.423 973.577 534.157C975.477 533.049 977.124 530.581 977.187 529.315C977.631 526.751 975.952 524.884 974.875 525.358C973.799 525.77 973.324 527.257 973.039 528.587Z" fill="#50BFA5"/>
<path d="M976.617 538.905C976.237 538.43 975.319 536.784 973.735 535.93C972.278 534.98 970.188 534.822 970.252 534.885C970.188 534.98 971.962 533.777 974.21 533.872C976.427 533.809 979.087 535.043 979.816 536.119C981.526 538.082 981.082 540.519 979.911 540.709C978.739 540.899 977.535 539.886 976.617 538.905Z" fill="#50BFA5"/>
<path d="M925.819 441.866C901.371 480.162 883.256 526.087 873.058 571.251H870.43C880.596 527.004 899.534 480.7 923.951 442.467C929.62 433.574 935.732 423.034 946.373 419.584C946.563 419.521 946.658 419.837 946.468 419.901C936.745 423.541 931.14 433.542 925.819 441.866Z" fill="#50BFA5"/>
<path d="M878.03 571.251C905.361 533.999 939.754 497.76 979.245 467.819C979.625 467.534 980.164 468.199 979.784 468.515C942.319 497.38 908.56 532.733 880.659 571.251H878.03Z" fill="#50BFA5"/>
<path d="M928.068 418.128C928.701 419.046 931.108 421.483 931.805 424.648C932.755 427.655 931.995 431.453 931.932 431.295C931.742 431.358 934.719 428.858 935.637 424.838C936.84 421.008 935.985 415.66 934.497 413.919C931.932 409.931 927.403 409.519 926.548 411.45C925.598 413.381 926.801 416.008 928.068 418.128Z" fill="#50BFA5"/>
<path d="M933.895 452.279C932.977 451.614 930.602 449.177 927.466 448.386C924.49 447.373 920.689 448.037 920.816 448.132C920.753 448.322 923.318 445.379 927.308 444.524C931.172 443.385 936.461 444.334 938.171 445.885C942.098 448.544 942.414 453.07 940.451 453.924C938.582 454.842 935.986 453.608 933.895 452.279Z" fill="#50BFA5"/>
<path d="M925.091 467.249C924.173 466.585 921.798 464.148 918.662 463.356C915.685 462.343 911.885 463.008 912.012 463.103C911.948 463.293 914.514 460.35 918.504 459.495C922.368 458.356 927.656 459.305 929.367 460.856C933.293 463.514 933.61 468.04 931.647 468.895C929.747 469.813 927.15 468.579 925.091 467.249Z" fill="#50BFA5"/>
<path d="M956.57 502.001C955.652 501.336 953.277 498.899 950.141 498.108C947.164 497.095 943.364 497.76 943.491 497.855C943.427 498.044 945.993 495.101 949.983 494.246C953.847 493.107 959.135 494.057 960.846 495.607C964.772 498.266 965.089 502.792 963.126 503.647C961.226 504.533 958.629 503.298 956.57 502.001Z" fill="#50BFA5"/>
<path d="M972.627 487.79C971.708 487.125 969.333 484.688 966.198 483.897C963.221 482.884 959.421 483.549 959.547 483.644C959.484 483.834 962.049 480.89 966.04 480.036C969.903 478.896 975.192 479.846 976.902 481.397C980.829 484.055 981.146 488.581 979.182 489.436C977.314 490.322 974.717 489.088 972.627 487.79Z" fill="#50BFA5"/>
<path d="M915.717 435.061C916.477 435.884 919.233 437.878 920.436 440.916C921.861 443.733 921.703 447.594 921.608 447.468C921.449 447.563 923.983 444.619 924.268 440.505C924.838 436.517 923.191 431.39 921.418 429.902C918.251 426.357 913.722 426.674 913.184 428.731C912.55 430.788 914.134 433.162 915.717 435.061Z" fill="#50BFA5"/>
<path d="M902.732 452.057C903.809 452.627 907.641 453.703 909.573 456.551C911.758 459.083 912.012 463.451 911.885 463.356C911.695 463.546 914.608 459.147 914.482 454.463C914.767 449.778 911.98 444.778 909.51 443.828C904.981 441.265 899.154 443.543 898.679 446.075C898.14 448.639 900.452 450.633 902.732 452.057Z" fill="#50BFA5"/>
<path d="M889.083 477.757C890.255 478.137 894.182 478.548 896.557 481.049C899.122 483.201 900.136 487.442 899.977 487.379C899.819 487.6 901.941 482.789 901.054 478.168C900.547 473.484 896.969 469.022 894.372 468.547C889.463 466.774 884.143 470.003 884.079 472.598C883.953 475.193 886.581 476.744 889.083 477.757Z" fill="#50BFA5"/>
<path d="M929.493 495.703C930.348 496.241 933.388 497.317 934.782 499.754C936.397 501.938 936.365 505.514 936.27 505.419C936.08 505.546 938.709 502.159 938.899 498.329C939.374 494.531 937.41 490.29 935.479 489.404C931.932 487.062 927.086 488.581 926.548 490.607C925.946 492.632 927.72 494.405 929.493 495.703Z" fill="#50BFA5"/>
<path d="M950.521 424.142C950.015 423.73 948.716 422.148 946.879 421.547C945.169 420.819 942.889 421.04 942.952 421.104C942.889 421.198 944.536 419.584 946.943 419.268C949.286 418.761 952.358 419.553 953.308 420.534C955.525 422.275 955.493 424.965 954.322 425.376C953.182 425.851 951.693 424.996 950.521 424.142Z" fill="#50BFA5"/>
<path d="M945.644 413.191C945.676 413.856 946.119 415.849 945.454 417.654C944.979 419.458 943.396 421.135 943.396 421.04C943.269 421.008 945.549 420.692 947.291 418.983C949.096 417.432 950.363 414.489 950.173 413.128C950.141 410.311 948.02 408.665 946.943 409.361C945.898 410.058 945.676 411.735 945.644 413.191Z" fill="#50BFA5"/>
<path d="M984.218 473.326C983.711 472.915 982.412 471.332 980.576 470.731C978.866 470.003 976.585 470.224 976.649 470.288C976.585 470.383 978.232 468.768 980.639 468.452C982.983 467.945 986.054 468.737 987.005 469.718C989.221 471.459 989.19 474.149 988.018 474.56C986.878 475.035 985.389 474.181 984.218 473.326Z" fill="#50BFA5"/>
<path d="M978.296 462.28C978.359 462.945 978.961 464.875 978.486 466.743C978.169 468.578 976.744 470.383 976.712 470.288C976.585 470.288 978.834 469.781 980.417 467.914C982.096 466.236 983.109 463.198 982.824 461.869C982.571 459.052 980.291 457.596 979.309 458.387C978.327 459.147 978.232 460.824 978.296 462.28Z" fill="#50BFA5"/>
<path d="M974.178 534.695C967.148 535.328 960.18 536.626 953.34 538.43C940.862 541.722 928.86 546.532 917.047 551.691C911.251 554.223 905.393 556.724 899.692 559.477C897.032 560.775 894.34 562.072 891.902 563.75C888.608 565.997 883.446 570.491 882.812 571.188L885.536 571.283C887.405 569.763 894.182 564.035 903.651 559.477C926.041 548.716 949.286 537.639 974.242 534.917C974.337 534.885 974.305 534.664 974.178 534.695Z" fill="#50BFA5"/>
<path d="M702.329 568.814C695.71 563.148 691.688 557.135 692.733 551.122C694.57 540.455 709.74 547.292 710.31 539.601C711.323 526.181 653.432 529.315 655.332 512.129C657.2 495.323 699.764 522.826 701.537 510.673C702.646 503.172 638.294 503.805 636.995 486.745C635.697 469.686 683.549 486.176 692.987 481.175C702.424 476.174 602.286 445.79 612.293 423.477C620.464 405.278 687.223 447.848 698.212 443.575C709.201 439.302 655.87 403.284 639.371 370.305C622.333 336.218 636.267 319.064 663.249 346.156C690.232 373.248 734.663 425.028 736.469 409.424C738.305 393.853 707.966 336.218 732.605 340.522C775.96 348.118 779.539 419.806 792.967 475.826C794.392 481.745 808.896 411.893 826.473 432.972C835.53 443.796 818.745 523.554 808.295 568.782H702.329V568.814Z" fill="#96D9C9"/>
<path d="M471.512 228.608C470.422 215.982 479.78 204.863 492.413 203.773C505.047 202.683 516.173 212.035 517.263 224.661C518.353 237.287 508.996 248.406 496.362 249.496C483.728 250.586 472.603 241.234 471.512 228.608Z" fill="white"/>
<path d="M294.366 198.699C295.094 204.427 289.141 208.953 283.82 208.605C277.961 208.194 272.989 203.415 272.134 197.654C271.216 191.419 274.953 186.45 280.748 185.975C286.385 185.532 289.996 190.533 288.381 195.597C287.209 199.237 283.883 200.566 282.237 199.585C280.938 198.794 281.002 196.831 282.585 196.483C283.218 196.357 283.852 196.705 284.2 197.18C285.594 196.641 286.892 194.109 286.005 191.419C284.865 187.969 280.495 187.748 277.771 189.362C274.319 191.419 273.781 195.85 275.048 199.363C276.378 203.066 280.02 205.978 283.978 206.263C288.475 206.58 292.402 203.13 292.783 198.667C292.846 197.654 294.239 197.686 294.366 198.699Z" fill="#F48C7F"/>
<path d="M193.911 179.582L190.142 171.1L195.02 163.187C195.558 162.301 194.861 161.13 193.816 161.257L184.569 162.206L178.552 155.148C177.855 154.357 176.556 154.674 176.335 155.718L174.403 164.802L165.821 168.346C164.839 168.758 164.744 170.087 165.662 170.625L173.706 175.278L174.435 184.52C174.53 185.564 175.765 186.07 176.556 185.374L183.46 179.171L192.486 181.355C193.499 181.576 194.355 180.532 193.911 179.582Z" fill="#F48C7F"/>
<path d="M546.2 119.479L543.381 113.117L547.023 107.199C547.435 106.534 546.896 105.679 546.105 105.743L539.169 106.471L534.64 101.185C534.134 100.584 533.152 100.837 532.962 101.596L531.505 108.401L525.076 111.06C524.348 111.376 524.285 112.389 524.95 112.769L530.967 116.25L531.505 123.182C531.569 123.973 532.519 124.353 533.089 123.815L538.282 119.162L545.06 120.808C545.851 120.998 546.516 120.207 546.2 119.479Z" fill="#F7CC7F"/>
<path d="M130.762 253.042L126.74 245.762L114.358 250.921L107.2 241.015L97.3195 243.357L96.1161 238.356L109.385 235.223L116.163 244.591L129.052 239.242L135.038 250.162L130.762 253.042Z" fill="#50BFA5"/>
<path d="M455.721 96.5008L462.783 92.1331L456.988 80.0428L466.488 72.3835L463.607 62.6353L468.547 61.1794L472.379 74.2192L463.385 81.4987L469.402 94.0638L458.824 100.647L455.721 96.5008Z" fill="#07345A"/>
<path d="M363.215 146.065L358.021 137.614L362.201 135.905C363.12 135.525 363.563 134.481 363.183 133.563C362.803 132.645 361.758 132.202 360.84 132.582L356.026 134.544L351.371 126.948L355.836 125.144C356.754 124.764 357.198 123.72 356.818 122.802C356.438 121.884 355.393 121.441 354.474 121.821L349.375 123.878L343.96 115.174C343.485 114.446 342.566 114.13 341.775 114.446L340.983 114.763C339.97 115.174 339.558 116.409 340.128 117.358L345.163 125.556L337.753 128.562L332.337 119.859C331.862 119.131 330.944 118.814 330.152 119.131L329.297 119.479C328.284 119.89 327.872 121.125 328.442 122.074L333.477 130.271L329.297 131.98C328.379 132.36 327.935 133.405 328.315 134.323C328.695 135.24 329.74 135.684 330.659 135.304L335.473 133.341L340.065 140.969L335.599 142.773C334.681 143.153 334.237 144.197 334.618 145.115C334.998 146.033 336.043 146.476 336.961 146.096L342.06 144.039L347.57 152.996C348.014 153.724 348.964 154.041 349.755 153.724L350.674 153.344C351.687 152.933 352.099 151.698 351.529 150.749L346.335 142.298L353.746 139.292L359.256 148.249C359.7 148.977 360.65 149.293 361.441 148.977L362.36 148.597C363.405 148.249 363.817 147.014 363.215 146.065ZM344.34 139.292L339.685 131.696L347.095 128.689L351.751 136.285L344.34 139.292Z" fill="#50BFA5"/>
<path d="M589.777 57.7929C589.808 57.7929 589.808 57.7929 589.84 57.7613C590.442 57.5397 591.043 57.3498 591.677 57.1599C591.898 57.0966 592.088 57.0333 592.31 56.97C592.532 56.9067 592.754 56.8434 592.975 56.8118C593.197 56.7485 593.419 56.7168 593.672 56.6535C593.894 56.6219 594.115 56.5586 594.337 56.5269C594.59 56.4953 594.844 56.432 595.065 56.4003C595.287 56.3687 595.477 56.337 595.699 56.3054C595.952 56.2737 596.237 56.2421 596.522 56.2104C596.712 56.1788 596.902 56.1788 597.124 56.1471C597.441 56.1155 597.757 56.0838 598.042 56.0838C598.201 56.0838 598.359 56.0522 598.549 56.0522C599.024 56.0205 599.499 56.0205 600.006 56.0205H822.071C822.577 56.0205 823.116 56.0205 823.622 56.0522C824.636 56.1155 825.649 56.2104 826.631 56.3687C827.138 56.432 827.613 56.5269 828.119 56.6219C840.787 59.2172 850.541 69.8516 851.871 82.9863C851.966 83.9991 852.03 85.0119 852.03 86.0564V456.678V541.247C852.03 554.255 843.796 565.301 832.268 569.479C832.205 569.51 832.173 569.51 832.11 569.542C831.54 569.732 830.97 569.922 830.368 570.112C830.146 570.175 829.956 570.238 829.735 570.301C829.513 570.365 829.291 570.428 829.07 570.46C828.848 570.523 828.626 570.555 828.373 570.618C828.151 570.65 827.929 570.713 827.708 570.745C827.454 570.776 827.201 570.839 826.979 570.871C826.758 570.903 826.568 570.934 826.346 570.966C826.093 570.998 825.808 571.029 825.523 571.061C825.333 571.093 825.143 571.093 824.921 571.124C824.604 571.156 824.288 571.188 824.002 571.188C823.844 571.188 823.686 571.219 823.496 571.219C823.021 571.251 822.546 571.251 822.039 571.251H599.942C598.897 571.251 597.884 571.188 596.87 571.093C582.778 569.668 571.567 558.433 570.142 544.285C570.047 543.272 569.983 542.259 569.983 541.215V170.594V86.0564C570.015 73.0482 578.249 62.0024 589.777 57.7929Z" fill="url(#paint0_linear_327_339)"/>
<path d="M583.664 96.9438H837.494V530.327H583.664V96.9438Z" fill="#EAFCFC"/>
<path d="M583.664 279.501L656.916 273.488L659.006 230.57L676.994 229.811V200.566L583.664 240.635V232.438L614.637 219.176L620.496 97.0072H628.065L622.364 215.885L677.025 192.464V191.641H678.957L691.403 186.323L691.467 97.0388H699.004L698.941 183.064L774.694 150.527V96.9438H789.8V144.039L837.494 123.593V131.79L789.8 152.236V199.965L837.494 177.715V186.039L789.8 208.289V236.489L832.87 291.117L837.494 291.212V298.744L799.586 297.985V349.416L759.999 371.381L801.517 389.643L837.494 364.007V373.28L803.513 397.492L803.481 397.461L811.683 530.327H796.545L791.447 447.752L727.633 471.078L734.949 530.327H727.348L720.381 473.737L658.087 496.493L668.982 530.327H661.064L650.993 499.089L583.664 523.681V515.642L648.65 491.904L630.25 434.808L653.812 421.736C645.641 411.83 627.97 390.434 610.33 368.912C599.087 355.208 590.41 344.542 583.664 336.218V324.191C592.025 334.572 602.793 347.802 614.384 361.949L653.844 336.724L656.535 281.115L583.664 287.065V279.501ZM673.415 245.098L669.267 330.426L714.775 290.958V243.388L673.415 245.098ZM774.694 158.725L684.563 197.369V229.526L774.694 225.791V158.725ZM823.084 290.958L783.339 240.54L722.313 243.072V288.964L823.084 290.958ZM792.017 344.985V297.89L719.906 296.465L676.044 334.54L751.29 367.583L792.017 344.985ZM639.371 438.384L655.775 489.309L791.003 439.903L788.565 400.436L743.436 380.591L639.371 438.384ZM619.197 367.805C633.069 384.706 647.7 402.493 660.526 418.001L734.727 376.793L657.929 343.054L619.197 367.805Z" fill="white"/>
<path d="M654.192 496.62L802.309 443.733L799.712 395.498L669.805 338.117L721.172 294.092V238.451L784.923 236.552V185.849H779.539V231.298L715.789 233.229V291.623L659.797 339.573L794.487 399.106L796.704 439.998L652.387 491.556L654.192 496.62Z" fill="#C0DDE3"/>
<path d="M796.197 167.872L782.389 195.28L767.885 168.22C763.578 158.282 770.482 146.983 781.281 146.508C781.439 146.508 781.598 146.508 781.756 146.508C781.914 146.508 782.073 146.508 782.231 146.508C793.062 146.698 800.219 157.839 796.197 167.872ZM789.135 162.175C789.072 158.218 785.841 155.053 781.883 155.117C777.924 155.18 774.757 158.408 774.82 162.364C774.884 166.321 778.114 169.486 782.073 169.422C786 169.359 789.167 166.131 789.135 162.175Z" fill="#6D90B9"/>
<path d="M667.619 469.211L653.812 496.62L639.307 469.559C635 459.621 641.904 448.322 652.703 447.847C652.862 447.847 653.02 447.847 653.178 447.847C653.337 447.847 653.495 447.847 653.653 447.847C664.484 448.037 671.641 459.178 667.619 469.211ZM660.526 463.514C660.462 459.558 657.232 456.393 653.273 456.456C649.315 456.519 646.148 459.748 646.211 463.704C646.274 467.66 649.505 470.825 653.463 470.762C657.422 470.73 660.589 467.47 660.526 463.514Z" fill="#184655"/>
<path d="M656.947 83.3344H764.654C764.813 83.3344 764.939 83.2078 764.939 83.0496V78.1755C764.939 78.0172 764.813 77.8906 764.654 77.8906H656.947C656.789 77.8906 656.662 78.0172 656.662 78.1755V83.0496C656.694 83.2078 656.821 83.3344 656.947 83.3344Z" fill="white"/>
<path opacity="0.3" d="M698.75 551.216C698.75 558.084 704.324 563.687 711.165 563.687C718.037 563.687 723.579 558.116 723.579 551.216C723.579 544.348 718.005 538.746 711.165 538.746C704.293 538.746 698.75 544.317 698.75 551.216Z" fill="#DAEEF7"/>
<path opacity="0.2" d="M584.52 512.16H837.494V530.359H584.52V512.16Z" fill="#3CB4C5"/>
<path opacity="0.2" d="M583.664 96.9438H837.494V119.953H583.664V96.9438Z" fill="#3CB4C5"/>
<path d="M236.379 293.585H330.152C333.382 293.585 336.011 296.212 336.011 299.472V338.275C336.011 341.535 333.382 344.162 330.152 344.162H256.331C253.354 348.34 247.938 355.841 247.463 355.841C247.02 355.841 247.875 348.783 248.477 344.162H236.379C233.149 344.162 230.52 341.535 230.52 338.275V299.441C230.52 296.212 233.149 293.585 236.379 293.585Z" fill="#F7CC7F"/>
<path d="M296.139 309.949H323.153C323.597 309.949 323.977 309.569 323.977 309.126V308.239C323.977 307.796 323.597 307.417 323.153 307.417H296.139C295.696 307.417 295.316 307.796 295.316 308.239V309.126C295.316 309.569 295.696 309.949 296.139 309.949Z" fill="white"/>
<path d="M305.45 321.121H323.153C323.597 321.121 323.977 320.741 323.977 320.298V319.412C323.977 318.969 323.597 318.589 323.153 318.589H305.45C305.007 318.589 304.627 318.969 304.627 319.412V320.298C304.627 320.741 304.975 321.121 305.45 321.121Z" fill="white"/>
<path d="M279.291 321.121H298.609C299.053 321.121 299.433 320.741 299.433 320.298V319.412C299.433 318.969 299.053 318.589 298.609 318.589H279.291C278.848 318.589 278.468 318.969 278.468 319.412V320.298C278.436 320.741 278.816 321.121 279.291 321.121Z" fill="white"/>
<path d="M242.967 321.121H271.596C272.039 321.121 272.419 320.741 272.419 320.298V319.412C272.419 318.969 272.039 318.589 271.596 318.589H242.967C242.523 318.589 242.143 318.969 242.143 319.412V320.298C242.143 320.741 242.491 321.121 242.967 321.121Z" fill="white"/>
<path d="M242.966 309.949H288.317C288.76 309.949 289.14 309.569 289.14 309.126V308.239C289.14 307.796 288.76 307.417 288.317 307.417H242.966C242.523 307.417 242.143 307.796 242.143 308.239V309.126C242.143 309.569 242.491 309.949 242.966 309.949Z" fill="white"/>
<path d="M286.417 332.515H323.153C323.597 332.515 323.977 332.135 323.977 331.692V330.806C323.977 330.363 323.597 329.983 323.153 329.983H286.417C285.973 329.983 285.593 330.363 285.593 330.806V331.692C285.593 332.135 285.942 332.515 286.417 332.515Z" fill="white"/>
<path d="M242.967 332.515H279.703C280.146 332.515 280.526 332.135 280.526 331.692V330.806C280.526 330.363 280.146 329.983 279.703 329.983H242.967C242.523 329.983 242.143 330.363 242.143 330.806V331.692C242.143 332.135 242.492 332.515 242.967 332.515Z" fill="white"/>
<path d="M724.149 509.945C724.149 509.945 604.281 529.821 602.856 528.967C601.431 528.112 585.881 461.172 585.881 461.172C585.881 461.172 685.006 443.353 686.59 443.353C688.205 443.353 709.74 460.603 710.025 461.742C710.342 462.913 724.149 509.945 724.149 509.945Z" fill="#183658"/>
<path d="M358.496 526.973C355.614 527.257 210.474 524.156 210.474 524.156L221.4 490.797C221.4 490.797 241.51 460.381 252.151 460.951C262.791 461.489 326.035 451.266 336.961 458.83C347.887 466.394 357.641 460.349 362.835 478.453C367.997 496.557 372.05 498.582 368.028 509.47C363.975 520.358 358.496 526.973 358.496 526.973Z" fill="#183658"/>
<path d="M614.198 521.965C614.139 494.679 636.21 472.512 663.495 472.453C690.78 472.394 712.947 494.466 713.006 521.752C713.065 549.038 690.994 571.205 663.709 571.264C636.424 571.323 614.257 549.251 614.198 521.965Z" fill="#1A1A1A"/>
<path d="M663.598 556.249C644.621 556.249 629.237 540.86 629.237 521.877C629.237 502.894 644.621 487.505 663.598 487.505C682.575 487.505 697.959 502.894 697.959 521.877C697.959 540.86 682.575 556.249 663.598 556.249Z" fill="#9E9DA2"/>
<path d="M663.597 544.855C650.899 544.855 640.606 534.567 640.606 521.877C640.606 509.186 650.899 498.899 663.597 498.899C676.296 498.899 686.589 509.186 686.589 521.877C686.589 534.567 676.296 544.855 663.597 544.855Z" fill="#D8D9DD"/>
<path d="M233.806 521.977C233.747 494.691 255.818 472.524 283.103 472.465C310.388 472.406 332.555 494.478 332.614 521.764C332.673 549.05 310.602 571.217 283.317 571.276C256.032 571.335 233.865 549.263 233.806 521.977Z" fill="#1A1A1A"/>
<path d="M283.218 556.249C264.241 556.249 248.857 540.86 248.857 521.877C248.857 502.894 264.241 487.505 283.218 487.505C302.195 487.505 317.579 502.894 317.579 521.877C317.579 540.86 302.195 556.249 283.218 556.249Z" fill="#9E9DA2"/>
<path d="M283.218 544.855C270.52 544.855 260.226 534.567 260.226 521.877C260.226 509.186 270.52 498.899 283.218 498.899C295.916 498.899 306.21 509.186 306.21 521.877C306.21 534.567 295.916 544.855 283.218 544.855Z" fill="#D8D9DD"/>
<path d="M169.779 474.877C173.959 447.341 187.45 441.581 227.385 433.573C271.469 424.775 327.428 396.036 327.428 396.036C327.428 396.036 422.848 349.321 446.252 343.94C469.655 338.56 527.103 340.111 575.399 340.491C623.694 340.87 652.038 354.29 676.582 373.438C701.126 392.587 743.658 407.146 743.658 407.146L751.385 408.538C759.334 409.962 765.129 416.862 765.129 424.933V493.234C765.129 500.956 759.904 507.729 752.43 509.692L724.498 517.066C722.218 517.446 720.096 515.832 719.842 513.553C716.77 485.606 692.607 464.369 663.788 464.4C633.132 464.432 608.018 489.594 608.018 520.231C608.018 523.713 608.335 527.131 608.968 530.422C609.602 533.841 606.973 536.974 603.521 536.974H346.462C341.458 536.974 337.594 532.575 338.259 527.637C338.576 525.263 338.734 522.826 338.766 520.358C338.861 490.1 314.381 465.033 284.105 464.4C252.721 463.767 227.1 488.992 227.1 520.199C227.1 522.257 227.227 524.314 227.417 526.308C228.05 532.005 223.648 536.974 217.916 536.974H180.958C174.244 536.974 168.797 531.53 168.797 524.82V489.056C168.765 484.308 169.082 479.561 169.779 474.877Z" fill="white"/>
<path d="M763.483 433.004H733.049C730.452 433.004 728.678 435.662 729.692 438.068L733.112 446.233C736.374 454.019 743.974 459.052 752.43 459.052H763.514C765.7 459.052 767.441 457.279 767.441 455.127V436.928C767.41 434.744 765.668 433.004 763.483 433.004Z" fill="#CF283C"/>
<path d="M218.201 445.632C201.448 448.196 182.13 464.052 182.13 464.052C177.506 469.021 181.338 477.061 188.084 476.617L220.766 474.56C227.544 474.117 233.339 469.496 235.239 462.945C238.438 452.025 235.746 442.942 218.201 445.632Z" fill="#F3FCFF"/>
<path d="M764.939 495.766C767.03 495.702 768.518 497.823 767.758 499.753C765.573 505.261 760.886 509.597 754.9 511.179L723.611 519.44C721.077 519.883 718.702 518.079 718.417 515.483C717.847 510.198 716.58 505.102 714.712 500.323C714.079 498.709 715.282 496.968 716.992 496.905L764.939 495.766Z" fill="#EAB054"/>
<path d="M226.815 508.647C229.19 508.584 231.027 510.673 230.71 513.015C230.362 515.642 230.204 518.3 230.204 521.022C230.204 523.301 230.33 525.58 230.584 527.795C231.281 534.094 226.403 539.633 220.038 539.633H179.026C171.584 539.633 165.535 533.587 165.535 526.15V515.547C165.535 512.54 167.942 510.071 170.951 510.008L226.815 508.647Z" fill="#EAB054"/>
<path opacity="0.5" d="M327.365 411.862C327.904 411.577 382.248 381.762 418.288 365.083C453.947 348.562 493.787 350.334 495.497 350.397C500.058 350.302 595.351 348.213 624.645 357.36C654.16 366.539 692.575 408.412 694.19 410.184L694.634 410.69L684.31 459.147L683.201 459.083C653.147 457.374 630.155 465.382 616.664 482.188C606.498 494.911 605.231 508.331 605.231 508.457L605.136 509.597L496.764 512.382L495.497 512.414L494.167 512.445L343.2 515.389L343.168 514.091C342.408 465.065 326.89 413.855 326.732 413.349L326.415 412.336L327.365 411.862ZM602.793 507.096C603.3 503.457 605.611 491.968 614.574 480.7C624.233 468.578 643.805 454.557 682.251 456.456L691.847 411.45C687.413 406.671 651.057 368.279 623.885 359.829C596.712 351.378 508.418 352.739 496.796 352.961V509.818L602.793 507.096ZM345.733 512.793L494.167 509.913V352.961C487.168 352.771 451.54 352.549 419.365 367.457C385.985 382.902 336.834 409.646 329.519 413.634C331.704 421.008 344.815 467.597 345.733 512.793Z" fill="#3B3C3D"/>
<path opacity="0.5" d="M767.758 499.753C765.573 505.261 760.886 509.597 754.9 511.179L723.611 519.44C721.077 519.883 718.702 518.079 718.417 515.483C718.195 513.426 717.879 511.432 717.435 509.438L767.758 499.753Z" fill="#FEB546"/>
<path opacity="0.5" d="M230.267 523.934C230.331 525.232 230.426 526.529 230.552 527.827C231.249 534.125 226.372 539.664 220.006 539.664H178.995C171.552 539.664 165.504 533.619 165.504 526.181V523.966H230.267V523.934Z" fill="#FEB546"/>
<path d="M336.328 523.934C336.328 521.149 336.138 518.395 335.758 515.674C335.283 512.445 337.689 509.502 340.983 509.438L608.335 502.919C611.248 502.855 613.339 505.64 612.547 508.426C611.153 513.331 610.425 518.459 610.425 523.776C610.425 527.289 610.742 530.739 611.375 534.094C612.009 537.575 609.38 540.835 605.833 540.835H344.213C339.083 540.835 335.188 536.309 335.884 531.214C336.138 528.84 336.328 526.403 336.328 523.934Z" fill="#00AFEF"/>
<path opacity="0.5" d="M336.328 523.934C336.328 523.902 336.328 523.839 336.328 523.807H610.425C610.425 527.321 610.742 530.77 611.375 534.125C612.009 537.607 609.38 540.867 605.833 540.867H344.213C339.083 540.867 335.188 536.341 335.884 531.245C336.138 528.84 336.328 526.403 336.328 523.934Z" fill="#068FFF"/>
<path d="M634.145 431.295H667.493C668.285 431.295 668.918 430.662 668.918 429.87V426.895C668.918 426.104 668.285 425.471 667.493 425.471H634.145C633.353 425.471 632.72 426.104 632.72 426.895V429.87C632.72 430.662 633.353 431.295 634.145 431.295Z" fill="#EAB054"/>
<path d="M450.274 434.206H483.621C484.413 434.206 485.046 433.573 485.046 432.782V429.807C485.046 429.016 484.413 428.383 483.621 428.383H450.274C449.482 428.383 448.848 429.016 448.848 429.807V432.782C448.848 433.573 449.482 434.206 450.274 434.206Z" fill="#EAB054"/>
<path d="M662.553 416.419L514.816 417.812C514.816 417.812 505.758 417.558 504.555 409.076C503.32 400.562 503.415 364.133 503.415 364.133C503.415 364.133 504.491 356.822 511.49 356.727C515.734 356.664 551.457 354.132 586.166 358.341C614.479 361.791 640.701 374.704 660.558 394.58L671.04 405.057C671.04 405.088 678.134 416.292 662.553 416.419Z" fill="#183658"/>
<path d="M486.978 368.786V406.987C486.978 411.956 483.178 416.039 478.364 416.229L362.264 420.882C359.604 420.977 356.976 419.774 355.456 417.527C353.365 414.457 353.144 409.393 363.531 402.651C381.614 390.877 427.662 365.399 444.668 362.962C455.499 361.38 469.687 360.715 478.554 360.43C483.178 360.24 486.978 364.038 486.978 368.786Z" fill="#183658"/>
<path d="M241.51 374.451L242.27 375.148C242.65 375.496 243.252 375.496 243.6 375.116L257.123 360.209C257.471 359.829 257.408 359.259 257.028 358.911L256.268 358.215C255.888 357.867 255.286 357.867 254.938 358.246L241.415 373.154C241.066 373.533 241.098 374.103 241.51 374.451Z" fill="#183658"/>
<path d="M195.653 362.361C197.458 360.873 211.424 367.045 211.266 369.166C211.076 371.318 221.02 392.049 221.02 392.049L238.185 378.312C238.343 377.806 239.958 372.489 240.053 371.539C240.148 370.527 243.03 368.786 244.392 369.039C245.753 369.292 243.252 371.001 243.062 371.318C242.618 372.172 244.328 372.489 244.328 372.489C244.328 372.489 249.3 369.767 249.395 368.153C249.49 366.539 250.536 363.184 251.581 363.88C252.119 364.228 252.119 366.634 251.961 367.773C252.277 366.475 252.721 365.051 253.164 364.893C253.956 364.64 254.368 365.652 254.209 366.159C254.051 366.665 252.784 372.109 252.372 372.742C251.992 373.343 243.98 379.8 242.84 381.224C242.84 381.224 220.64 406.671 219.056 407.336C217.663 407.905 212.722 399.138 208.067 393.315C203.412 387.491 190.016 366.95 195.653 362.361Z" fill="#F7A491"/>
<path d="M150.873 549.444C150.873 549.444 147.832 552.419 147.737 553.527C147.674 554.635 147.452 566.345 148.719 567.453C149.986 568.561 153.628 569.32 152.456 570.555C151.569 571.473 144.729 571.283 140.2 571.029C138.87 570.966 137.223 560.363 136.685 558.813C135.925 556.565 134.088 551.47 134.753 549.887C135.101 549.128 136.716 547.545 138.965 546.058C141.34 544.507 143.652 541.057 143.652 541.057L150.873 549.444Z" fill="#F48C7F"/>
<path d="M182.478 556.407C182.478 556.407 179.755 564.13 179.755 564.161C179.565 565.396 178.741 568.402 178.741 569.542C178.741 573.72 197.553 565.997 193.341 564.13C192.961 563.971 191.757 562.61 191.631 561.186C191.441 559.002 193.214 556.249 193.214 556.249L182.478 556.407Z" fill="#F7A491"/>
<path d="M211.994 412.4C211.994 412.4 213.356 426.262 213.356 426.484C213.356 448.892 217.79 492.696 216.934 496.937C214.876 507.223 192.739 559.667 192.739 559.667L180.768 558.243L196.349 495.449L190.617 470.161L182.51 420.186L211.994 412.4Z" fill="#355389"/>
<path d="M171.838 424.68L169.557 437.815L163.414 491.873L140.01 544.728C140.01 544.728 143.304 552.419 148.149 553.495L185.36 499.247L208.479 429.807L207.656 414.394L171.838 424.68Z" fill="#466EB6"/>
<path d="M216.745 379.42L200.15 381.129C200.15 381.129 199.39 367.488 199.39 361C199.39 353.119 200.055 342.928 201.005 343.149C203.665 343.751 207.275 345.238 209.397 348.182C216.84 358.373 216.745 379.42 216.745 379.42Z" fill="#3C8F7C"/>
<path d="M208.605 359.576C208.954 361.981 215.319 427.402 215.319 427.402C185.107 442.024 168.449 429.997 168.449 429.997C168.449 429.997 169.431 384.073 168.259 377.806C167.467 373.66 166.485 346.188 169.177 345.397C172.598 344.415 176.556 343.371 180.832 342.928C184.505 342.548 198.693 342.327 201.258 343.181C201.258 343.181 207.149 349.448 208.605 359.576Z" fill="#50BFA5"/>
<path d="M139.155 546.026C139.155 546.026 146.185 565.87 148.94 566.82C149.669 567.073 153.184 567.706 153.849 569.289C154.039 569.763 153.849 571.314 153.849 571.314H139.186C139.186 571.314 137.318 562.579 136.589 558.718C136.589 558.718 132.726 549.318 133.137 548.463C133.581 547.64 139.155 546.026 139.155 546.026Z" fill="#50BFA5"/>
<path d="M177.665 570.903L179.818 564.066C179.818 564.066 184.347 565.997 186.595 565.681C188.844 565.364 193.278 564.066 193.278 564.066C202.303 567.042 209.714 568.497 208.352 570.903H177.665Z" fill="#50BFA5"/>
<path d="M219.088 407.304C219.151 407.272 219.404 407.082 219.531 406.956C218.993 400.563 219.088 394.327 221.083 392.239C221.02 392.144 220.608 391.194 220.133 390.245C217.821 392.049 216.713 396.828 217.124 404.614C217.156 405.152 217.314 405.563 217.441 406.228C218.138 406.956 218.771 407.462 219.088 407.304Z" fill="#F7A491"/>
<path d="M138.553 428.098C138.522 427.971 138.522 427.813 138.553 427.687C138.997 423.161 142.734 385.117 143.367 383.503C143.937 382.047 160.753 357.93 160.753 357.93L169.019 369.229L152.836 390.878C152.488 392.239 146.629 417.938 146.629 417.938C146.629 417.938 145.425 422.623 144.887 425.408C145.14 426.072 145.362 426.705 145.584 427.243C146.122 428.351 146.756 429.269 147.326 430.06C148.054 431.041 149.257 433.162 149.384 433.732C149.542 434.396 149.859 435.757 150.049 436.58C150.239 437.403 150.461 438.384 150.493 438.827C150.524 439.112 150.809 439.65 151.031 440.03C151.348 440.6 150.809 441.296 150.176 441.074C149.574 440.885 149.131 440.125 148.846 439.65C148.054 438.321 147.611 435.852 147.421 435.979C147.231 436.105 146.534 440.252 146.407 440.726C146.281 441.201 145.457 446.012 144.982 446.898C144.507 447.784 143.874 447.626 143.715 447.088C143.557 446.613 144.222 439.872 144.222 439.872C144.222 439.872 144.317 439.017 143.937 439.27C143.557 439.555 142.955 445.664 142.67 446.582C142.417 447.468 141.815 447.943 141.308 447.246C140.707 446.36 141.752 439.872 141.752 439.872C141.752 439.872 141.878 439.049 141.53 439.144C141.182 439.239 140.738 444.461 140.485 444.904C140.232 445.347 139.535 445.505 139.218 444.778C138.838 443.891 139.82 438.099 139.82 438.099C139.82 438.099 139.757 437.625 139.567 437.783C139.345 437.941 138.648 442.372 138.205 442.784C137.825 443.132 137.508 442.784 137.508 442.784C136.685 442.214 137.952 438.004 137.92 435.916C137.92 433.827 138.87 431.453 138.585 428.984C138.617 428.699 138.585 428.32 138.553 428.098Z" fill="#F8A492"/>
<path d="M147.61 373.154L161.988 382.838C161.988 382.838 170.095 370.748 174.434 366.444C179.881 361.063 172.439 344.542 168.955 345.491C161.101 347.58 147.61 373.154 147.61 373.154Z" fill="#3C8F7C"/>
<path d="M181.877 328.78L179.723 342.991C179.723 342.991 187.577 359.892 192.264 358.436C196.191 357.202 193.784 342.231 193.784 342.231C193.784 342.231 191.631 334.192 192.296 330.173C192.929 326.153 181.877 328.78 181.877 328.78Z" fill="#F7A491"/>
<path d="M192.296 330.173C192.929 326.153 181.908 328.78 181.908 328.78L181.718 329.951C182.035 330.743 182.447 331.407 182.922 331.945C185.392 334.604 189.256 336.218 192.581 336.313C192.233 334.161 192.011 331.85 192.296 330.173Z" fill="#F47458"/>
<path d="M180.072 308.683C179.755 308.556 177.57 324.856 181.718 329.35C185.867 333.844 193.974 335.3 196.856 331.755C200.055 327.863 199.896 310.328 193.436 305.739C187.007 301.118 180.072 308.683 180.072 308.683Z" fill="#F7A491"/>
<path d="M190.997 297.035C185.994 298.048 182.763 301.118 181.592 302.416C179.311 302.669 176.239 303.935 173.073 309.221C169.146 315.709 172.059 322.925 176.619 326.438C181.18 329.951 181.117 334.034 181.117 334.034L181.845 331.914C182.383 330.331 182.605 328.622 182.415 326.945C182.32 325.932 182.098 324.856 181.687 323.969C180.578 321.596 184.03 320.045 185.012 318.083C185.772 316.563 185.804 313.114 186.975 310.613L188.369 308.714C188.369 308.714 191.599 306.182 194.766 306.91C197.87 307.638 197.426 295.706 190.997 297.035Z" fill="#184655"/>
<path d="M184.758 320.994C184.79 322.988 183.903 324.602 182.732 324.634C181.592 324.666 180.641 323.052 180.61 321.058C180.578 319.064 181.465 317.45 182.637 317.418C183.777 317.418 184.727 319 184.758 320.994Z" fill="#F7A491"/>
<path d="M191.504 325.584L197.774 325.267C197.774 325.267 197.743 327.673 194.988 327.894C191.631 328.147 191.504 325.584 191.504 325.584Z" fill="white"/>
<path d="M37.8764 579.828H956.792C958.977 579.828 960.75 578.056 960.75 575.872V574.891C960.75 572.707 958.977 570.934 956.792 570.934H37.8764C35.6912 570.934 33.9177 572.707 33.9177 574.891V575.872C33.9177 578.056 35.6912 579.828 37.8764 579.828Z" fill="#183658"/>
<defs>
<linearGradient id="paint0_linear_327_339" x1="852" y1="291.5" x2="570" y2="302" gradientUnits="userSpaceOnUse">
<stop/>
<stop offset="0.458333" stop-color="#3B3C3D"/>
<stop offset="1"/>
</linearGradient>
</defs>
</svg>
