<?xml version="1.0" encoding="utf-8"?>
<!-- Generator: Adobe Illustrator 24.1.2, SVG Export Plug-In . SVG Version: 6.00 Build 0)  -->
<svg version="1.1" id="Layer_1" xmlns="http://www.w3.org/2000/svg" xmlns:xlink="http://www.w3.org/1999/xlink" x="0px" y="0px"
	 viewBox="0 0 146 146" style="enable-background:new 0 0 146 146;" xml:space="preserve">
<style type="text/css">
	.st0{fill:#FFFFFF;}
	.st1{fill:#F7D035;}
	.st2{fill:#FFFFFF;stroke:#000000;stroke-width:0.5;stroke-miterlimit:10;}
	.st3{fill:#E8F2F4;}
</style>
<path d="M134.6,100.3c0,0-6.8-8.5-13.2-8c-6.4,0.5-13.1,6.8-13.1,6.8l-65.8-0.7c0,0-5-7.7-13.2-8c-8.2-0.3-12.5,7.8-12.5,7.8L9.3,87
	l5.6-12.3l120,5.3l2.3,16.1L134.6,100.3z"/>
<path d="M115,108.9c-2.7-2.2-4.6-5.8-5.1-9.9c-0.1-0.7-0.1-1.4-0.1-2.2c0-2.5,0.5-4.8,1.4-6.8c0,0,0,0.1,0,0.1
	c0.3,1.6,0.8,3.2,1.5,4.5c-0.1,0.7-0.2,1.4-0.2,2.2c0,6.2,4,11.3,9,11.3c4.8,0,8.7-4.6,9-10.5c1-1.1,1.8-2.4,2.4-3.9
	c0-0.2-0.1-0.4-0.1-0.6c0.2,1.2,0.4,2.4,0.4,3.6c0,0.8,0,1.5-0.1,2.2c-0.6,4.4-2.7,8.2-5.7,10.4c-1.7,1.2-3.7,1.9-5.7,1.9
	C119,111.3,116.8,110.4,115,108.9z"/>
<path d="M121.4,82.3c5.4,0,10,4.6,11.3,10.9c0,0.2,0.1,0.4,0.1,0.6c-0.6,1.5-1.4,2.8-2.4,3.9c0-0.3,0-0.5,0-0.8c0-6.2-4-11.3-9-11.3
	c-4.4,0-8,3.9-8.8,9.1c-0.7-1.4-1.2-2.9-1.5-4.5c0,0,0-0.1,0-0.1C113.1,85.4,116.9,82.3,121.4,82.3z"/>
<path class="st0" d="M112.5,96.8c0,6.1,4,11,8.8,11c4.9,0,8.8-5,8.8-11c0-6.1-4-11-8.8-11C116.5,85.7,112.5,90.7,112.5,96.8z
	 M119.1,87.7l1.1,4.9c-0.5,0.2-1,0.6-1.4,1.1l-2.8-3.6C116.9,89,118,88.2,119.1,87.7z M121.4,95.2c0.7,0,1.2,0.7,1.2,1.5
	c0,0.8-0.6,1.5-1.2,1.5c-0.7,0-1.2-0.7-1.2-1.5C120.1,95.9,120.7,95.2,121.4,95.2z M123.1,87.6l-1,4.9c-0.2-0.1-0.5-0.1-0.8-0.1
	c-0.3,0-0.7,0.1-1,0.2l-1.1-4.9c0.7-0.2,1.3-0.4,2.1-0.4C122,87.3,122.6,87.4,123.1,87.6z M126.8,90.1l-2.9,3.5
	c-0.4-0.5-1-0.9-1.6-1.1l1-4.9C124.6,88.1,125.8,88.9,126.8,90.1z M128.7,94.5l-3.9,1.2c-0.1-0.7-0.4-1.4-0.8-1.9l2.9-3.5
	C127.8,91.5,128.4,92.9,128.7,94.5z M128.6,99.4l-3.9-1.4c0.1-0.4,0.2-0.8,0.2-1.3c0-0.3,0-0.6-0.1-0.8l3.9-1.2
	c0.1,0.7,0.2,1.4,0.2,2.1C128.9,97.7,128.8,98.6,128.6,99.4z M126.6,103.6l-2.8-3.6c0.4-0.5,0.7-1.1,0.9-1.7l3.9,1.4
	C128.2,101.2,127.5,102.5,126.6,103.6z M123.4,105.9l-1.1-4.9c0.5-0.2,1-0.5,1.3-0.9l2.8,3.6C125.6,104.8,124.6,105.5,123.4,105.9z
	 M119.6,106l1-4.9c0.3,0.1,0.5,0.1,0.8,0.1c0.3,0,0.5,0,0.8-0.1l1.1,4.9c-0.6,0.2-1.2,0.3-1.9,0.3
	C120.8,106.3,120.1,106.2,119.6,106z M116.1,103.5l2.9-3.5c0.4,0.5,0.9,0.8,1.4,1l-1,4.9C118.1,105.5,117,104.7,116.1,103.5z
	 M114.1,99.4l3.9-1.2c0.2,0.6,0.4,1.2,0.8,1.7l-2.9,3.5C115.1,102.3,114.4,100.9,114.1,99.4z M114,94.5l3.9,1.4
	c0,0.3-0.1,0.6-0.1,0.9c0,0.4,0,0.8,0.1,1.1l-3.9,1.2c-0.2-0.8-0.2-1.6-0.2-2.4C113.8,96,113.9,95.2,114,94.5z M114.1,94.3
	c0.3-1.6,1-2.9,1.9-4.1l2.8,3.6c-0.4,0.5-0.6,1.1-0.8,1.8L114.1,94.3z"/>
<path d="M112.5,94.6c-0.1,0.7-0.2,1.4-0.2,2.2c0,6.2,4,11.3,9,11.3c4.8,0,8.7-4.6,9-10.5c0-0.3,0-0.5,0-0.8c0-6.2-4-11.3-9-11.3
	C117,85.5,113.3,89.4,112.5,94.6z M112.5,96.8c0-6.1,4-11,8.8-11c4.9,0,8.8,5,8.8,11c0,6.1-4,11-8.8,11
	C116.5,107.8,112.5,102.9,112.5,96.8z"/>
<path d="M123.7,100.1l2.8,3.6c-0.9,1-1.9,1.7-3.1,2.1l-1.1-4.9C122.8,100.9,123.3,100.6,123.7,100.1z"/>
<path d="M124.7,98.3l3.9,1.4c-0.4,1.5-1.1,2.9-2,4l-2.8-3.6C124.2,99.5,124.5,98.9,124.7,98.3z"/>
<path d="M121.4,101.2c0.3,0,0.5,0,0.8-0.1l1.1,4.9c-0.6,0.2-1.2,0.3-1.9,0.3c-0.6,0-1.2-0.1-1.8-0.3l1-4.9
	C120.8,101.2,121.1,101.2,121.4,101.2z"/>
<path d="M124.9,96.8c0-0.3,0-0.6-0.1-0.8l3.9-1.2c0.1,0.7,0.2,1.4,0.2,2.1c0,0.9-0.1,1.8-0.3,2.6l-3.9-1.4
	C124.8,97.7,124.9,97.2,124.9,96.8z"/>
<path d="M118.8,99.8l-2.9,3.5c-0.9-1.1-1.5-2.5-1.8-4l3.9-1.2C118.2,98.8,118.4,99.4,118.8,99.8z"/>
<path d="M121.4,92.4c-0.3,0-0.7,0.1-1,0.2l-1.1-4.9c0.7-0.2,1.3-0.4,2.1-0.4c0.6,0,1.2,0.1,1.8,0.3l-1,4.9
	C121.9,92.4,121.6,92.4,121.4,92.4z"/>
<path d="M124,93.8l2.9-3.5c0.9,1.2,1.5,2.6,1.8,4.2l-3.9,1.2C124.7,95,124.4,94.4,124,93.8z"/>
<path d="M122.3,92.5l1-4.9c1.3,0.4,2.5,1.3,3.5,2.5l-2.9,3.5C123.5,93.1,122.9,92.7,122.3,92.5z"/>
<path d="M117.8,96.8c0,0.4,0,0.8,0.1,1.1l-3.9,1.2c-0.2-0.8-0.2-1.6-0.2-2.4c0-0.8,0.1-1.5,0.2-2.3l3.9,1.4
	C117.9,96.2,117.8,96.5,117.8,96.8z"/>
<path d="M120.4,101l-1,4.9c-1.3-0.4-2.4-1.3-3.3-2.4l2.9-3.5C119.4,100.5,119.8,100.8,120.4,101z"/>
<path d="M118.9,93.7L116,90c0.9-1.1,1.9-1.9,3.1-2.3l1.1,4.9C119.7,92.8,119.2,93.2,118.9,93.7z"/>
<path d="M118.7,93.8c-0.4,0.5-0.6,1.1-0.8,1.8l-3.9-1.4c0.3-1.6,1-2.9,1.9-4.1L118.7,93.8z"/>
<path class="st0" d="M121.4,95.5c0.6,0,1,0.6,1,1.3c0,0.7-0.5,1.3-1,1.3c-0.6,0-1-0.6-1-1.3C120.3,96.1,120.8,95.5,121.4,95.5z"/>
<path d="M120.1,96.8c0,0.8,0.6,1.5,1.2,1.5c0.7,0,1.2-0.7,1.2-1.5c0-0.8-0.6-1.5-1.2-1.5C120.7,95.2,120.1,95.9,120.1,96.8z
	 M120.3,96.8c0-0.7,0.5-1.3,1-1.3c0.6,0,1,0.6,1,1.3c0,0.7-0.5,1.3-1,1.3C120.8,98.1,120.3,97.5,120.3,96.8z"/>
<path d="M23.1,108.9c-2.7-2.2-4.6-5.8-5.1-9.9c-0.1-0.7-0.1-1.4-0.1-2.2c0-2.5,0.5-4.8,1.4-6.8c0,0,0,0.1,0,0.1
	c0.3,1.6,0.8,3.2,1.5,4.5c-0.1,0.7-0.2,1.4-0.2,2.2c0,6.2,4,11.3,9,11.3c4.8,0,8.7-4.6,9-10.5c1-1.1,1.8-2.4,2.4-3.9
	c0-0.2-0.1-0.4-0.1-0.6c0.2,1.2,0.4,2.4,0.4,3.6c0,0.8,0,1.5-0.1,2.2c-0.6,4.4-2.7,8.2-5.7,10.4c-1.7,1.2-3.7,1.9-5.7,1.9
	C27.1,111.3,24.9,110.4,23.1,108.9z"/>
<path d="M29.5,82.3c5.4,0,10,4.6,11.3,10.9c0,0.2,0.1,0.4,0.1,0.6c-0.6,1.5-1.4,2.8-2.4,3.9c0-0.3,0-0.5,0-0.8c0-6.2-4-11.3-9-11.3
	c-4.4,0-8,3.9-8.8,9.1c-0.7-1.4-1.2-2.9-1.5-4.5c0,0,0-0.1,0-0.1C21.2,85.4,25,82.3,29.5,82.3z"/>
<path class="st0" d="M20.6,96.8c0,6.1,4,11,8.8,11c4.9,0,8.8-5,8.8-11c0-6.1-4-11-8.8-11C24.6,85.7,20.6,90.7,20.6,96.8z M27.2,87.7
	l1.1,4.9c-0.5,0.2-1,0.6-1.4,1.1l-2.8-3.6C25,89,26,88.2,27.2,87.7z M29.5,95.2c0.7,0,1.2,0.7,1.2,1.5c0,0.8-0.6,1.5-1.2,1.5
	c-0.7,0-1.2-0.7-1.2-1.5C28.2,95.9,28.8,95.2,29.5,95.2z M31.2,87.6l-1,4.9c-0.2-0.1-0.5-0.1-0.8-0.1c-0.3,0-0.7,0.1-1,0.2l-1.1-4.9
	c0.7-0.2,1.3-0.4,2.1-0.4C30.1,87.3,30.7,87.4,31.2,87.6z M34.9,90.1L32,93.7c-0.4-0.5-1-0.9-1.6-1.1l1-4.9
	C32.7,88.1,33.9,88.9,34.9,90.1z M36.8,94.5l-3.9,1.2c-0.1-0.7-0.4-1.4-0.8-1.9l2.9-3.5C35.9,91.5,36.5,92.9,36.8,94.5z M36.7,99.4
	l-3.9-1.4c0.1-0.4,0.2-0.8,0.2-1.3c0-0.3,0-0.6-0.1-0.8l3.9-1.2c0.1,0.7,0.2,1.4,0.2,2.1C37,97.7,36.9,98.6,36.7,99.4z M34.7,103.6
	l-2.8-3.6c0.4-0.5,0.7-1.1,0.9-1.7l3.9,1.4C36.3,101.2,35.6,102.5,34.7,103.6z M31.5,105.9l-1.1-4.9c0.5-0.2,1-0.5,1.3-0.9l2.8,3.6
	C33.7,104.8,32.7,105.5,31.5,105.9z M27.7,106l1-4.9c0.3,0.1,0.5,0.1,0.8,0.1c0.3,0,0.5,0,0.8-0.1l1.1,4.9c-0.6,0.2-1.2,0.3-1.9,0.3
	C28.8,106.3,28.2,106.2,27.7,106z M24.1,103.5L27,100c0.4,0.5,0.9,0.8,1.4,1l-1,4.9C26.2,105.5,25.1,104.7,24.1,103.5z M22.2,99.4
	l3.9-1.2c0.2,0.6,0.4,1.2,0.8,1.7l-2.9,3.5C23.2,102.3,22.5,100.9,22.2,99.4z M22.1,94.5l3.9,1.4c0,0.3-0.1,0.6-0.1,0.9
	c0,0.4,0,0.8,0.1,1.1l-3.9,1.3c-0.2-0.8-0.2-1.6-0.2-2.4C21.9,96,22,95.2,22.1,94.5z M22.1,94.3c0.3-1.6,1-2.9,1.9-4.1l2.8,3.6
	c-0.4,0.5-0.6,1.1-0.8,1.8L22.1,94.3z"/>
<path d="M20.6,94.6c-0.1,0.7-0.2,1.4-0.2,2.2c0,6.2,4,11.3,9,11.3c4.8,0,8.7-4.6,9-10.5c0-0.3,0-0.5,0-0.8c0-6.2-4-11.3-9-11.3
	C25.1,85.5,21.4,89.4,20.6,94.6z M20.6,96.8c0-6.1,4-11,8.8-11c4.9,0,8.8,5,8.8,11c0,6.1-4,11-8.8,11
	C24.6,107.8,20.6,102.9,20.6,96.8z"/>
<path d="M31.8,100.1l2.8,3.6c-0.9,1-1.9,1.7-3.1,2.1l-1.1-4.9C30.9,100.9,31.4,100.6,31.8,100.1z"/>
<path d="M32.8,98.3l3.9,1.4c-0.4,1.5-1.1,2.9-2,4l-2.8-3.6C32.3,99.5,32.6,98.9,32.8,98.3z"/>
<path d="M29.5,101.2c0.3,0,0.5,0,0.8-0.1l1.1,4.9c-0.6,0.2-1.2,0.3-1.9,0.3c-0.6,0-1.2-0.1-1.8-0.3l1-4.9
	C28.9,101.2,29.2,101.2,29.5,101.2z"/>
<path d="M33,96.8c0-0.3,0-0.6-0.1-0.8l3.9-1.2c0.1,0.7,0.2,1.4,0.2,2.1c0,0.9-0.1,1.8-0.3,2.6l-3.9-1.4C32.9,97.7,33,97.2,33,96.8z"
	/>
<path d="M26.9,99.8l-2.9,3.5c-0.9-1.1-1.5-2.5-1.8-4l3.9-1.2C26.3,98.8,26.5,99.4,26.9,99.8z"/>
<path d="M29.5,92.4c-0.3,0-0.7,0.1-1,0.2l-1.1-4.9c0.7-0.2,1.3-0.4,2.1-0.4c0.6,0,1.2,0.1,1.8,0.3l-1,4.9
	C30,92.4,29.7,92.4,29.5,92.4z"/>
<path d="M32.1,93.8l2.9-3.5c0.9,1.2,1.5,2.6,1.8,4.2l-3.9,1.2C32.8,95,32.5,94.4,32.1,93.8z"/>
<path d="M30.4,92.5l1-4.9c1.3,0.4,2.5,1.3,3.5,2.5L32,93.7C31.5,93.1,31,92.7,30.4,92.5z"/>
<path d="M25.9,96.8c0,0.4,0,0.8,0.1,1.1l-3.9,1.3c-0.2-0.8-0.2-1.6-0.2-2.4c0-0.8,0.1-1.5,0.2-2.3l3.9,1.4
	C26,96.2,25.9,96.5,25.9,96.8z"/>
<path d="M28.5,101l-1,4.9c-1.3-0.4-2.4-1.3-3.3-2.4L27,100C27.4,100.5,27.9,100.8,28.5,101z"/>
<path d="M27,93.7L24.1,90c0.9-1.1,1.9-1.9,3.1-2.3l1.1,4.9C27.8,92.8,27.3,93.2,27,93.7z"/>
<path d="M26.8,93.8c-0.4,0.5-0.6,1.1-0.8,1.8l-3.9-1.4c0.3-1.6,1-2.9,1.9-4.1L26.8,93.8z"/>
<path class="st0" d="M29.5,95.5c0.6,0,1,0.6,1,1.3c0,0.7-0.5,1.3-1,1.3s-1-0.6-1-1.3C28.4,96.1,28.9,95.5,29.5,95.5z"/>
<path d="M28.2,96.8c0,0.8,0.6,1.5,1.2,1.5c0.7,0,1.2-0.7,1.2-1.5c0-0.8-0.6-1.5-1.2-1.5C28.8,95.2,28.2,95.9,28.2,96.8z M28.4,96.8
	c0-0.7,0.5-1.3,1-1.3c0.6,0,1,0.6,1,1.3c0,0.7-0.5,1.3-1,1.3C28.9,98.1,28.4,97.5,28.4,96.8z"/>
<path class="st1" d="M108.3,99.2l-65.8-0.7c0,0,0.1-16.6-12.7-17.7c-12.9-1.2-13,17.6-13,17.6S2.9,96,1.5,95.7
	c-1.5-0.3-1.6-4.5-1.3-8c0.3-3.5,4.6-18.1,4.6-18.1S4.1,66,4.8,64.9c0.7-1.2,10.8-1.5,10.8-1.5s18.9-10.9,30.5-13.6
	s34.5-0.5,41.1,2.7c6.6,3.2,19.7,12.4,23.2,13.7c3.5,1.3,22.9,4,27.1,7.4c4.1,3.4,7.1,7.9,7.9,12.6c0.8,4.7,0.5,12.1,0.5,12.1
	s-4.7,2.5-11.4,2.2c0,0,0.9-18.9-12.5-19.9C108.6,79.4,108.3,99.2,108.3,99.2z"/>
<path class="st2" d="M108.3,99.2l-65.8-0.7c0,0,0.2-17.5-12.7-17.7c-13.7-0.3-13,17.6-13,17.6S2.9,96,1.5,95.7
	c-1.5-0.3-1.6-4.5-1.3-8c0.3-3.5,4.6-18.1,4.6-18.1S4.1,66,4.8,64.9c0.7-1.2,10.8-1.5,10.8-1.5s18.9-10.9,30.5-13.6
	s34.5-0.5,41.1,2.7c6.6,3.2,19.7,12.4,23.2,13.7c3.5,1.3,22.9,4,27.1,7.4c4.1,3.4,7.1,7.9,7.9,12.6c0.8,4.7,0.5,12.1,0.5,12.1
	s-4.7,2.5-11.4,2.2c0,0,0.9-18.9-12.5-19.9C108.6,79.4,108.3,99.2,108.3,99.2z"/>
<path class="st3" d="M135.8,82.3c0,0-0.4-3.4-2.4-5.4c-2-2-1.2-3.4,1.2-2.8c2.4,0.5,6,2.2,8,8.4C142.6,82.4,139.5,83.1,135.8,82.3z"
	/>
<path d="M106.4,68.4c0,0-11.7-9.7-22.8-14.2c-11.1-4.5-34.8-2-39.9-0.7c-5.1,1.3-13.4,5.2-13.7,6.4s4.4,5.2,6.2,5.7
	c1.7,0.5,68.8,3.9,68.8,3.9S106.6,69.2,106.4,68.4z"/>
<path d="M126.4,73.1L4.7,69.5l-0.2-3.2l117.8,4.8L126.4,73.1z"/>
<path class="st0" d="M74.6,73.7c-3.9-0.2-3.1,4.4-0.1,4.4S77.1,73.9,74.6,73.7z"/>
<path class="st3" d="M79,75.7c0,0.7-2,0.9-4.1,0.9c-2.1,0-4.8,0-4.8-0.9c0-0.9,2.7-0.9,4.4-0.9S79,75,79,75.7z"/>
<path class="st0" d="M41.9,72.2c-3.9-0.3-3.1,4.3-0.2,4.4C44.7,76.6,44.5,72.4,41.9,72.2z"/>
<path class="st3" d="M46.3,74.6c0,0.7-2,0.9-4.2,0.8c-2.1,0-4.8,0-4.8-0.9c0-0.9,2.7-0.8,4.4-0.8C43.5,73.7,46.3,73.9,46.3,74.6z"/>
<path d="M42.2,94.3l66.4,1.7c-0.2,1.9-0.3,3.2-0.3,3.2l-65.8-0.7C42.6,98.5,42.6,96.7,42.2,94.3z"/>
<path d="M16.9,98.3c0,0-13.9-2.3-15.4-2.7C0.3,95.4,0,93,0,90.3c0.5,0.7,1.3,1.4,2.5,1.8c2.5,0.9,12.1,2.2,14.6,2.6
	C16.9,96.9,16.9,98.3,16.9,98.3z"/>
<path d="M146,98.2c0,0-4.7,2.5-11.4,2.2c0,0,0.2-3.1-0.6-6.8c1.6-0.2,3.4-0.5,5.4-1c5.9-1.5,6-6.4,6-6.4
	C146.2,90.8,146,98.2,146,98.2z"/>
<path class="st0" d="M34.7,64.8l4.4-9.8c1.6-0.6,3.2-1.2,4.6-1.5L39,65.9c-1.6-0.1-2.5-0.2-2.7-0.3C35.9,65.5,35.3,65.2,34.7,64.8z"
	/>
<path class="st0" d="M36.3,65.8c0,0-0.1,0-0.1,0c-0.1-0.1-0.2-0.2-0.1-0.4l4.9-11.2C41,54,41.1,54,41.3,54c0.1,0.1,0.2,0.2,0.1,0.4
	l-4.9,11.2C36.4,65.8,36.4,65.8,36.3,65.8z"/>
<path d="M98.5,70.4c0.2,0,0.4-0.1,0.5-0.3l2.3-3.9c0.2-0.4,0.2-0.9-0.1-1.2c-0.3-0.3-0.7-0.2-0.9,0.2L98,69
	c-0.2,0.4-0.2,0.9,0.1,1.2C98.2,70.3,98.4,70.4,98.5,70.4z"/>
<path d="M96.1,62.5l0.1,3.4c0,0.7,0.4,1.2,1,1.2c1.6,0.2,4.8,0.1,4.8-2.6c0-3.3-3.2-3.5-4.8-3.4C96.5,61.2,96,61.7,96.1,62.5z"/>
<path d="M94,68.8c-6.6-0.3-15.5-0.8-24.2-1.3L68,56c0,0,8.4-0.5,14.3,1.8C87.5,59.9,92.8,67.1,94,68.8z"/>
<path d="M48.5,57.8c3.2-1.8,13.9-1.7,13.9-1.7l-0.1,11c-6.6-0.4-12.7-0.7-17.4-1C45,65.1,45.6,59.5,48.5,57.8z"/>
<path class="st0" d="M68.2,51.5c-1.3,0-2.6-0.1-3.9,0l0.2,15.9l6.4,0.3L68.2,51.5z"/>
<path class="st0" d="M67.7,67.8c-0.1,0-0.2-0.1-0.2-0.3L66,51.8c0-0.2,0.1-0.3,0.2-0.3c0.1,0,0.2,0.1,0.3,0.2L68,67.5
	C68,67.6,67.9,67.8,67.7,67.8C67.8,67.8,67.8,67.8,67.7,67.8z"/>
<path d="M133.4,76.9c-0.2-0.2-0.3-0.3-0.4-0.4c1.4-0.2,2.9-0.2,4.1,0.8c0.6,0.5,1.1,1.3,1.5,2.1c0.5,1,0.8,2.1,0.8,3.3
	c-1.1,0-2.3-0.1-3.6-0.4C135.8,82.3,135.4,78.9,133.4,76.9z"/>
<path d="M103.7,99.2c-0.1,0-0.2-0.1-0.2-0.2c0-0.2,0.1-0.3,0.2-0.3c0,0,1.2-0.3,1.6-1.8c0.5-1.6,0.5-21.6,0.3-23.5
	c-0.1-1.9-1.2-3.6-1.2-3.6c-0.1-0.1-0.1-0.3,0-0.4c0.1-0.1,0.2-0.1,0.3,0c0,0.1,1.2,1.9,1.3,4c0.1,1.8,0.2,22-0.4,23.7
	C105.2,98.9,103.8,99.2,103.7,99.2C103.7,99.2,103.7,99.2,103.7,99.2z"/>
<path d="M68.4,99.6C68.3,99.6,68.3,99.6,68.4,99.6c-0.2-0.1-0.3-0.2-0.2-0.4c0,0,0.6-2.1,0.7-3.7c0.1-1.4,0.4-20,0.3-25.3
	c0-0.6-0.5-1.4-0.7-1.7c-0.1-0.1-0.1-0.3,0-0.4c0.1-0.1,0.2-0.1,0.3,0c0,0,0.8,1.1,0.8,2.1c0.1,5.2-0.2,24-0.3,25.3
	c-0.1,1.7-0.7,3.7-0.7,3.8C68.5,99.6,68.5,99.6,68.4,99.6z"/>
<path d="M48.8,98.5c-0.1,0-0.1,0-0.2-0.1c-0.2-0.2-14.9-22.8-14.9-25.3c0-2.7,2.1-7.3,2.2-7.5c0.1-0.1,0.2-0.2,0.3-0.1
	c0.1,0.1,0.2,0.3,0.1,0.4c0,0-2.2,4.7-2.2,7.2c0,1.8,10.2,17.9,14.8,25c0.1,0.1,0.1,0.3,0,0.4C48.9,98.5,48.8,98.5,48.8,98.5z"/>
<path d="M8.3,79.5c0.6-2.1-0.6-4.3-2.4-4.4L3.1,75c-0.6,2-1.2,4.3-1.7,6.5l4.4,0.2C6.9,81.8,7.9,80.9,8.3,79.5z"/>
</svg>
