<?xml version="1.0" encoding="utf-8"?>
<!-- Generator: Adobe Illustrator 24.1.2, SVG Export Plug-In . SVG Version: 6.00 Build 0)  -->
<svg version="1.1" id="Layer_1" xmlns="http://www.w3.org/2000/svg" xmlns:xlink="http://www.w3.org/1999/xlink" x="0px" y="0px"
	 viewBox="0 0 147 146" style="enable-background:new 0 0 147 146;" xml:space="preserve">
<style type="text/css">
	.st0{clip-path:url(#SVGID_2_);}
	.st1{fill:#162026;}
	.st2{fill:#FFFFFF;stroke:#000000;stroke-width:0.5;stroke-miterlimit:10;}
	.st3{fill:#979EA2;}
	.st4{opacity:0.2;fill:#FFFFFF;enable-background:new    ;}
	.st5{fill:#FFFFFF;}
	.st6{fill:#919396;}
	.st7{opacity:0.4;fill:#FFFFFF;enable-background:new    ;}
	.st8{opacity:0.3;fill:#909596;enable-background:new    ;}
	.st9{fill:#949494;}
	.st10{opacity:0.5;enable-background:new    ;}
	.st11{fill:#404041;}
	.st12{opacity:0.4;fill:#909596;enable-background:new    ;}
	.st13{opacity:0.4;}
	.st14{fill:#909596;}
	.st15{opacity:0.2;fill:#404041;enable-background:new    ;}
	.st16{fill:#A0A0A0;}
	.st17{opacity:0.3;fill:#FFFFFF;enable-background:new    ;}
</style>
<g>
	<defs>
		<rect id="SVGID_1_" x="0.9" y="37.8" width="145.6" height="71.3"/>
	</defs>
	<clipPath id="SVGID_2_">
		<use xlink:href="#SVGID_1_"  style="overflow:visible;"/>
	</clipPath>
	<g class="st0">
		<path class="st1" d="M17.6,93.4l30.3,3.5l57.9,1.6l29.1,0.3l2.7-8l-2.7-15.6l-11.9-4.4H13.5L17.6,93.4z"/>
		<path class="st2" d="M145.7,81.6c0,0-0.5-8.9-2.9-13c0,0-1.5-1.9-5.9-3.1c0,0-12.5-3.6-26.9-4.9c0,0-9.6-8.5-19.9-16.1
			c0,0-6.5-3.5-14.9-3.5c0,0-52.8-1.8-63.2,1.1c-0.1,0-0.2,0.1-0.3,0.2L11.2,43c-0.1,0.2-0.1,0.5,0.1,0.6l0.4,0.2
			c0.2,0.1,0.2,0.4,0.1,0.5c-1.1,1.4-5.2,7.2-7,15c-0.1,0.4-0.1,0.7-0.1,1.1v16.2c0,0-2.3,0.3-3.3,2.1l-0.4,4.6c0,0,0.3,5.7,2.9,6.8
			c0,0,9.3,2.5,13.7,3.1c0,0,0.5-7.9,2.2-13.6c0,0,2.1-6.9,10.4-6.9c0,0,12-0.1,13.5,5.6c0,0,1.9,6.3,2.6,13.6l1.5,4.8l57.9,1.6
			l0.5-5c0,0,1.1-13.4,4.1-16.5c0,0,2.2-2.4,9.3-2.4c0,0,11.7-0.3,13.2,6.2c0,0,1.9,6.7,2.1,16.5h8.5c0,0,1.1-1.2,1.5-2.3l-0.2-1.2
			l0.8-3.9h0.5c0,0,0.5-0.3,0.5-1c0-0.1,0-0.1,0-0.2l0.1-6C146.5,82.8,146.2,82,145.7,81.6z"/>
		<path d="M145.9,89.9c0,0,0.5-0.3,0.5-1c0-0.1,0-0.1,0-0.2l0.1-6c0,0-0.3-0.8-0.9-1.2c0,0,0-0.6-0.1-1.5l-13.2-0.6
			c0.2,0.4,0.4,0.8,0.5,1.3c0,0,1.9,6.7,2.1,16.5h8.5c0,0,1.1-1.2,1.5-2.3l-0.2-1.2l0.8-3.9L145.9,89.9L145.9,89.9z"/>
		<path d="M19.8,79.8c0,0,0.9-2.8,3.7-4.9L4.7,74.1v2.7c0,0-2.3,0.3-3.3,2.1l-0.4,4.6c0,0,0.3,5.7,2.9,6.8c0,0,9.3,2.5,13.7,3.1
			C17.6,93.4,18.1,85.5,19.8,79.8z"/>
		<path d="M106.3,93.5c0,0,0.8-10.4,3.1-14.9l-67.7-2.9c1,0.7,1.7,1.6,2,2.8c0,0,1.9,6.3,2.6,13.6l1.5,4.8l57.9,1.6L106.3,93.5z"/>
		<path class="st3" d="M67.8,39.2c-20.3-3-47.2-0.6-47.2-0.6c-2,0.5-3.1,3.2-3.1,3.2h6.2l0.6-1.6c0.1-0.3,0.4-0.5,0.7-0.6
			c9.2-1.1,31.9-0.2,35.7,0c0.3,0,0.6,0.3,0.8,0.7l0.4,1h8.4C69.1,39.7,67.8,39.2,67.8,39.2z"/>
		<path class="st4" d="M6.7,53.5h95c-3.4-2.7-7.4-6-11.5-9c0,0-6.5-3.5-14.9-3.5c0,0-52.8-1.8-63.2,1.1c-0.1,0-0.2,0.1-0.3,0.2
			L11.2,43c-0.1,0.2-0.1,0.5,0.1,0.6l0.4,0.2c0.2,0.1,0.2,0.4,0.1,0.5C11,45.5,8.7,48.8,6.7,53.5z"/>
		<path d="M132.7,93.8c0,8.4-5.4,15.2-12.1,15.2c-6.7,0-12.1-6.8-12.1-15.2s5.4-15.2,12.1-15.2C127.3,78.6,132.7,85.4,132.7,93.8z"
			/>
		<path d="M120.6,78.6c-6.7,0-12.1,6.8-12.1,15.2s5.4,15.2,12.1,15.2c6.7,0,12.1-6.8,12.1-15.2S127.3,78.6,120.6,78.6z M128.5,103.8
			c-1,1.3-2.2,2.3-3.6,3c-1.4,0.7-2.9,1.1-4.4,1.1c-1.5,0-3-0.4-4.4-1.1c-1.3-0.7-2.5-1.7-3.6-3c-1-1.3-1.8-2.8-2.4-4.5
			c-0.6-1.8-0.9-3.6-0.9-5.5s0.3-3.7,0.9-5.5c0.6-1.7,1.4-3.2,2.4-4.5c1-1.3,2.2-2.3,3.6-3c1.4-0.7,2.9-1.1,4.4-1.1
			c1.5,0,3,0.4,4.4,1.1c1.3,0.7,2.5,1.7,3.6,3c1,1.3,1.8,2.8,2.4,4.5c0.6,1.8,0.9,3.6,0.9,5.5s-0.3,3.7-0.9,5.5
			C130.4,101,129.6,102.5,128.5,103.8z"/>
		<path d="M120.6,81.9c-5.2,0-9.5,5.3-9.5,11.9c0,6.5,4.3,11.9,9.5,11.9c5.2,0,9.5-5.3,9.5-11.9C130,87.3,125.8,81.9,120.6,81.9z
			 M128.8,93.8c0,1.4-0.2,2.8-0.6,4c-0.4,1.2-1,2.3-1.8,3.3c-0.8,1-1.6,1.7-2.6,2.2c-1,0.6-2.1,0.8-3.2,0.8c-1.1,0-2.2-0.3-3.2-0.8
			c-1-0.5-1.9-1.3-2.6-2.2c-0.8-1-1.3-2.1-1.8-3.3c-0.4-1.3-0.6-2.6-0.6-4c0-1.4,0.2-2.8,0.6-4c0.4-1.2,1-2.3,1.8-3.3
			c0.8-1,1.6-1.7,2.6-2.2c1-0.6,2.1-0.8,3.2-0.8c1.1,0,2.2,0.3,3.2,0.8c1,0.5,1.9,1.3,2.6,2.2c0.8,1,1.3,2.1,1.8,3.3
			C128.6,91.1,128.8,92.4,128.8,93.8z"/>
		<path class="st5" d="M129,93.8c0,5.9-3.8,10.6-8.5,10.6c-4.7,0-8.4-4.7-8.4-10.6c0-5.9,3.8-10.6,8.5-10.6
			C125.2,83.2,129,88,129,93.8z"/>
		<path d="M128.1,93.8c0,5.2-3.4,9.5-7.6,9.5c-4.2,0-7.5-4.2-7.5-9.5c0-5.2,3.4-9.5,7.6-9.5C124.8,84.3,128.1,88.6,128.1,93.8z"/>
		<path class="st6" d="M128.1,94.8v-2h-2.7c0-0.4-0.1-0.8-0.2-1.2l2.3-1.7l-0.8-1.7l-2.3,1.7c-0.2-0.3-0.4-0.6-0.7-0.9l1.3-2.9
			l-1.4-1l-1.3,2.9c-0.3-0.2-0.6-0.2-1-0.3v-3.4h-1.6v3.4c-0.3,0.1-0.6,0.2-1,0.3l-1.3-2.9l-1.4,1l1.3,2.9c-0.2,0.2-0.5,0.6-0.7,0.9
			l-2.3-1.7l-0.8,1.7l2.3,1.7c-0.1,0.4-0.2,0.8-0.2,1.2h-2.7v2h2.7c0,0.4,0.1,0.8,0.2,1.2l-2.3,1.7l0.8,1.7l2.3-1.7
			c0.2,0.3,0.4,0.6,0.7,0.9l-1.3,2.9l1.4,1l1.3-2.9c0.3,0.2,0.6,0.2,1,0.3v3.4h1.6v-3.4c0.3-0.1,0.6-0.2,1-0.3l1.3,2.9l1.4-1
			l-1.3-2.9c0.2-0.2,0.5-0.6,0.7-0.9l2.3,1.7l0.8-1.7l-2.3-1.7c0.1-0.4,0.2-0.8,0.2-1.2H128.1z"/>
		<path d="M122.9,93.8c0,1.6-1,2.9-2.3,2.9c-1.3,0-2.3-1.3-2.3-2.9c0-1.6,1-2.9,2.3-2.9C121.8,90.9,122.9,92.2,122.9,93.8z"/>
		<path class="st5" d="M120.6,98.4c-2,0-3.6-2.1-3.6-4.6s1.6-4.6,3.6-4.6c2,0,3.6,2.1,3.6,4.6S122.6,98.4,120.6,98.4z M120.6,89.7
			c-1.8,0-3.3,1.8-3.3,4.1c0,2.2,1.5,4.1,3.3,4.1c1.8,0,3.3-1.8,3.3-4.1C123.8,91.6,122.4,89.7,120.6,89.7z"/>
		<path class="st5" d="M121.9,93.8c0,0.9-0.6,1.7-1.3,1.7c-0.7,0-1.3-0.7-1.3-1.7c0-0.9,0.6-1.7,1.3-1.7
			C121.3,92.1,121.9,92.9,121.9,93.8z"/>
		<path class="st5" d="M120.6,87.8c-2.6,0-4.8,2.7-4.8,6s2.2,6,4.8,6c2.6,0,4.8-2.7,4.8-6S123.2,87.8,120.6,87.8z M124.7,93.8
			c0,0.7-0.1,1.4-0.3,2c-0.2,0.6-0.5,1.2-0.9,1.7c-0.4,0.5-0.8,0.9-1.3,1.1c-0.5,0.3-1.1,0.4-1.6,0.4c-0.6,0-1.1-0.2-1.6-0.4
			c-0.5-0.3-1-0.6-1.3-1.1c-0.4-0.5-0.7-1-0.9-1.7c-0.2-0.6-0.3-1.3-0.3-2s0.1-1.4,0.3-2c0.2-0.6,0.5-1.2,0.9-1.7
			c0.4-0.5,0.8-0.9,1.3-1.1c0.5-0.3,1.1-0.4,1.6-0.4c0.6,0,1.1,0.2,1.6,0.4c0.5,0.3,1,0.6,1.3,1.1c0.4,0.5,0.7,1,0.9,1.7
			C124.6,92.4,124.7,93.1,124.7,93.8z"/>
		<path class="st5" d="M120.6,83.6c-4.5,0-8.2,4.6-8.2,10.3c0,5.7,3.6,10.3,8.1,10.3c4.5,0,8.2-4.6,8.2-10.3
			C128.7,88.1,125.1,83.6,120.6,83.6z M120.6,103.1c-4.1,0-7.4-4.1-7.4-9.3c0-5.1,3.3-9.3,7.4-9.3c4.1,0,7.4,4.1,7.4,9.3
			C128,98.9,124.6,103.1,120.6,103.1z"/>
		<path class="st5" d="M128.1,94.8v-2h-2.7c0-0.4-0.1-0.8-0.2-1.2l2.3-1.7l-0.8-1.7l-2.3,1.7c-0.2-0.3-0.4-0.6-0.7-0.9l1.3-2.9
			l-1.4-1l-1.3,2.9c-0.3-0.2-0.6-0.2-1-0.3v-3.4h-1.6v3.4c-0.3,0.1-0.6,0.2-1,0.3l-1.3-2.9l-1.4,1l1.3,2.9c-0.2,0.2-0.5,0.6-0.7,0.9
			l-2.3-1.7l-0.8,1.7l2.3,1.7c-0.1,0.4-0.2,0.8-0.2,1.2h-2.7v2h2.7c0,0.4,0.1,0.8,0.2,1.2l-2.3,1.7l0.8,1.7l2.3-1.7
			c0.2,0.3,0.4,0.6,0.7,0.9l-1.3,2.9l1.4,1l1.3-2.9c0.3,0.2,0.6,0.2,1,0.3v3.4h1.6v-3.4c0.3-0.1,0.6-0.2,1-0.3l1.3,2.9l1.4-1
			l-1.3-2.9c0.2-0.2,0.5-0.6,0.7-0.9l2.3,1.7l0.8-1.7l-2.3-1.7c0.1-0.4,0.2-0.8,0.2-1.2H128.1z M125,96.4l2,1.4l-0.4,0.9l-2-1.4
			l-0.3-0.2l-0.2,0.3c-0.2,0.3-0.4,0.6-0.6,0.8l-0.3,0.3l0.2,0.4l1.1,2.5l-0.7,0.5l-1.2-2.5l-0.2-0.4l-0.3,0.2
			c-0.3,0.1-0.6,0.2-0.9,0.3l-0.3,0.1v0.4v2.9h-0.8v-2.9v-0.4l-0.3-0.1c-0.3-0.1-0.6-0.2-0.9-0.3l-0.3-0.2l-0.2,0.4l-1.1,2.5
			l-0.7-0.5l1.1-2.5l0.2-0.4l-0.3-0.3c-0.2-0.2-0.4-0.5-0.6-0.8l-0.2-0.3l-0.3,0.2l-2,1.4l-0.4-0.9l2-1.4l0.3-0.2l-0.1-0.4
			c-0.1-0.3-0.2-0.7-0.2-1.1l0-0.4h-0.3h-2.3v-1h2.3h0.3l0-0.4c0-0.4,0.1-0.7,0.2-1.1l0.1-0.4l-0.3-0.2l-2-1.4l0.4-0.9l2,1.4
			l0.3,0.2l0.2-0.3c0.2-0.3,0.4-0.6,0.6-0.8l0.3-0.3l-0.2-0.4l-1.1-2.5l0.7-0.5l1.1,2.5l0.2,0.4l0.3-0.2c0.3-0.1,0.6-0.2,0.9-0.3
			l0.3-0.1v-0.4v-2.9h0.8v2.9v0.4l0.3,0.1c0.3,0.1,0.6,0.2,0.9,0.3l0.3,0.2l0.2-0.4l1.2-2.5l0.7,0.5l-1.1,2.5l-0.2,0.4l0.3,0.3
			c0.2,0.2,0.4,0.5,0.6,0.8l0.2,0.3l0.3-0.2l2-1.4l0.4,0.9l-2,1.4l-0.3,0.2l0.1,0.4c0.1,0.3,0.2,0.7,0.2,1.1l0,0.4h0.3h2.3v1h-2.3
			h-0.3l0,0.4c0,0.4-0.1,0.7-0.2,1.1l-0.1,0.4L125,96.4z"/>
		<path d="M44.2,93.8c0,8.4-5.4,15.2-12.1,15.2c-6.7,0-12.1-6.8-12.1-15.2s5.4-15.2,12.1-15.2C38.8,78.6,44.2,85.4,44.2,93.8z"/>
		<path d="M32.1,78.6c-6.7,0-12.1,6.8-12.1,15.2S25.4,109,32.1,109c6.7,0,12.1-6.8,12.1-15.2S38.8,78.6,32.1,78.6z M40,103.8
			c-1,1.3-2.2,2.3-3.6,3c-1.4,0.7-2.9,1.1-4.4,1.1c-1.5,0-3-0.4-4.4-1.1c-1.3-0.7-2.5-1.7-3.6-3c-1-1.3-1.8-2.8-2.4-4.5
			c-0.6-1.8-0.9-3.6-0.9-5.5s0.3-3.7,0.9-5.5c0.6-1.7,1.4-3.2,2.4-4.5c1-1.3,2.2-2.3,3.6-3c1.4-0.7,2.9-1.1,4.4-1.1
			c1.5,0,3,0.4,4.4,1.1c1.3,0.7,2.5,1.7,3.6,3c1,1.3,1.8,2.8,2.4,4.5c0.6,1.8,0.9,3.6,0.9,5.5s-0.3,3.7-0.9,5.5
			C41.8,101,41,102.5,40,103.8z"/>
		<path d="M32.1,81.9c-5.2,0-9.5,5.3-9.5,11.9c0,6.5,4.3,11.9,9.5,11.9s9.5-5.3,9.5-11.9C41.5,87.3,37.3,81.9,32.1,81.9z M40.3,93.8
			c0,1.4-0.2,2.8-0.6,4c-0.4,1.2-1,2.3-1.8,3.3c-0.8,1-1.6,1.7-2.6,2.2c-1,0.6-2.1,0.8-3.2,0.8c-1.1,0-2.2-0.3-3.2-0.8
			c-1-0.5-1.9-1.3-2.6-2.2c-0.8-1-1.3-2.1-1.8-3.3c-0.4-1.3-0.6-2.6-0.6-4c0-1.4,0.2-2.8,0.6-4c0.4-1.2,1-2.3,1.8-3.3
			c0.8-1,1.6-1.7,2.6-2.2c1-0.6,2.1-0.8,3.2-0.8c1.1,0,2.2,0.3,3.2,0.8c1,0.5,1.9,1.3,2.6,2.2c0.8,1,1.3,2.1,1.8,3.3
			C40.1,91.1,40.3,92.4,40.3,93.8z"/>
		<path class="st5" d="M40.5,93.8c0,5.9-3.8,10.6-8.5,10.6s-8.4-4.7-8.4-10.6c0-5.9,3.8-10.6,8.5-10.6C36.7,83.2,40.5,88,40.5,93.8z
			"/>
		<path d="M39.6,93.8c0,5.2-3.4,9.5-7.6,9.5s-7.5-4.2-7.5-9.5c0-5.2,3.4-9.5,7.6-9.5S39.6,88.6,39.6,93.8z"/>
		<path class="st6" d="M39.6,94.8v-2h-2.7c0-0.4-0.1-0.8-0.2-1.2l2.3-1.7l-0.8-1.7l-2.3,1.7c-0.2-0.3-0.4-0.6-0.7-0.9l1.3-2.9
			l-1.4-1l-1.3,2.9c-0.3-0.2-0.6-0.2-1-0.3v-3.4h-1.6v3.4c-0.3,0.1-0.6,0.2-1,0.3L29,85.1l-1.4,1L29,89c-0.2,0.2-0.5,0.6-0.7,0.9
			l-2.3-1.7l-0.8,1.7l2.3,1.7c-0.1,0.4-0.2,0.8-0.2,1.2h-2.7v2h2.7c0,0.4,0.1,0.8,0.2,1.2l-2.3,1.7l0.8,1.7l2.3-1.7
			c0.2,0.3,0.4,0.6,0.7,0.9l-1.3,2.9l1.4,1l1.3-2.9c0.3,0.2,0.6,0.2,1,0.3v3.4h1.6v-3.4c0.3-0.1,0.6-0.2,1-0.3l1.3,2.9l1.4-1
			l-1.3-2.9c0.2-0.2,0.5-0.6,0.7-0.9l2.3,1.7l0.8-1.7L36.7,96c0.1-0.4,0.2-0.8,0.2-1.2H39.6z"/>
		<path d="M34.4,93.8c0,1.6-1,2.9-2.3,2.9c-1.3,0-2.3-1.3-2.3-2.9c0-1.6,1-2.9,2.3-2.9C33.3,90.9,34.4,92.2,34.4,93.8z"/>
		<path class="st5" d="M32.1,98.4c-2,0-3.6-2.1-3.6-4.6s1.6-4.6,3.6-4.6s3.6,2.1,3.6,4.6S34.1,98.4,32.1,98.4z M32.1,89.7
			c-1.8,0-3.3,1.8-3.3,4.1c0,2.2,1.5,4.1,3.3,4.1c1.8,0,3.3-1.8,3.3-4.1C35.3,91.6,33.8,89.7,32.1,89.7z"/>
		<path class="st5" d="M33.4,93.8c0,0.9-0.6,1.7-1.3,1.7c-0.7,0-1.3-0.7-1.3-1.7c0-0.9,0.6-1.7,1.3-1.7
			C32.8,92.1,33.4,92.9,33.4,93.8z"/>
		<path class="st5" d="M32.1,87.8c-2.6,0-4.8,2.7-4.8,6s2.2,6,4.8,6c2.6,0,4.8-2.7,4.8-6S34.7,87.8,32.1,87.8z M36.2,93.8
			c0,0.7-0.1,1.4-0.3,2c-0.2,0.6-0.5,1.2-0.9,1.7c-0.4,0.5-0.8,0.9-1.3,1.1c-0.5,0.3-1.1,0.4-1.6,0.4c-0.6,0-1.1-0.2-1.6-0.4
			c-0.5-0.3-1-0.6-1.3-1.1c-0.4-0.5-0.7-1-0.9-1.7c-0.2-0.6-0.3-1.3-0.3-2s0.1-1.4,0.3-2c0.2-0.6,0.5-1.2,0.9-1.7
			c0.4-0.5,0.8-0.9,1.3-1.1c0.5-0.3,1.1-0.4,1.6-0.4c0.6,0,1.1,0.2,1.6,0.4c0.5,0.3,1,0.6,1.3,1.1c0.4,0.5,0.7,1,0.9,1.7
			C36.1,92.4,36.2,93.1,36.2,93.8z"/>
		<path class="st5" d="M32.1,83.6c-4.5,0-8.2,4.6-8.2,10.3c0,5.7,3.6,10.3,8.1,10.3s8.2-4.6,8.2-10.3C40.2,88.1,36.6,83.6,32.1,83.6
			z M32,103.1c-4.1,0-7.4-4.1-7.4-9.3c0-5.1,3.3-9.3,7.4-9.3c4.1,0,7.4,4.1,7.4,9.3C39.4,98.9,36.1,103.1,32,103.1z"/>
		<path class="st5" d="M39.6,94.8v-2h-2.7c0-0.4-0.1-0.8-0.2-1.2l2.3-1.7l-0.8-1.7l-2.3,1.7c-0.2-0.3-0.4-0.6-0.7-0.9l1.3-2.9
			l-1.4-1l-1.3,2.9c-0.3-0.2-0.6-0.2-1-0.3v-3.4h-1.6v3.4c-0.3,0.1-0.6,0.2-1,0.3L29,85.1l-1.4,1L29,89c-0.2,0.2-0.5,0.6-0.7,0.9
			l-2.3-1.7l-0.8,1.7l2.3,1.7c-0.1,0.4-0.2,0.8-0.2,1.2h-2.7v2h2.7c0,0.4,0.1,0.8,0.2,1.2l-2.3,1.7l0.8,1.7l2.3-1.7
			c0.2,0.3,0.4,0.6,0.7,0.9l-1.3,2.9l1.4,1l1.3-2.9c0.3,0.2,0.6,0.2,1,0.3v3.4h1.6v-3.4c0.3-0.1,0.6-0.2,1-0.3l1.3,2.9l1.4-1
			l-1.3-2.9c0.2-0.2,0.5-0.6,0.7-0.9l2.3,1.7l0.8-1.7L36.7,96c0.1-0.4,0.2-0.8,0.2-1.2H39.6z M36.4,96.4l2,1.4L38,98.7l-2-1.4
			l-0.3-0.2l-0.2,0.3c-0.2,0.3-0.4,0.6-0.6,0.8l-0.3,0.3l0.2,0.4l1.1,2.5l-0.7,0.5l-1.1-2.5L33.9,99l-0.3,0.2
			c-0.3,0.1-0.6,0.2-0.9,0.3l-0.3,0.1v0.4v2.9h-0.8v-2.9v-0.4l-0.3-0.1c-0.3-0.1-0.6-0.2-0.9-0.3L30.1,99L30,99.3l-1.1,2.5l-0.7-0.5
			l1.1-2.5l0.2-0.4l-0.3-0.3c-0.2-0.2-0.4-0.5-0.6-0.8l-0.2-0.3L28,97.3l-2,1.4l-0.4-0.9l2-1.4l0.3-0.2l-0.1-0.4
			c-0.1-0.3-0.2-0.7-0.2-1.1l0-0.4h-0.3h-2.3v-1h2.3h0.3l0-0.4c0-0.4,0.1-0.7,0.2-1.1l0.1-0.4l-0.3-0.2l-2-1.4l0.4-0.9l2,1.4
			l0.3,0.2l0.2-0.3c0.2-0.3,0.4-0.6,0.6-0.8l0.3-0.3l-0.2-0.3l-1.1-2.5l0.7-0.5l1.1,2.5l0.2,0.4l0.3-0.2c0.3-0.1,0.6-0.2,0.9-0.3
			l0.3-0.1v-0.4v-2.9h0.8v2.9v0.4l0.3,0.1c0.3,0.1,0.6,0.2,0.9,0.3l0.3,0.2l0.2-0.4l1.1-2.5l0.7,0.5l-1.1,2.5l-0.2,0.4l0.3,0.3
			c0.2,0.2,0.4,0.5,0.6,0.8l0.2,0.3l0.3-0.2l2-1.4l0.4,0.9l-2,1.4l-0.3,0.2l0.1,0.4c0.1,0.3,0.2,0.7,0.2,1.1l0,0.4h0.3h2.3v1h-2.3
			h-0.3l0,0.4c0,0.4-0.1,0.7-0.2,1.1l-0.1,0.4L36.4,96.4z"/>
		<path d="M9,60.2c0,0,3.7-12.2,7.4-16.9c0,0,18.6-0.5,24-0.6c0,0,1.5,0.5,0.5,2.6l-6.2,13c0,0-1,1.9-2.7,1.9
			C30.3,60.2,9,60.2,9,60.2z"/>
		<path d="M43.6,54.9c0.2-1,0.5-1.9,0.8-2.8c0.7-2.1,1.4-4.2,2.3-6.2c0.1-0.3,0.3-0.6,0.4-0.9c0.1-0.2,0.4-0.6,0.4-0.7
			c0,0,0.6-1.5,2.3-1.5c0,0,21.8,0.3,32.3,1.9c0,0,4.8,1,7.9,4.2l9,9.3c0,0,2.8,5-1.8,5.9C92.5,65,47.6,62,47.6,62s-1.3-0.2-2.2-1.4
			c-0.6-0.8-1.4-1.6-1.8-2.6c-0.1-0.2-0.1-0.4-0.1-0.6C43.3,56.6,43.4,55.7,43.6,54.9z"/>
		<path d="M90.2,44.5l-0.8,0.3c-0.2,0.1-0.3,0.5,0,0.6c2,1.6,9.5,7.6,17,14.9c0.3,0.3,0.7,0.4,1,0.4l2.7-0.2
			C110,60.6,100.5,52.1,90.2,44.5z"/>
		<path class="st7" d="M103.4,61.3l-0.2-1c-0.2-1-0.7-1.8-1.3-2.4L89.7,46.4c0,0-3.7-3.3-10.7-4.1l-32.9-0.9c0,0-4.9,10.6-6.3,19.8
			c0,0-0.6,7.4-0.9,13c2.3,0.8,4.3,2.1,4.9,4.2c0,0,1.9,6.3,2.6,13.6l0.9,2.9h54.9l1.3-5.7C103.4,89.2,106.1,73.9,103.4,61.3z
			 M103.1,89.2l-1.2,5.4H47.4L46.6,92C45.9,84.8,44,78.5,44,78.3c-0.5-1.9-2.2-3.4-4.9-4.4c0.3-5.4,0.9-12.4,0.9-12.7
			c1.2-8.4,5.6-18.1,6.2-19.5L79,42.6c6.7,0.8,10.4,4,10.6,4.1l12.1,11.5c0.6,0.5,1,1.3,1.2,2.1l0.3,1.1c1.4,6.5,1.3,13.6,1,18.6
			C103.8,85.2,103.1,88.9,103.1,89.2z"/>
		<path class="st8" d="M106.8,65.5c0,0-0.2,2.5,0.3,3.3l5.9,0c0,0,1.5-1.1,1.6-2.7c0,0-0.1-0.6-0.8-0.6l-6.4-0.5
			C107.5,65.2,106.9,65.3,106.8,65.5z"/>
		<path d="M9,60.2H4.6c0,0-0.9,8,0,16.6h3.9C8.5,76.8,8.4,63.9,9,60.2z"/>
		<path class="st4" d="M133.7,85h12.8l0-2.2c0,0-0.3-0.8-0.9-1.2c0,0,0,0,0-0.1H133C133.1,82.1,133.4,83.3,133.7,85z"/>
		<path class="st9" d="M141.8,89.9c-0.2,0-0.4,0.2-0.4,0.4l-0.3,2.1c0,0.3,0.1,0.6,0.4,0.7l3.2,0.7l0.8-3.9H141.8z"/>
		<path d="M145.7,81.5c0-0.9-0.6-8.1-2.5-12.1c-0.6-0.2-1.4-0.3-1.8-0.4c-0.3-0.1-0.6,0.3-0.6,0.7c1,7,1,11.7,1,11.7H145.7z"/>
		<path d="M143.5,81.5c-0.2-5.1-1.6-11-2-12.4c0,0-0.1,0-0.1,0c-0.3-0.1-0.6,0.3-0.6,0.7c1,7,1,11.7,1,11.7H143.5z"/>
		<path class="st10" d="M145.4,81.1h-0.8H142c0-1.2-0.1-5.6-1-11.5c0-0.1,0-0.2,0-0.2c0-0.1,0.1-0.1,0.2-0.1c0,0,0,0,0,0
			c0.4,0.1,1.2,0.2,1.7,0.3l0.3,0.1c0-0.1-0.1-0.3-0.2-0.4c-0.6-0.2-1.4-0.3-1.8-0.4c0,0,0,0-0.1,0c-0.3,0-0.6,0.4-0.5,0.7
			c1,7,1,11.7,1,11.7h4c0-0.1,0-0.2,0-0.3H145.4z"/>
		<path class="st11" d="M143.6,98.1l-0.1-0.8h-8.5l0,1.4h8.3C143.4,98.8,143.6,98.5,143.6,98.1z"/>
		<path class="st12" d="M9,60.2H7.7H4.6l0,0.6c0,0,1.4,0,2.2,0c0.8,0,0.7,1.5,0.7,1.5c-0.4,5-0.2,14.5-0.2,14.5h1.3
			C8.5,76.8,8.4,63.9,9,60.2z"/>
		<path class="st8" d="M18.4,86L1,84.4c0.2,1.7,0.9,5,2.8,5.8c0,0,9.3,2.5,13.7,3.1C17.6,93.4,17.8,90,18.4,86z"/>
		<path class="st4" d="M134.8,81.5h0.7c-0.1-1.1-0.3-2.5-0.7-4c-1.2-4.9-6-7.4-9.8-8.5c-4.1-1.2-8.5-1-12.4,0.8
			c-4.9,2.3-7.8,8.6-7.6,14.9c0.2-1.6,0.7-3,1.2-4.6c0.4-1.5,1.1-2.7,2-3.9c1.5-2,3.7-3.2,5.8-3.8c2.4-0.6,5-0.9,7.5-0.7
			c3.5,0.3,7.3,1.4,10.2,4c1.3,1.2,2.3,2.7,2.8,4.5L134.8,81.5z"/>
		<g class="st13">
			<path class="st14" d="M40.4,42.7c-5.4,0.1-24,0.6-24,0.6C12.7,48,9,60.2,9,60.2s21.3,0,23,0s2.7-1.9,2.7-1.9l6.2-13
				C41.9,43.2,40.4,42.7,40.4,42.7z M40.5,45l-6.2,13c-0.1,0.1-0.9,1.6-2.3,1.6H9.7c0.9-2.8,3.9-11.7,6.9-15.6
				c2-0.1,18.6-0.5,23.8-0.6c0.1,0,0.3,0.2,0.4,0.4C40.8,44,40.7,44.5,40.5,45z"/>
			<path class="st14" d="M98.8,58.1l-9-9.3c-3-3.2-7.9-4.2-7.9-4.2c-10.5-1.6-32.3-1.9-32.3-1.9c-1.6,0-2.3,1.5-2.3,1.5
				c0,0.2-0.3,0.6-0.4,0.7c-0.1,0.3-0.3,0.6-0.4,0.9c-0.9,2-1.6,4.1-2.3,6.2c-0.3,0.9-0.6,1.8-0.8,2.8c-0.2,0.8-0.3,1.6-0.1,2.5
				c0,0.2,0.1,0.4,0.1,0.6c0.4,0.9,1.2,1.8,1.8,2.6c0.9,1.2,2.2,1.4,2.2,1.4s33.9,2.3,45.8,2.3c1.8,0,3.1-0.1,3.7-0.2
				C101.6,63.1,98.8,58.1,98.8,58.1z M99.1,62c-0.2,0.8-1,1.3-2.1,1.5c-0.5,0.1-1.8,0.2-3.6,0.2c-11.6,0-44.9-2.2-45.8-2.3
				c-0.1,0-1.2-0.2-1.9-1.2c-0.2-0.2-0.4-0.5-0.6-0.7c-0.4-0.6-0.9-1.1-1.1-1.7c0-0.1-0.1-0.2-0.1-0.5c-0.1-0.6,0-1.4,0.1-2.2
				c0.1-0.7,0.4-1.4,0.6-2c0.1-0.2,0.1-0.5,0.2-0.7c0.6-2,1.3-4.1,2.3-6.2c0.1-0.3,0.3-0.6,0.4-0.9c0,0,0-0.1,0.1-0.2
				c0.2-0.3,0.3-0.5,0.4-0.7c0.1-0.2,0.7-1.1,1.8-1.1c0.4,0,21.9,0.3,32.2,1.9c0.2,0.1,4.8,1.1,7.6,4.1l8.9,9.2
				C98.8,59.2,99.5,60.8,99.1,62z"/>
		</g>
		<path class="st15" d="M76.2,67.9c0,1.4-1.2,2.4-2.7,2.3c-1.4-0.1-2.5-1.2-2.5-2.6c0-1.4,1.2-2.4,2.7-2.3S76.3,66.6,76.2,67.9z"/>
		<path class="st5" d="M77.1,67l-6.9-0.4c-0.2,0-0.4,0.2-0.5,0.5l0,0.7c0,0.3,0.2,0.6,0.4,0.6l6.9,0.4c0.2,0,0.4-0.2,0.5-0.5l0-0.7
			C77.5,67.2,77.3,67,77.1,67z"/>
		<path class="st15" d="M69.7,67.5v0.3c0,0.3,0.2,0.6,0.4,0.6l6.9,0.4c0.2,0,0.4-0.2,0.5-0.5V68L69.7,67.5z"/>
		<path class="st15" d="M71.3,66.7l-0.2,0L71,68.5l0.2,0L71.3,66.7z"/>
		<path class="st11" d="M70.8,67.5c0,0.2-0.2,0.4-0.4,0.4s-0.3-0.2-0.3-0.5c0-0.2,0.2-0.4,0.4-0.4C70.7,67.1,70.8,67.3,70.8,67.5z"
			/>
		<path class="st15" d="M49.9,66.4c0,1.4-1.2,2.4-2.7,2.3c-1.4-0.1-2.5-1.2-2.5-2.6c0-1.4,1.2-2.4,2.7-2.3
			C48.9,63.9,50,65.1,49.9,66.4z"/>
		<path class="st5" d="M50.8,65.5l-6.9-0.4c-0.2,0-0.4,0.2-0.5,0.5l0,0.7c0,0.3,0.2,0.6,0.4,0.6l6.9,0.4c0.2,0,0.4-0.2,0.5-0.5
			l0-0.7C51.2,65.8,51,65.5,50.8,65.5z"/>
		<path class="st15" d="M43.4,66.1v0.3c0,0.3,0.2,0.6,0.4,0.6l6.9,0.4c0.2,0,0.4-0.2,0.5-0.5v-0.3L43.4,66.1z"/>
		<path class="st15" d="M45,65.2l-0.2,0L44.7,67l0.2,0L45,65.2z"/>
		<path class="st11" d="M44.5,66.1c0,0.2-0.2,0.4-0.4,0.4s-0.3-0.2-0.3-0.5s0.2-0.4,0.4-0.4C44.4,65.6,44.5,65.9,44.5,66.1z"/>
		<path class="st4" d="M1.3,78.9c7.2-1,15.7-1,19.3-0.8c0.2-0.4,0.5-0.8,0.9-1.2H4.6C4.6,76.8,2.3,77.1,1.3,78.9z"/>
		<path class="st4" d="M46.5,76.5c-1.2-4.9-6-7.4-9.8-8.5c-4.1-1.2-8.5-1-12.4,0.8c-3.1,1.4-5.4,4.5-6.6,8.1h1.1
			c0.3-0.6,0.7-1.1,1.1-1.6c1.5-2,3.7-3.2,5.8-3.8c2.4-0.6,5-0.9,7.5-0.7c3.5,0.3,7.3,1.4,10.2,4c1.3,1.2,2.3,2.7,2.8,4.5l1.2,4.8
			C47.4,84.1,47.6,80.8,46.5,76.5z"/>
		<path class="st8" d="M47.8,96.9l57.9,1.6l0.2-1.8l-58.4-0.6L47.8,96.9z"/>
		<path class="st5" d="M102.8,74.3l-33.7-1c-0.3,0-0.5,0.3-0.5,0.6v0.2c0,0.3,0.2,0.6,0.5,0.6l33.7,1c0.3,0,0.5-0.3,0.5-0.6v-0.2
			C103.3,74.5,103,74.3,102.8,74.3z"/>
		<path class="st5" d="M65.8,73.2l-17.7-0.5c-0.3,0-0.5,0.3-0.5,0.6v0.2c0,0.3,0.2,0.6,0.5,0.6l17.7,0.5c0.3,0,0.5-0.3,0.5-0.6v-0.2
			C66.3,73.5,66.1,73.2,65.8,73.2z"/>
		<path class="st1" d="M95.9,60l-1,1.9l0.4,2.6c0,0.3,0.2,0.5,0.5,0.5H98c0,0,1.5-1.6,1.6-3.1C99.6,60.5,95.9,60,95.9,60z"/>
		<path class="st16" d="M92.3,60.9l-0.4-4.6c0,0,0-0.7,1.1-0.9c0,0,2.4,0,3.3,1.3c0,0,1.3,2.2,1.8,5c0,0-0.2,1.2-0.9,1.2
			c0,0-2.4,0.1-3.5-0.4C93.6,62.6,92.3,61.9,92.3,60.9z"/>
		<path class="st4" d="M93,55.5c-0.1,0-0.2,0-0.3,0.1c0.8,0.9,2.9,3.8,3.7,7.5c0.5,0,0.8,0,0.8,0c0.7,0,0.9-1.2,0.9-1.2
			c-0.5-2.7-1.8-5-1.8-5C95.3,55.5,93,55.5,93,55.5z"/>
		<path class="st17" d="M143.2,69.4c-0.6-0.2-1.4-0.3-1.8-0.4c-0.2-0.1-0.4,0.1-0.5,0.3c0.9,1.1,2.7,3.6,4.4,7.6
			C144.8,74.5,144.2,71.5,143.2,69.4z"/>
		<path class="st4" d="M142.8,68.6c0,0-1.5-1.9-5.9-3.1c0,0-12.5-3.6-26.9-4.9c0,0,1.6,2.9,5.9,3.6c3.8,0.7,17.6,2.2,27,4.8
			C142.9,68.9,142.9,68.7,142.8,68.6z"/>
		<path class="st5" d="M4.4,73.7h1.1c0.4,0,0.7-0.4,0.7-0.9v-0.9c0-0.5-0.3-0.9-0.7-0.9H4.3C4.3,71.9,4.3,72.8,4.4,73.7z"/>
		<path class="st5" d="M4.3,65.8h1.2c0.4,0,0.7-0.4,0.7-0.9V64c0-0.5-0.3-0.9-0.7-0.9H4.4C4.3,63.9,4.3,64.8,4.3,65.8z"/>
		<path class="st8" d="M66.2,43.3c-0.6,4.3-1.1,14.4-1.4,19.7c2,0.1,4,0.2,6.1,0.3c-0.5-7.7,0.2-17,0.5-19.8
			C69.7,43.5,68,43.4,66.2,43.3z"/>
		<path class="st12" d="M68.9,42.4l-0.2,0c0,0.3-2.5,28.3-0.7,52.3l0.2,0C66.4,70.6,68.9,42.7,68.9,42.4z"/>
	</g>
</g>
</svg>
