<?xml version="1.0" encoding="utf-8"?>
<!-- Generator: Adobe Illustrator 24.1.2, SVG Export Plug-In . SVG Version: 6.00 Build 0)  -->
<svg version="1.1" id="Layer_1" xmlns="http://www.w3.org/2000/svg" xmlns:xlink="http://www.w3.org/1999/xlink" x="0px" y="0px"
	 viewBox="0 0 187 146" style="enable-background:new 0 0 187 146;" xml:space="preserve">
<style type="text/css">
	.st0{fill-rule:evenodd;clip-rule:evenodd;stroke:#000000;stroke-width:0.25;stroke-miterlimit:10;}
	.st1{fill-rule:evenodd;clip-rule:evenodd;fill:#96989A;}
	.st2{fill-rule:evenodd;clip-rule:evenodd;fill:#373435;}
	.st3{fill-rule:evenodd;clip-rule:evenodd;fill:#5F5F5F;}
</style>
<path class="st0" d="M145.2,77.8c-2.6-4.5-6.3-7.6-11.5-9.3c-1.9-0.7-4.1-0.7-5.9-1c0-0.7,0-1.4,0-2c0-2.8-1.1-3.4-3.7-4.1
	c-0.4,0-0.4,0-0.7,0c-3,0-4.8-1.7-5.6-4.1c-2.2-4.8-4.8-9.3-7-14.1c1.5-0.4,2.6-0.4,3.7-0.4c0.7,0,1.5-0.7,1.5-1
	c0.8-3.4,1.1-6.5,0.4-9.6c-0.7-2.4-2.2-3.1-4.8-2.8c-3.4,0.7-6.7,1.7-9.6,3.8c-1.5,1-2.6,1.7-1.9,3.4c-1.9,0.4-3.7,1-5.2,1.4
	c-1.1,0.4-1.5,1-1.1,1.7c0.4,0.7,1.1,1,1.9,0.7c1.9-0.4,3.4-0.7,5.2-1.4c0,0.4,0.4,1,0.7,1.4c-0.7,1-2.6,1.4-1.5,2.8
	c0.7,1,1.5,0.7,2.6,0.4c0,0.4,0.4,0.7,0.4,0.7c1.5,3.8,3,7.6,4.5,11.3c1.5,3.1,1.9,6.2,1.1,9.6c-0.7,3.8-1.5,7.6-3.4,11
	c-1.5,2.8-3.7,4.5-7,5.2c-6.3,1.4-12.6,1.7-18.9,0.7c-4.1-0.7-8.1-4.8-8.1-8.3c0-1.4,0.7-2.8,1.5-3.8c1.1-2,3-3.8,4.5-5.5
	c0.4-0.4,0.4-0.7,0.7-1c0.8-1,1.5-1.7,0.8-2.8c-0.4-1-1.9-0.7-2.6-0.7c-14.1,0-27.8,0-41.9,0c-1.1,0-2.2,0.4-3,1
	c-1.5,1.4-3,2.4-4.5,3.4c-0.4,0.4-1.1,0.7-1.9,0.7c-3.7-0.4-6.7,0.7-9.2,3.4c-1.1,1.4-1.9,2.4-1.1,3.8c0.4,0.4,0.4,1,0.4,1.4
	c0,1,0.7,2,1.9,2.4c-1.1,2.4-2.2,4.5-3.4,6.9c-0.4,0.7-0.7,1.7-0.7,2.4c-0.4,1.7,0.4,2.8,1.9,3.1c1.5,0.4,3.4,0.7,4.8,1
	c-0.4,5.5,1.5,10,5.9,13.8c3,2.8,7,4.1,11.1,4.1c7.8,0.4,16.3-4.5,18.2-13.8c0.4,0,1.1,0,1.5,0c13.4,0,26.3,0,39.7,0
	c3.4,0,6.7-0.4,10-2c0.7-0.4,1.5-0.7,2.2-1.4c0,0.7,0.4,1,0.4,1.4c0.4,1.4,0.4,1.4,1.9,1c1.1-0.4,1.9-0.7,3-1.4
	c0.4,8.3,4.1,13.8,12.6,15.8c5.9,1.4,11.9-0.4,16-5.5c5.2-6.2,4.8-12.4,0.4-18.6c1.1-1.4,2.2-2.4,3.4-3.8c0-0.4,0-0.7,0-1.4
	L145.2,77.8z M128.9,100.5c-5.9,0-10.4-5.5-8.1-11c0-0.4,0.7-1,1.1-1c3.7-1,7.8-2,11.5-2.8c0.4,0,1.1,0,1.5,0.4c3,2,3.7,5.9,2.2,8.9
	C136,98.4,132.6,100.5,128.9,100.5z M47,90.8c0,3.8-1.9,6.5-5.2,8.3c-3.7,2-7.8,2-11.5-0.4c-3.4-2-4.5-4.8-4.5-8.6
	C33.3,90.5,40,90.5,47,90.8z"/>
<path class="st1" d="M145.2,77.8c-2.6-4.5-6.3-7.6-11.5-9.3c-1.9-0.7-4.1-0.7-5.9-1v-1c0,0,0,0-8.4,5.6
	c-8.4,5.6-11.6,18.1-11.6,18.1l0.9,2.5l3.3-0.9c0.3-0.2,0.7-0.4,1.1-0.6v0.3l7.8-2.2c0.1-0.4,0.8-0.9,1.1-0.9c3.7-1,7.8-2,11.5-2.8
	c0.1,0,0.3,0,0.5,0l8.3-2.3l-0.3-0.5c1.1-1.4,2.2-2.4,3.4-3.8C145.2,78.7,145.2,78.4,145.2,77.8L145.2,77.8z"/>
<path class="st2" d="M19.2,89.5c-0.4,5.5,1.5,10,5.9,13.8c3,2.8,7,4.1,11.1,4.1c7.8,0.4,16.3-4.5,18.2-13.8L47,90.8
	c0,3.8-1.9,6.5-5.2,8.3c-3.7,2-7.8,2-11.5-0.4c-3.4-2-4.5-4.8-4.5-8.6l10.1,0.3c-3.3-0.1-6.6-0.2-10.1-0.3L19.2,89.5L19.2,89.5z
	 M113,91.2c0.4,8.3,4.1,13.8,12.6,15.8c5.9,1.4,11.9-0.4,16-5.5c5.1-6,4.8-12.1,0.7-18.1l-8.9,2.3c0.4,0,1.1,0,1.5,0.4
	c3,2,3.7,5.9,2.2,8.9c-1.1,3.4-4.5,5.5-8.1,5.5c-5.9,0-10.4-5.5-8.1-11c0-0.1,0.1-0.3,0.2-0.4L113,91.2L113,91.2z"/>
<path class="st3" d="M54.6,58.3c7.8,0,15.6,0,23.4,0c4.1,0,1.8-4.9,1.1-7.9c-0.4-1-1.1-1.4-2.2-1.4c-11.5-0.4-23.4-1-34.8-1.4
	c-3.4,0-6.7,0.4-9.6,0.4c-0.7,0-1.1,0.4-1.9,0.4c-2.6,1-3.7,2.8-3,5.2c0,1.4,0.7,2.4,1.5,3.8c0.4,1,1.1,1,2.2,1
	C39.1,58.3,46.8,58.3,54.6,58.3L54.6,58.3z"/>
</svg>
