<?xml version="1.0" encoding="utf-8"?>
<!-- Generator: Adobe Illustrator 24.1.2, SVG Export Plug-In . SVG Version: 6.00 Build 0)  -->
<svg version="1.1" id="Layer_1" xmlns="http://www.w3.org/2000/svg" xmlns:xlink="http://www.w3.org/1999/xlink" x="0px" y="0px"
	 viewBox="0 0 300 300" style="enable-background:new 0 0 300 300;" xml:space="preserve">
<style type="text/css">
	.st0{fill:#0B44B1;}
	.st1{fill:#FFFFFF;}
</style>
<path class="st0" d="M239.4,300H60.6C27.1,300,0,272.9,0,239.4V60.6C0,27.1,27.1,0,60.6,0h178.8C272.9,0,300,27.1,300,60.6v178.8
	C300,272.9,272.9,300,239.4,300z"/>
<path class="st0" d="M801.3,300H622.5c-33.5,0-60.6-27.1-60.6-60.6V60.6C561.9,27.1,589,0,622.5,0h178.8c33.5,0,60.6,27.1,60.6,60.6
	v178.8C861.9,272.9,834.7,300,801.3,300z"/>
<g>
	<path class="st1" d="M193.1,212.4L87.6,106.9c-5.3-5.3-5.3-13.9,0-19.2l0,0c5.3-5.3,13.9-5.3,19.2,0l105.5,105.5
		c5.3,5.3,5.3,13.9,0,19.2l0,0C207.1,217.7,198.5,217.7,193.1,212.4z"/>
	<path class="st1" d="M87.6,193.1L193.1,87.6c5.3-5.3,13.9-5.3,19.2,0l0,0c5.3,5.3,5.3,13.9,0,19.2L106.9,212.4
		c-5.3,5.3-13.9,5.3-19.2,0l0,0C82.3,207.1,82.3,198.5,87.6,193.1z"/>
</g>
<g>
	<g>
		<g>
			<path class="st1" d="M781.8,176v25.4c0,9.2-7.5,16.6-16.6,16.6h-25.4c-1.1,0-2.1-0.4-2.8-1.2c-0.7-0.7-1.2-1.7-1.2-2.8
				c0-2.2,1.8-3.9,3.9-3.9h25.4c4.9,0,8.8-3.9,8.8-8.8V176c0-1.1,0.4-2.1,1.2-2.8c0.7-0.7,1.7-1.2,2.8-1.2
				C780,172,781.8,173.8,781.8,176z"/>
		</g>
		<g>
			<path class="st1" d="M781.8,101.9v25.4c0,1.1-0.4,2.1-1.2,2.8c-0.7,0.7-1.7,1.2-2.8,1.2c-2.2,0-3.9-1.8-3.9-3.9v-25.4
				c0-4.9-3.9-8.8-8.8-8.8h-25.4c-1.1,0-2.1-0.4-2.8-1.2c-0.7-0.7-1.2-1.7-1.2-2.8c0-2.2,1.8-3.9,3.9-3.9h25.4
				C774.3,85.2,781.8,92.7,781.8,101.9z"/>
		</g>
		<g>
			<path class="st1" d="M695,89.2c0,2.2-1.8,3.9-3.9,3.9h-25.4c-4.9,0-8.8,3.9-8.8,8.8v25.4c0,1.1-0.4,2.1-1.2,2.8
				c-0.7,0.7-1.7,1.2-2.8,1.2c-2.2,0-3.9-1.8-3.9-3.9v-25.4c0-9.2,7.5-16.6,16.6-16.6H691c1.1,0,2.1,0.4,2.8,1.2
				C694.5,87.1,695,88.1,695,89.2z"/>
			<path class="st1" d="M695,214c0,2.2-1.8,3.9-3.9,3.9h-25.4c-9.2,0-16.6-7.5-16.6-16.6V176c0-1.1,0.4-2.1,1.2-2.8
				c0.7-0.7,1.7-1.2,2.8-1.2c2.2,0,3.9,1.8,3.9,3.9v25.4c0,4.9,3.9,8.8,8.8,8.8H691c1.1,0,2.1,0.4,2.8,1.2
				C694.5,212,695,212.9,695,214z"/>
		</g>
	</g>
	<g>
		<g>
			<path class="st1" d="M692.8,163h-14.2c-6.2,0-11.2,5-11.2,11.2v14.2c0,6.2,5,11.2,11.2,11.2h14.2c6.2,0,11.2-5,11.2-11.2v-14.2
				C704,168,699,163,692.8,163z M696.3,188.4c0,1.9-1.6,3.5-3.5,3.5h-14.2c-1.9,0-3.5-1.6-3.5-3.5v-14.2c0-1.9,1.6-3.5,3.5-3.5h14.2
				c1.9,0,3.5,1.6,3.5,3.5V188.4z"/>
		</g>
		<g>
			<path class="st1" d="M761.8,180.2h-6.1v8.2c0,1.9-1.6,3.5-3.5,3.5H744v6.1c0,0.6,0.1,1.1,0.4,1.6h7.8c6.2,0,11.2-5,11.2-11.2
				v-7.8C762.9,180.4,762.3,180.2,761.8,180.2z"/>
		</g>
		<g>
			<path class="st1" d="M732.2,199.6h6.1v-8.2c0-1.9,1.6-3.5,3.5-3.5h8.2v-6.1c0-0.6-0.1-1.1-0.4-1.6h-7.8c-6.2,0-11.2,5-11.2,11.2
				v7.8C731.1,199.4,731.7,199.6,732.2,199.6z"/>
		</g>
		<g>
			<path class="st1" d="M744.6,163c-0.3,0-0.7,0-1.1,0h-11.6c-0.4,0-0.8,0.3-1,0.7c-0.2,0.6-0.3,1.2-0.3,1.9v8.6c0,0.6,0.5,1,1,1
				h11.9c0,0,0,0,0,0c0.6,0,1.1-0.5,1.1-1v-10.3C744.6,163.5,744.6,163.3,744.6,163z"/>
		</g>
		<g>
			<path class="st1" d="M763.3,163c-0.3,0-0.7,0-1.1,0h-11.6c-0.4,0-0.8,0.3-1,0.7c-0.2,0.6-0.3,1.2-0.3,1.9v8.6c0,0.6,0.5,1,1,1
				h11.9c0,0,0,0,0,0c0.6,0,1.1-0.5,1.1-1v-10.3C763.4,163.5,763.3,163.3,763.3,163z"/>
		</g>
		<g>
			<path class="st1" d="M704,114.8V129c0,6.2-5,11.2-11.2,11.2h-14.2c-6.2,0-11.2-5-11.2-11.2v-14.2c0-6.2,5-11.2,11.2-11.2h14.2
				C699,103.6,704,108.6,704,114.8z"/>
			<path class="st1" d="M752.2,103.6H738c-6.2,0-11.2,5-11.2,11.2V129c0,6.2,5,11.2,11.2,11.2h14.2c6.2,0,11.2-5,11.2-11.2v-14.2
				C763.4,108.6,758.4,103.6,752.2,103.6z M755.7,129c0,1.9-1.6,3.5-3.5,3.5H738c-1.9,0-3.5-1.6-3.5-3.5v-14.2
				c0-1.9,1.6-3.5,3.5-3.5h14.2c1.9,0,3.5,1.6,3.5,3.5V129z"/>
		</g>
	</g>
</g>
</svg>
