<svg width="72" height="60" viewBox="0 0 72 60" fill="none" xmlns="http://www.w3.org/2000/svg">
<rect x="9" y="3" width="54" height="54" rx="18" fill="url(#paint0_linear_24082_33852)"/>
<path fill-rule="evenodd" clip-rule="evenodd" d="M32.8206 21.4102H29.7315C28.452 21.4102 27.4102 22.4525 27.4102 23.7315V26.8215C27.4102 28.1086 28.452 29.142 29.7315 29.142H32.8206C34.1092 29.142 35.142 28.1086 35.142 26.8215V23.7315C35.142 22.4525 34.1092 21.4102 32.8206 21.4102ZM29.7315 30.8602H32.8206C34.1092 30.8602 35.142 31.9026 35.142 33.1816V36.2716C35.142 37.5587 34.1092 38.592 32.8206 38.592H29.7315C28.452 38.592 27.4102 37.5587 27.4102 36.2716V33.1816C27.4102 31.9026 28.452 30.8602 29.7315 30.8602ZM30.5036 32.793H32.0481C32.6924 32.793 33.2088 33.3142 33.2088 33.9537V35.4987C33.2088 36.1423 32.6924 36.659 32.0481 36.659H30.5036C29.8638 36.659 29.3429 36.1423 29.3429 35.4987V33.9537C29.3429 33.3142 29.8638 32.793 30.5036 32.793ZM42.2704 21.4102H39.1813C37.9018 21.4102 36.8599 22.4525 36.8599 23.7315V26.8215C36.8599 28.1086 37.9018 29.142 39.1813 29.142H42.2704C43.559 29.142 44.5918 28.1086 44.5918 26.8215V23.7315C44.5918 22.4525 43.559 21.4102 42.2704 21.4102ZM41.4986 23.3432H39.9541C39.3143 23.3432 38.7934 23.8644 38.7934 24.5038V26.0488C38.7934 26.6924 39.3143 27.2091 39.9541 27.2091H41.4986C42.1429 27.2091 42.6593 26.6924 42.6593 26.0488V24.5038C42.6593 23.8644 42.1429 23.3432 41.4986 23.3432Z" fill="white"/>
<path d="M39.7588 31.8259C39.7588 31.2921 39.3261 30.8594 38.7923 30.8594H37.8259C37.2921 30.8594 36.8594 31.2921 36.8594 31.8259C36.8594 32.3596 37.2921 32.7923 37.8259 32.7923H38.7588C39.3111 32.7923 39.7588 33.24 39.7588 33.7923V36.175C39.7588 36.4419 39.5425 36.6582 39.2756 36.6582C39.0087 36.6582 38.7923 36.4419 38.7923 36.175V35.6918C38.7923 35.158 38.3596 34.7253 37.8259 34.7253C37.2921 34.7253 36.8594 35.158 36.8594 35.6918V37.5912C36.8594 38.1435 37.3071 38.5912 37.8594 38.5912H39.7588C40.2926 38.5912 40.7253 38.1585 40.7253 37.6247C40.7253 37.0909 41.158 36.6582 41.6918 36.6582C42.2255 36.6582 42.6582 37.0909 42.6582 37.6247C42.6582 38.1585 43.0909 38.5912 43.6247 38.5912C44.1585 38.5912 44.5912 38.1585 44.5912 37.6247V36.6582C44.5912 36.1245 44.1585 35.6918 43.6247 35.6918H43.1415C42.8746 35.6918 42.6582 35.4754 42.6582 35.2085C42.6582 34.9416 42.4419 34.7253 42.175 34.7253C41.9081 34.7253 41.6918 34.5089 41.6918 34.242C41.6918 33.9752 41.9081 33.7588 42.175 33.7588H43.5912C44.1435 33.7588 44.5912 33.3111 44.5912 32.7588V31.8594C44.5912 31.3071 44.1435 30.8594 43.5912 30.8594H42.6582C42.1245 30.8594 41.6918 31.2921 41.6918 31.8259C41.6918 32.3596 41.2591 32.7923 40.7253 32.7923C40.1915 32.7923 39.7588 32.3596 39.7588 31.8259Z" fill="white"/>
<path d="M42.1367 16.7285C41.5844 16.7285 41.1367 17.1762 41.1367 17.7285C41.1367 18.2808 41.5844 18.7285 42.1367 18.7285V16.7285ZM47.2731 22.6376C47.2731 23.1899 47.7208 23.6376 48.2731 23.6376C48.8254 23.6376 49.2731 23.1899 49.2731 22.6376H47.2731ZM42.1367 18.7285H46.2731V16.7285H42.1367V18.7285ZM47.2731 19.7285V22.6376H49.2731V19.7285H47.2731ZM46.2731 18.7285C46.8254 18.7285 47.2731 19.1762 47.2731 19.7285H49.2731C49.2731 18.0717 47.9299 16.7285 46.2731 16.7285V18.7285Z" fill="white"/>
<path d="M29.8633 16.7285C30.4156 16.7285 30.8633 17.1762 30.8633 17.7285C30.8633 18.2808 30.4156 18.7285 29.8633 18.7285V16.7285ZM24.7269 22.6376C24.7269 23.1899 24.2792 23.6376 23.7269 23.6376C23.1746 23.6376 22.7269 23.1899 22.7269 22.6376H24.7269ZM29.8633 18.7285H25.7269V16.7285H29.8633V18.7285ZM24.7269 19.7285V22.6376H22.7269V19.7285H24.7269ZM25.7269 18.7285C25.1746 18.7285 24.7269 19.1762 24.7269 19.7285H22.7269C22.7269 18.0717 24.0701 16.7285 25.7269 16.7285V18.7285Z" fill="white"/>
<path d="M42.1367 43.2734C41.5844 43.2734 41.1367 42.8257 41.1367 42.2734C41.1367 41.7212 41.5844 41.2734 42.1367 41.2734V43.2734ZM47.2731 37.3643C47.2731 36.8121 47.7208 36.3643 48.2731 36.3643C48.8254 36.3643 49.2731 36.8121 49.2731 37.3643H47.2731ZM42.1367 41.2734H46.2731V43.2734H42.1367V41.2734ZM47.2731 40.2734V37.3643H49.2731V40.2734H47.2731ZM46.2731 41.2734C46.8254 41.2734 47.2731 40.8257 47.2731 40.2734H49.2731C49.2731 41.9303 47.9299 43.2734 46.2731 43.2734V41.2734Z" fill="white"/>
<path d="M29.8633 43.2734C30.4156 43.2734 30.8633 42.8257 30.8633 42.2734C30.8633 41.7212 30.4156 41.2734 29.8633 41.2734V43.2734ZM24.7269 37.3643C24.7269 36.8121 24.2792 36.3643 23.7269 36.3643C23.1746 36.3643 22.7269 36.8121 22.7269 37.3643H24.7269ZM29.8633 41.2734H25.7269V43.2734H29.8633V41.2734ZM24.7269 40.2734V37.3643H22.7269V40.2734H24.7269ZM25.7269 41.2734C25.1746 41.2734 24.7269 40.8257 24.7269 40.2734H22.7269C22.7269 41.9303 24.0701 43.2734 25.7269 43.2734V41.2734Z" fill="white"/>
<defs>
<linearGradient id="paint0_linear_24082_33852" x1="36" y1="3" x2="36" y2="57" gradientUnits="userSpaceOnUse">
<stop stop-color="#EB1E68"/>
<stop offset="1" stop-color="#FC6D05"/>
</linearGradient>
</defs>
</svg>
