<?xml version="1.0" encoding="utf-8"?>
<!-- Generator: Adobe Illustrator 24.1.2, SVG Export Plug-In . SVG Version: 6.00 Build 0)  -->
<svg version="1.1" id="Layer_1" xmlns="http://www.w3.org/2000/svg" xmlns:xlink="http://www.w3.org/1999/xlink" x="0px" y="0px"
	 viewBox="0 0 300 300" style="enable-background:new 0 0 300 300;" xml:space="preserve">
<style type="text/css">
	.st0{fill:#0B44B1;}
	.st1{fill:#FFFFFF;}
</style>
<path class="st0" d="M239.4,300H60.6C27.1,300,0,272.9,0,239.4V60.6C0,27.1,27.1,0,60.6,0h178.8C272.9,0,300,27.1,300,60.6v178.8
	C300,272.9,272.9,300,239.4,300z"/>
<g>
	<path class="st1" d="M75.4,55.2h149.2c7.5,0,13.6,6.1,13.6,13.6l0,0c0,7.5-6.1,13.6-13.6,13.6L75.4,82.5c-7.5,0-13.6-6.1-13.6-13.6
		l0,0C61.8,61.3,67.8,55.2,75.4,55.2z"/>
	<path class="st1" d="M75.4,136.4h149.2c7.5,0,13.6,6.1,13.6,13.6l0,0c0,7.5-6.1,13.6-13.6,13.6l-149.2,0.1
		c-7.5,0-13.6-6.1-13.6-13.6l0,0C61.8,142.5,67.8,136.4,75.4,136.4z"/>
	<path class="st1" d="M75.4,217.5h149.2c7.5,0,13.6,6.1,13.6,13.6l0,0c0,7.5-6.1,13.6-13.6,13.6l-149.2,0.1
		c-7.5,0-13.6-6.1-13.6-13.6l0,0C61.8,223.7,67.8,217.6,75.4,217.5z"/>
</g>
</svg>
