<svg width="30" height="30" viewBox="0 0 30 30" fill="none" xmlns="http://www.w3.org/2000/svg">
<g clip-path="url(#clip0_2152_2560)">
<path d="M3.42643 17.4605L9.66426 18.1823L21.5957 18.5115L27.5917 18.5685L28.1459 16.9286L27.5917 13.7184L25.1379 12.813H2.6001L3.42643 17.4605Z" fill="#162026"/>
<path d="M29.8236 15.0227C29.8236 15.0227 29.7178 13.1802 29.219 12.3508C29.219 12.3508 28.9167 11.9645 28.0097 11.7049C28.0097 11.7049 25.4249 10.9578 22.4723 10.7045C22.4723 10.7045 20.4971 8.94428 18.3759 7.38034C18.3759 7.38034 17.0457 6.65219 15.3124 6.65219C15.3124 6.65219 4.42896 6.28495 2.2825 6.8738C2.26234 6.88013 2.24219 6.8928 2.22707 6.91812L2.11622 7.08275C2.08599 7.12707 2.09607 7.19039 2.13638 7.21572L2.22204 7.26637C2.25731 7.28536 2.26234 7.34235 2.23715 7.37401C2.01545 7.66527 1.16896 8.86197 0.791065 10.4639C0.77091 10.5399 0.765872 10.6159 0.765872 10.6982V14.0413C0.765872 14.0413 0.292241 14.1046 0.0806181 14.4655L0 15.409C0 15.409 0.0604635 16.593 0.599597 16.8146C0.599597 16.8146 2.52435 17.3338 3.42627 17.4605C3.42627 17.4605 3.53208 15.8269 3.88478 14.6492C3.88478 14.6492 4.30803 13.2372 6.02116 13.2372C6.02116 13.2372 8.49513 13.2119 8.81256 14.3832C8.81256 14.3832 9.1955 15.6812 9.3517 17.1882L9.65905 18.1823L21.5905 18.5115L21.7014 17.4795C21.7014 17.4795 21.9231 14.7188 22.5378 14.0856C22.5378 14.0856 22.9913 13.5918 24.4474 13.5918C24.4474 13.5918 26.866 13.5348 27.1632 14.8644C27.1632 14.8644 27.5613 16.2448 27.5915 18.2646H29.35C29.35 18.2646 29.5667 18.024 29.6523 17.7834L29.6019 17.5301L29.7682 16.7196H29.869C29.869 16.7196 29.9647 16.6627 29.9647 16.517C29.9647 16.5044 29.9647 16.498 29.9647 16.4854L29.995 15.257C30 15.2697 29.9295 15.1114 29.8236 15.0227Z" fill="#2B9FFF"/>
<path d="M29.8742 16.732C29.8742 16.732 29.97 16.675 29.97 16.5293C29.97 16.5167 29.97 16.5103 29.97 16.4977L30.0002 15.2693C30.0002 15.2693 29.9297 15.111 29.8238 15.0224C29.8238 15.0224 29.8188 14.9084 29.7987 14.7185L27.0728 14.6045C27.1131 14.6868 27.1483 14.7754 27.1685 14.8704C27.1685 14.8704 27.5665 16.2507 27.5968 18.2706H29.3553C29.3553 18.2706 29.5719 18.03 29.6576 17.7894L29.6072 17.5361L29.7735 16.7256H29.8742V16.732Z" fill="#008CFF"/>
<path d="M3.88982 14.6489C3.88982 14.6489 4.06617 14.0664 4.64562 13.6485L0.77091 13.4839V14.0411C0.77091 14.0411 0.297279 14.1044 0.0856567 14.4653L0 15.4087C0 15.4087 0.0604635 16.5928 0.599597 16.8144C0.599597 16.8144 2.52435 17.3336 3.42627 17.4602C3.42627 17.4602 3.53208 15.8266 3.88982 14.6489Z" fill="#008CFF"/>
<path d="M21.7064 17.479C21.7064 17.479 21.8777 15.3453 22.3363 14.4018L8.39941 13.8066C8.60096 13.9586 8.75212 14.1422 8.81762 14.3828C8.81762 14.3828 9.20056 15.6808 9.35675 17.1878L9.66411 18.1819L21.5956 18.5111L21.7064 17.479Z" fill="#008CFF"/>
<path d="M13.7706 6.30372C9.59857 5.69588 4.05104 6.18975 4.05104 6.18975C3.63283 6.29739 3.41113 6.85458 3.41113 6.85458H4.69598L4.82699 6.53166C4.85218 6.46835 4.90257 6.42403 4.96303 6.41769C6.85252 6.18975 11.5384 6.38603 12.3245 6.42403C12.395 6.42403 12.4555 6.48101 12.4857 6.56332L12.5613 6.77227H14.2996C14.0376 6.39237 13.7706 6.30372 13.7706 6.30372Z" fill="#979EA2"/>
<path opacity="0.2" d="M1.19434 9.23552H20.7593C20.069 8.672 19.2377 8.00717 18.3811 7.37399C18.3811 7.37399 17.0509 6.64584 15.3176 6.64584C15.3176 6.64584 4.43417 6.2786 2.28772 6.86745C2.26756 6.87379 2.24741 6.88645 2.23229 6.91178L2.11641 7.08273C2.08617 7.12706 2.09625 7.19037 2.13656 7.2157L2.22222 7.26635C2.25749 7.28535 2.26253 7.34233 2.23733 7.37399C2.08113 7.58927 1.59743 8.26677 1.19434 9.23552Z" fill="white"/>
<path d="M27.1482 17.5429C27.1482 19.2778 26.0296 20.6834 24.6491 20.6834C23.2685 20.6834 22.1499 19.2778 22.1499 17.5429C22.1499 15.808 23.2685 14.4023 24.6491 14.4023C26.0296 14.4023 27.1482 15.808 27.1482 17.5429Z" fill="black"/>
<path d="M24.6491 14.4023C23.2685 14.4023 22.1499 15.808 22.1499 17.5429C22.1499 19.2778 23.2685 20.6834 24.6491 20.6834C26.0296 20.6834 27.1482 19.2778 27.1482 17.5429C27.1482 15.808 26.0296 14.4023 24.6491 14.4023ZM26.2866 19.6007C26.075 19.8666 25.8281 20.0756 25.551 20.2275C25.2638 20.3795 24.9615 20.4555 24.6491 20.4555C24.3367 20.4555 24.0343 20.3795 23.7471 20.2275C23.47 20.0819 23.2231 19.873 23.0115 19.6007C22.7999 19.3348 22.6336 19.0245 22.5127 18.6763C22.3918 18.3154 22.3313 17.9355 22.3313 17.5429C22.3313 17.1503 22.3918 16.7704 22.5127 16.4095C22.6286 16.0613 22.7948 15.751 23.0115 15.4851C23.2231 15.2191 23.47 15.0102 23.7471 14.8582C24.0343 14.7063 24.3367 14.6303 24.6491 14.6303C24.9615 14.6303 25.2638 14.7063 25.551 14.8582C25.8281 15.0039 26.075 15.2128 26.2866 15.4851C26.4982 15.751 26.6645 16.0613 26.7854 16.4095C26.9064 16.7704 26.9668 17.1503 26.9668 17.5429C26.9668 17.9355 26.9064 18.3154 26.7854 18.6763C26.6645 19.0245 26.4982 19.3348 26.2866 19.6007Z" fill="black"/>
<path d="M24.6492 15.0923C23.5759 15.0923 22.6992 16.194 22.6992 17.5427C22.6992 18.8913 23.5759 19.993 24.6492 19.993C25.7224 19.993 26.5991 18.8913 26.5991 17.5427C26.5991 16.194 25.7224 15.0923 24.6492 15.0923ZM26.3472 17.5427C26.3472 17.8339 26.3018 18.1125 26.2162 18.3721C26.1305 18.6254 26.0096 18.8533 25.8534 19.0496C25.6972 19.2459 25.5158 19.3979 25.3143 19.5055C25.1026 19.6195 24.8809 19.6701 24.6542 19.6701C24.4224 19.6701 24.2007 19.6131 23.9941 19.5055C23.7926 19.3979 23.6112 19.2459 23.455 19.0496C23.2988 18.8533 23.1779 18.6254 23.0922 18.3721C23.0015 18.1062 22.9612 17.8276 22.9612 17.5427C22.9612 17.2514 23.0066 16.9728 23.0922 16.7132C23.1779 16.4599 23.2988 16.232 23.455 16.0357C23.6112 15.8394 23.7926 15.6875 23.9941 15.5798C24.2058 15.4659 24.4275 15.4152 24.6542 15.4152C24.886 15.4152 25.1077 15.4722 25.3143 15.5798C25.5158 15.6875 25.6972 15.8394 25.8534 16.0357C26.0096 16.232 26.1305 16.4599 26.2162 16.7132C26.3018 16.9791 26.3472 17.2577 26.3472 17.5427Z" fill="black"/>
<path d="M26.3873 17.5428C26.3873 18.7522 25.6063 19.7273 24.644 19.7273C23.6816 19.7273 22.9056 18.7522 22.9107 17.5428C22.9107 16.3335 23.6917 15.3584 24.654 15.3584C25.6114 15.3584 26.3873 16.3398 26.3873 17.5428Z" fill="#D0D2D3"/>
<path d="M26.201 17.5429C26.201 18.6193 25.5006 19.4931 24.6441 19.4931C23.7875 19.4931 23.0922 18.6193 23.0972 17.5429C23.0972 16.4666 23.7976 15.5928 24.6541 15.5928C25.5107 15.5928 26.201 16.4666 26.201 17.5429Z" fill="black"/>
<path d="M26.2008 17.7519V17.3403H25.6466C25.6365 17.258 25.6163 17.1757 25.5962 17.0934L26.0799 16.7452L25.9186 16.3906L25.4349 16.7388C25.3946 16.6755 25.3442 16.6122 25.2939 16.5615L25.571 15.96L25.2888 15.7574L25.0117 16.3589C24.9512 16.3273 24.8857 16.3083 24.8152 16.2956V15.5991H24.4877V16.2956C24.4222 16.3083 24.3567 16.3336 24.2912 16.3589L24.014 15.7574L23.7319 15.96L24.009 16.5615C23.9586 16.6122 23.9082 16.6755 23.8679 16.7388L23.3893 16.3906L23.228 16.7452L23.7067 17.0934C23.6815 17.1694 23.6664 17.2517 23.6563 17.3403H23.1021V17.7519H23.6563C23.6664 17.8342 23.6865 17.9165 23.7067 17.9988L23.223 18.3471L23.3842 18.7017L23.8679 18.3534C23.9082 18.4167 23.9586 18.4801 24.009 18.5307L23.7319 19.1322L24.014 19.3348L24.2912 18.7333C24.3516 18.765 24.4171 18.784 24.4877 18.7966V19.4931H24.8152V18.7966C24.8807 18.784 24.9462 18.7587 25.0117 18.7333L25.2888 19.3348L25.571 19.1322L25.2939 18.5307C25.3442 18.4801 25.3946 18.4167 25.4349 18.3534L25.9136 18.7017L26.0748 18.3471L25.5962 17.9988C25.6214 17.9229 25.6365 17.8406 25.6466 17.7519H26.2008Z" fill="#919396"/>
<path d="M25.1226 17.5429C25.1226 17.8722 24.9109 18.1381 24.6489 18.1381C24.3869 18.1381 24.1753 17.8722 24.1753 17.5429C24.1753 17.2137 24.3869 16.9478 24.6489 16.9478C24.9109 16.9478 25.1226 17.2137 25.1226 17.5429Z" fill="black"/>
<path d="M24.6492 18.4928C24.236 18.4928 23.8984 18.0686 23.8984 17.5494C23.8984 17.0302 24.236 16.606 24.6492 16.606C25.0624 16.606 25.3999 17.0302 25.3999 17.5494C25.3999 18.0686 25.0624 18.4928 24.6492 18.4928ZM24.6492 16.7009C24.2814 16.7009 23.9791 17.0808 23.9791 17.5431C23.9791 18.0053 24.2814 18.3852 24.6492 18.3852C25.017 18.3852 25.3193 18.0053 25.3193 17.5431C25.3193 17.0808 25.017 16.7009 24.6492 16.7009Z" fill="#D0D2D3"/>
<path d="M24.9209 17.5431C24.9209 17.733 24.795 17.8913 24.6438 17.8913C24.4927 17.8913 24.3667 17.7394 24.3667 17.5431C24.3667 17.3531 24.4927 17.1948 24.6438 17.1948C24.795 17.1948 24.926 17.3531 24.9209 17.5431Z" fill="#CBCDCE"/>
<path d="M24.6492 16.3018C24.105 16.3018 23.6616 16.859 23.6616 17.5428C23.6616 18.2266 24.105 18.7838 24.6492 18.7838C25.1934 18.7838 25.6368 18.2266 25.6368 17.5428C25.6368 16.859 25.1934 16.3018 24.6492 16.3018ZM25.5058 17.5428C25.5058 17.6884 25.4856 17.8277 25.4403 17.9607C25.3949 18.0873 25.3344 18.2076 25.2538 18.3026C25.1732 18.4039 25.0825 18.4799 24.9817 18.5369C24.8759 18.5938 24.7651 18.6192 24.6492 18.6192C24.5333 18.6192 24.4225 18.5875 24.3166 18.5369C24.2159 18.4799 24.1201 18.4039 24.0446 18.3026C23.9639 18.2013 23.9035 18.0873 23.8581 17.9607C23.8128 17.8277 23.7926 17.6884 23.7926 17.5428C23.7926 17.3971 23.8178 17.2578 23.8581 17.1249C23.9035 16.9982 23.9639 16.8779 24.0446 16.783C24.1252 16.6817 24.2159 16.6057 24.3166 16.5487C24.4225 16.4917 24.5333 16.4664 24.6492 16.4664C24.7651 16.4664 24.8759 16.498 24.9817 16.5487C25.0825 16.6057 25.1782 16.6817 25.2538 16.783C25.3344 16.8843 25.3949 16.9982 25.4403 17.1249C25.4856 17.2578 25.5058 17.3971 25.5058 17.5428Z" fill="#D0D2D3"/>
<path d="M24.6542 15.4346C23.7271 15.4346 22.9713 16.378 22.9663 17.5494C22.9663 18.7144 23.7171 19.6642 24.6442 19.6642C25.5713 19.6642 26.3271 18.7207 26.3321 17.5494C26.3321 16.378 25.5814 15.4346 24.6542 15.4346ZM24.6442 19.4616C23.8027 19.4616 23.1225 18.6068 23.1225 17.5494C23.1225 16.492 23.8078 15.6372 24.6492 15.6372C25.4907 15.6372 26.1709 16.492 26.1709 17.5494C26.1709 18.6004 25.4856 19.4616 24.6442 19.4616Z" fill="#D0D2D3"/>
<path d="M26.2008 17.7519V17.3403H25.6466C25.6365 17.258 25.6163 17.1757 25.5962 17.0934L26.0799 16.7452L25.9186 16.3906L25.4349 16.7388C25.3946 16.6755 25.3442 16.6122 25.2939 16.5615L25.571 15.96L25.2888 15.7574L25.0117 16.3589C24.9512 16.3273 24.8857 16.3083 24.8152 16.2956V15.5991H24.4877V16.2956C24.4222 16.3083 24.3567 16.3336 24.2912 16.3589L24.014 15.7574L23.7319 15.96L24.009 16.5615C23.9586 16.6122 23.9082 16.6755 23.8679 16.7388L23.3893 16.3906L23.228 16.7452L23.7067 17.0934C23.6815 17.1694 23.6664 17.2517 23.6563 17.3403H23.1021V17.7519H23.6563C23.6664 17.8342 23.6865 17.9165 23.7067 17.9988L23.223 18.3471L23.3842 18.7017L23.8679 18.3534C23.9082 18.4167 23.9586 18.4801 24.009 18.5307L23.7319 19.1322L24.014 19.3348L24.2912 18.7333C24.3516 18.765 24.4171 18.784 24.4877 18.7966V19.4931H24.8152V18.7966C24.8807 18.784 24.9462 18.7587 25.0117 18.7333L25.2888 19.3348L25.571 19.1322L25.2939 18.5307C25.3442 18.4801 25.3946 18.4167 25.4349 18.3534L25.9136 18.7017L26.0748 18.3471L25.5962 17.9988C25.6214 17.9229 25.6365 17.8406 25.6466 17.7519H26.2008ZM25.5508 18.0812L25.959 18.3788L25.8783 18.556L25.4702 18.2584L25.4097 18.2141L25.3644 18.2838C25.3241 18.3408 25.2787 18.3977 25.2334 18.4484L25.178 18.5054L25.2132 18.5814L25.4501 19.0942L25.309 19.1955L25.0722 18.6827L25.0369 18.6067L24.9714 18.6384C24.916 18.6637 24.8555 18.689 24.795 18.6953L24.7245 18.708V18.7966V19.3918H24.5633V18.7966V18.708L24.4927 18.6953C24.4322 18.6827 24.3718 18.6637 24.3164 18.6384L24.2509 18.6067L24.2156 18.6827L23.9788 19.1955L23.8377 19.0942L24.0745 18.5814L24.1098 18.5054L24.0544 18.4484C24.009 18.3977 23.9637 18.3471 23.9233 18.2838L23.878 18.2141L23.8175 18.2584L23.4044 18.556L23.3238 18.3788L23.7369 18.0812L23.7974 18.0368L23.7722 17.9545C23.752 17.8849 23.7369 17.8089 23.7268 17.7329L23.7168 17.6443H23.6462H23.1776V17.4417H23.6513H23.7218L23.7319 17.353C23.742 17.277 23.7571 17.201 23.7823 17.1314L23.8075 17.0491L23.747 17.0048L23.3389 16.7072L23.4195 16.5299L23.8276 16.8275L23.8881 16.8718L23.9334 16.8022C23.9737 16.7452 24.0191 16.6882 24.0644 16.6375L24.1199 16.5805L24.0846 16.5046L23.8478 15.9917L23.9888 15.8904L24.2257 16.4033L24.2609 16.4792L24.3264 16.4476C24.3819 16.4222 24.4423 16.3969 24.5028 16.3906L24.5733 16.3779V16.2893V15.6941H24.7346V16.2893V16.3779L24.8051 16.3906C24.8656 16.4033 24.926 16.4222 24.9815 16.4476L25.047 16.4792L25.0822 16.4033L25.319 15.8904L25.4601 15.9917L25.2233 16.5046L25.188 16.5805L25.2435 16.6375C25.2888 16.6882 25.3342 16.7388 25.3745 16.8022L25.4198 16.8718L25.4803 16.8275L25.8935 16.5299L25.9741 16.7072L25.5609 17.0048L25.5004 17.0491L25.5256 17.1314C25.5458 17.201 25.5609 17.277 25.571 17.353L25.5811 17.4417H25.6516H26.1252V17.6443H25.6516H25.5811L25.571 17.7329C25.5609 17.8089 25.5458 17.8849 25.5206 17.9545L25.4954 18.0368L25.5508 18.0812Z" fill="#D0D2D3"/>
<path d="M8.91336 17.5429C8.91336 19.2778 7.79478 20.6834 6.4142 20.6834C5.03362 20.6834 3.91504 19.2778 3.91504 17.5429C3.91504 15.808 5.03362 14.4023 6.4142 14.4023C7.79478 14.4023 8.91336 15.808 8.91336 17.5429Z" fill="black"/>
<path d="M6.4142 14.4023C5.03362 14.4023 3.91504 15.808 3.91504 17.5429C3.91504 19.2778 5.03362 20.6834 6.4142 20.6834C7.79478 20.6834 8.91336 19.2778 8.91336 17.5429C8.91336 15.808 7.79478 14.4023 6.4142 14.4023ZM8.05175 19.6007C7.84013 19.8666 7.59324 20.0756 7.31611 20.2275C7.02891 20.3795 6.72659 20.4555 6.4142 20.4555C6.1018 20.4555 5.79949 20.3795 5.51228 20.2275C5.23516 20.0819 4.98827 19.873 4.77665 19.6007C4.56502 19.3348 4.39875 19.0245 4.27782 18.6763C4.15689 18.3154 4.09643 17.9355 4.09643 17.5429C4.09643 17.1503 4.15689 16.7704 4.27782 16.4095C4.39371 16.0613 4.55998 15.751 4.77665 15.4851C4.98827 15.2191 5.23516 15.0102 5.51228 14.8582C5.79949 14.7063 6.1018 14.6303 6.4142 14.6303C6.72659 14.6303 7.02891 14.7063 7.31611 14.8582C7.59324 15.0039 7.84013 15.2128 8.05175 15.4851C8.26338 15.751 8.42965 16.0613 8.55058 16.4095C8.67151 16.7704 8.73197 17.1503 8.73197 17.5429C8.73197 17.9355 8.67151 18.3154 8.55058 18.6763C8.42965 19.0245 8.26338 19.3348 8.05175 19.6007Z" fill="black"/>
<path d="M6.41431 15.0923C5.34108 15.0923 4.46436 16.194 4.46436 17.5427C4.46436 18.8913 5.34108 19.993 6.41431 19.993C7.48753 19.993 8.36425 18.8913 8.36425 17.5427C8.36425 16.194 7.48753 15.0923 6.41431 15.0923ZM8.11232 17.5427C8.11232 17.8339 8.06698 18.1125 7.98132 18.3721C7.89566 18.6254 7.77473 18.8533 7.61854 19.0496C7.46234 19.2459 7.28095 19.3979 7.0794 19.5055C6.86778 19.6195 6.64608 19.6701 6.41934 19.6701C6.18757 19.6701 5.96587 19.6131 5.75928 19.5055C5.55774 19.3979 5.37635 19.2459 5.22015 19.0496C5.06395 18.8533 4.94303 18.6254 4.85737 18.3721C4.76667 18.1062 4.72636 17.8276 4.72636 17.5427C4.72636 17.2514 4.77171 16.9728 4.85737 16.7132C4.94303 16.4599 5.06395 16.232 5.22015 16.0357C5.37635 15.8394 5.55774 15.6875 5.75928 15.5798C5.97091 15.4659 6.19261 15.4152 6.41934 15.4152C6.65112 15.4152 6.87282 15.4722 7.0794 15.5798C7.28095 15.6875 7.46234 15.8394 7.61854 16.0357C7.77473 16.232 7.89566 16.4599 7.98132 16.7132C8.06698 16.9791 8.11232 17.2577 8.11232 17.5427Z" fill="black"/>
<path d="M8.15246 17.5428C8.15246 18.7522 7.37147 19.7273 6.40909 19.7273C5.44672 19.7273 4.67077 18.7522 4.67581 17.5428C4.67581 16.3335 5.45679 15.3584 6.41917 15.3584C7.37651 15.3584 8.15246 16.3398 8.15246 17.5428Z" fill="#D0D2D3"/>
<path d="M7.96613 17.5429C7.96613 18.6193 7.26576 19.4931 6.40919 19.4931C5.55262 19.4931 4.85729 18.6193 4.86233 17.5429C4.86233 16.4666 5.5627 15.5928 6.41927 15.5928C7.27584 15.5928 7.96613 16.4666 7.96613 17.5429Z" fill="black"/>
<path d="M7.96595 17.7519V17.3403H7.4117C7.40162 17.258 7.38146 17.1757 7.36131 17.0934L7.84502 16.7452L7.68378 16.3906L7.20007 16.7388C7.15976 16.6755 7.10938 16.6122 7.05899 16.5615L7.33612 15.96L7.05395 15.7574L6.77683 16.3589C6.71636 16.3273 6.65086 16.3083 6.58032 16.2956V15.5991H6.25281V16.2956C6.18731 16.3083 6.12181 16.3336 6.0563 16.3589L5.77918 15.7574L5.49702 15.96L5.77414 16.5615C5.72375 16.6122 5.67337 16.6755 5.63306 16.7388L5.15439 16.3906L4.99315 16.7452L5.47182 17.0934C5.44663 17.1694 5.43151 17.2517 5.42144 17.3403H4.86719V17.7519H5.42144C5.43151 17.8342 5.45167 17.9165 5.47182 17.9988L4.98811 18.3471L5.14935 18.7017L5.63306 18.3534C5.67337 18.4167 5.72375 18.4801 5.77414 18.5307L5.49702 19.1322L5.77918 19.3348L6.0563 18.7333C6.11677 18.765 6.18227 18.784 6.25281 18.7966V19.4931H6.58032V18.7966C6.64582 18.784 6.71133 18.7587 6.77683 18.7333L7.05395 19.3348L7.33612 19.1322L7.05899 18.5307C7.10938 18.4801 7.15976 18.4167 7.20007 18.3534L7.67874 18.7017L7.83998 18.3471L7.36131 17.9988C7.3865 17.9229 7.40162 17.8406 7.4117 17.7519H7.96595Z" fill="#919396"/>
<path d="M6.88769 17.5429C6.88769 17.8722 6.67607 18.1381 6.41406 18.1381C6.15205 18.1381 5.94043 17.8722 5.94043 17.5429C5.94043 17.2137 6.15205 16.9478 6.41406 16.9478C6.67607 16.9478 6.88769 17.2137 6.88769 17.5429Z" fill="black"/>
<path d="M6.41433 18.4928C6.00116 18.4928 5.66357 18.0686 5.66357 17.5494C5.66357 17.0302 6.00116 16.606 6.41433 16.606C6.8275 16.606 7.16509 17.0302 7.16509 17.5494C7.16509 18.0686 6.8275 18.4928 6.41433 18.4928ZM6.41433 16.7009C6.04147 16.7009 5.74419 17.0808 5.74419 17.5431C5.74419 18.0053 6.04651 18.3852 6.41433 18.3852C6.78215 18.3852 7.08447 18.0053 7.08447 17.5431C7.08447 17.0808 6.78215 16.7009 6.41433 16.7009Z" fill="#D0D2D3"/>
<path d="M6.68609 17.5431C6.68609 17.733 6.56012 17.8913 6.40896 17.8913C6.2578 17.8913 6.13184 17.7394 6.13184 17.5431C6.13184 17.3531 6.2578 17.1948 6.40896 17.1948C6.56012 17.1948 6.69112 17.3531 6.68609 17.5431Z" fill="#CBCDCE"/>
<path d="M6.41433 16.3018C5.87016 16.3018 5.42676 16.859 5.42676 17.5428C5.42676 18.2266 5.87016 18.7838 6.41433 18.7838C6.9585 18.7838 7.4019 18.2266 7.4019 17.5428C7.4019 16.859 6.9585 16.3018 6.41433 16.3018ZM7.2709 17.5428C7.2709 17.6884 7.25074 17.8277 7.20539 17.9607C7.16005 18.0873 7.09958 18.2076 7.01896 18.3026C6.93835 18.4039 6.84765 18.4799 6.74688 18.5369C6.64107 18.5938 6.53022 18.6192 6.41433 18.6192C6.29844 18.6192 6.18759 18.5875 6.08178 18.5369C5.98101 18.4799 5.88527 18.4039 5.80969 18.3026C5.72908 18.2013 5.66861 18.0873 5.62326 17.9607C5.57792 17.8277 5.55776 17.6884 5.55776 17.5428C5.55776 17.3971 5.58296 17.2578 5.62326 17.1249C5.66861 16.9982 5.72908 16.8779 5.80969 16.783C5.89031 16.6817 5.98101 16.6057 6.08178 16.5487C6.18759 16.4917 6.29844 16.4664 6.41433 16.4664C6.53022 16.4664 6.64107 16.498 6.74688 16.5487C6.84765 16.6057 6.94339 16.6817 7.01896 16.783C7.09958 16.8843 7.16005 16.9982 7.20539 17.1249C7.25074 17.2578 7.2709 17.3971 7.2709 17.5428Z" fill="#D0D2D3"/>
<path d="M6.41939 15.4346C5.49228 15.4346 4.73648 16.378 4.73145 17.5494C4.73145 18.7144 5.4822 19.6642 6.40931 19.6642C7.33642 19.6642 8.09221 18.7207 8.09725 17.5494C8.09725 16.378 7.34649 15.4346 6.41939 15.4346ZM6.40931 19.4616C5.56786 19.4616 4.88764 18.6068 4.88764 17.5494C4.88764 16.492 5.5729 15.6372 6.41435 15.6372C7.2558 15.6372 7.93601 16.492 7.93601 17.5494C7.93601 18.6004 7.25076 19.4616 6.40931 19.4616Z" fill="#D0D2D3"/>
<path d="M7.96595 17.7519V17.3403H7.4117C7.40162 17.258 7.38146 17.1757 7.36131 17.0934L7.84502 16.7452L7.68378 16.3906L7.20007 16.7388C7.15976 16.6755 7.10938 16.6122 7.05899 16.5615L7.33612 15.96L7.05395 15.7574L6.77683 16.3589C6.71636 16.3273 6.65086 16.3083 6.58032 16.2956V15.5991H6.25281V16.2956C6.18731 16.3083 6.12181 16.3336 6.0563 16.3589L5.77918 15.7574L5.49702 15.96L5.77414 16.5615C5.72375 16.6122 5.67337 16.6755 5.63306 16.7388L5.15439 16.3906L4.99315 16.7452L5.47182 17.0934C5.44663 17.1694 5.43151 17.2517 5.42144 17.3403H4.86719V17.7519H5.42144C5.43151 17.8342 5.45167 17.9165 5.47182 17.9988L4.98811 18.3471L5.14935 18.7017L5.63306 18.3534C5.67337 18.4167 5.72375 18.4801 5.77414 18.5307L5.49702 19.1322L5.77918 19.3348L6.0563 18.7333C6.11677 18.765 6.18227 18.784 6.25281 18.7966V19.4931H6.58032V18.7966C6.64582 18.784 6.71133 18.7587 6.77683 18.7333L7.05395 19.3348L7.33612 19.1322L7.05899 18.5307C7.10938 18.4801 7.15976 18.4167 7.20007 18.3534L7.67874 18.7017L7.83998 18.3471L7.36131 17.9988C7.3865 17.9229 7.40162 17.8406 7.4117 17.7519H7.96595ZM7.31596 18.0812L7.72409 18.3788L7.64347 18.556L7.23534 18.2584L7.17488 18.2141L7.12953 18.2838C7.08922 18.3408 7.04388 18.3977 6.99853 18.4484L6.9431 18.5054L6.97837 18.5814L7.21519 19.0942L7.07411 19.1955L6.83729 18.6827L6.80202 18.6067L6.73652 18.6384C6.68109 18.6637 6.62063 18.689 6.56017 18.6953L6.48963 18.708V18.7966V19.3918H6.32839V18.7966V18.708L6.25785 18.6953C6.19739 18.6827 6.13692 18.6637 6.0815 18.6384L6.016 18.6067L5.98072 18.6827L5.74391 19.1955L5.60283 19.0942L5.83964 18.5814L5.87491 18.5054L5.81949 18.4484C5.77414 18.3977 5.72879 18.3471 5.68848 18.2838L5.64314 18.2141L5.58267 18.2584L5.16951 18.556L5.08889 18.3788L5.50205 18.0812L5.56252 18.0368L5.53733 17.9545C5.51717 17.8849 5.50205 17.8089 5.49198 17.7329L5.4819 17.6443H5.41136H4.93773V17.4417H5.41136H5.4819L5.49198 17.353C5.50205 17.277 5.51717 17.201 5.54236 17.1314L5.56756 17.0491L5.50709 17.0048L5.09896 16.7072L5.17958 16.5299L5.58771 16.8275L5.64818 16.8718L5.69352 16.8022C5.73383 16.7452 5.77918 16.6882 5.82453 16.6375L5.87995 16.5805L5.84468 16.5109L5.60787 15.998L5.74895 15.8967L5.98576 16.4096L6.02103 16.4856L6.08654 16.4539C6.14196 16.4286 6.20242 16.4033 6.26289 16.3969L6.33343 16.3843V16.2956V15.7004H6.49466V16.2956V16.3843L6.56521 16.3969C6.62567 16.4096 6.68613 16.4286 6.74156 16.4539L6.80706 16.4856L6.84233 16.4096L7.07915 15.8967L7.22023 15.998L6.98341 16.5109L6.94814 16.5869L7.00357 16.6439C7.04891 16.6945 7.09426 16.7452 7.13457 16.8085L7.17992 16.8781L7.24038 16.8338L7.65355 16.5362L7.73417 16.7135L7.321 17.0111L7.26054 17.0554L7.28573 17.1377C7.30588 17.2074 7.321 17.2834 7.33108 17.3593L7.34115 17.448H7.4117H7.88533V17.6506H7.40666H7.33612L7.32604 17.7392C7.31596 17.8152 7.30085 17.8912 7.27565 17.9609L7.25046 18.0432L7.31596 18.0812Z" fill="#D0D2D3"/>
<path d="M1.6626 10.6223C1.6626 10.6223 2.42847 8.11494 3.18426 7.14618C3.18426 7.14618 7.0237 7.03854 8.13724 7.02588C8.13724 7.02588 8.44459 7.12085 8.23801 7.55141L6.95316 10.2297C6.95316 10.2297 6.74657 10.6223 6.39387 10.6223C6.04621 10.6223 1.6626 10.6223 1.6626 10.6223Z" fill="black"/>
<path d="M8.79255 9.53958C8.8379 9.34329 8.9034 9.15334 8.96386 8.96972C9.0999 8.53283 9.25106 8.09594 9.43245 7.68438C9.46269 7.62106 9.48788 7.55774 9.52315 7.49443C9.53827 7.46277 9.60377 7.37412 9.60377 7.34247C9.60377 7.34247 9.73477 7.02588 10.0673 7.02588C10.0673 7.02588 14.5567 7.0892 16.7133 7.41211C16.7133 7.41211 17.7109 7.62106 18.3307 8.28589L20.1748 10.1981C20.1748 10.1981 20.7543 11.2301 19.812 11.4138C18.8698 11.6037 9.61385 10.9832 9.61385 10.9832C9.61385 10.9832 9.33672 10.9452 9.16037 10.7046C9.04448 10.5463 8.86813 10.369 8.79255 10.1791C8.77743 10.1411 8.76736 10.0968 8.76232 10.0524C8.73712 9.87516 8.75224 9.7042 8.79255 9.53958Z" fill="black"/>
<path d="M18.396 7.38672L18.2348 7.45637C18.1894 7.47536 18.1794 7.55768 18.2247 7.58933C18.6379 7.91225 20.1898 9.1596 21.7215 10.6539C21.782 10.7109 21.8576 10.7425 21.9331 10.7362L22.4874 10.6982C22.4773 10.6982 20.5122 8.94433 18.396 7.38672Z" fill="#312935"/>
<path opacity="0.4" d="M21.107 10.85L21.0566 10.6411C21.0062 10.4448 20.9105 10.2738 20.7795 10.1472L18.2904 7.78546C18.2904 7.78546 17.5195 7.10796 16.0835 6.93067L9.29645 6.74072C9.29645 6.74072 8.27865 8.9315 7.99649 10.8247C7.99649 10.8247 7.86548 12.3506 7.81006 13.503C8.28369 13.6676 8.69686 13.9399 8.81778 14.3768C8.81778 14.3768 9.20072 15.6748 9.35692 17.1818L9.53831 17.7706H20.84L21.107 16.5929C21.107 16.6056 21.6663 13.446 21.107 10.85ZM21.0516 16.5866L20.7996 17.7073H9.57862L9.41234 17.1691C9.25615 15.6875 8.88329 14.3958 8.87321 14.3578C8.7674 13.9652 8.42981 13.6676 7.87052 13.4587C7.92595 12.3506 8.04687 10.9133 8.05695 10.8437C8.31392 9.11512 9.20072 7.10796 9.33172 6.8167L16.0835 7.00032C17.4641 7.17128 18.235 7.81712 18.2602 7.84244L20.7593 10.2105C20.8752 10.3182 20.9609 10.4701 21.0012 10.6411L21.0566 10.869C21.3438 12.1987 21.3287 13.6803 21.2632 14.6934C21.1927 15.7634 21.0566 16.5422 21.0516 16.5866Z" fill="#FCFCFC"/>
<path d="M21.8173 11.7176C21.8173 11.7176 21.7719 12.2305 21.8828 12.4014L23.1072 12.4078C23.1072 12.4078 23.4095 12.1735 23.4296 11.8569C23.4296 11.8569 23.4145 11.7429 23.2583 11.7429L21.9483 11.6479C21.9483 11.6479 21.8223 11.6669 21.8173 11.7176Z" fill="#1F1916"/>
<path d="M1.66264 10.6221H0.765761C0.765761 10.6221 0.574293 12.2683 0.765761 14.0412H1.56186C1.5669 14.0412 1.53163 11.3819 1.66264 10.6221Z" fill="#FF0000"/>
<path opacity="0.2" d="M27.3548 15.7257H29.99L30.0001 15.2698C30.0001 15.2698 29.9295 15.1115 29.8237 15.0229C29.8237 15.0229 29.8237 15.0166 29.8237 15.0039H27.2036C27.2389 15.1432 27.2943 15.3901 27.3548 15.7257Z" fill="white"/>
<path d="M29.0123 16.7324C28.9719 16.7324 28.9316 16.7704 28.9266 16.8211L28.8611 17.258C28.851 17.3213 28.8863 17.3846 28.9367 17.3973L29.6018 17.5429L29.7681 16.7324H29.0123Z" fill="#949494"/>
<path d="M29.8234 15.0037C29.8134 14.8201 29.7025 13.3385 29.3045 12.509C29.1886 12.4773 29.0072 12.452 28.9316 12.433C28.8611 12.4204 28.8006 12.4963 28.8107 12.585C29.0223 14.0223 29.0072 15.0037 29.0072 15.0037H29.8234Z" fill="#FFF200"/>
<path d="M29.3748 15.0037C29.3295 13.959 29.0373 12.7433 28.9617 12.4394C28.9516 12.4394 28.9415 12.433 28.9365 12.433C28.8659 12.4204 28.8055 12.4963 28.8156 12.585C29.0272 14.0223 29.0121 15.0037 29.0121 15.0037H29.3748Z" fill="#FFFAA5"/>
<path opacity="0.5" d="M29.7629 14.9337H29.6067H29.0626C29.0626 14.6804 29.0424 13.7813 28.8661 12.5719C28.861 12.5466 28.8711 12.5276 28.8761 12.5213C28.8862 12.5086 28.8963 12.5023 28.9114 12.5023C28.9165 12.5023 28.9165 12.5023 28.9215 12.5023C29.0122 12.5213 29.1785 12.5466 29.2692 12.5719L29.3397 12.5909C29.3296 12.5656 29.3145 12.5339 29.3044 12.5086C29.1885 12.4769 29.0072 12.4516 28.9316 12.4326C28.9265 12.4326 28.9215 12.4326 28.9165 12.4326C28.851 12.4326 28.8006 12.5086 28.8157 12.5846C29.0273 14.0219 29.0122 15.0033 29.0122 15.0033H29.8285C29.8285 14.9906 29.8234 14.9653 29.8234 14.9337H29.7629Z" fill="#FFF200"/>
<path d="M29.3851 18.4356L29.3548 18.2773H27.5963L27.5913 18.5686H29.2994C29.3548 18.5686 29.3951 18.5053 29.3851 18.4356Z" fill="#404041"/>
<path opacity="0.4" d="M1.66281 10.6221H1.4008H0.765937L0.755859 10.736C0.755859 10.736 1.0481 10.736 1.2043 10.736C1.36049 10.736 1.35546 11.0526 1.35546 11.0526C1.27988 12.091 1.30507 14.0412 1.30507 14.0412H1.56708C1.56708 14.0412 1.53181 11.3819 1.66281 10.6221Z" fill="#909596"/>
<path opacity="0.3" d="M3.60752 15.9279L0.0200195 15.6113C0.0653672 15.9596 0.20141 16.6497 0.599462 16.8144C0.599462 16.8144 2.52422 17.3336 3.42613 17.4602C3.42613 17.4602 3.47148 16.751 3.60752 15.9279Z" fill="#909596"/>
<path opacity="0.2" d="M27.5765 15.0036H27.7277C27.7025 14.7693 27.6571 14.4844 27.5816 14.1805C27.3246 13.1611 26.3471 12.6482 25.556 12.4203C24.7196 12.1733 23.8026 12.205 22.9964 12.5849C21.9786 13.0598 21.3891 14.3514 21.4243 15.6495C21.4747 15.3202 21.5755 15.0289 21.6662 14.706C21.7569 14.3958 21.8929 14.1488 22.0794 13.9082C22.3968 13.4967 22.8402 13.2497 23.2836 13.1294C23.7875 12.9965 24.3064 12.9458 24.8204 12.9901C25.5409 13.0471 26.332 13.2751 26.9215 13.8069C27.1885 14.0475 27.4052 14.3641 27.506 14.744L27.5765 15.0036Z" fill="white"/>
<g opacity="0.4">
<path d="M8.13724 7.02588C7.01866 7.04487 3.18426 7.14618 3.18426 7.14618C2.42847 8.11494 1.6626 10.6223 1.6626 10.6223C1.6626 10.6223 6.04621 10.6223 6.39891 10.6223C6.75161 10.6223 6.9582 10.2297 6.9582 10.2297L8.24305 7.55141C8.44459 7.12085 8.13724 7.02588 8.13724 7.02588ZM8.15235 7.4881L6.8675 10.1601C6.85239 10.1854 6.67603 10.4957 6.39387 10.4957H1.80872C1.99515 9.92581 2.6149 8.08961 3.22457 7.27915C3.64278 7.26648 7.05897 7.17784 8.12212 7.15885C8.14227 7.16518 8.18762 7.1905 8.20274 7.24116C8.21785 7.29181 8.20274 7.38046 8.15235 7.4881Z" fill="#909596"/>
<path d="M20.1694 10.1981L18.3252 8.28589C17.7004 7.62739 16.7078 7.41211 16.7078 7.41211C14.5513 7.0892 10.0619 7.02588 10.0619 7.02588C9.72932 7.02588 9.59831 7.34247 9.59831 7.34247C9.59831 7.37412 9.53281 7.46277 9.51769 7.49443C9.48746 7.55774 9.45723 7.62106 9.427 7.68438C9.24561 8.09594 9.09949 8.53283 8.95841 8.96972C8.89794 9.15334 8.83244 9.34329 8.78709 9.53958C8.75182 9.7042 8.73167 9.87516 8.75686 10.0461C8.7619 10.0904 8.77198 10.1348 8.78709 10.1728C8.86267 10.3627 9.03903 10.54 9.15491 10.6983C9.33127 10.9452 9.60839 10.9769 9.60839 10.9769C9.60839 10.9769 16.597 11.4454 19.0457 11.4454C19.4136 11.4454 19.6806 11.4328 19.8066 11.4074C20.7488 11.2238 20.1694 10.1981 20.1694 10.1981ZM20.2197 10.9832C20.1694 11.1415 20.0232 11.2428 19.7915 11.2871C19.6806 11.3125 19.4287 11.3188 19.0457 11.3188C16.6474 11.3188 9.79482 10.8629 9.61343 10.8502C9.59327 10.8439 9.36654 10.8059 9.22545 10.6096C9.19018 10.559 9.14987 10.5083 9.10453 10.4577C9.01383 10.3437 8.9181 10.2297 8.87275 10.1158C8.86267 10.0904 8.85763 10.0651 8.8526 10.0208C8.83244 9.88782 8.84252 9.74219 8.88283 9.57124C8.91306 9.43194 8.95841 9.29264 9.00375 9.15334C9.01887 9.10902 9.03399 9.05837 9.0491 9.01404C9.18011 8.60248 9.32623 8.15926 9.51266 7.74136C9.54289 7.67172 9.57312 7.6084 9.59831 7.55774C9.60335 7.55141 9.60839 7.53875 9.61847 7.52609C9.65374 7.4691 9.67893 7.42478 9.69405 7.38046C9.71924 7.3298 9.83009 7.14618 10.0619 7.14618C10.1374 7.14618 14.5714 7.2095 16.6927 7.53242C16.7431 7.54508 17.6803 7.76036 18.2597 8.37454L20.0887 10.2741C20.1643 10.4134 20.3004 10.7489 20.2197 10.9832Z" fill="#909596"/>
</g>
<path opacity="0.2" d="M15.5142 12.2116C15.5041 12.4902 15.2572 12.6992 14.9649 12.6865C14.6727 12.6675 14.4409 12.4332 14.451 12.1546C14.4611 11.876 14.708 11.6671 15.0002 11.6797C15.2925 11.6924 15.5242 11.933 15.5142 12.2116Z" fill="#404041"/>
<path d="M15.6852 12.0218L14.2643 11.9395C14.214 11.9395 14.1737 11.9838 14.1686 12.0471L14.1636 12.1927C14.1636 12.256 14.1988 12.3067 14.2492 12.313L15.6701 12.3953C15.7205 12.3953 15.7608 12.351 15.7659 12.2877L15.7709 12.1421C15.7759 12.0724 15.7356 12.0218 15.6852 12.0218Z" fill="#D0D2D3"/>
<path opacity="0.2" d="M14.1685 12.1357V12.1991C14.1685 12.2624 14.2037 12.313 14.2541 12.3194L15.675 12.4017C15.7254 12.4017 15.7657 12.3574 15.7707 12.294V12.2307L14.1685 12.1357Z" fill="#404041"/>
<path opacity="0.2" d="M14.4923 11.9531L14.457 11.9512L14.4439 12.3244L14.4791 12.3263L14.4923 11.9531Z" fill="#404041"/>
<path d="M14.3955 12.1355C14.3955 12.1862 14.3603 12.2241 14.32 12.2241C14.2796 12.2241 14.2494 12.1798 14.2545 12.1292C14.2545 12.0785 14.2897 12.0405 14.33 12.0405C14.3653 12.0469 14.4006 12.0912 14.3955 12.1355Z" fill="#404041"/>
<path opacity="0.2" d="M10.0976 11.9074C10.0876 12.186 9.84068 12.395 9.54844 12.3823C9.2562 12.3633 9.02442 12.129 9.0345 11.8504C9.04457 11.5718 9.29147 11.3629 9.58371 11.3755C9.87595 11.3882 10.1077 11.6288 10.0976 11.9074Z" fill="#404041"/>
<path d="M10.2687 11.7176L8.84784 11.6353C8.79746 11.6353 8.75715 11.6796 8.75211 11.7429L8.74707 11.8885C8.74707 11.9518 8.78234 12.0025 8.83273 12.0088L10.2536 12.0911C10.304 12.0911 10.3443 12.0468 10.3494 11.9835L10.3544 11.8379C10.3594 11.7682 10.3191 11.7176 10.2687 11.7176Z" fill="#D0D2D3"/>
<path opacity="0.2" d="M8.75195 11.8315V11.8949C8.75195 11.9582 8.78722 12.0088 8.83761 12.0152L10.2585 12.0975C10.3089 12.0975 10.3492 12.0532 10.3542 11.9898V11.9265L8.75195 11.8315Z" fill="#404041"/>
<path opacity="0.2" d="M9.07625 11.649L9.04102 11.647L9.02759 12.0202L9.06283 12.0222L9.07625 11.649Z" fill="#404041"/>
<path d="M8.97864 11.8313C8.97864 11.882 8.94337 11.9199 8.90306 11.9199C8.86275 11.9199 8.83252 11.8756 8.83252 11.825C8.83252 11.7743 8.86779 11.7363 8.9081 11.7363C8.95345 11.7427 8.98368 11.787 8.97864 11.8313Z" fill="#404041"/>
<path opacity="0.2" d="M0.0805664 14.4652C1.55688 14.25 3.32041 14.269 4.05101 14.2943C4.09635 14.2183 4.15682 14.1297 4.22736 14.041H0.76582C0.76582 14.041 0.292189 14.1043 0.0805664 14.4652Z" fill="white"/>
<path opacity="0.2" d="M9.39724 13.9842C9.14027 12.9648 8.16278 12.4519 7.37171 12.224C6.5353 11.977 5.61827 12.0087 4.81209 12.3886C4.17218 12.6862 3.70359 13.3067 3.45166 14.0475H3.6784C3.7439 13.9335 3.81444 13.8259 3.89506 13.7183C4.21249 13.3067 4.65589 13.0598 5.09929 12.9395C5.60315 12.8065 6.12213 12.7558 6.63607 12.8002C7.3566 12.8572 8.14766 13.0851 8.73718 13.617C9.00423 13.8576 9.22089 14.1742 9.32166 14.5541L9.56856 15.5418C9.57359 15.5355 9.61894 14.8706 9.39724 13.9842Z" fill="white"/>
<path opacity="0.3" d="M9.66431 18.1822L21.5958 18.5114L21.6361 18.1379L9.60889 18.0112L9.66431 18.1822Z" fill="#909596"/>
<path d="M20.9808 13.5156L14.0326 13.3193C13.9771 13.3193 13.9268 13.3763 13.9268 13.446V13.484C13.9268 13.5536 13.9721 13.6169 14.0275 13.6169L20.9758 13.8132C21.0312 13.8132 21.0816 13.7562 21.0816 13.6866V13.6486C21.0816 13.5726 21.0363 13.5156 20.9808 13.5156Z" fill="white"/>
<path d="M13.3624 13.3005L9.72446 13.1992C9.66904 13.1992 9.61865 13.2562 9.61865 13.3259V13.3638C9.61865 13.4335 9.664 13.4968 9.71942 13.4968L13.3573 13.5981C13.4127 13.5981 13.4631 13.5411 13.4631 13.4715V13.4335C13.4682 13.3638 13.4228 13.3005 13.3624 13.3005Z" fill="white"/>
<path d="M19.5651 10.5776L19.3535 10.9765L19.4341 11.5084C19.4442 11.5717 19.4845 11.6097 19.5349 11.6097H20.0035C20.0035 11.6097 20.3209 11.2805 20.326 10.9702C20.331 10.6726 19.5651 10.5776 19.5651 10.5776Z" fill="#162026"/>
<path d="M18.8192 10.774L18.7437 9.83059C18.7437 9.83059 18.7437 9.67863 18.9603 9.64697C18.9603 9.64697 19.4491 9.6533 19.6355 9.91291C19.6355 9.91291 19.9025 10.3751 20.0083 10.9386C20.0083 10.9386 19.968 11.1856 19.832 11.1919C19.832 11.1919 19.3382 11.2172 19.1014 11.1096C19.1014 11.1159 18.8343 10.964 18.8192 10.774Z" fill="#A0A0A0"/>
<path opacity="0.2" d="M18.9602 9.64697C18.9401 9.64697 18.9199 9.6533 18.9048 9.65964C19.061 9.84959 19.5044 10.4448 19.6757 11.1982C19.7714 11.1982 19.8319 11.1982 19.8319 11.1982C19.9679 11.1919 20.0082 10.945 20.0082 10.945C19.9024 10.3815 19.6354 9.91924 19.6354 9.91924C19.449 9.6533 18.9602 9.64697 18.9602 9.64697Z" fill="white"/>
<path opacity="0.3" d="M29.3048 12.509C29.189 12.4773 29.0076 12.452 28.932 12.433C28.8866 12.4203 28.8463 12.452 28.8262 12.4963C29.0176 12.7306 29.3804 13.2435 29.7231 14.0666C29.6424 13.56 29.5165 12.9459 29.3048 12.509Z" fill="white"/>
<path opacity="0.2" d="M29.2243 12.3508C29.2243 12.3508 28.9219 11.9646 28.015 11.705C28.015 11.705 25.4302 10.9579 22.4775 10.7046C22.4775 10.7046 22.8101 11.2934 23.6969 11.4517C24.4829 11.591 27.3197 11.9076 29.2696 12.4458C29.2545 12.4078 29.2394 12.3762 29.2243 12.3508Z" fill="white"/>
<path d="M0.715623 13.4083H0.952438C1.03306 13.4083 1.09352 13.326 1.09352 13.231V13.0411C1.09352 12.9398 1.02802 12.8638 0.952438 12.8638H0.69043C0.695468 13.0411 0.700507 13.2247 0.715623 13.4083Z" fill="#EBE7C7"/>
<path d="M0.69043 11.7745H0.9474C1.02802 11.7745 1.08848 11.6922 1.08848 11.5972V11.4073C1.08848 11.306 1.02298 11.23 0.9474 11.23H0.715623C0.705546 11.3819 0.700507 11.5656 0.69043 11.7745Z" fill="#EBE7C7"/>
<path d="M13.4532 7.13965C13.3323 8.02609 13.2214 10.1029 13.166 11.2046C13.5741 11.2299 13.9974 11.2489 14.4206 11.2743C14.3199 9.69767 14.471 7.77915 14.5264 7.20297C14.1737 7.17764 13.811 7.15231 13.4532 7.13965Z" fill="#1F1916"/>
<path opacity="0.4" d="M14.0123 6.94969L13.9619 6.94336C13.9568 7.00034 13.453 12.7686 13.8258 17.7136L13.8762 17.7073C13.4983 12.7686 14.0072 7.00668 14.0123 6.94969Z" fill="#909596"/>
</g>
<defs>
<clipPath id="clip0_2152_2560">
<rect width="30" height="14.6896" fill="white" transform="translate(0 6)"/>
</clipPath>
</defs>
</svg>
