<svg width="30" height="30" viewBox="0 0 30 30" fill="none" xmlns="http://www.w3.org/2000/svg">
<path d="M27.6516 19.634C27.6516 19.634 26.2522 17.8968 24.9388 17.9945C23.6253 18.0898 22.2572 19.3946 22.2572 19.3946L8.74559 19.2577C8.74559 19.2577 7.71947 17.6696 6.03663 17.6109C4.35379 17.5499 3.46253 19.2235 3.46253 19.2235L1.90479 16.8902L3.05795 14.3662L27.7103 15.4486L28.1911 18.752L27.6516 19.634Z" fill="#142636"/>
<path d="M23.6238 21.3937C23.0726 20.9368 22.6817 20.2038 22.5801 19.3511C22.5625 19.2045 22.5527 19.0554 22.5527 18.9039C22.5527 18.3957 22.6544 17.9193 22.8322 17.5015C22.8283 17.5088 22.8264 17.5161 22.8225 17.5235C22.8791 17.8582 22.9827 18.1709 23.1215 18.4544C23.098 18.601 23.0863 18.75 23.0863 18.9039C23.0863 20.1818 23.917 21.2202 24.9392 21.2202C25.9165 21.2202 26.7178 20.2722 26.7862 19.0725C26.9817 18.8428 27.1478 18.5741 27.2729 18.2736C27.267 18.2345 27.2592 18.1978 27.2514 18.1587C27.3003 18.3982 27.3257 18.6474 27.3257 18.9039C27.3257 19.0603 27.3159 19.2142 27.2963 19.3657C27.183 20.2795 26.7374 21.0565 26.1178 21.4987C25.7699 21.7479 25.3672 21.8897 24.9372 21.8897C24.4525 21.8872 24.001 21.704 23.6238 21.3937Z" fill="#17191C"/>
<path d="M24.939 15.918C26.0511 15.918 26.9854 16.8709 27.2512 18.1585C27.259 18.1976 27.2668 18.2342 27.2727 18.2733C27.1476 18.5739 26.9815 18.8426 26.786 19.0723C26.7899 19.0161 26.7919 18.9599 26.7919 18.9037C26.7919 17.6258 25.9612 16.5874 24.939 16.5874C24.0399 16.5874 23.2894 17.3913 23.1213 18.4541C22.9825 18.1707 22.8809 17.858 22.8223 17.5232C22.8262 17.5159 22.8281 17.5086 22.832 17.5012C23.2347 16.5581 24.0262 15.918 24.939 15.918Z" fill="#282F39"/>
<path d="M23.125 18.9012C23.125 20.1522 23.94 21.171 24.9407 21.171C25.9415 21.171 26.7565 20.1522 26.7565 18.9012C26.7565 17.6502 25.9415 16.6313 24.9407 16.6313C23.9381 16.6338 23.125 17.6502 23.125 18.9012ZM24.4795 17.0418L24.7043 18.0436C24.5968 18.09 24.501 18.1633 24.4228 18.2635L23.8423 17.5207C24.0202 17.3008 24.2371 17.1347 24.4795 17.0418ZM24.9388 18.586C25.0776 18.586 25.1909 18.7277 25.1909 18.9012C25.1909 19.0747 25.0776 19.2164 24.9388 19.2164C24.8 19.2164 24.6867 19.0747 24.6867 18.9012C24.6867 18.7277 24.8 18.586 24.9388 18.586ZM25.3004 17.0076L25.0952 18.0143C25.0443 17.9996 24.9935 17.9923 24.9388 17.9923C24.8704 17.9923 24.8039 18.0045 24.7414 18.0265L24.5166 17.0272C24.6515 16.9807 24.7922 16.9539 24.9407 16.9539C25.0639 16.9563 25.1851 16.9734 25.3004 17.0076ZM26.049 17.5378L25.4548 18.2635C25.3668 18.1535 25.2554 18.0705 25.1323 18.0289L25.3375 17.0223C25.6111 17.1102 25.8555 17.291 26.049 17.5378ZM26.4496 18.4296L25.6444 18.6862C25.6151 18.5396 25.5584 18.4052 25.4802 18.2977L26.0744 17.572C26.2542 17.809 26.3851 18.1047 26.4496 18.4296ZM26.434 19.446L25.6346 19.1651C25.6541 19.082 25.6659 18.994 25.6659 18.9036C25.6659 18.845 25.662 18.7888 25.6522 18.735L26.4575 18.4785C26.4829 18.6153 26.4946 18.757 26.4946 18.9036C26.4965 19.0918 26.475 19.2726 26.434 19.446ZM26.0177 20.3061L25.4372 19.5633C25.5193 19.4656 25.5818 19.3459 25.6209 19.2115L26.4223 19.4925C26.3441 19.8052 26.2034 20.0838 26.0177 20.3061ZM25.359 20.7777L25.1342 19.7783C25.2378 19.7417 25.3316 19.6806 25.4098 19.5951L25.9903 20.3403C25.8125 20.5407 25.5975 20.6921 25.359 20.7777ZM24.5674 20.7923L24.7727 19.7857C24.8254 19.8003 24.8821 19.8101 24.9388 19.8101C24.9935 19.8101 25.0463 19.8028 25.0971 19.7881L25.3219 20.7899C25.1987 20.829 25.0717 20.8485 24.9388 20.8485C24.8117 20.8485 24.6867 20.829 24.5674 20.7923ZM23.8462 20.289L24.4404 19.5633C24.5225 19.6611 24.6241 19.7344 24.7355 19.7735L24.5303 20.7801C24.2703 20.6921 24.0358 20.5211 23.8462 20.289ZM23.4416 19.4363L24.2469 19.1797C24.2801 19.3117 24.3388 19.4314 24.415 19.5291L23.8208 20.2548C23.6449 20.0276 23.514 19.749 23.4416 19.4363ZM23.428 18.437L24.2273 18.7179C24.2176 18.7766 24.2117 18.8377 24.2117 18.9012C24.2117 18.9818 24.2215 19.06 24.2371 19.1333L23.4319 19.3899C23.3986 19.2335 23.383 19.0698 23.383 18.9012C23.383 18.7424 23.3986 18.586 23.428 18.437ZM23.4358 18.3905C23.5042 18.0705 23.6371 17.7846 23.8169 17.5525L24.3974 18.2977C24.3212 18.4028 24.2664 18.5322 24.2352 18.674L23.4358 18.3905Z" fill="#989B9E"/>
<path d="M23.1211 18.4521C23.0977 18.5987 23.0859 18.7478 23.0859 18.9017C23.0859 20.1796 23.9166 21.218 24.9388 21.218C25.9161 21.218 26.7174 20.27 26.7858 19.0703C26.7897 19.0141 26.7917 18.9579 26.7917 18.9017C26.7917 17.6239 25.961 16.5854 24.9388 16.5854C24.0417 16.5854 23.2892 17.3893 23.1211 18.4521ZM23.125 18.9017C23.125 17.6507 23.9401 16.6319 24.9408 16.6319C25.9415 16.6319 26.7565 17.6507 26.7565 18.9017C26.7565 20.1527 25.9415 21.1716 24.9408 21.1716C23.9381 21.1716 23.125 20.1527 23.125 18.9017Z" fill="#545759"/>
<path d="M25.4099 19.5928L25.9904 20.338C25.8125 20.5408 25.5975 20.6923 25.359 20.7778L25.1343 19.7785C25.2379 19.7418 25.3297 19.6783 25.4099 19.5928Z" fill="#142636"/>
<path d="M25.6227 19.2095L26.424 19.4905C26.3439 19.8032 26.2032 20.0817 26.0195 20.3041L25.439 19.5613C25.5191 19.466 25.5836 19.3439 25.6227 19.2095Z" fill="#142636"/>
<path d="M24.9387 19.8106C24.9935 19.8106 25.0462 19.8032 25.0971 19.7886L25.3218 20.7903C25.1987 20.8294 25.0716 20.849 24.9387 20.849C24.8117 20.849 24.6866 20.8294 24.5674 20.7928L24.7726 19.7861C24.8273 19.8008 24.8821 19.8106 24.9387 19.8106Z" fill="#142636"/>
<path d="M25.666 18.9012C25.666 18.8426 25.6621 18.7864 25.6524 18.7326L26.4576 18.4761C26.483 18.6129 26.4948 18.7546 26.4948 18.9012C26.4948 19.0893 26.4733 19.2726 26.4322 19.4436L25.6328 19.1626C25.6543 19.082 25.666 18.9941 25.666 18.9012Z" fill="#142636"/>
<path d="M24.4148 19.5296L23.8206 20.2552C23.6447 20.028 23.5137 19.7495 23.4414 19.4367L24.2467 19.1802C24.2818 19.3146 24.3385 19.4318 24.4148 19.5296Z" fill="#142636"/>
<path d="M24.9388 17.9945C24.8704 17.9945 24.8039 18.0067 24.7414 18.0287L24.5166 17.0294C24.6515 16.9829 24.7922 16.9561 24.9407 16.9561C25.0658 16.9561 25.185 16.9756 25.3023 17.0098L25.0971 18.0165C25.0443 18.0018 24.9935 17.9945 24.9388 17.9945Z" fill="#142636"/>
<path d="M25.4805 18.2974L26.0746 17.5718C26.2525 17.8088 26.3835 18.1044 26.4499 18.4294L25.6446 18.6859C25.6153 18.5393 25.5586 18.4074 25.4805 18.2974Z" fill="#142636"/>
<path d="M25.1318 18.0267L25.3371 17.02C25.6107 17.1104 25.857 17.2912 26.0485 17.538L25.4543 18.2637C25.3664 18.1513 25.255 18.0706 25.1318 18.0267Z" fill="#142636"/>
<path d="M24.2115 18.9012C24.2115 18.9819 24.2213 19.0601 24.2369 19.1334L23.4317 19.3899C23.3984 19.2335 23.3828 19.0698 23.3828 18.9012C23.3828 18.74 23.3984 18.5861 23.4278 18.437L24.2272 18.718C24.2174 18.7791 24.2115 18.8402 24.2115 18.9012Z" fill="#142636"/>
<path d="M24.7374 19.7736L24.5322 20.7802C24.2703 20.6923 24.0358 20.5188 23.8481 20.2891L24.4423 19.5635C24.5244 19.6612 24.6241 19.7345 24.7374 19.7736Z" fill="#142636"/>
<path d="M24.4228 18.2612L23.8423 17.5184C24.0182 17.301 24.2351 17.1348 24.4775 17.042L24.7023 18.0438C24.5967 18.0877 24.501 18.1635 24.4228 18.2612Z" fill="#142636"/>
<path d="M24.3972 18.2979C24.3209 18.403 24.2662 18.5325 24.2349 18.6742L23.4355 18.3908C23.504 18.0707 23.6369 17.7848 23.8167 17.5527L24.3972 18.2979Z" fill="#142636"/>
<path d="M24.9391 18.6348C25.0583 18.6348 25.1541 18.7545 25.1541 18.9035C25.1541 19.0526 25.0583 19.1723 24.9391 19.1723C24.8199 19.1723 24.7241 19.0526 24.7241 18.9035C24.7241 18.7545 24.8218 18.6348 24.9391 18.6348Z" fill="#989B9E"/>
<path d="M24.6865 18.9011C24.6865 19.0746 24.7999 19.2163 24.9387 19.2163C25.0774 19.2163 25.1908 19.0746 25.1908 18.9011C25.1908 18.7276 25.0774 18.5859 24.9387 18.5859C24.7999 18.5859 24.6865 18.7276 24.6865 18.9011ZM24.7237 18.9011C24.7237 18.7521 24.8194 18.6324 24.9387 18.6324C25.0579 18.6324 25.1537 18.7521 25.1537 18.9011C25.1537 19.0502 25.0579 19.1699 24.9387 19.1699C24.8214 19.1699 24.7237 19.0502 24.7237 18.9011Z" fill="#545759"/>
<path d="M4.73709 21.3937C4.18592 20.9368 3.79501 20.2038 3.69338 19.3511C3.67579 19.2045 3.66602 19.0554 3.66602 18.9039C3.66602 18.3957 3.76765 17.9193 3.94551 17.5015C3.9416 17.5088 3.93965 17.5161 3.93574 17.5235C3.99242 17.8582 4.09601 18.1709 4.23478 18.4544C4.21133 18.601 4.1996 18.75 4.1996 18.9039C4.1996 20.1818 5.03027 21.2202 6.05248 21.2202C7.02974 21.2202 7.83109 20.2722 7.8995 19.0725C8.09495 18.8428 8.26108 18.5741 8.38617 18.2736C8.38031 18.2345 8.37249 18.1978 8.36467 18.1587C8.41354 18.3982 8.43895 18.6474 8.43895 18.9039C8.43895 19.0603 8.42917 19.2142 8.40963 19.3657C8.29627 20.2795 7.85064 21.0565 7.23105 21.4987C6.88315 21.7479 6.48052 21.8897 6.05053 21.8897C5.56776 21.8872 5.11431 21.704 4.73709 21.3937Z" fill="#17191C"/>
<path d="M6.05473 15.918C7.16685 15.918 8.10111 16.8709 8.36692 18.1585C8.37474 18.1976 8.38256 18.2342 8.38842 18.2733C8.26333 18.5739 8.0972 18.8426 7.90175 19.0723C7.90566 19.0161 7.90761 18.9599 7.90761 18.9037C7.90761 17.6258 7.07694 16.5874 6.05473 16.5874C5.15565 16.5874 4.40512 17.3913 4.23703 18.4541C4.09826 18.1707 3.99662 17.858 3.93799 17.5232C3.9419 17.5159 3.94385 17.5086 3.94776 17.5012C4.34844 16.5581 5.14197 15.918 6.05473 15.918Z" fill="#282F39"/>
<path d="M4.23877 18.9012C4.23877 20.1522 5.0538 21.171 6.05452 21.171C7.05523 21.171 7.87026 20.1522 7.87026 18.9012C7.87026 17.6502 7.05523 16.6313 6.05452 16.6313C5.0538 16.6338 4.23877 17.6502 4.23877 18.9012ZM5.5952 17.0418L5.81997 18.0436C5.71248 18.09 5.6167 18.1633 5.53852 18.2635L4.95803 17.5207C5.13394 17.3008 5.35089 17.1347 5.5952 17.0418ZM6.05452 18.586C6.19329 18.586 6.30665 18.7277 6.30665 18.9012C6.30665 19.0747 6.19329 19.2164 6.05452 19.2164C5.91574 19.2164 5.80238 19.0747 5.80238 18.9012C5.80238 18.7277 5.91574 18.586 6.05452 18.586ZM6.41415 17.0076L6.20892 18.0143C6.1581 17.9996 6.10729 17.9923 6.05256 17.9923C5.98415 17.9923 5.9177 18.0045 5.85515 18.0265L5.63039 17.0296C5.76525 16.9832 5.90597 16.9563 6.05452 16.9563C6.17765 16.9563 6.29883 16.9734 6.41415 17.0076ZM7.16468 17.5378L6.57051 18.2635C6.48255 18.1535 6.37115 18.0705 6.24801 18.0289L6.45324 17.0223C6.72687 17.1102 6.97118 17.291 7.16468 17.5378ZM7.56536 18.4296L6.7601 18.6862C6.73078 18.5396 6.6741 18.4052 6.59592 18.2977L7.19009 17.572C7.36795 17.809 7.4989 18.1047 7.56536 18.4296ZM7.54972 19.446L6.75032 19.1651C6.76987 19.082 6.7816 18.994 6.7816 18.9036C6.7816 18.845 6.77769 18.7888 6.76791 18.735L7.57317 18.4785C7.59858 18.6153 7.61031 18.757 7.61031 18.9036C7.61031 19.0918 7.58881 19.2726 7.54972 19.446ZM7.13341 20.3061L6.55292 19.5633C6.63501 19.4656 6.69755 19.3459 6.73664 19.2115L7.53799 19.4925C7.45981 19.8052 7.31713 20.0838 7.13341 20.3061ZM6.47474 20.7777L6.24997 19.7783C6.35356 19.7417 6.44737 19.6806 6.52555 19.5951L7.10605 20.3403C6.92818 20.5407 6.71319 20.6921 6.47474 20.7777ZM5.68316 20.7923L5.88838 19.7857C5.94115 19.8003 5.99783 19.8101 6.05452 19.8101C6.10924 19.8101 6.16201 19.8028 6.21283 19.7881L6.4376 20.7899C6.31447 20.829 6.18742 20.8485 6.05452 20.8485C5.92552 20.8485 5.80238 20.829 5.68316 20.7923ZM4.96194 20.289L5.55611 19.5633C5.6382 19.6611 5.73984 19.7344 5.85125 19.7735L5.64602 20.7801C5.38412 20.6921 5.14957 20.5211 4.96194 20.289ZM4.55736 19.4363L5.36262 19.1797C5.39584 19.3117 5.45448 19.4314 5.5307 19.5291L4.93653 20.2548C4.76063 20.0276 4.62772 19.749 4.55736 19.4363ZM4.54172 18.437L5.34112 18.7179C5.33134 18.7766 5.32548 18.8377 5.32548 18.9012C5.32548 18.9818 5.33525 19.06 5.35089 19.1333L4.54758 19.3923C4.51436 19.2359 4.49872 19.0722 4.49872 18.9036C4.49677 18.7424 4.5124 18.586 4.54172 18.437ZM4.55149 18.3905C4.6199 18.0705 4.75281 17.7846 4.93262 17.5525L5.51311 18.2977C5.43689 18.4028 5.38216 18.5322 5.35089 18.674L4.55149 18.3905Z" fill="#989B9E"/>
<path d="M4.23684 18.4521C4.21339 18.5987 4.20166 18.7478 4.20166 18.9017C4.20166 20.1796 5.03233 21.218 6.05454 21.218C7.0318 21.218 7.83315 20.27 7.90156 19.0703C7.90547 19.0141 7.90742 18.9579 7.90742 18.9017C7.90742 17.6239 7.07675 16.5854 6.05454 16.5854C5.15546 16.5854 4.40493 17.3893 4.23684 18.4521ZM4.2388 18.9017C4.2388 17.6507 5.05383 16.6319 6.05454 16.6319C7.05525 16.6319 7.87029 17.6507 7.87029 18.9017C7.87029 20.1527 7.05525 21.1716 6.05454 21.1716C5.05383 21.1716 4.2388 20.1527 4.2388 18.9017Z" fill="#545759"/>
<path d="M6.5251 19.5928L7.10559 20.338C6.92773 20.5408 6.71273 20.6923 6.47428 20.7778L6.24951 19.7785C6.35115 19.7418 6.44496 19.6783 6.5251 19.5928Z" fill="#142636"/>
<path d="M6.73646 19.2095L7.53781 19.4905C7.45768 19.8032 7.31695 20.0817 7.13323 20.3041L6.55273 19.5613C6.63482 19.466 6.69737 19.3439 6.73646 19.2095Z" fill="#142636"/>
<path d="M6.05446 19.8106C6.10919 19.8106 6.16196 19.8032 6.21278 19.7886L6.43755 20.7903C6.31441 20.8294 6.18737 20.849 6.05446 20.849C5.92742 20.849 5.80233 20.8294 5.68311 20.7928L5.88833 19.7861C5.9411 19.8008 5.99778 19.8106 6.05446 19.8106Z" fill="#142636"/>
<path d="M6.78127 18.9012C6.78127 18.8426 6.77736 18.7864 6.76759 18.7326L7.57285 18.4761C7.59826 18.6129 7.60999 18.7546 7.60999 18.9012C7.60999 19.0893 7.58849 19.2726 7.54744 19.4436L6.74805 19.1626C6.76955 19.082 6.78127 18.9941 6.78127 18.9012Z" fill="#142636"/>
<path d="M5.53048 19.5296L4.9363 20.2552C4.7604 20.028 4.62945 19.7495 4.55713 19.4367L5.36239 19.1802C5.39562 19.3146 5.45425 19.4318 5.53048 19.5296Z" fill="#142636"/>
<path d="M6.05401 17.9945C5.98561 17.9945 5.91915 18.0067 5.85661 18.0287L5.62988 17.0294C5.76474 16.9829 5.90547 16.9561 6.05401 16.9561C6.1791 16.9561 6.29833 16.9756 6.4156 17.0098L6.21037 18.0165C6.15956 18.0018 6.10679 17.9945 6.05401 17.9945Z" fill="#142636"/>
<path d="M6.5957 18.2974L7.18988 17.5718C7.36774 17.8088 7.49869 18.1044 7.56514 18.4294L6.75988 18.6859C6.73056 18.5393 6.67388 18.4074 6.5957 18.2974Z" fill="#142636"/>
<path d="M6.24561 18.0267L6.45083 17.02C6.72446 17.1104 6.97073 17.2912 7.16227 17.538L6.5681 18.2637C6.4821 18.1513 6.37069 18.0706 6.24561 18.0267Z" fill="#142636"/>
<path d="M5.32725 18.9012C5.32725 18.9819 5.33702 19.0601 5.35266 19.1334L4.5474 19.3923C4.51417 19.236 4.49854 19.0723 4.49854 18.9037C4.49854 18.7424 4.51417 18.5885 4.54349 18.4395L5.34289 18.7204C5.33311 18.7791 5.32725 18.8402 5.32725 18.9012Z" fill="#142636"/>
<path d="M5.85122 19.7736L5.64599 20.7802C5.38409 20.6923 5.14955 20.5188 4.96191 20.2891L5.55609 19.5635C5.64013 19.6612 5.73981 19.7345 5.85122 19.7736Z" fill="#142636"/>
<path d="M5.5385 18.2612L4.95801 17.5184C5.13391 17.301 5.35087 17.1348 5.59323 17.042L5.818 18.0438C5.71245 18.0877 5.61668 18.1635 5.5385 18.2612Z" fill="#142636"/>
<path d="M5.5124 18.2979C5.43618 18.403 5.38145 18.5325 5.35018 18.6742L4.55078 18.3908C4.61919 18.0707 4.7521 17.7848 4.93191 17.5527L5.5124 18.2979Z" fill="#142636"/>
<path d="M6.05435 18.6348C6.17358 18.6348 6.26935 18.7545 6.26935 18.9035C6.26935 19.0526 6.17358 19.1723 6.05435 19.1723C5.93513 19.1723 5.83936 19.0526 5.83936 18.9035C5.83936 18.7545 5.93513 18.6348 6.05435 18.6348Z" fill="#989B9E"/>
<path d="M5.80225 18.9011C5.80225 19.0746 5.91561 19.2163 6.05438 19.2163C6.19315 19.2163 6.30651 19.0746 6.30651 18.9011C6.30651 18.7276 6.19315 18.5859 6.05438 18.5859C5.91561 18.5859 5.80225 18.7276 5.80225 18.9011ZM5.83938 18.9011C5.83938 18.7521 5.93515 18.6324 6.05438 18.6324C6.1736 18.6324 6.26938 18.7521 6.26938 18.9011C6.26938 19.0502 6.1736 19.1699 6.05438 19.1699C5.93515 19.1699 5.83938 19.0502 5.83938 18.9011Z" fill="#545759"/>
<path d="M22.2592 19.3946L8.74761 19.2578C8.74761 19.2578 8.77497 15.8518 6.13246 15.6123C3.49191 15.368 3.46455 19.2211 3.46455 19.2211C3.46455 19.2211 0.601181 18.7398 0.298231 18.6714C-0.00471915 18.603 -0.0320824 17.7429 0.0226441 17.0197C0.0793251 16.2965 0.958858 13.3059 0.958858 13.3059C0.958858 13.3059 0.849405 12.5826 0.986221 12.3432C1.12304 12.1013 3.21437 12.0329 3.21437 12.0329C3.21437 12.0329 7.09409 9.79726 9.48837 9.24751C11.8827 8.69776 16.5872 9.14489 17.9358 9.79726C19.2844 10.4521 21.9816 12.3432 22.697 12.6168C23.4123 12.8929 27.4035 13.4427 28.2556 14.1293C29.1078 14.8183 29.7137 15.7467 29.8798 16.7094C30.044 17.6721 29.9893 19.1869 29.9893 19.1869C29.9893 19.1869 29.0257 19.7025 27.6497 19.634C27.6497 19.634 27.8432 15.7467 25.0913 15.5415C22.312 15.3314 22.2592 19.3946 22.2592 19.3946Z" fill="#E4E4E4"/>
<path d="M22.2592 19.3946L8.74761 19.2578C8.74761 19.2578 8.78083 15.6685 6.13246 15.6123C3.32382 15.5488 3.46455 19.2211 3.46455 19.2211C3.46455 19.2211 0.601181 18.7398 0.298231 18.6714C-0.00471915 18.603 -0.0320824 17.7429 0.0226441 17.0197C0.0793251 16.2965 0.958858 13.3059 0.958858 13.3059C0.958858 13.3059 0.849405 12.5826 0.986221 12.3432C1.12304 12.1013 3.21437 12.0329 3.21437 12.0329C3.21437 12.0329 7.09408 9.79726 9.48837 9.24751C11.8827 8.69776 16.5872 9.14489 17.9358 9.79726C19.2844 10.4521 21.9816 12.3432 22.697 12.6168C23.4123 12.8929 27.4035 13.4427 28.2556 14.1293C29.1078 14.8183 29.7137 15.7467 29.8798 16.7094C30.044 17.6721 29.9893 19.1869 29.9893 19.1869C29.9893 19.1869 29.0257 19.7025 27.6497 19.634C27.6497 19.634 27.8432 15.7467 25.0913 15.5415C22.312 15.3314 22.2592 19.3946 22.2592 19.3946Z" fill="#6B6B6B"/>
<path d="M27.8998 15.9207C27.8998 15.9207 27.8177 15.2317 27.4053 14.8188C26.9929 14.4058 27.1571 14.1297 27.6535 14.2348C28.148 14.3374 28.8927 14.6819 29.3051 15.9549C29.3031 15.9549 28.6699 16.0917 27.8998 15.9207Z" fill="#E8F2F4"/>
<path d="M21.8723 13.0636C21.8723 13.0636 19.478 11.0674 17.1951 10.139C14.9103 9.21052 10.0396 9.72606 8.99398 10.0021C7.94832 10.2782 6.24202 11.0674 6.1873 11.3093C6.13257 11.5512 7.09615 12.3746 7.45382 12.4797C7.8115 12.5823 21.5987 13.2713 21.5987 13.2713C21.5987 13.2713 21.9016 13.2347 21.8723 13.0636Z" fill="#142636"/>
<path d="M25.9724 14.0265L0.958523 13.3057L0.921387 12.6533L25.1203 13.6477L25.9724 14.0265Z" fill="white"/>
<path d="M15.3249 14.1661C14.5274 14.1148 14.6916 15.0603 15.2975 15.0603C15.9034 15.0603 15.8467 14.2003 15.3249 14.1661Z" fill="#494949"/>
<path d="M16.2313 14.5714C16.2313 14.7229 15.8189 14.7498 15.3791 14.7498C14.9394 14.7498 14.3882 14.7498 14.3882 14.5714C14.3882 14.3931 14.9394 14.3931 15.297 14.3931C15.6547 14.3931 16.2313 14.4199 16.2313 14.5714Z" fill="#E8F2F4"/>
<path d="M8.61275 13.8554C7.81531 13.7943 7.97363 14.7447 8.57953 14.7496C9.18543 14.7545 9.13461 13.8945 8.61275 13.8554Z" fill="#494949"/>
<path d="M9.51743 14.3494C9.51548 14.5009 9.10307 14.5254 8.66331 14.5205C8.22354 14.518 7.67237 14.5131 7.67432 14.3348C7.67628 14.1564 8.2255 14.1613 8.58317 14.1638C8.94085 14.1686 9.51743 14.198 9.51743 14.3494Z" fill="#E8F2F4"/>
<path d="M8.66211 18.3975L22.3125 18.7371C22.2616 19.128 22.2577 19.3919 22.2577 19.3919L8.74615 19.2551C8.74811 19.2551 8.75006 18.8935 8.66211 18.3975Z" fill="#D3D3D3"/>
<path d="M3.46491 19.2215C3.46491 19.2215 0.603494 18.7402 0.300544 18.6718C0.0718658 18.6204 -0.000451282 18.1245 0.00150323 17.5747C0.109002 17.7189 0.273181 17.8655 0.51945 17.9485C1.04326 18.1269 3.00755 18.4079 3.52745 18.4812C3.46686 18.9161 3.46491 19.2215 3.46491 19.2215Z" fill="#D3D3D3"/>
<path d="M29.9915 19.1875C29.9915 19.1875 29.0279 19.703 27.6519 19.6346C27.6519 19.6346 27.6832 18.9993 27.5386 18.2273C27.8591 18.1857 28.2344 18.1222 28.6429 18.0171C29.8527 17.7068 29.882 16.71 29.882 16.71C30.0462 17.6751 29.9915 19.1875 29.9915 19.1875Z" fill="#D3D3D3"/>
<path d="M7.12891 12.3236L8.03189 10.3079C8.36416 10.1808 8.69447 10.0684 8.97592 9.99268L8.01039 12.5508C7.68985 12.5264 7.4944 12.5093 7.45531 12.4971C7.37322 12.4726 7.25595 12.4091 7.12891 12.3236Z" fill="#ADA5B0"/>
<path d="M7.45366 12.5389C7.44584 12.5389 7.43802 12.5365 7.43021 12.5316C7.40675 12.5169 7.39893 12.4803 7.41066 12.4509L8.41333 10.142C8.42506 10.1127 8.45437 10.1029 8.47783 10.1176C8.50128 10.1322 8.5091 10.1689 8.49737 10.1982L7.49471 12.5071C7.48689 12.5291 7.47125 12.5389 7.45366 12.5389Z" fill="#151B26"/>
<path d="M20.2383 13.4719C20.2793 13.4719 20.3223 13.4475 20.3497 13.4035L20.8246 12.6119C20.8696 12.5361 20.8578 12.4286 20.7973 12.37C20.7367 12.3138 20.6507 12.3285 20.6038 12.4042L20.1288 13.1958C20.0839 13.2716 20.0956 13.3791 20.1562 13.4377C20.1816 13.4622 20.2109 13.4719 20.2383 13.4719Z" fill="#383D4A"/>
<path d="M19.7394 11.8499L19.7589 12.5585C19.7628 12.6953 19.8469 12.8028 19.9563 12.8151C20.2886 12.8468 20.9355 12.8346 20.9355 12.2751C20.9355 11.6032 20.2847 11.5567 19.9407 11.5787C19.8254 11.5836 19.7355 11.7033 19.7394 11.8499Z" fill="#383D4A"/>
<path d="M19.3139 13.1543C17.9496 13.0859 16.1378 12.9906 14.3416 12.8953L13.9761 10.518C13.9761 10.518 15.7097 10.4153 16.9196 10.8967C17.9789 11.3169 19.0598 12.7927 19.3139 13.1543Z" fill="#273033"/>
<path d="M9.95707 10.8966C10.6177 10.5179 12.8185 10.5521 12.8185 10.5521L12.7931 12.8121C11.4386 12.7388 10.176 12.668 9.21631 12.6093C9.23781 12.3821 9.36485 11.2362 9.95707 10.8966Z" fill="#273033"/>
<path d="M13.8072 10.0107C13.5394 10.0009 13.2678 9.99844 13 10.0009L13.0469 13.2627L14.3545 13.3262L13.8072 10.0107Z" fill="#ADA5B0"/>
<path d="M13.9212 12.952C13.8977 12.952 13.8762 12.93 13.8743 12.8982L13.5615 9.65595C13.5576 9.62419 13.5772 9.59242 13.6026 9.58998C13.6299 9.58509 13.6534 9.60953 13.6554 9.64129L13.9681 12.8836C13.972 12.9153 13.9524 12.9471 13.927 12.9495C13.9251 12.952 13.9231 12.952 13.9212 12.952Z" fill="#151B26"/>
<path d="M27.4034 14.8183C27.3721 14.7865 27.3447 14.7572 27.3193 14.7279C27.6164 14.6864 27.9233 14.6864 28.1656 14.8892C28.2946 14.9991 28.3943 15.1579 28.4725 15.3265C28.5702 15.5342 28.6425 15.7663 28.6445 16.0058C28.4275 16.0033 28.1735 15.9813 27.8998 15.9202C27.8998 15.9202 27.8177 15.2312 27.4034 14.8183Z" fill="#646464"/>
<path d="M21.3072 19.4044C21.2838 19.4044 21.2642 19.3824 21.2603 19.3531C21.2564 19.3213 21.274 19.2896 21.2994 19.2847C21.3092 19.2822 21.5359 19.2309 21.6356 18.9231C21.7392 18.5981 21.7294 14.4909 21.704 14.0975C21.6786 13.7066 21.4519 13.3523 21.4499 13.3499C21.4323 13.323 21.4362 13.2863 21.4577 13.2643C21.4792 13.2423 21.5085 13.2472 21.5261 13.2741C21.5359 13.2888 21.7724 13.6626 21.8017 14.0877C21.8271 14.4591 21.8447 18.5981 21.7274 18.967C21.6082 19.3384 21.3307 19.3995 21.3189 19.4019C21.3131 19.4044 21.3111 19.4044 21.3072 19.4044Z" fill="white"/>
<path d="M13.8667 19.3092C13.8608 19.3092 13.855 19.3092 13.851 19.3067C13.8256 19.2945 13.8139 19.2603 13.8217 19.231C13.8237 19.2261 13.9429 18.8083 13.9683 18.476C13.9918 18.1926 14.0563 14.359 14.0309 13.284C14.0289 13.1594 13.9253 12.9908 13.8843 12.9346C13.8667 12.9101 13.8686 12.871 13.8882 12.8491C13.9077 12.8271 13.939 12.8295 13.9566 12.8539C13.9625 12.8637 14.1227 13.0885 14.1266 13.2791C14.152 14.3566 14.0856 18.2024 14.0641 18.4858C14.0367 18.8327 13.9175 19.253 13.9116 19.2701C13.9038 19.2945 13.8862 19.3092 13.8667 19.3092Z" fill="white"/>
<path d="M10.0281 19.2603C10.0144 19.2603 10.0007 19.253 9.99095 19.2383C9.95968 19.1919 6.92822 14.5447 6.92822 14.0341C6.92822 13.4843 7.36799 12.529 7.38753 12.4874C7.40122 12.4581 7.43053 12.4483 7.45399 12.4654C7.47744 12.4826 7.48526 12.5192 7.47158 12.5485C7.46767 12.5583 7.02595 13.5161 7.02595 14.0341C7.02595 14.3957 9.11337 17.7064 10.0672 19.1626C10.0848 19.1895 10.0809 19.2261 10.0613 19.2481C10.0496 19.2554 10.0379 19.2603 10.0281 19.2603Z" fill="white"/>
<path d="M1.71098 15.3562C1.83216 14.9311 1.58784 14.4815 1.22626 14.4619L0.635994 14.4326C0.520678 14.848 0.391679 15.3244 0.282227 15.7618L1.18521 15.8033C1.41976 15.8155 1.6328 15.6347 1.71098 15.3562Z" fill="#CDCDCD"/>
</svg>
