<svg width="30" height="30" viewBox="0 0 30 30" fill="none" xmlns="http://www.w3.org/2000/svg">
<path d="M27.6516 19.1189C27.6516 19.1189 26.2522 17.3817 24.9388 17.4794C23.6253 17.5747 22.2572 18.8794 22.2572 18.8794L8.74559 18.7426C8.74559 18.7426 7.71947 17.1544 6.03663 17.0958C4.35379 17.0347 3.46253 18.7084 3.46253 18.7084L1.90479 16.375L3.05795 13.8511L27.7103 14.9335L28.1911 18.2368L27.6516 19.1189Z" fill="black"/>
<path d="M23.6228 20.878C23.0717 20.4211 22.6808 19.6881 22.5791 18.8354C22.5615 18.6888 22.5518 18.5398 22.5518 18.3883C22.5518 17.8801 22.6534 17.4036 22.8313 16.9858C22.8273 16.9932 22.8254 17.0005 22.8215 17.0078C22.8782 17.3426 22.9818 17.6553 23.1205 17.9387C23.0971 18.0853 23.0853 18.2344 23.0853 18.3883C23.0853 19.6662 23.916 20.7046 24.9382 20.7046C25.9155 20.7046 26.7168 19.7566 26.7852 18.5569C26.9807 18.3272 27.1468 18.0585 27.2719 17.7579C27.2661 17.7188 27.2582 17.6822 27.2504 17.6431C27.2993 17.8825 27.3247 18.1318 27.3247 18.3883C27.3247 18.5447 27.3149 18.6986 27.2954 18.8501C27.182 19.7639 26.7364 20.5409 26.1168 20.9831C25.7689 21.2323 25.3663 21.374 24.9363 21.374C24.4515 21.3716 24.0001 21.1883 23.6228 20.878Z" fill="#17191C"/>
<path d="M24.938 15.4023C26.0502 15.4023 26.9844 16.3552 27.2502 17.6429C27.258 17.682 27.2659 17.7186 27.2717 17.7577C27.1466 18.0582 26.9805 18.327 26.785 18.5567C26.789 18.5005 26.7909 18.4443 26.7909 18.3881C26.7909 17.1102 25.9602 16.0718 24.938 16.0718C24.039 16.0718 23.2884 16.8757 23.1203 17.9385C22.9816 17.6551 22.8799 17.3423 22.8213 17.0076C22.8252 17.0003 22.8272 16.9929 22.8311 16.9856C23.2337 16.0425 24.0253 15.4023 24.938 15.4023Z" fill="#282F39"/>
<path d="M23.125 18.3861C23.125 19.637 23.94 20.6559 24.9407 20.6559C25.9415 20.6559 26.7565 19.637 26.7565 18.3861C26.7565 17.1351 25.9415 16.1162 24.9407 16.1162C23.9381 16.1187 23.125 17.1351 23.125 18.3861ZM24.4795 16.5267L24.7043 17.5284C24.5968 17.5749 24.501 17.6482 24.4228 17.7483L23.8423 17.0056C24.0202 16.7857 24.2371 16.6195 24.4795 16.5267ZM24.9388 18.0709C25.0776 18.0709 25.1909 18.2126 25.1909 18.3861C25.1909 18.5595 25.0776 18.7012 24.9388 18.7012C24.8 18.7012 24.6867 18.5595 24.6867 18.3861C24.6867 18.2126 24.8 18.0709 24.9388 18.0709ZM25.3004 16.4925L25.0952 17.4991C25.0443 17.4845 24.9935 17.4771 24.9388 17.4771C24.8704 17.4771 24.8039 17.4894 24.7414 17.5113L24.5166 16.512C24.6515 16.4656 24.7922 16.4387 24.9407 16.4387C25.0639 16.4412 25.1851 16.4583 25.3004 16.4925ZM26.049 17.0227L25.4548 17.7483C25.3668 17.6384 25.2554 17.5553 25.1323 17.5138L25.3375 16.5071C25.6111 16.5951 25.8555 16.7759 26.049 17.0227ZM26.4496 17.9145L25.6444 18.171C25.6151 18.0244 25.5584 17.8901 25.4802 17.7826L26.0744 17.0569C26.2542 17.2939 26.3851 17.5895 26.4496 17.9145ZM26.434 18.9309L25.6346 18.6499C25.6541 18.5669 25.6659 18.4789 25.6659 18.3885C25.6659 18.3299 25.662 18.2737 25.6522 18.2199L26.4575 17.9634C26.4829 18.1002 26.4946 18.2419 26.4946 18.3885C26.4965 18.5766 26.475 18.7574 26.434 18.9309ZM26.0177 19.791L25.4372 19.0482C25.5193 18.9505 25.5818 18.8307 25.6209 18.6964L26.4223 18.9773C26.3441 19.2901 26.2034 19.5686 26.0177 19.791ZM25.359 20.2625L25.1342 19.2632C25.2378 19.2266 25.3316 19.1655 25.4098 19.08L25.9903 19.8252C25.8125 20.0255 25.5975 20.177 25.359 20.2625ZM24.5674 20.2772L24.7727 19.2705C24.8254 19.2852 24.8821 19.295 24.9388 19.295C24.9935 19.295 25.0463 19.2876 25.0971 19.273L25.3219 20.2747C25.1987 20.3138 25.0717 20.3334 24.9388 20.3334C24.8117 20.3334 24.6867 20.3138 24.5674 20.2772ZM23.8462 19.7739L24.4404 19.0482C24.5225 19.1459 24.6241 19.2192 24.7355 19.2583L24.5303 20.265C24.2703 20.177 24.0358 20.006 23.8462 19.7739ZM23.4416 18.9211L24.2469 18.6646C24.2801 18.7965 24.3388 18.9163 24.415 19.014L23.8208 19.7396C23.6449 19.5124 23.514 19.2339 23.4416 18.9211ZM23.428 17.9218L24.2273 18.2028C24.2176 18.2614 24.2117 18.3225 24.2117 18.3861C24.2117 18.4667 24.2215 18.5449 24.2371 18.6182L23.4319 18.8747C23.3986 18.7183 23.383 18.5546 23.383 18.3861C23.383 18.2272 23.3986 18.0709 23.428 17.9218ZM23.4358 17.8754C23.5042 17.5553 23.6371 17.2695 23.8169 17.0373L24.3974 17.7826C24.3212 17.8876 24.2664 18.0171 24.2352 18.1588L23.4358 17.8754Z" fill="#989B9E"/>
<path d="M23.1206 17.936C23.0972 18.0826 23.0854 18.2317 23.0854 18.3856C23.0854 19.6635 23.9161 20.7019 24.9383 20.7019C25.9156 20.7019 26.7169 19.7539 26.7854 18.5542C26.7893 18.498 26.7912 18.4418 26.7912 18.3856C26.7912 17.1077 25.9605 16.0693 24.9383 16.0693C24.0412 16.0693 23.2887 16.8732 23.1206 17.936ZM23.1245 18.3856C23.1245 17.1346 23.9396 16.1158 24.9403 16.1158C25.941 16.1158 26.756 17.1346 26.756 18.3856C26.756 19.6366 25.941 20.6554 24.9403 20.6554C23.9376 20.6554 23.1245 19.6366 23.1245 18.3856Z" fill="#545759"/>
<path d="M25.4094 19.0771L25.9899 19.8224C25.812 20.0252 25.597 20.1766 25.3586 20.2622L25.1338 19.2628C25.2374 19.2262 25.3292 19.1627 25.4094 19.0771Z" fill="black"/>
<path d="M25.6222 18.6934L26.4236 18.9743C26.3434 19.2871 26.2027 19.5656 26.019 19.788L25.4385 19.0452C25.5186 18.9499 25.5831 18.8277 25.6222 18.6934Z" fill="black"/>
<path d="M24.9383 19.2949C24.993 19.2949 25.0458 19.2876 25.0966 19.273L25.3213 20.2747C25.1982 20.3138 25.0712 20.3333 24.9383 20.3333C24.8112 20.3333 24.6861 20.3138 24.5669 20.2772L24.7721 19.2705C24.8268 19.2852 24.8816 19.2949 24.9383 19.2949Z" fill="black"/>
<path d="M25.6656 18.3861C25.6656 18.3274 25.6616 18.2712 25.6519 18.2175L26.4571 17.9609C26.4825 18.0978 26.4943 18.2395 26.4943 18.3861C26.4943 18.5742 26.4728 18.7575 26.4317 18.9285L25.6323 18.6475C25.6538 18.5669 25.6656 18.4789 25.6656 18.3861Z" fill="black"/>
<path d="M24.4148 19.0135L23.8206 19.7391C23.6447 19.5119 23.5137 19.2334 23.4414 18.9206L24.2467 18.6641C24.2818 18.7984 24.3385 18.9157 24.4148 19.0135Z" fill="black"/>
<path d="M24.9383 17.4793C24.8699 17.4793 24.8034 17.4915 24.7409 17.5135L24.5161 16.5142C24.651 16.4678 24.7917 16.4409 24.9402 16.4409C25.0653 16.4409 25.1846 16.4605 25.3018 16.4947L25.0966 17.5013C25.0438 17.4867 24.993 17.4793 24.9383 17.4793Z" fill="black"/>
<path d="M25.4795 17.7823L26.0737 17.0566C26.2515 17.2936 26.3825 17.5893 26.4489 17.9142L25.6437 18.1708C25.6144 18.0242 25.5577 17.8923 25.4795 17.7823Z" fill="black"/>
<path d="M25.1318 17.511L25.3371 16.5044C25.6107 16.5948 25.857 16.7756 26.0485 17.0224L25.4543 17.748C25.3664 17.6356 25.255 17.555 25.1318 17.511Z" fill="black"/>
<path d="M24.2115 18.3861C24.2115 18.4667 24.2213 18.5449 24.2369 18.6182L23.4317 18.8748C23.3984 18.7184 23.3828 18.5547 23.3828 18.3861C23.3828 18.2248 23.3984 18.0709 23.4278 17.9219L24.2272 18.2029C24.2174 18.2639 24.2115 18.325 24.2115 18.3861Z" fill="black"/>
<path d="M24.737 19.258L24.5317 20.2646C24.2698 20.1767 24.0353 20.0032 23.8477 19.7735L24.4418 19.0479C24.5239 19.1456 24.6236 19.2189 24.737 19.258Z" fill="black"/>
<path d="M24.4223 17.7456L23.8418 17.0028C24.0177 16.7854 24.2347 16.6192 24.477 16.5264L24.7018 17.5281C24.5962 17.5721 24.5005 17.6478 24.4223 17.7456Z" fill="black"/>
<path d="M24.3972 17.7823C24.3209 17.8874 24.2662 18.0169 24.2349 18.1586L23.4355 17.8752C23.504 17.5551 23.6369 17.2692 23.8167 17.0371L24.3972 17.7823Z" fill="black"/>
<path d="M24.9386 18.1191C25.0579 18.1191 25.1536 18.2389 25.1536 18.3879C25.1536 18.5369 25.0579 18.6567 24.9386 18.6567C24.8194 18.6567 24.7236 18.5369 24.7236 18.3879C24.7236 18.2389 24.8214 18.1191 24.9386 18.1191Z" fill="#989B9E"/>
<path d="M24.6865 18.3855C24.6865 18.559 24.7999 18.7007 24.9387 18.7007C25.0774 18.7007 25.1908 18.559 25.1908 18.3855C25.1908 18.212 25.0774 18.0703 24.9387 18.0703C24.7999 18.0703 24.6865 18.212 24.6865 18.3855ZM24.7237 18.3855C24.7237 18.2365 24.8194 18.1167 24.9387 18.1167C25.0579 18.1167 25.1537 18.2365 25.1537 18.3855C25.1537 18.5345 25.0579 18.6543 24.9387 18.6543C24.8214 18.6543 24.7237 18.5345 24.7237 18.3855Z" fill="#545759"/>
<path d="M4.73611 20.878C4.18494 20.4211 3.79404 19.6881 3.6924 18.8354C3.67481 18.6888 3.66504 18.5398 3.66504 18.3883C3.66504 17.8801 3.76667 17.4036 3.94453 16.9858C3.94063 16.9932 3.93867 17.0005 3.93476 17.0078C3.99144 17.3426 4.09503 17.6553 4.2338 17.9387C4.21035 18.0853 4.19862 18.2344 4.19862 18.3883C4.19862 19.6662 5.02929 20.7046 6.0515 20.7046C7.02876 20.7046 7.83011 19.7566 7.89852 18.5569C8.09397 18.3272 8.26011 18.0585 8.3852 17.7579C8.37933 17.7188 8.37151 17.6822 8.3637 17.6431C8.41256 17.8825 8.43797 18.1318 8.43797 18.3883C8.43797 18.5447 8.4282 18.6986 8.40865 18.8501C8.29529 19.7639 7.84966 20.5409 7.23008 20.9831C6.88217 21.2323 6.47954 21.374 6.04955 21.374C5.56678 21.3716 5.11334 21.1883 4.73611 20.878Z" fill="#17191C"/>
<path d="M6.05375 15.4023C7.16587 15.4023 8.10013 16.3552 8.36595 17.6429C8.37376 17.682 8.38158 17.7186 8.38745 17.7577C8.26236 18.0582 8.09622 18.327 7.90077 18.5567C7.90468 18.5005 7.90663 18.4443 7.90663 18.3881C7.90663 17.1102 7.07597 16.0718 6.05375 16.0718C5.15468 16.0718 4.40414 16.8757 4.23605 17.9385C4.09728 17.6551 3.99565 17.3423 3.93701 17.0076C3.94092 17.0003 3.94288 16.9929 3.94678 16.9856C4.34746 16.0425 5.14099 15.4023 6.05375 15.4023Z" fill="#282F39"/>
<path d="M4.23828 18.3861C4.23828 19.637 5.05331 20.6559 6.05403 20.6559C7.05474 20.6559 7.86977 19.637 7.86977 18.3861C7.86977 17.1351 7.05474 16.1162 6.05403 16.1162C5.05331 16.1187 4.23828 17.1351 4.23828 18.3861ZM5.59472 16.5267L5.81949 17.5284C5.71199 17.5749 5.61621 17.6482 5.53803 17.7483L4.95754 17.0056C5.13345 16.7857 5.3504 16.6195 5.59472 16.5267ZM6.05403 18.0709C6.1928 18.0709 6.30616 18.2126 6.30616 18.3861C6.30616 18.5595 6.1928 18.7012 6.05403 18.7012C5.91526 18.7012 5.80189 18.5595 5.80189 18.3861C5.80189 18.2126 5.91526 18.0709 6.05403 18.0709ZM6.41366 16.4925L6.20843 17.4991C6.15762 17.4845 6.1068 17.4771 6.05207 17.4771C5.98366 17.4771 5.91721 17.4894 5.85467 17.5113L5.6299 16.5145C5.76476 16.468 5.90548 16.4412 6.05403 16.4412C6.17716 16.4412 6.29834 16.4583 6.41366 16.4925ZM7.16419 17.0227L6.57002 17.7483C6.48207 17.6384 6.37066 17.5553 6.24752 17.5138L6.45275 16.5071C6.72638 16.5951 6.9707 16.7759 7.16419 17.0227ZM7.56487 17.9145L6.75961 18.171C6.73029 18.0244 6.67361 17.8901 6.59543 17.7826L7.1896 17.0569C7.36746 17.2939 7.49841 17.5895 7.56487 17.9145ZM7.54923 18.9309L6.74983 18.6499C6.76938 18.5669 6.78111 18.4789 6.78111 18.3885C6.78111 18.3299 6.7772 18.2737 6.76743 18.2199L7.57269 17.9634C7.59809 18.1002 7.60982 18.2419 7.60982 18.3885C7.60982 18.5766 7.58832 18.7574 7.54923 18.9309ZM7.13292 19.791L6.55243 19.0482C6.63452 18.9505 6.69706 18.8307 6.73615 18.6964L7.5375 18.9773C7.45932 19.2901 7.31664 19.5686 7.13292 19.791ZM6.47425 20.2625L6.24948 19.2632C6.35307 19.2266 6.44688 19.1655 6.52507 19.08L7.10556 19.8252C6.9277 20.0255 6.7127 20.177 6.47425 20.2625ZM5.68267 20.2772L5.88789 19.2705C5.94067 19.2852 5.99735 19.295 6.05403 19.295C6.10875 19.295 6.16153 19.2876 6.21234 19.273L6.43711 20.2747C6.31398 20.3138 6.18693 20.3334 6.05403 20.3334C5.92503 20.3334 5.80189 20.3138 5.68267 20.2772ZM4.96145 19.7739L5.55563 19.0482C5.63772 19.1459 5.73935 19.2192 5.85076 19.2583L5.64553 20.265C5.38363 20.177 5.14909 20.006 4.96145 19.7739ZM4.55687 18.9211L5.36213 18.6646C5.39535 18.7965 5.45399 18.9163 5.53022 19.014L4.93604 19.7396C4.76014 19.5124 4.62723 19.2339 4.55687 18.9211ZM4.54123 17.9218L5.34063 18.2028C5.33086 18.2614 5.32499 18.3225 5.32499 18.3861C5.32499 18.4667 5.33477 18.5449 5.3504 18.6182L4.54709 18.8772C4.51387 18.7208 4.49823 18.5571 4.49823 18.3885C4.49628 18.2272 4.51191 18.0709 4.54123 17.9218ZM4.551 17.8754C4.61941 17.5553 4.75232 17.2695 4.93213 17.0373L5.51263 17.7826C5.4364 17.8876 5.38167 18.0171 5.3504 18.1588L4.551 17.8754Z" fill="#989B9E"/>
<path d="M4.23635 17.936C4.2129 18.0826 4.20117 18.2317 4.20117 18.3856C4.20117 19.6635 5.03184 20.7019 6.05405 20.7019C7.03131 20.7019 7.83266 19.7539 7.90107 18.5542C7.90498 18.498 7.90694 18.4418 7.90694 18.3856C7.90694 17.1077 7.07627 16.0693 6.05405 16.0693C5.15498 16.0693 4.40444 16.8732 4.23635 17.936ZM4.23831 18.3856C4.23831 17.1346 5.05334 16.1158 6.05405 16.1158C7.05477 16.1158 7.8698 17.1346 7.8698 18.3856C7.8698 19.6366 7.05477 20.6554 6.05405 20.6554C5.05334 20.6554 4.23831 19.6366 4.23831 18.3856Z" fill="#545759"/>
<path d="M6.52461 19.0771L7.1051 19.8224C6.92724 20.0252 6.71224 20.1766 6.47379 20.2622L6.24902 19.2628C6.35066 19.2262 6.44447 19.1627 6.52461 19.0771Z" fill="black"/>
<path d="M6.73597 18.6934L7.53732 18.9743C7.45719 19.2871 7.31646 19.5656 7.13274 19.788L6.55225 19.0452C6.63434 18.9499 6.69688 18.8277 6.73597 18.6934Z" fill="black"/>
<path d="M6.05398 19.2949C6.1087 19.2949 6.16147 19.2876 6.21229 19.273L6.43706 20.2747C6.31393 20.3138 6.18688 20.3333 6.05398 20.3333C5.92693 20.3333 5.80184 20.3138 5.68262 20.2772L5.88784 19.2705C5.94061 19.2852 5.99729 19.2949 6.05398 19.2949Z" fill="black"/>
<path d="M6.78079 18.3861C6.78079 18.3274 6.77688 18.2712 6.7671 18.2175L7.57236 17.9609C7.59777 18.0978 7.6095 18.2395 7.6095 18.3861C7.6095 18.5742 7.588 18.7575 7.54696 18.9285L6.74756 18.6475C6.76906 18.5669 6.78079 18.4789 6.78079 18.3861Z" fill="black"/>
<path d="M5.52999 19.0135L4.93582 19.7391C4.75991 19.5119 4.62896 19.2334 4.55664 18.9206L5.3619 18.6641C5.39513 18.7984 5.45376 18.9157 5.52999 19.0135Z" fill="black"/>
<path d="M6.05352 17.4793C5.98512 17.4793 5.91866 17.4915 5.85612 17.5135L5.62939 16.5142C5.76426 16.4678 5.90498 16.4409 6.05352 16.4409C6.17861 16.4409 6.29784 16.4605 6.41511 16.4947L6.20989 17.5013C6.15907 17.4867 6.1063 17.4793 6.05352 17.4793Z" fill="black"/>
<path d="M6.59521 17.7823L7.18939 17.0566C7.36725 17.2936 7.4982 17.5893 7.56466 17.9142L6.75939 18.1708C6.73008 18.0242 6.6734 17.8923 6.59521 17.7823Z" fill="black"/>
<path d="M6.24512 17.511L6.45034 16.5044C6.72397 16.5948 6.97024 16.7756 7.16179 17.0224L6.56761 17.748C6.48161 17.6356 6.37021 17.555 6.24512 17.511Z" fill="black"/>
<path d="M5.32676 18.3856C5.32676 18.4662 5.33653 18.5444 5.35217 18.6177L4.54691 18.8767C4.51368 18.7203 4.49805 18.5566 4.49805 18.3881C4.49805 18.2268 4.51368 18.0729 4.543 17.9238L5.3424 18.2048C5.33263 18.2634 5.32676 18.3245 5.32676 18.3856Z" fill="black"/>
<path d="M5.85024 19.258L5.64502 20.2646C5.38311 20.1767 5.14857 20.0032 4.96094 19.7735L5.55511 19.0479C5.63915 19.1456 5.73883 19.2189 5.85024 19.258Z" fill="black"/>
<path d="M5.53752 17.7456L4.95703 17.0028C5.13294 16.7854 5.34989 16.6192 5.59225 16.5264L5.81702 17.5281C5.71147 17.5721 5.6157 17.6478 5.53752 17.7456Z" fill="black"/>
<path d="M5.5124 17.7823C5.43618 17.8874 5.38145 18.0169 5.35018 18.1586L4.55078 17.8752C4.61919 17.5551 4.7521 17.2692 4.93191 17.0371L5.5124 17.7823Z" fill="black"/>
<path d="M6.05386 18.1191C6.17309 18.1191 6.26886 18.2389 6.26886 18.3879C6.26886 18.5369 6.17309 18.6567 6.05386 18.6567C5.93464 18.6567 5.83887 18.5369 5.83887 18.3879C5.83887 18.2389 5.93464 18.1191 6.05386 18.1191Z" fill="#989B9E"/>
<path d="M5.80176 18.3855C5.80176 18.559 5.91512 18.7007 6.05389 18.7007C6.19266 18.7007 6.30602 18.559 6.30602 18.3855C6.30602 18.212 6.19266 18.0703 6.05389 18.0703C5.91512 18.0703 5.80176 18.212 5.80176 18.3855ZM5.83889 18.3855C5.83889 18.2365 5.93467 18.1167 6.05389 18.1167C6.17312 18.1167 6.26889 18.2365 6.26889 18.3855C6.26889 18.5345 6.17312 18.6543 6.05389 18.6543C5.93467 18.6543 5.83889 18.5345 5.83889 18.3855Z" fill="#545759"/>
<path d="M22.2592 18.8795L8.74761 18.7426C8.74761 18.7426 8.77497 15.3367 6.13246 15.0972C3.49191 14.8529 3.46455 18.706 3.46455 18.706C3.46455 18.706 0.601181 18.2247 0.298231 18.1562C-0.00471915 18.0878 -0.0320824 17.2278 0.0226441 16.5046C0.0793251 15.7813 0.958857 12.7907 0.958857 12.7907C0.958857 12.7907 0.849405 12.0675 0.986221 11.8281C1.12304 11.5862 3.21437 11.5178 3.21437 11.5178C3.21437 11.5178 7.09408 9.28212 9.48837 8.73237C11.8826 8.18263 16.5872 8.62975 17.9358 9.28212C19.2844 9.93693 21.9816 11.8281 22.697 12.1017C23.4123 12.3778 27.4035 12.9275 28.2556 13.6141C29.1078 14.3031 29.7137 15.2316 29.8798 16.1943C30.044 17.1569 29.9893 18.6718 29.9893 18.6718C29.9893 18.6718 29.0257 19.1873 27.6497 19.1189C27.6497 19.1189 27.8432 15.2316 25.0913 15.0264C22.3119 14.8162 22.2592 18.8795 22.2592 18.8795Z" fill="#F7D035"/>
<path d="M22.2592 18.8795L8.74761 18.7426C8.74761 18.7426 8.78083 15.1534 6.13246 15.0972C3.32382 15.0337 3.46455 18.706 3.46455 18.706C3.46455 18.706 0.601181 18.2247 0.298231 18.1562C-0.00471915 18.0878 -0.0320824 17.2278 0.0226441 16.5046C0.0793251 15.7813 0.958857 12.7907 0.958857 12.7907C0.958857 12.7907 0.849405 12.0675 0.986221 11.8281C1.12304 11.5862 3.21437 11.5178 3.21437 11.5178C3.21437 11.5178 7.09408 9.28212 9.48837 8.73237C11.8826 8.18263 16.5872 8.62975 17.9358 9.28212C19.2844 9.93693 21.9816 11.8281 22.697 12.1017C23.4123 12.3778 27.4035 12.9275 28.2556 13.6141C29.1078 14.3031 29.7137 15.2316 29.8798 16.1943C30.044 17.1569 29.9893 18.6718 29.9893 18.6718C29.9893 18.6718 29.0257 19.1873 27.6497 19.1189C27.6497 19.1189 27.8432 15.2316 25.0913 15.0264C22.3119 14.8162 22.2592 18.8795 22.2592 18.8795Z" fill="#1481DA"/>
<path d="M27.8998 15.4051C27.8998 15.4051 27.8177 14.7161 27.4053 14.3031C26.9929 13.8902 27.1571 13.6141 27.6535 13.7192C28.148 13.8218 28.8927 14.1663 29.3051 15.4393C29.3031 15.4393 28.6699 15.5761 27.8998 15.4051Z" fill="#E8F2F4"/>
<path d="M21.8723 12.5495C21.8723 12.5495 19.478 10.5533 17.1951 9.62482C14.9103 8.69636 10.0396 9.21189 8.99398 9.48799C7.94832 9.76408 6.24202 10.5533 6.1873 10.7952C6.13257 11.0371 7.09615 11.8604 7.45382 11.9655C7.8115 12.0681 21.5987 12.7571 21.5987 12.7571C21.5987 12.7571 21.9016 12.7205 21.8723 12.5495Z" fill="black"/>
<path d="M25.9729 13.5118L0.959011 12.791L0.921875 12.1387L25.1207 13.1331L25.9729 13.5118Z" fill="#E5E5E5"/>
<path d="M15.3249 13.6509C14.5274 13.5996 14.6916 14.5452 15.2975 14.5452C15.9034 14.5452 15.8467 13.6851 15.3249 13.6509Z" fill="#B9B9B9"/>
<path d="M16.2313 14.0568C16.2313 14.2083 15.8189 14.2351 15.3791 14.2351C14.9394 14.2351 14.3882 14.2351 14.3882 14.0568C14.3882 13.8784 14.9394 13.8784 15.297 13.8784C15.6547 13.8784 16.2313 13.9053 16.2313 14.0568Z" fill="#E8F2F4"/>
<path d="M8.61275 13.3407C7.81531 13.2796 7.97363 14.2301 8.57953 14.235C9.18543 14.2399 9.13461 13.3798 8.61275 13.3407Z" fill="#B9B9B9"/>
<path d="M9.51743 13.8343C9.51548 13.9858 9.10307 14.0102 8.66331 14.0053C8.22354 14.0029 7.67237 13.998 7.67432 13.8197C7.67628 13.6413 8.2255 13.6462 8.58317 13.6486C8.94085 13.6535 9.51743 13.6828 9.51743 13.8343Z" fill="#E8F2F4"/>
<path d="M8.66162 17.8833L22.312 18.2229C22.2611 18.6139 22.2572 18.8777 22.2572 18.8777L8.74567 18.7409C8.74762 18.7409 8.74957 18.3793 8.66162 17.8833Z" fill="#1481DA"/>
<path d="M3.46491 18.7064C3.46491 18.7064 0.603494 18.225 0.300544 18.1566C0.0718658 18.1053 -0.000451282 17.6093 0.00150323 17.0596C0.109002 17.2037 0.273181 17.3503 0.51945 17.4334C1.04326 17.6118 3.00755 17.8927 3.52745 17.966C3.46686 18.401 3.46491 18.7064 3.46491 18.7064Z" fill="#1481DA"/>
<path d="M29.9915 18.6723C29.9915 18.6723 29.0279 19.1879 27.6519 19.1195C27.6519 19.1195 27.6832 18.4842 27.5386 17.7121C27.8591 17.6706 28.2344 17.6071 28.6429 17.502C29.8527 17.1917 29.882 16.1948 29.882 16.1948C30.0462 17.1599 29.9915 18.6723 29.9915 18.6723Z" fill="#1481DA"/>
<path d="M7.12939 11.8089L8.03238 9.79321C8.36465 9.66616 8.69496 9.55377 8.97641 9.47803L8.01088 12.0362C7.69034 12.0117 7.49489 11.9946 7.4558 11.9824C7.37371 11.958 7.25644 11.8945 7.12939 11.8089Z" fill="#ADA5B0"/>
<path d="M7.45366 12.0243C7.44584 12.0243 7.43802 12.0218 7.43021 12.0169C7.40675 12.0023 7.39893 11.9656 7.41066 11.9363L8.41333 9.62736C8.42506 9.59804 8.45437 9.58827 8.47783 9.60293C8.50128 9.61759 8.5091 9.65424 8.49737 9.68356L7.49471 11.9925C7.48689 12.0145 7.47125 12.0243 7.45366 12.0243Z" fill="#E5E5E5"/>
<path d="M20.2383 12.9563C20.2793 12.9563 20.3223 12.9319 20.3497 12.8879L20.8246 12.0963C20.8696 12.0205 20.8578 11.913 20.7973 11.8544C20.7367 11.7982 20.6507 11.8128 20.6038 11.8886L20.1288 12.6802C20.0839 12.756 20.0956 12.8635 20.1562 12.9221C20.1816 12.9465 20.2109 12.9563 20.2383 12.9563Z" fill="#383D4A"/>
<path d="M19.7399 11.3348L19.7594 12.0434C19.7633 12.1802 19.8474 12.2877 19.9568 12.2999C20.2891 12.3317 20.936 12.3195 20.936 11.7599C20.936 11.088 20.2852 11.0416 19.9412 11.0636C19.8259 11.0685 19.736 11.1882 19.7399 11.3348Z" fill="#383D4A"/>
<path d="M19.3139 12.6396C17.9496 12.5712 16.1378 12.4759 14.3416 12.3807L13.9761 10.0033C13.9761 10.0033 15.7097 9.90069 16.9196 10.382C17.9789 10.8023 19.0598 12.278 19.3139 12.6396Z" fill="#273033"/>
<path d="M9.95756 10.3819C10.6182 10.0032 12.819 10.0374 12.819 10.0374L12.7936 12.2975C11.4391 12.2242 10.1765 12.1533 9.2168 12.0947C9.2383 11.8675 9.36534 10.7216 9.95756 10.3819Z" fill="#273033"/>
<path d="M14.0035 9.08438C13.7357 9.07461 13.4641 9.07217 13.1963 9.07461L13.2432 12.3364L14.5508 12.4L14.0035 9.08438Z" fill="#ADA5B0"/>
<path d="M13.9212 12.4368C13.8977 12.4368 13.8762 12.4149 13.8743 12.3831L13.5615 9.14081C13.5576 9.10905 13.5772 9.07729 13.6026 9.07484C13.6299 9.06996 13.6534 9.09439 13.6554 9.12615L13.9681 12.3684C13.972 12.4002 13.9524 12.432 13.927 12.4344C13.9251 12.4368 13.9231 12.4368 13.9212 12.4368Z" fill="white"/>
<path d="M27.4039 14.3032C27.3726 14.2714 27.3452 14.2421 27.3198 14.2128C27.6169 14.1712 27.9238 14.1712 28.1661 14.374C28.2951 14.484 28.3948 14.6428 28.473 14.8114C28.5707 15.0191 28.643 15.2512 28.645 15.4906C28.428 15.4882 28.1739 15.4662 27.9003 15.4051C27.9003 15.4051 27.8182 14.7161 27.4039 14.3032Z" fill="#FFFDD1"/>
<path d="M21.3072 18.8897C21.2838 18.8897 21.2642 18.8677 21.2603 18.8384C21.2564 18.8067 21.274 18.7749 21.2994 18.77C21.3092 18.7676 21.5359 18.7163 21.6356 18.4084C21.7392 18.0834 21.7294 13.9762 21.704 13.5829C21.6786 13.1919 21.4519 12.8376 21.4499 12.8352C21.4323 12.8083 21.4362 12.7717 21.4577 12.7497C21.4792 12.7277 21.5085 12.7326 21.5261 12.7595C21.5359 12.7741 21.7724 13.1479 21.8017 13.5731C21.8271 13.9445 21.8447 18.0834 21.7274 18.4524C21.6082 18.8238 21.3307 18.8849 21.3189 18.8873C21.3131 18.8897 21.3111 18.8897 21.3072 18.8897Z" fill="#1481DA"/>
<path d="M13.8662 18.794C13.8603 18.794 13.8545 18.794 13.8506 18.7916C13.8252 18.7794 13.8134 18.7452 13.8212 18.7159C13.8232 18.711 13.9424 18.2932 13.9678 17.9609C13.9913 17.6775 14.0558 13.8439 14.0304 12.7688C14.0284 12.6442 13.9248 12.4756 13.8838 12.4194C13.8662 12.395 13.8682 12.3559 13.8877 12.3339C13.9072 12.3119 13.9385 12.3144 13.9561 12.3388C13.962 12.3486 14.1222 12.5734 14.1261 12.7639C14.1516 13.8414 14.0851 17.6872 14.0636 17.9706C14.0362 18.3176 13.917 18.7379 13.9112 18.755C13.9033 18.7794 13.8857 18.794 13.8662 18.794Z" fill="#1481DA"/>
<path d="M10.0281 18.7452C10.0144 18.7452 10.0007 18.7378 9.99095 18.7232C9.95968 18.6768 6.92822 14.0296 6.92822 13.5189C6.92822 12.9692 7.36799 12.0138 7.38753 11.9723C7.40122 11.943 7.43053 11.9332 7.45399 11.9503C7.47744 11.9674 7.48526 12.0041 7.47158 12.0334C7.46767 12.0432 7.02595 13.0009 7.02595 13.5189C7.02595 13.8805 9.11337 17.1912 10.0672 18.6474C10.0848 18.6743 10.0809 18.711 10.0613 18.733C10.0496 18.7403 10.0379 18.7452 10.0281 18.7452Z" fill="#1481DA"/>
<path d="M1.71147 14.8411C1.83265 14.4159 1.58833 13.9663 1.22675 13.9468L0.636482 13.9175C0.521166 14.3328 0.392168 14.8093 0.282715 15.2466L1.1857 15.2882C1.42024 15.3004 1.63329 15.1196 1.71147 14.8411Z" fill="#FF6F57"/>
</svg>
