<svg width="64" height="129" viewBox="0 0 64 129" fill="none" xmlns="http://www.w3.org/2000/svg">
<g clip-path="url(#clip0_2196_4385)">
<path d="M15.4 127.1C15.3 127.5 14.9 127.7 14.5 127.6L13.8 127.5C13.4 127.4 13.1 127.1 13.2 126.7C13.3 126.3 13.7 126.1 14.1 126.2L14.8 126.3C15.2 126.4 15.5 126.7 15.4 127.1Z" fill="#F7941E"/>
<path d="M13.2002 126.4C13.1002 126.9 12.5002 127.3 11.9002 127.1L10.9002 126.9C10.3002 126.8 9.90018 126.3 10.0002 125.7C10.1002 125.2 10.7002 124.8 11.3002 125L12.3002 125.2C12.9002 125.3 13.3002 125.8 13.2002 126.4Z" fill="#ED1C24"/>
<path d="M48.2 127.1C48.3 127.5 48.7 127.7 49.1 127.6L49.8 127.5C50.2 127.4 50.5 127.1 50.4 126.7C50.3 126.3 49.9 126.1 49.5 126.2L48.8 126.3C48.4 126.4 48.1 126.7 48.2 127.1Z" fill="#F7941E"/>
<path d="M50.4001 126.4C50.5001 126.9 51.1001 127.3 51.7001 127.1L52.7001 126.9C53.3001 126.8 53.7001 126.3 53.6001 125.7C53.5001 125.2 52.9001 124.8 52.3001 125L51.3001 125.2C50.7001 125.3 50.3001 125.8 50.4001 126.4Z" fill="#ED1C24"/>
<path d="M59.2999 20.6998C58.6999 14.9998 57.6999 12.0998 55.8999 9.6998C55.1999 9.8998 54.2999 9.6998 53.6999 9.1998L47.1999 4.2998C46.3999 3.7998 45.9999 2.9998 45.8999 2.1998C45.5999 1.9998 45.2999 1.8998 44.9999 1.7998V7.9998H18.2999V1.7998C17.9999 1.8998 17.6999 1.9998 17.3999 2.1998C17.2999 2.9998 16.8999 3.7998 16.1999 4.2998L9.69986 9.1998C8.99986 9.6998 8.19986 9.8998 7.39986 9.6998C5.59986 12.0998 4.59986 14.9998 3.99986 20.6998C2.29986 35.6998 5.19986 59.2998 5.09986 65.1998C4.69986 96.1998 4.49986 115.1 6.49986 121.7C6.89986 122.9 7.79986 124 9.09986 124.8C11.4999 126.3 14.9999 127.3 18.5999 127.9C20.0999 128.1 21.5999 128.3 23.0999 128.5C23.2999 128.2 23.6999 127.9 24.1999 127.9H39.1999C39.5999 127.9 39.9999 128.1 40.2999 128.5C41.3999 128.4 42.4999 128.3 43.5999 128.1C47.2999 127.6 50.9999 126.7 53.6999 125.2C55.2999 124.3 56.4999 123.1 56.8999 121.7C58.8999 115.2 58.5999 96.2998 58.2999 65.1998C58.0999 59.2998 60.9999 35.6998 59.2999 20.6998Z" fill="url(#paint0_radial_2196_4385)"/>
<path d="M44.9998 8.0998V1.7998C37.3998 -0.700195 25.8998 -0.700195 18.2998 1.7998V7.9998H44.9998V8.0998Z" fill="url(#paint1_linear_2196_4385)"/>
<path d="M57.5999 21.5997C56.5999 12.1997 54.4999 10.5997 49.3999 6.19971C42.4999 0.199707 20.7999 0.199707 13.8999 6.19971C8.79987 10.5997 6.69987 12.1997 5.69987 21.5997C4.09987 36.0997 6.79987 58.7997 6.69987 64.3997C6.39987 94.2997 6.09987 112.4 7.99987 118.7C10.1999 126 31.6999 125.6 31.6999 125.6C31.6999 125.6 53.1999 126 55.3999 118.7C57.2999 112.4 56.9999 94.1997 56.6999 64.3997C56.4999 58.7997 59.1999 36.0997 57.5999 21.5997Z" fill="url(#paint2_radial_2196_4385)"/>
<path d="M21.0001 52.7999C16.5001 53.4999 13.3001 54.6999 12.1001 55.2999L12.5001 57.3999C12.5001 57.3999 16.0001 55.4999 21.5001 54.6999C26.3001 53.9999 37.0001 53.9999 41.8001 54.6999C47.3001 55.4999 50.8001 57.3999 50.8001 57.3999L51.1001 55.2999C49.9001 54.7999 46.7001 53.4999 42.2001 52.7999C37.3001 52.0999 26.0001 52.0999 21.0001 52.7999Z" fill="url(#paint3_linear_2196_4385)"/>
<path d="M10.7 37.2999C12.5 36.4999 15.5 35.1999 20.2 34.0999C27 32.5999 36.1 32.5999 42.9 34.0999C47.7 35.1999 50.7 36.4999 52.5 37.2999C53.3 37.5999 53.8 37.8999 54 38.1999V38.0999C54 38.0999 54.3 36.5999 54.1 36.1999C53.9 35.8999 53.4 35.4999 52.5 35.0999C50.7 34.2999 47.7 32.9999 42.9 31.8999C36.1 30.3999 27 30.3999 20.2 31.8999C15.4 32.9999 12.4 34.2999 10.7 35.0999C9.8 35.4999 9.3 35.7999 9.1 36.1999C8.9 36.5999 9.2 38.0999 9.2 38.0999V38.1999C9.5 37.8999 10 37.5999 10.7 37.2999Z" fill="url(#paint4_linear_2196_4385)"/>
<path d="M21.0002 52.7996C26.0002 52.0996 37.2002 52.0996 42.2002 52.7996C46.7002 53.4996 49.9002 54.6996 51.1002 55.2996L54.0002 38.1996C53.8002 37.8996 53.3002 37.5996 52.5002 37.2996C50.7002 36.4996 47.7002 35.1996 42.9002 34.0996C36.1002 32.5996 27.0002 32.5996 20.2002 34.0996C15.4002 35.1996 12.4002 36.4996 10.7002 37.2996C9.9002 37.5996 9.5002 37.8996 9.2002 38.1996L12.1002 55.2996C13.3002 54.7996 16.5002 53.4996 21.0002 52.7996Z" fill="url(#paint5_linear_2196_4385)"/>
<path d="M49.7 102.2C49.6 101.5 49.4 100.7 49.2 99.9999C49.2 99.9999 48.9 100.1 48.4 100.3C46.5 101.1 41.1 102.9 31.6 102.9C22.9 102.9 16.9 101 14.8 100.2C14.3 99.9999 14 99.8999 14 99.8999C13.8 100.6 13.6 101.3 13.5 102C12.1 109 12.8 115.7 12.8 115.7C12.8 115.7 16.6 117.5 22.1 118.5C26.3 119.3 36.9 119.3 41.1 118.5C46.6 117.5 50.4 115.7 50.4 115.7C50.4 115.7 51.1 109.2 49.7 102.2ZM49.1 114C49.1 114 45.5 115.8 40.5 116.8C36.6 117.6 26.7 117.6 22.8 116.8C17.7 115.8 14.2 114 14.2 114C14.2 114 13.7 108.5 14.5 102.3C17.7 103.2 23.7 104.4 31.6 104.4C40.1 104.4 45.8 103.2 48.8 102.4C49.6 108.6 49.1 114 49.1 114Z" fill="url(#paint6_linear_2196_4385)"/>
<path d="M14.4998 102.4C13.5998 108.6 14.1998 114.1 14.1998 114.1C14.1998 114.1 17.7998 115.9 22.7998 116.9C26.6998 117.7 36.5998 117.7 40.4998 116.9C45.5998 115.9 49.0998 114.1 49.0998 114.1C49.0998 114.1 49.5998 108.7 48.7998 102.5C45.7998 103.4 40.1998 104.5 31.5998 104.5C23.6998 104.5 17.6998 103.2 14.4998 102.4Z" fill="url(#paint7_linear_2196_4385)"/>
<path d="M8.10013 74.8996L11.9001 76.1996L11.2001 58.4996L7.60013 37.5996C7.60013 37.5996 7.30013 42.9996 7.60013 50.6996C7.80013 55.5996 8.40013 62.2996 8.40013 66.5996C8.40013 70.6996 8.20013 73.3996 8.10013 74.8996Z" fill="url(#paint8_linear_2196_4385)"/>
<path d="M55.1999 74.8996L51.3999 76.1996L51.9999 58.4996L55.5999 37.5996C55.5999 37.5996 55.8999 42.9996 55.5999 50.6996C55.3999 55.5996 54.7999 62.2996 54.7999 66.5996C54.8999 70.6996 54.9999 73.4996 55.1999 74.8996Z" fill="url(#paint9_linear_2196_4385)"/>
<path d="M8.00004 76.5L11.9 78.2L12.4 93C12.4 93 12.1 94.8 10.6 97.9C8.90004 101.4 8.00004 102.3 8.00004 102.3C8.00004 102.3 7.60004 82 8.00004 76.5Z" fill="url(#paint10_linear_2196_4385)"/>
<path d="M55.2999 76.5L51.3999 78.2L50.8999 93C50.8999 93 51.1999 94.8 52.6999 97.9C54.3999 101.4 55.2999 102.3 55.2999 102.3C55.2999 102.3 55.6999 82 55.2999 76.5Z" fill="url(#paint11_linear_2196_4385)"/>
<path d="M9.7 9.19971L16.2 4.29971C16.9 3.79971 17.3 2.99971 17.4 2.19971C15.5 2.89971 14 3.69971 12.8 4.69971C10.5 6.59971 8.8 7.99971 7.5 9.69971C8.2 9.89971 9 9.69971 9.7 9.19971Z" fill="url(#paint12_radial_2196_4385)"/>
<path d="M47.0999 4.29971L53.5999 9.19971C54.2999 9.69971 55.0999 9.89971 55.7999 9.69971C54.4999 7.99971 52.7999 6.59971 50.4999 4.69971C49.2999 3.69971 47.6999 2.89971 45.8999 2.19971C45.9999 2.99971 46.3999 3.79971 47.0999 4.29971Z" fill="url(#paint13_radial_2196_4385)"/>
<path d="M52.5999 37.2997C50.7999 36.4997 47.7999 35.1997 42.9999 34.0997C41.2999 33.6997 39.4999 33.3997 37.6999 33.1997C32.8999 38.5997 27.1999 48.2997 24.8999 52.3997C30.4999 52.0997 38.3999 52.1997 42.2999 52.7997C46.7999 53.4997 49.9999 54.6997 51.1999 55.2997L54.0999 38.1997C53.7999 37.8997 53.2999 37.5997 52.5999 37.2997Z" fill="url(#paint14_linear_2196_4385)"/>
<path d="M31.6 55.9997C17.7 55.6997 13 58.2997 13 58.2997C13 58.2997 13.2 93.2997 14.2 96.6997C14.9 99.0997 23.7 100.1 29.3 100.5H33.9C39.5 100.1 48.2 98.9997 49 96.6997C50.1 93.1997 50.2 58.2997 50.2 58.2997C50.2 58.2997 45.6 55.6997 31.6 55.9997Z" fill="url(#paint15_linear_2196_4385)"/>
<path d="M34.1001 124.5C47.6001 124.1 53.6001 120.1 53.6001 120.1L50.9001 116.8C42.5001 121.7 31.6001 120.7 31.6001 120.7C31.6001 120.7 20.8001 121.7 12.3001 116.8L9.6001 120.1C9.6001 120.1 15.6001 124.1 29.1001 124.5C29.8001 124.5 31.5001 124.5 31.5001 124.5C32.6001 124.5 33.4001 124.5 34.1001 124.5Z" fill="url(#paint16_linear_2196_4385)"/>
<path d="M16.0999 5.3999C16.0999 5.3999 7.69989 9.7999 6.79989 19.4999C5.89989 29.4999 5.99989 34.4999 5.99989 34.4999C5.99989 34.4999 8.99989 10.6999 16.0999 5.3999Z" fill="url(#paint17_linear_2196_4385)"/>
<path d="M47.2002 5.3999C47.2002 5.3999 55.6002 9.7999 56.5002 19.4999C57.4002 29.4999 57.3002 34.4999 57.3002 34.4999C57.3002 34.4999 54.4002 10.6999 47.2002 5.3999Z" fill="url(#paint18_linear_2196_4385)"/>
<path d="M55.5002 38.8999C55.5002 38.8999 57.7002 39.2999 57.7002 41.2999C57.7002 43.1999 55.5002 47.0999 55.5002 44.6999C55.4002 42.1999 55.3002 39.6999 55.5002 38.8999Z" fill="url(#paint19_linear_2196_4385)"/>
<path d="M63.1004 43.2C62.6004 42.5 58.2004 41.1 58.2004 41.1C57.3004 40.8 57.0004 41.6 56.9004 42.3L63.2004 44.3C63.3004 43.9 63.3004 43.5 63.1004 43.2Z" fill="url(#paint20_linear_2196_4385)"/>
<path d="M56.9004 42.1997C56.8004 42.5997 56.9004 42.9997 56.9004 42.9997L63.1004 44.5997C63.1004 44.5997 63.2004 44.3997 63.3004 44.1997L56.9004 42.1997Z" fill="url(#paint21_linear_2196_4385)"/>
<path d="M7.80001 38.7998C7.80001 38.7998 5.50001 39.1998 5.40001 41.1998C5.30001 43.0998 7.70001 46.9998 7.80001 44.5998C7.80001 42.0998 8.00001 39.4998 7.80001 38.7998Z" fill="url(#paint22_linear_2196_4385)"/>
<path d="M5.1 40.8997C5.1 40.8997 0.7 42.2997 0.2 42.9997C-0.1 43.3997 0 43.8997 0.1 44.1997L6.4 42.1997C6.2 41.4997 6 40.5997 5.1 40.8997Z" fill="url(#paint23_linear_2196_4385)"/>
<path d="M0.100098 44.1996C0.200098 44.3996 0.200098 44.4996 0.200098 44.4996L6.4001 42.8996C6.4001 42.8996 6.4001 42.5996 6.4001 42.0996L0.100098 44.1996Z" fill="url(#paint24_linear_2196_4385)"/>
<path d="M5.1 64.2998C4.8 64.2998 4.5 64.5998 4.5 64.8998V69.8998C4.5 70.1998 4.8 70.4998 5.1 70.4998V64.2998Z" fill="#595959"/>
<path d="M4.8998 89.0996C4.5998 89.0996 4.2998 89.3996 4.2998 89.6996V94.6996C4.2998 94.9996 4.5998 95.2996 4.8998 95.2996V89.0996Z" fill="#595959"/>
<path d="M58.1001 64.2998C58.4001 64.2998 58.7001 64.5998 58.7001 64.8998V69.8998C58.7001 70.1998 58.4001 70.4998 58.1001 70.4998V64.2998Z" fill="#595959"/>
<path d="M58.3999 89.0996C58.6999 89.0996 58.9999 89.3996 58.9999 89.6996V94.6996C58.9999 94.9996 58.6999 95.2996 58.3999 95.2996V89.0996Z" fill="#595959"/>
<path d="M19.0999 28.9996C19.9999 28.8996 20.4999 28.3996 21.3999 28.2996C21.4999 28.2996 21.4999 28.1996 21.4999 28.1996C21.4999 28.0996 21.3999 28.0996 21.3999 28.0996C20.4999 28.1996 19.9999 28.6996 19.0999 28.7996C18.9999 28.7996 18.9999 28.8996 18.9999 28.8996C18.8999 28.9996 18.9999 29.0996 19.0999 28.9996Z" fill="#9E9E9E"/>
<path d="M21.4 28.5996C20.5 28.6996 20 29.1996 19.1 29.2996C19 29.2996 19 29.3996 19 29.3996C19 29.4996 19.1 29.4996 19.1 29.4996C20 29.3996 20.5 28.8996 21.4 28.7996C21.5 28.7996 21.5 28.6996 21.5 28.6996C21.5 28.6996 21.5 28.5996 21.4 28.5996Z" fill="#9E9E9E"/>
<path d="M21.4 29.1997C20.5 29.2997 20 29.7997 19.1 29.8997C19 29.8997 19 29.9997 19 29.9997C19 30.0997 19.1 30.0997 19.1 30.0997C20 29.9997 20.5 29.4997 21.4 29.3997C21.5 29.3997 21.5 29.2997 21.5 29.2997C21.5 29.2997 21.5 29.1997 21.4 29.1997Z" fill="#9E9E9E"/>
<path d="M44.1998 28.9996C43.2998 28.8996 42.7998 28.3996 41.8998 28.2996C41.7998 28.2996 41.7998 28.1996 41.7998 28.1996C41.7998 28.0996 41.8998 28.0996 41.8998 28.0996C42.7998 28.1996 43.2998 28.6996 44.1998 28.7996C44.2998 28.7996 44.2998 28.8996 44.2998 28.8996C44.2998 28.9996 44.2998 29.0996 44.1998 28.9996Z" fill="#9E9E9E"/>
<path d="M41.8997 28.5996C42.7997 28.6996 43.2997 29.1996 44.1997 29.2996C44.2997 29.2996 44.2997 29.3996 44.2997 29.3996C44.2997 29.4996 44.1997 29.4996 44.1997 29.4996C43.2997 29.3996 42.7997 28.8996 41.8997 28.7996C41.7997 28.7996 41.7997 28.6996 41.7997 28.6996C41.6997 28.6996 41.7997 28.5996 41.8997 28.5996Z" fill="#9E9E9E"/>
<path d="M41.8998 29.1997C42.7998 29.2997 43.2998 29.7997 44.1998 29.8997C44.2998 29.8997 44.2998 29.9997 44.2998 29.9997C44.2998 30.0997 44.1998 30.0997 44.1998 30.0997C43.2998 29.9997 42.7998 29.4997 41.8998 29.3997C41.7998 29.3997 41.7998 29.2997 41.7998 29.2997C41.7998 29.2997 41.7998 29.1997 41.8998 29.1997Z" fill="#9E9E9E"/>
<path d="M39.1 127.8H24.1C23.7 127.8 23.3 128 23 128.4C27.7 128.8 31.6 128.8 31.6 128.8C31.6 128.8 35.5 128.9 40.2 128.4C40 128 39.6 127.8 39.1 127.8Z" fill="url(#paint25_linear_2196_4385)"/>
<path d="M48.8001 102.5C45.8001 103.4 40.2001 104.5 31.6001 104.5C29.9001 104.5 28.2001 104.4 26.7001 104.3C21.8001 106.6 18.8001 113.8 18.1001 115.6C19.4001 116 21.0001 116.5 22.8001 116.8C26.7001 117.6 36.6001 117.6 40.5001 116.8C45.6001 115.8 49.1001 114 49.1001 114C49.1001 114 49.6001 108.6 48.8001 102.5Z" fill="url(#paint26_linear_2196_4385)"/>
<path d="M24.4997 6.59961C24.4997 6.59961 24.3997 14.7996 22.1997 18.4996C19.8997 22.0996 17.1997 29.6996 17.1997 29.6996C17.1997 29.6996 18.2997 21.3996 20.8997 18.4996C23.2997 15.4996 24.4997 7.09961 24.4997 6.59961Z" fill="#D1D1D1"/>
<path d="M20.7999 6.09961C20.7999 6.09961 20.4999 14.7996 17.9999 18.4996C15.4999 22.2996 12.3999 30.0996 12.3999 30.0996C12.3999 30.0996 13.8999 21.3996 16.5999 18.3996C19.2999 15.4996 20.7999 6.59961 20.7999 6.09961Z" fill="#D1D1D1"/>
<path d="M38.8999 6.59961C38.8999 6.59961 38.9999 14.7996 41.1999 18.4996C43.4999 22.0996 46.1999 29.6996 46.1999 29.6996C46.1999 29.6996 45.0999 21.3996 42.4999 18.4996C39.8999 15.5996 38.8999 7.09961 38.8999 6.59961Z" fill="#D1D1D1"/>
<path d="M42.6001 6.09961C42.6001 6.09961 42.9001 14.7996 45.4001 18.4996C47.9001 22.2996 51.0001 30.0996 51.0001 30.0996C51.0001 30.0996 49.5001 21.3996 46.8001 18.3996C44.1001 15.4996 42.6001 6.59961 42.6001 6.09961Z" fill="#D1D1D1"/>
</g>
<defs>
<radialGradient id="paint0_radial_2196_4385" cx="0" cy="0" r="1" gradientUnits="userSpaceOnUse" gradientTransform="translate(31.641 65.106) scale(48.977 48.977)">
<stop stop-color="#1481DA"/>
<stop offset="1" stop-color="#0695CA"/>
</radialGradient>
<linearGradient id="paint1_linear_2196_4385" x1="18.3057" y1="4.0417" x2="44.9766" y2="4.0417" gradientUnits="userSpaceOnUse">
<stop stop-color="#525956"/>
<stop offset="1" stop-color="#2C2E2E"/>
</linearGradient>
<radialGradient id="paint2_radial_2196_4385" cx="0" cy="0" r="1" gradientUnits="userSpaceOnUse" gradientTransform="translate(31.6409 63.8461) scale(27.8564 110.791)">
<stop stop-color="white"/>
<stop offset="1" stop-color="#D2D6D5"/>
</radialGradient>
<linearGradient id="paint3_linear_2196_4385" x1="12.1136" y1="54.8176" x2="51.1673" y2="54.8176" gradientUnits="userSpaceOnUse">
<stop/>
<stop offset="1" stop-color="#1B1C1C"/>
</linearGradient>
<linearGradient id="paint4_linear_2196_4385" x1="9.0293" y1="34.5279" x2="54.2521" y2="34.5279" gradientUnits="userSpaceOnUse">
<stop/>
<stop offset="1" stop-color="#1B1C1C"/>
</linearGradient>
<linearGradient id="paint5_linear_2196_4385" x1="9.226" y1="44.1349" x2="54.0561" y2="44.1349" gradientUnits="userSpaceOnUse">
<stop stop-color="#363B39"/>
<stop offset="1" stop-color="#1B1C1C"/>
</linearGradient>
<linearGradient id="paint6_linear_2196_4385" x1="12.6719" y1="109.603" x2="50.6098" y2="109.603" gradientUnits="userSpaceOnUse">
<stop/>
<stop offset="1" stop-color="#1B1C1C"/>
</linearGradient>
<linearGradient id="paint7_linear_2196_4385" x1="13.9996" y1="109.917" x2="49.2829" y2="109.917" gradientUnits="userSpaceOnUse">
<stop stop-color="#363B39"/>
<stop offset="1" stop-color="#1B1C1C"/>
</linearGradient>
<linearGradient id="paint8_linear_2196_4385" x1="7.49533" y1="56.9124" x2="11.9144" y2="56.9124" gradientUnits="userSpaceOnUse">
<stop stop-color="#363B39"/>
<stop offset="1" stop-color="#1B1C1C"/>
</linearGradient>
<linearGradient id="paint9_linear_2196_4385" x1="51.3673" y1="56.9124" x2="55.7869" y2="56.9124" gradientUnits="userSpaceOnUse">
<stop stop-color="#363B39"/>
<stop offset="1" stop-color="#1B1C1C"/>
</linearGradient>
<linearGradient id="paint10_linear_2196_4385" x1="7.80944" y1="89.3786" x2="12.3791" y2="89.3786" gradientUnits="userSpaceOnUse">
<stop stop-color="#363B39"/>
<stop offset="1" stop-color="#1B1C1C"/>
</linearGradient>
<linearGradient id="paint11_linear_2196_4385" x1="50.9025" y1="89.3786" x2="55.4717" y2="89.3786" gradientUnits="userSpaceOnUse">
<stop stop-color="#363B39"/>
<stop offset="1" stop-color="#1B1C1C"/>
</linearGradient>
<radialGradient id="paint12_radial_2196_4385" cx="0" cy="0" r="1" gradientUnits="userSpaceOnUse" gradientTransform="translate(12.3948 5.97286) scale(4.30064 4.66645)">
<stop stop-color="white"/>
<stop offset="1" stop-color="#D2D6D5"/>
</radialGradient>
<radialGradient id="paint13_radial_2196_4385" cx="0" cy="0" r="1" gradientUnits="userSpaceOnUse" gradientTransform="translate(50.8869 5.97286) scale(4.30006 4.66583)">
<stop stop-color="white"/>
<stop offset="1" stop-color="#D2D6D5"/>
</radialGradient>
<linearGradient id="paint14_linear_2196_4385" x1="31.4402" y1="39.6044" x2="44.1667" y2="48.6537" gradientUnits="userSpaceOnUse">
<stop stop-color="#363B39"/>
<stop offset="1"/>
</linearGradient>
<linearGradient id="paint15_linear_2196_4385" x1="18.7867" y1="55.4388" x2="68.654" y2="137.29" gradientUnits="userSpaceOnUse">
<stop stop-color="#F7F7F7"/>
<stop offset="1" stop-color="#DBDBDB"/>
</linearGradient>
<linearGradient id="paint16_linear_2196_4385" x1="25.0771" y1="109.289" x2="48.3936" y2="147.56" gradientUnits="userSpaceOnUse">
<stop stop-color="#F7F7F7"/>
<stop offset="1" stop-color="#DBDBDB"/>
</linearGradient>
<linearGradient id="paint17_linear_2196_4385" x1="1.92629" y1="-6.4952" x2="14.3882" y2="29.3894" gradientUnits="userSpaceOnUse">
<stop stop-color="#F7F7F7"/>
<stop offset="1" stop-color="#DBDBDB"/>
</linearGradient>
<linearGradient id="paint18_linear_2196_4385" x1="61.4042" y1="-6.4963" x2="48.9418" y2="29.3898" gradientUnits="userSpaceOnUse">
<stop stop-color="#F7F7F7"/>
<stop offset="1" stop-color="#DBDBDB"/>
</linearGradient>
<linearGradient id="paint19_linear_2196_4385" x1="54.9383" y1="39.7238" x2="59.9272" y2="49.3832" gradientUnits="userSpaceOnUse">
<stop stop-color="#363B39"/>
<stop offset="1" stop-color="#1B1C1C"/>
</linearGradient>
<linearGradient id="paint20_linear_2196_4385" x1="56.8849" y1="42.6195" x2="63.263" y2="42.6195" gradientUnits="userSpaceOnUse">
<stop stop-color="white"/>
<stop offset="1" stop-color="#D2D6D5"/>
</linearGradient>
<linearGradient id="paint21_linear_2196_4385" x1="56.8857" y1="43.455" x2="63.2637" y2="43.455" gradientUnits="userSpaceOnUse">
<stop stop-color="#363B39"/>
<stop offset="1" stop-color="#1B1C1C"/>
</linearGradient>
<linearGradient id="paint22_linear_2196_4385" x1="6.62101" y1="40.5625" x2="10.9722" y2="50.1139" gradientUnits="userSpaceOnUse">
<stop stop-color="#363B39"/>
<stop offset="1" stop-color="#1B1C1C"/>
</linearGradient>
<linearGradient id="paint23_linear_2196_4385" x1="0" y1="42.5307" x2="6.378" y2="42.5307" gradientUnits="userSpaceOnUse">
<stop stop-color="#D2D6D5"/>
<stop offset="1" stop-color="white"/>
</linearGradient>
<linearGradient id="paint24_linear_2196_4385" x1="-0.000927018" y1="43.3597" x2="6.3772" y2="43.3597" gradientUnits="userSpaceOnUse">
<stop stop-color="#363B39"/>
<stop offset="1" stop-color="#1B1C1C"/>
</linearGradient>
<linearGradient id="paint25_linear_2196_4385" x1="23.0569" y1="128.277" x2="40.2063" y2="128.277" gradientUnits="userSpaceOnUse">
<stop stop-color="#363B39"/>
<stop offset="1" stop-color="#1B1C1C"/>
</linearGradient>
<linearGradient id="paint26_linear_2196_4385" x1="22.8918" y1="92.8239" x2="32.3168" y2="107.277" gradientUnits="userSpaceOnUse">
<stop stop-color="#363B39"/>
<stop offset="1"/>
</linearGradient>
<clipPath id="clip0_2196_4385">
<rect width="63.3" height="128.7" fill="white"/>
</clipPath>
</defs>
</svg>
