<svg width="60" height="60" viewBox="0 0 60 60" fill="none" xmlns="http://www.w3.org/2000/svg">
<path d="M20.25 21H33L32.0331 15H21.2169L20.25 21Z" fill="#1481DA"/>
<path d="M55.3033 41.2382C55.3033 41.2382 52.5044 37.7638 49.8775 37.9593C47.2507 38.1499 44.5143 40.7593 44.5143 40.7593L17.4912 40.4857C17.4912 40.4857 15.4389 37.3094 12.0733 37.1921C8.70759 37.0699 6.92507 40.4173 6.92507 40.4173L3.80957 35.7505L6.1159 30.7026L55.4205 32.8674L56.3822 39.4741L55.3033 41.2382Z" fill="black"/>
<path d="M47.2471 44.7571C46.1448 43.8433 45.363 42.3773 45.1597 40.6718C45.1245 40.3786 45.105 40.0806 45.105 39.7776C45.105 38.7612 45.3082 37.8083 45.664 36.9727C45.6562 36.9873 45.6522 37.002 45.6444 37.0166C45.7578 37.6861 45.965 38.3116 46.2425 38.8784C46.1956 39.1716 46.1721 39.4697 46.1721 39.7776C46.1721 42.3333 47.8335 44.4101 49.8779 44.4101C51.8324 44.4101 53.4351 42.5141 53.5719 40.1148C53.9628 39.6554 54.2951 39.1179 54.5453 38.5168C54.5336 38.4386 54.5179 38.3653 54.5023 38.2872C54.6 38.766 54.6508 39.2645 54.6508 39.7776C54.6508 40.0903 54.6313 40.3982 54.5922 40.7012C54.3655 42.5288 53.4742 44.0827 52.2351 44.9672C51.5392 45.4656 50.734 45.749 49.874 45.749C48.9046 45.7442 48.0016 45.3777 47.2471 44.7571Z" fill="#17191C"/>
<path d="M49.8775 33.8062C52.1018 33.8062 53.9703 35.7119 54.5019 38.2872C54.5175 38.3654 54.5332 38.4387 54.5449 38.5169C54.2947 39.1179 53.9625 39.6554 53.5716 40.1148C53.5794 40.0024 53.5833 39.89 53.5833 39.7776C53.5833 37.2219 51.922 35.1451 49.8775 35.1451C48.0794 35.1451 46.5783 36.7528 46.2421 38.8785C45.9646 38.3116 45.7613 37.6861 45.644 37.0167C45.6519 37.002 45.6558 36.9873 45.6636 36.9727C46.4688 35.0865 48.052 33.8062 49.8775 33.8062Z" fill="#282F39"/>
<path d="M46.2505 39.7726C46.2505 42.2745 47.8806 44.3123 49.882 44.3123C51.8834 44.3123 53.5135 42.2745 53.5135 39.7726C53.5135 37.2706 51.8834 35.2329 49.882 35.2329C47.8766 35.2378 46.2505 37.2706 46.2505 39.7726ZM48.9595 36.0539L49.409 38.0574C49.194 38.1502 49.0024 38.2968 48.8461 38.4972L47.6851 37.0116C48.0408 36.5718 48.4747 36.2396 48.9595 36.0539ZM49.8781 39.1422C50.1556 39.1422 50.3823 39.4256 50.3823 39.7726C50.3823 40.1195 50.1556 40.403 49.8781 40.403C49.6005 40.403 49.3738 40.1195 49.3738 39.7726C49.3738 39.4256 49.6005 39.1422 49.8781 39.1422ZM50.6012 35.9855L50.1908 37.9987C50.0892 37.9694 49.9875 37.9548 49.8781 37.9548C49.7413 37.9548 49.6084 37.9792 49.4833 38.0232L49.0337 36.0245C49.3034 35.9317 49.5849 35.8779 49.882 35.8779C50.1283 35.8828 50.3706 35.917 50.6012 35.9855ZM52.0984 37.0459L50.9101 38.4972C50.7342 38.2773 50.5113 38.1111 50.2651 38.0281L50.6755 36.0148C51.2228 36.1907 51.7114 36.5523 52.0984 37.0459ZM52.8998 38.8295L51.2892 39.3426C51.2306 39.0494 51.1172 38.7806 50.9609 38.5656L52.1492 37.1143C52.5089 37.5883 52.7708 38.1795 52.8998 38.8295ZM52.8685 40.8623L51.2697 40.3003C51.3088 40.1342 51.3322 39.9583 51.3322 39.7775C51.3322 39.6602 51.3244 39.5478 51.3049 39.4403L52.9154 38.9272C52.9662 39.2009 52.9897 39.4843 52.9897 39.7775C52.9936 40.1537 52.9506 40.5154 52.8685 40.8623ZM52.0359 42.5824L50.8749 41.0969C51.0391 40.9014 51.1641 40.662 51.2423 40.3932L52.845 40.9552C52.6887 41.5806 52.4072 42.1377 52.0359 42.5824ZM50.7185 43.5255L50.269 41.5269C50.4762 41.4536 50.6638 41.3314 50.8201 41.1604L51.9811 42.6508C51.6254 43.0515 51.1954 43.3545 50.7185 43.5255ZM49.1354 43.5548L49.5458 41.5416C49.6513 41.5709 49.7647 41.5904 49.8781 41.5904C49.9875 41.5904 50.0931 41.5758 50.1947 41.5464L50.6442 43.55C50.398 43.6281 50.1439 43.6672 49.8781 43.6672C49.624 43.6672 49.3738 43.6281 49.1354 43.5548ZM47.6929 42.5482L48.8813 41.0969C49.0454 41.2923 49.2487 41.4389 49.4715 41.5171L49.0611 43.5304C48.5412 43.3545 48.0721 43.0124 47.6929 42.5482ZM46.8838 40.8428L48.4943 40.3297C48.5607 40.5935 48.678 40.833 48.8305 41.0285L47.6421 42.4798C47.2903 42.0253 47.0284 41.4682 46.8838 40.8428ZM46.8564 38.8441L48.4552 39.4061C48.4356 39.5234 48.4239 39.6455 48.4239 39.7726C48.4239 39.9338 48.4435 40.0902 48.4747 40.2368L46.8642 40.7499C46.7978 40.4372 46.7665 40.1098 46.7665 39.7726C46.7665 39.455 46.7978 39.1422 46.8564 38.8441ZM46.872 38.7513C47.0088 38.1111 47.2747 37.5394 47.6343 37.0752L48.7953 38.5656C48.6428 38.7757 48.5334 39.0347 48.4708 39.3181L46.872 38.7513Z" fill="#989B9E"/>
<path d="M46.2422 38.8735C46.1953 39.1667 46.1719 39.4648 46.1719 39.7727C46.1719 42.3284 47.8332 44.4052 49.8776 44.4052C51.8322 44.4052 53.4349 42.5092 53.5717 40.1098C53.5795 39.9974 53.5834 39.8851 53.5834 39.7727C53.5834 37.217 51.9221 35.1401 49.8776 35.1401C48.0834 35.1401 46.5784 36.7478 46.2422 38.8735ZM46.2501 39.7727C46.2501 37.2707 47.8801 35.233 49.8815 35.233C51.883 35.233 53.513 37.2707 53.513 39.7727C53.513 42.2746 51.883 44.3123 49.8815 44.3123C47.8762 44.3123 46.2501 42.2746 46.2501 39.7727Z" fill="#545759"/>
<path d="M50.8197 41.1558L51.9807 42.6462C51.625 43.0518 51.195 43.3547 50.7181 43.5258L50.2686 41.5271C50.4757 41.4538 50.6595 41.3268 50.8197 41.1558Z" fill="black"/>
<path d="M51.2459 40.3882L52.8486 40.9501C52.6883 41.5756 52.4068 42.1327 52.0394 42.5774L50.8784 41.0919C51.0387 40.9013 51.1677 40.6569 51.2459 40.3882Z" fill="black"/>
<path d="M49.8775 41.5904C49.9869 41.5904 50.0925 41.5757 50.1941 41.5464L50.6437 43.5499C50.3974 43.6281 50.1433 43.6672 49.8775 43.6672C49.6234 43.6672 49.3732 43.6281 49.1348 43.5548L49.5452 41.5415C49.6547 41.5708 49.7641 41.5904 49.8775 41.5904Z" fill="black"/>
<path d="M51.3321 39.7726C51.3321 39.6554 51.3243 39.543 51.3047 39.4355L52.9152 38.9224C52.9661 39.196 52.9895 39.4794 52.9895 39.7726C52.9895 40.1489 52.9465 40.5154 52.8644 40.8575L51.2656 40.2955C51.3086 40.1342 51.3321 39.9583 51.3321 39.7726Z" fill="black"/>
<path d="M48.83 41.0284L47.6416 42.4797C47.2898 42.0253 47.0279 41.4682 46.8833 40.8427L48.4938 40.3296C48.5642 40.5984 48.6775 40.8329 48.83 41.0284Z" fill="black"/>
<path d="M49.8776 37.9596C49.7407 37.9596 49.6078 37.9841 49.4827 38.028L49.0332 36.0294C49.3029 35.9366 49.5844 35.8828 49.8815 35.8828C50.1316 35.8828 50.3701 35.9219 50.6046 35.9903L50.1942 38.0036C50.0886 37.9743 49.987 37.9596 49.8776 37.9596Z" fill="black"/>
<path d="M50.9604 38.5656L52.1488 37.1143C52.5045 37.5883 52.7664 38.1795 52.8993 38.8295L51.2888 39.3426C51.2302 39.0494 51.1168 38.7855 50.9604 38.5656Z" fill="black"/>
<path d="M50.2646 38.0231L50.6751 36.0098C51.2224 36.1906 51.7149 36.5522 52.098 37.0457L50.9096 38.4971C50.7337 38.2723 50.5109 38.111 50.2646 38.0231Z" fill="black"/>
<path d="M48.4235 39.7727C48.4235 39.934 48.4431 40.0903 48.4744 40.2369L46.8638 40.75C46.7974 40.4373 46.7661 40.1099 46.7661 39.7727C46.7661 39.4502 46.7974 39.1423 46.856 38.8442L48.4548 39.4062C48.4353 39.5284 48.4235 39.6505 48.4235 39.7727Z" fill="black"/>
<path d="M49.4749 41.5174L49.0645 43.5307C48.5406 43.3548 48.0716 43.0078 47.6963 42.5485L48.8846 41.0972C49.0488 41.2926 49.2482 41.4392 49.4749 41.5174Z" fill="black"/>
<path d="M48.8456 38.4921L47.6846 37.0066C48.0364 36.5717 48.4703 36.2394 48.955 36.0537L49.4045 38.0572C49.1935 38.1452 49.0019 38.2967 48.8456 38.4921Z" fill="black"/>
<path d="M48.7948 38.5656C48.6424 38.7757 48.5329 39.0347 48.4704 39.3182L46.8716 38.7513C47.0084 38.1112 47.2742 37.5394 47.6338 37.0752L48.7948 38.5656Z" fill="black"/>
<path d="M49.8777 39.2397C50.1162 39.2397 50.3077 39.4792 50.3077 39.7773C50.3077 40.0754 50.1162 40.3148 49.8777 40.3148C49.6393 40.3148 49.4478 40.0754 49.4478 39.7773C49.4478 39.4792 49.6432 39.2397 49.8777 39.2397Z" fill="#989B9E"/>
<path d="M49.3735 39.7725C49.3735 40.1194 49.6003 40.4028 49.8778 40.4028C50.1553 40.4028 50.3821 40.1194 50.3821 39.7725C50.3821 39.4255 50.1553 39.1421 49.8778 39.1421C49.6003 39.1421 49.3735 39.4255 49.3735 39.7725ZM49.4478 39.7725C49.4478 39.4744 49.6394 39.2349 49.8778 39.2349C50.1163 39.2349 50.3078 39.4744 50.3078 39.7725C50.3078 40.0705 50.1163 40.31 49.8778 40.31C49.6433 40.31 49.4478 40.0705 49.4478 39.7725Z" fill="#545759"/>
<path d="M9.47369 44.7571C8.37135 43.8433 7.58954 42.3773 7.38627 40.6718C7.35109 40.3786 7.33154 40.0806 7.33154 39.7776C7.33154 38.7612 7.53481 37.8083 7.89053 36.9727C7.88272 36.9873 7.87881 37.002 7.87099 37.0166C7.98435 37.6861 8.19153 38.3116 8.46907 38.8784C8.42216 39.1716 8.39871 39.4697 8.39871 39.7776C8.39871 42.3333 10.06 44.4101 12.1045 44.4101C14.059 44.4101 15.6617 42.5141 15.7985 40.1148C16.1894 39.6554 16.5217 39.1179 16.7719 38.5168C16.7601 38.4386 16.7445 38.3653 16.7289 38.2872C16.8266 38.766 16.8774 39.2645 16.8774 39.7776C16.8774 40.0903 16.8579 40.3982 16.8188 40.7012C16.592 42.5288 15.7008 44.0827 14.4616 44.9672C13.7658 45.4656 12.9606 45.749 12.1006 45.749C11.135 45.7442 10.2281 45.3777 9.47369 44.7571Z" fill="#17191C"/>
<path d="M12.1085 33.8062C14.3327 33.8062 16.2012 35.7119 16.7329 38.2872C16.7485 38.3654 16.7641 38.4387 16.7759 38.5169C16.5257 39.1179 16.1934 39.6554 15.8025 40.1148C15.8103 40.0024 15.8142 39.89 15.8142 39.7776C15.8142 37.2219 14.1529 35.1451 12.1085 35.1451C10.3103 35.1451 8.80926 36.7528 8.47308 38.8785C8.19554 38.3116 7.99227 37.6861 7.875 37.0167C7.88282 37.002 7.88673 36.9873 7.89455 36.9727C8.6959 35.0865 10.283 33.8062 12.1085 33.8062Z" fill="#282F39"/>
<path d="M8.47705 39.7726C8.47705 42.2745 10.1071 44.3123 12.1085 44.3123C14.11 44.3123 15.74 42.2745 15.74 39.7726C15.74 37.2706 14.11 35.2329 12.1085 35.2329C10.1071 35.2378 8.47705 37.2706 8.47705 39.7726ZM11.1899 36.0539L11.6395 38.0574C11.4245 38.1502 11.2329 38.2968 11.0766 38.4972L9.91558 37.0116C10.2674 36.5718 10.7013 36.2396 11.1899 36.0539ZM12.1085 39.1422C12.3861 39.1422 12.6128 39.4256 12.6128 39.7726C12.6128 40.1195 12.3861 40.403 12.1085 40.403C11.831 40.403 11.6043 40.1195 11.6043 39.7726C11.6043 39.4256 11.831 39.1422 12.1085 39.1422ZM12.8278 35.9855L12.4174 37.9987C12.3157 37.9694 12.2141 37.9548 12.1046 37.9548C11.9678 37.9548 11.8349 37.9792 11.7098 38.0232L11.2603 36.0294C11.53 35.9366 11.8115 35.8828 12.1085 35.8828C12.3548 35.8828 12.5972 35.917 12.8278 35.9855ZM14.3289 37.0459L13.1405 38.4972C12.9646 38.2773 12.7418 38.1111 12.4955 38.0281L12.906 36.0148C13.4532 36.1907 13.9419 36.5523 14.3289 37.0459ZM15.1302 38.8295L13.5197 39.3426C13.4611 39.0494 13.3477 38.7806 13.1913 38.5656L14.3797 37.1143C14.7354 37.5883 14.9973 38.1795 15.1302 38.8295ZM15.099 40.8623L13.5002 40.3003C13.5392 40.1342 13.5627 39.9583 13.5627 39.7775C13.5627 39.6602 13.5549 39.5478 13.5353 39.4403L15.1459 38.9272C15.1967 39.2009 15.2201 39.4843 15.2201 39.7775C15.2201 40.1537 15.1771 40.5154 15.099 40.8623ZM14.2663 42.5824L13.1053 41.0969C13.2695 40.9014 13.3946 40.662 13.4728 40.3932L15.0755 40.9552C14.9191 41.5806 14.6338 42.1377 14.2663 42.5824ZM12.949 43.5255L12.4994 41.5269C12.7066 41.4536 12.8943 41.3314 13.0506 41.1604L14.2116 42.6508C13.8559 43.0515 13.4259 43.3545 12.949 43.5255ZM11.3658 43.5548L11.7763 41.5416C11.8818 41.5709 11.9952 41.5904 12.1085 41.5904C12.218 41.5904 12.3235 41.5758 12.4252 41.5464L12.8747 43.55C12.6284 43.6281 12.3744 43.6672 12.1085 43.6672C11.8505 43.6672 11.6043 43.6281 11.3658 43.5548ZM9.92339 42.5482L11.1117 41.0969C11.2759 41.2923 11.4792 41.4389 11.702 41.5171L11.2916 43.5304C10.7677 43.3545 10.2987 43.0124 9.92339 42.5482ZM9.11422 40.8428L10.7247 40.3297C10.7912 40.5935 10.9085 40.833 11.0609 41.0285L9.87258 42.4798C9.52076 42.0253 9.25495 41.4682 9.11422 40.8428ZM9.08295 38.8441L10.6817 39.4061C10.6622 39.5234 10.6505 39.6455 10.6505 39.7726C10.6505 39.9338 10.67 40.0902 10.7013 40.2368L9.09468 40.7548C9.02822 40.4421 8.99695 40.1147 8.99695 39.7775C8.99304 39.455 9.02432 39.1422 9.08295 38.8441ZM9.1025 38.7513C9.23931 38.1111 9.50513 37.5394 9.86476 37.0752L11.0257 38.5656C10.8733 38.7757 10.7638 39.0347 10.7013 39.3181L9.1025 38.7513Z" fill="#989B9E"/>
<path d="M8.47319 38.8735C8.42629 39.1667 8.40283 39.4648 8.40283 39.7727C8.40283 42.3284 10.0642 44.4052 12.1086 44.4052C14.0631 44.4052 15.6658 42.5092 15.8026 40.1098C15.8105 39.9974 15.8144 39.8851 15.8144 39.7727C15.8144 37.217 14.153 35.1401 12.1086 35.1401C10.3104 35.1401 8.80937 36.7478 8.47319 38.8735ZM8.4771 39.7727C8.4771 37.2707 10.1072 35.233 12.1086 35.233C14.11 35.233 15.7401 37.2707 15.7401 39.7727C15.7401 42.2746 14.11 44.3123 12.1086 44.3123C10.1072 44.3123 8.4771 42.2746 8.4771 39.7727Z" fill="#545759"/>
<path d="M13.0502 41.1558L14.2112 42.6462C13.8555 43.0518 13.4255 43.3547 12.9486 43.5258L12.499 41.5271C12.7023 41.4538 12.8899 41.3268 13.0502 41.1558Z" fill="black"/>
<path d="M13.4729 40.3882L15.0756 40.9501C14.9154 41.5756 14.6339 42.1327 14.2665 42.5774L13.1055 41.0919C13.2696 40.9013 13.3947 40.6569 13.4729 40.3882Z" fill="black"/>
<path d="M12.1084 41.5904C12.2179 41.5904 12.3234 41.5757 12.4251 41.5464L12.8746 43.5499C12.6283 43.6281 12.3743 43.6672 12.1084 43.6672C11.8544 43.6672 11.6042 43.6281 11.3657 43.5548L11.7762 41.5415C11.8817 41.5708 11.9951 41.5904 12.1084 41.5904Z" fill="black"/>
<path d="M13.5625 39.7726C13.5625 39.6554 13.5547 39.543 13.5352 39.4355L15.1457 38.9224C15.1965 39.196 15.22 39.4794 15.22 39.7726C15.22 40.1489 15.177 40.5154 15.0949 40.8575L13.4961 40.2955C13.5391 40.1342 13.5625 39.9583 13.5625 39.7726Z" fill="black"/>
<path d="M11.061 41.0284L9.87261 42.4797C9.5208 42.0253 9.25889 41.4682 9.11426 40.8427L10.7248 40.3296C10.7912 40.5984 10.9085 40.8329 11.061 41.0284Z" fill="black"/>
<path d="M12.108 37.9596C11.9712 37.9596 11.8383 37.9841 11.7132 38.028L11.2598 36.0294C11.5295 35.9366 11.8109 35.8828 12.108 35.8828C12.3582 35.8828 12.5967 35.9219 12.8312 35.9903L12.4207 38.0036C12.3191 37.9743 12.2136 37.9596 12.108 37.9596Z" fill="black"/>
<path d="M13.1914 38.5656L14.3798 37.1143C14.7355 37.5883 14.9974 38.1795 15.1303 38.8295L13.5198 39.3426C13.4611 39.0494 13.3478 38.7855 13.1914 38.5656Z" fill="black"/>
<path d="M12.4917 38.0231L12.9021 36.0098C13.4494 36.1906 13.942 36.5522 14.325 37.0457L13.1367 38.4971C12.9647 38.2723 12.7419 38.111 12.4917 38.0231Z" fill="black"/>
<path d="M10.654 39.7727C10.654 39.934 10.6736 40.0903 10.7048 40.2369L9.09431 40.7549C9.02785 40.4422 8.99658 40.1148 8.99658 39.7776C8.99658 39.4551 9.02785 39.1472 9.08649 38.8491L10.6853 39.4111C10.6657 39.5284 10.654 39.6505 10.654 39.7727Z" fill="black"/>
<path d="M11.7019 41.5174L11.2915 43.5307C10.7677 43.3548 10.2986 43.0078 9.92334 42.5485L11.1117 41.0972C11.2798 41.2926 11.4791 41.4392 11.7019 41.5174Z" fill="black"/>
<path d="M11.0765 38.4921L9.91553 37.0066C10.2673 36.5717 10.7012 36.2394 11.186 36.0537L11.6355 38.0572C11.4244 38.1452 11.2329 38.2967 11.0765 38.4921Z" fill="black"/>
<path d="M11.0258 38.5656C10.8733 38.7757 10.7639 39.0347 10.7013 39.3182L9.10254 38.7513C9.23936 38.1112 9.50517 37.5394 9.8648 37.0752L11.0258 38.5656Z" fill="black"/>
<path d="M12.1087 39.2397C12.3472 39.2397 12.5387 39.4792 12.5387 39.7773C12.5387 40.0754 12.3472 40.3148 12.1087 40.3148C11.8703 40.3148 11.6787 40.0754 11.6787 39.7773C11.6787 39.4792 11.8703 39.2397 12.1087 39.2397Z" fill="#989B9E"/>
<path d="M11.604 39.7725C11.604 40.1194 11.8307 40.4028 12.1083 40.4028C12.3858 40.4028 12.6125 40.1194 12.6125 39.7725C12.6125 39.4255 12.3858 39.1421 12.1083 39.1421C11.8307 39.1421 11.604 39.4255 11.604 39.7725ZM11.6783 39.7725C11.6783 39.4744 11.8698 39.2349 12.1083 39.2349C12.3467 39.2349 12.5383 39.4744 12.5383 39.7725C12.5383 40.0705 12.3467 40.31 12.1083 40.31C11.8698 40.31 11.6783 40.0705 11.6783 39.7725Z" fill="#545759"/>
<path d="M44.5184 40.7594L17.4952 40.4858C17.4952 40.4858 17.5499 33.6738 12.2649 33.1949C6.98382 32.7062 6.92909 40.4125 6.92909 40.4125C6.92909 40.4125 1.20236 39.4498 0.596462 39.313C-0.0094383 39.1761 -0.0641647 37.456 0.0452882 36.0096C0.15865 34.5632 1.91771 28.5819 1.91771 28.5819C1.91771 28.5819 1.69881 27.1355 1.97244 26.6566C2.24607 26.1728 6.42874 26.036 6.42874 26.036C6.42874 26.036 14.1882 21.5647 18.9767 20.4652C23.7653 19.3657 33.1743 20.26 35.8716 21.5647C38.5688 22.8743 43.9633 26.6566 45.394 27.2039C46.8247 27.7561 54.8069 28.8556 56.5113 30.2287C58.2156 31.6068 59.4274 33.4637 59.7597 35.389C60.088 37.3143 59.9786 40.344 59.9786 40.344C59.9786 40.344 58.0514 41.3751 55.2995 41.2383C55.2995 41.2383 55.6865 33.4637 50.1825 33.0532C44.6239 32.6329 44.5184 40.7594 44.5184 40.7594Z" fill="#F7D035"/>
<path d="M44.5184 40.7594L17.4952 40.4858C17.4952 40.4858 17.5617 33.3073 12.2649 33.1949C6.64765 33.0679 6.92909 40.4125 6.92909 40.4125C6.92909 40.4125 1.20236 39.4498 0.596462 39.313C-0.0094383 39.1761 -0.0641647 37.456 0.0452882 36.0096C0.15865 34.5632 1.91771 28.5819 1.91771 28.5819C1.91771 28.5819 1.69881 27.1355 1.97244 26.6566C2.24607 26.1728 6.42874 26.036 6.42874 26.036C6.42874 26.036 14.1882 21.5647 18.9767 20.4652C23.7653 19.3657 33.1743 20.26 35.8716 21.5647C38.5688 22.8743 43.9633 26.6566 45.394 27.2039C46.8247 27.7561 54.8069 28.8556 56.5113 30.2287C58.2156 31.6068 59.4274 33.4637 59.7597 35.389C60.088 37.3143 59.9786 40.344 59.9786 40.344C59.9786 40.344 58.0514 41.3751 55.2995 41.2383C55.2995 41.2383 55.6865 33.4637 50.1825 33.0532C44.6239 32.6329 44.5184 40.7594 44.5184 40.7594Z" fill="#DDDDDD"/>
<path d="M55.8001 33.8106C55.8001 33.8106 55.6359 32.4326 54.8111 31.6068C53.9863 30.7809 54.3146 30.2287 55.3075 30.4389C56.2965 30.6441 57.7859 31.3331 58.6107 33.879C58.6068 33.879 57.3402 34.1527 55.8001 33.8106Z" fill="#E8F2F4"/>
<path d="M43.7446 28.0984C43.7446 28.0984 38.956 24.1061 34.3903 22.2491C29.8206 20.3922 20.0793 21.4233 17.988 21.9755C15.8966 22.5277 12.484 24.1061 12.3746 24.5898C12.2651 25.0736 14.1923 26.7204 14.9076 26.9305C15.623 27.1358 43.1973 28.5138 43.1973 28.5138C43.1973 28.5138 43.8032 28.4405 43.7446 28.0984Z" fill="black"/>
<path d="M51.9458 30.0236L1.91802 28.5821L1.84375 27.2773L50.2415 29.2662L51.9458 30.0236Z" fill="#E5E5E5"/>
<path d="M30.6493 30.3024C29.0544 30.1998 29.3827 32.0909 30.5945 32.0909C31.8063 32.0909 31.693 30.3708 30.6493 30.3024Z" fill="#B9B9B9"/>
<path d="M32.4626 31.1136C32.4626 31.4165 31.6378 31.4703 30.7582 31.4703C29.8787 31.4703 28.7764 31.4703 28.7764 31.1136C28.7764 30.7568 29.8787 30.7568 30.5941 30.7568C31.3094 30.7568 32.4626 30.8106 32.4626 31.1136Z" fill="#E8F2F4"/>
<path d="M17.2255 29.6814C15.6306 29.5593 15.9473 31.4602 17.1591 31.4699C18.3709 31.4797 18.2692 29.7596 17.2255 29.6814Z" fill="#B9B9B9"/>
<path d="M19.0353 30.6686C19.0314 30.9716 18.2066 31.0205 17.3271 31.0107C16.4476 31.0058 15.3452 30.996 15.3491 30.6393C15.353 30.2826 16.4515 30.2923 17.1668 30.2972C17.8822 30.307 19.0353 30.3656 19.0353 30.6686Z" fill="#E8F2F4"/>
<path d="M17.3232 38.7661L44.6239 39.4454C44.5223 40.2272 44.5145 40.755 44.5145 40.755L17.4913 40.4813C17.4952 40.4813 17.4991 39.7581 17.3232 38.7661Z" fill="#1481DA"/>
<path d="M6.92933 40.4127C6.92933 40.4127 1.2065 39.4501 0.6006 39.3132C0.143243 39.2106 -0.00139085 38.2186 0.00251819 37.1191C0.217515 37.4075 0.545874 37.7006 1.03841 37.8668C2.08603 38.2235 6.01461 38.7855 7.05441 38.9321C6.93323 39.8019 6.92933 40.4127 6.92933 40.4127Z" fill="#1481DA"/>
<path d="M59.9825 40.3442C59.9825 40.3442 58.0553 41.3753 55.3034 41.2385C55.3034 41.2385 55.3659 39.9679 55.0767 38.4238C55.7177 38.3407 56.4683 38.2136 57.2853 38.0035C59.705 37.3829 59.7636 35.3892 59.7636 35.3892C60.092 37.3194 59.9825 40.3442 59.9825 40.3442Z" fill="#1481DA"/>
<path d="M14.2583 26.6179L16.0643 22.5864C16.7288 22.3323 17.3894 22.1075 17.9523 21.9561L16.0213 27.0724C15.3802 27.0235 14.9893 26.9893 14.9111 26.9649C14.7469 26.916 14.5124 26.7889 14.2583 26.6179Z" fill="#ADA5B0"/>
<path d="M14.9073 27.048C14.8917 27.048 14.876 27.0431 14.8604 27.0334C14.8135 27.004 14.7979 26.9307 14.8213 26.8721L16.8267 22.2542C16.8501 22.1956 16.9087 22.176 16.9557 22.2054C17.0026 22.2347 17.0182 22.308 16.9947 22.3666L14.9894 26.9845C14.9738 27.0285 14.9425 27.048 14.9073 27.048Z" fill="#E5E5E5"/>
<path d="M40.4765 28.9141C40.5586 28.9141 40.6446 28.8652 40.6993 28.7773L41.6492 27.194C41.7391 27.0425 41.7157 26.8275 41.5945 26.7102C41.4733 26.5978 41.3013 26.6271 41.2075 26.7786L40.2576 28.3619C40.1677 28.5134 40.1912 28.7284 40.3123 28.8457C40.3632 28.8945 40.4218 28.9141 40.4765 28.9141Z" fill="#383D4A"/>
<path d="M39.4797 25.6696L39.5188 27.0867C39.5266 27.3604 39.6947 27.5754 39.9136 27.5998C40.5782 27.6634 41.8721 27.6389 41.8721 26.5199C41.8721 25.1761 40.5704 25.0832 39.8824 25.1272C39.6517 25.137 39.4719 25.3764 39.4797 25.6696Z" fill="#383D4A"/>
<path d="M38.6277 28.2793C35.8992 28.1425 32.2755 27.9519 28.6831 27.7613L27.9521 23.0066C27.9521 23.0066 31.4195 22.8014 33.8392 23.764C35.9578 24.6045 38.1195 27.5561 38.6277 28.2793Z" fill="#273033"/>
<path d="M19.9151 23.7639C21.2364 23.0064 25.6379 23.0748 25.6379 23.0748L25.5871 27.595C22.8782 27.4484 20.3529 27.3067 18.4336 27.1894C18.4766 26.7349 18.7307 24.4431 19.9151 23.7639Z" fill="#273033"/>
<path d="M28.007 21.1693C27.4715 21.1497 26.9281 21.1448 26.3926 21.1497L26.4864 27.6734L29.1015 27.8004L28.007 21.1693Z" fill="#ADA5B0"/>
<path d="M27.8423 27.8737C27.7954 27.8737 27.7524 27.8297 27.7485 27.7662L27.1231 21.2816C27.1153 21.2181 27.1543 21.1546 27.2052 21.1497C27.2599 21.1399 27.3068 21.1888 27.3107 21.2523L27.9361 27.7369C27.944 27.8004 27.9049 27.8639 27.8541 27.8688C27.8501 27.8737 27.8462 27.8737 27.8423 27.8737Z" fill="white"/>
<path d="M54.8073 31.6068C54.7447 31.5433 54.69 31.4847 54.6392 31.426C55.2333 31.343 55.8471 31.343 56.3318 31.7485C56.5898 31.9684 56.7891 32.2861 56.9455 32.6232C57.1409 33.0386 57.2856 33.5028 57.2895 33.9817C56.8556 33.9768 56.3474 33.9329 55.8001 33.8107C55.8001 33.8107 55.636 32.4327 54.8073 31.6068Z" fill="#FFFDD1"/>
<path d="M42.6144 40.7795C42.5675 40.7795 42.5284 40.7355 42.5206 40.6769C42.5128 40.6133 42.548 40.5498 42.5988 40.54C42.6183 40.5351 43.0718 40.4325 43.2712 39.8168C43.4783 39.1669 43.4588 30.9525 43.408 30.1657C43.3572 29.3839 42.9037 28.6753 42.8998 28.6704C42.8646 28.6167 42.8724 28.5434 42.9154 28.4994C42.9584 28.4554 43.0171 28.4652 43.0523 28.5189C43.0718 28.5482 43.5448 29.2959 43.6034 30.1462C43.6542 30.8889 43.6894 39.1669 43.4549 39.9048C43.2164 40.6475 42.6613 40.7697 42.6379 40.7746C42.6262 40.7795 42.6223 40.7795 42.6144 40.7795Z" fill="#1481DA"/>
<path d="M27.7329 40.5886C27.7212 40.5886 27.7094 40.5886 27.7016 40.5837C27.6508 40.5593 27.6273 40.4908 27.643 40.4322C27.6469 40.4224 27.8853 39.5868 27.9362 38.9222C27.9831 38.3554 28.1121 30.6883 28.0612 28.5382C28.0573 28.2889 27.8502 27.9518 27.7681 27.8394C27.7329 27.7905 27.7368 27.7123 27.7759 27.6683C27.815 27.6244 27.8775 27.6292 27.9127 27.6781C27.9244 27.6977 28.245 28.1472 28.2528 28.5284C28.3036 30.6834 28.1707 38.3749 28.1277 38.9418C28.073 39.6357 27.8345 40.4762 27.8228 40.5104C27.8072 40.5593 27.772 40.5886 27.7329 40.5886Z" fill="#1481DA"/>
<path d="M20.0557 40.4908C20.0283 40.4908 20.001 40.4762 19.9814 40.4468C19.9189 40.354 13.856 31.0596 13.856 30.0383C13.856 28.9388 14.7355 27.0282 14.7746 26.9451C14.8019 26.8864 14.8606 26.8669 14.9075 26.9011C14.9544 26.9353 14.97 27.0086 14.9427 27.0673C14.9349 27.0868 14.0514 29.0024 14.0514 30.0383C14.0514 30.7615 18.2263 37.3829 20.1339 40.2954C20.169 40.3491 20.1612 40.4224 20.1221 40.4664C20.0987 40.4811 20.0752 40.4908 20.0557 40.4908Z" fill="#1481DA"/>
<path d="M23.0661 18.74H22.5803V16.8515H21.75V16.5068H23.8964V16.8515H23.0661V18.74Z" fill="white"/>
<path d="M26.8198 18.74H26.2722L26.069 18.3092H24.806L24.6028 18.74H24.0552L25.1416 16.5068H25.7422L26.8198 18.74ZM25.9366 17.9645L25.4419 16.8946L24.9473 17.9645H25.9366Z" fill="white"/>
<path d="M29.753 18.7403H29.1789L28.4105 17.8643L27.642 18.7403H27.0679L28.1013 17.5915L27.1297 16.5H27.7038L28.4105 17.3186L29.1171 16.5H29.7L28.7373 17.5843L29.753 18.7403Z" fill="white"/>
<path d="M30.7505 18.74H30.2646V16.5068H30.7505V18.74Z" fill="white"/>
<path d="M3.42244 32.6821C3.6648 31.8318 3.17618 30.9327 2.453 30.8936L1.27248 30.835C1.04184 31.6657 0.783847 32.6186 0.564941 33.4933L2.37091 33.5764C2.84 33.6008 3.26608 33.2392 3.42244 32.6821Z" fill="#FF6F57"/>
</svg>
