<svg width="32" height="60" viewBox="0 0 32 60" fill="none" xmlns="http://www.w3.org/2000/svg">
<g clip-path="url(#clip0_2196_4385)">
<path d="M7.78505 58.9581C7.7345 59.1437 7.53228 59.2364 7.33007 59.19L6.9762 59.1437C6.77399 59.0973 6.62233 58.9581 6.67288 58.7726C6.72344 58.587 6.92565 58.4942 7.12786 58.5406L7.48173 58.587C7.68394 58.6334 7.8356 58.7726 7.78505 58.9581Z" fill="#F7941E"/>
<path d="M6.6728 58.6333C6.62225 58.8652 6.31893 59.0508 6.01561 58.958L5.51008 58.8652C5.20676 58.8188 5.00455 58.5869 5.05511 58.3086C5.10566 58.0766 5.40898 57.8911 5.71229 57.9839L6.21782 58.0766C6.52114 58.123 6.72335 58.355 6.6728 58.6333Z" fill="#ED1C24"/>
<path d="M24.3667 58.9581C24.4173 59.1437 24.6195 59.2364 24.8217 59.19L25.1756 59.1437C25.3778 59.0973 25.5294 58.9581 25.4789 58.7726C25.4283 58.587 25.2261 58.4942 25.0239 58.5406L24.67 58.587C24.4678 58.6334 24.3162 58.7726 24.3667 58.9581Z" fill="#F7941E"/>
<path d="M25.4789 58.6333C25.5295 58.8652 25.8328 59.0508 26.1361 58.958L26.6417 58.8652C26.945 58.8188 27.1472 58.5869 27.0966 58.3086C27.0461 58.0766 26.7428 57.8911 26.4394 57.9839L25.9339 58.0766C25.6306 58.123 25.4284 58.355 25.4789 58.6333Z" fill="#ED1C24"/>
<path d="M29.9779 9.60209C29.6746 6.95804 29.1691 5.61282 28.2591 4.49953C27.9053 4.5923 27.4503 4.49953 27.147 4.26759L23.861 1.99463C23.4566 1.7627 23.2544 1.3916 23.2039 1.02051C23.0522 0.927735 22.9005 0.881348 22.7489 0.834961V3.71095H9.25124V0.834961C9.09958 0.881348 8.94793 0.927735 8.79627 1.02051C8.74571 1.3916 8.5435 1.7627 8.18963 1.99463L4.90369 4.26759C4.54982 4.49953 4.1454 4.5923 3.74098 4.49953C2.83102 5.61282 2.32549 6.95804 2.02218 9.60209C1.16278 16.5601 2.62881 27.5075 2.57826 30.2443C2.37605 44.6242 2.27494 53.3914 3.286 56.4529C3.48821 57.0095 3.94319 57.5198 4.60038 57.8909C5.81365 58.5867 7.583 59.0506 9.4029 59.3289C10.1612 59.4217 10.9195 59.5144 11.6778 59.6072C11.7789 59.4681 11.9811 59.3289 12.2339 59.3289H19.8168C20.019 59.3289 20.2212 59.4217 20.3729 59.6072C20.929 59.5608 21.485 59.5144 22.0411 59.4217C23.9116 59.1897 25.782 58.7723 27.147 58.0764C27.9558 57.659 28.5625 57.1023 28.7647 56.4529C29.7757 53.4378 29.6241 44.6706 29.4724 30.2443C29.3713 27.5075 30.8373 16.5601 29.9779 9.60209Z" fill="url(#paint0_radial_2196_4385)"/>
<path d="M22.7486 3.75746V0.835087C18.9066 -0.324586 13.093 -0.324586 9.25098 0.835087V3.71108H22.7486V3.75746Z" fill="url(#paint1_linear_2196_4385)"/>
<path d="M29.1183 10.0196C28.6127 5.6592 27.5511 4.91701 24.9729 2.87599C21.4848 0.09277 10.5148 0.09277 7.02665 2.87599C4.44845 4.91701 3.38684 5.6592 2.88131 10.0196C2.07246 16.7457 3.43739 27.2755 3.38684 29.8732C3.23518 43.7429 3.08352 52.1389 4.04403 55.0613C5.15619 58.4475 16.0251 58.262 16.0251 58.262C16.0251 58.262 26.8939 58.4475 28.0061 55.0613C28.9666 52.1389 28.815 43.6965 28.6633 29.8732C28.5622 27.2755 29.9271 16.7457 29.1183 10.0196Z" fill="url(#paint2_radial_2196_4385)"/>
<path d="M10.6159 24.4926C8.34103 24.8173 6.72333 25.3739 6.1167 25.6522L6.31891 26.6264C6.31891 26.6264 8.08826 25.745 10.8687 25.3739C13.2952 25.0492 18.7044 25.0492 21.1309 25.3739C23.9113 25.745 25.6807 26.6264 25.6807 26.6264L25.8323 25.6522C25.2257 25.4203 23.608 24.8173 21.3331 24.4926C18.856 24.1678 13.1436 24.1678 10.6159 24.4926Z" fill="url(#paint3_linear_2196_4385)"/>
<path d="M5.40903 17.3026C6.31898 16.9315 7.83557 16.3285 10.2116 15.8182C13.6492 15.1224 18.2495 15.1224 21.6871 15.8182C24.1136 16.3285 25.6302 16.9315 26.5402 17.3026C26.9446 17.4418 27.1973 17.5809 27.2984 17.7201V17.6737C27.2984 17.6737 27.4501 16.9779 27.349 16.7924C27.2479 16.6532 26.9951 16.4677 26.5402 16.2821C25.6302 15.911 24.1136 15.308 21.6871 14.7977C18.2495 14.1019 13.6492 14.1019 10.2116 14.7977C7.78502 15.308 6.26843 15.911 5.40903 16.2821C4.95406 16.4677 4.70129 16.6068 4.60018 16.7924C4.49908 16.9779 4.65074 17.6737 4.65074 17.6737V17.7201C4.8024 17.5809 5.05516 17.4418 5.40903 17.3026Z" fill="url(#paint4_linear_2196_4385)"/>
<path d="M10.6161 24.4926C13.1438 24.1679 18.8057 24.1679 21.3333 24.4926C23.6082 24.8173 25.2259 25.374 25.8326 25.6523L27.2986 17.7201C27.1975 17.5809 26.9447 17.4418 26.5403 17.3026C25.6303 16.9315 24.1138 16.3285 21.6872 15.8182C18.2496 15.1224 13.6493 15.1224 10.2117 15.8182C7.78516 16.3285 6.26857 16.9315 5.40917 17.3026C5.00475 17.4418 4.80254 17.5809 4.65088 17.7201L6.11691 25.6523C6.72355 25.4203 8.34124 24.8173 10.6161 24.4926Z" fill="url(#paint5_linear_2196_4385)"/>
<path d="M25.1248 47.4077C25.0743 47.083 24.9732 46.7119 24.8721 46.3872C24.8721 46.3872 24.7204 46.4336 24.4676 46.5264C23.5071 46.8975 20.7773 47.7324 15.9747 47.7324C11.5766 47.7324 8.54346 46.8511 7.48185 46.48C7.22909 46.3872 7.07743 46.3408 7.07743 46.3408C6.97632 46.6655 6.87522 46.9902 6.82466 47.3149C6.11692 50.562 6.47079 53.67 6.47079 53.67C6.47079 53.67 8.3918 54.5049 11.1722 54.9688C13.2954 55.3399 18.654 55.3399 20.7773 54.9688C23.5577 54.5049 25.4787 53.67 25.4787 53.67C25.4787 53.67 25.8326 50.6548 25.1248 47.4077ZM24.8215 52.8814C24.8215 52.8814 23.0016 53.7163 20.474 54.1802C18.5024 54.5513 13.4976 54.5513 11.5261 54.1802C8.94788 53.7163 7.17853 52.8814 7.17853 52.8814C7.17853 52.8814 6.92577 50.3301 7.33019 47.4541C8.94788 47.8716 11.9811 48.4282 15.9747 48.4282C20.2717 48.4282 23.1533 47.8716 24.6698 47.5005C25.0743 50.3765 24.8215 52.8814 24.8215 52.8814Z" fill="url(#paint6_linear_2196_4385)"/>
<path d="M7.33029 47.5005C6.87531 50.3765 7.17863 52.9278 7.17863 52.9278C7.17863 52.9278 8.99854 53.7627 11.5262 54.2266C13.4977 54.5977 18.5025 54.5977 20.4741 54.2266C23.0522 53.7627 24.8216 52.9278 24.8216 52.9278C24.8216 52.9278 25.0744 50.4229 24.6699 47.5469C23.1534 47.9644 20.3224 48.4746 15.9748 48.4746C11.9812 48.4746 8.94798 47.8716 7.33029 47.5005Z" fill="url(#paint7_linear_2196_4385)"/>
<path d="M4.09458 34.7437L6.01559 35.3468L5.66172 27.1363L3.84182 17.4414C3.84182 17.4414 3.69016 19.9463 3.84182 23.5181C3.94292 25.7911 4.24624 28.899 4.24624 30.8936C4.24624 32.7955 4.14514 34.0479 4.09458 34.7437Z" fill="url(#paint8_linear_2196_4385)"/>
<path d="M27.9049 34.7437L25.9839 35.3468L26.2872 27.1363L28.1071 17.4414C28.1071 17.4414 28.2588 19.9463 28.1071 23.5181C28.006 25.7911 27.7027 28.899 27.7027 30.8936C27.7532 32.7955 27.8038 34.0943 27.9049 34.7437Z" fill="url(#paint9_linear_2196_4385)"/>
<path d="M4.04446 35.4863L6.01603 36.2749L6.26879 43.1402C6.26879 43.1402 6.11713 43.9751 5.35884 45.4131C4.49944 47.0367 4.04446 47.4542 4.04446 47.4542C4.04446 47.4542 3.84225 38.0376 4.04446 35.4863Z" fill="url(#paint10_linear_2196_4385)"/>
<path d="M27.9558 35.4863L25.9842 36.2749L25.7314 43.1402C25.7314 43.1402 25.8831 43.9751 26.6414 45.4131C27.5008 47.0367 27.9558 47.4542 27.9558 47.4542C27.9558 47.4542 28.158 38.0376 27.9558 35.4863Z" fill="url(#paint11_linear_2196_4385)"/>
<path d="M4.90367 4.26759L8.18961 1.99463C8.54348 1.7627 8.74569 1.3916 8.79624 1.02051C7.83574 1.34522 7.07744 1.71631 6.47081 2.18018C5.30809 3.06153 4.44869 3.71095 3.7915 4.49953C4.14537 4.5923 4.5498 4.49953 4.90367 4.26759Z" fill="url(#paint12_radial_2196_4385)"/>
<path d="M23.8102 1.99463L27.0962 4.26759C27.4501 4.49953 27.8545 4.5923 28.2084 4.49953C27.5512 3.71095 26.6918 3.06153 25.529 2.18018C24.9224 1.71631 24.1136 1.34522 23.2036 1.02051C23.2542 1.3916 23.4564 1.7627 23.8102 1.99463Z" fill="url(#paint13_radial_2196_4385)"/>
<path d="M26.591 17.3023C25.6811 16.9312 24.1645 16.3281 21.738 15.8179C20.8786 15.6323 19.9686 15.4932 19.0587 15.4004C16.6321 17.9053 13.7506 22.4048 12.5879 24.3067C15.4189 24.1675 19.4125 24.2139 21.3841 24.4922C23.659 24.8169 25.2767 25.3736 25.8833 25.6519L27.3493 17.7197C27.1977 17.5806 26.9449 17.4414 26.591 17.3023Z" fill="url(#paint14_linear_2196_4385)"/>
<path d="M15.9746 25.977C8.94777 25.8378 6.57178 27.0439 6.57178 27.0439C6.57178 27.0439 6.67288 43.2793 7.17841 44.8565C7.53228 45.9698 11.9809 46.4336 14.8119 46.6192H17.1373C19.9683 46.4336 24.3664 45.9234 24.7708 44.8565C25.3269 43.2329 25.3775 27.0439 25.3775 27.0439C25.3775 27.0439 23.052 25.8378 15.9746 25.977Z" fill="url(#paint15_linear_2196_4385)"/>
<path d="M17.2385 57.752C24.0631 57.5664 27.0963 55.7109 27.0963 55.7109L25.7314 54.1802C21.4849 56.4531 15.9747 55.9893 15.9747 55.9893C15.9747 55.9893 10.515 56.4531 6.21796 54.1802L4.85303 55.7109C4.85303 55.7109 7.8862 57.5664 14.7108 57.752C15.0647 57.752 15.9241 57.752 15.9241 57.752C16.4802 57.752 16.8846 57.752 17.2385 57.752Z" fill="url(#paint16_linear_2196_4385)"/>
<path d="M8.13925 2.50488C8.13925 2.50488 3.89281 4.54591 3.43783 9.04544C2.98286 13.6841 3.03341 16.0035 3.03341 16.0035C3.03341 16.0035 4.55 4.96339 8.13925 2.50488Z" fill="url(#paint17_linear_2196_4385)"/>
<path d="M23.8608 2.50488C23.8608 2.50488 28.1073 4.54591 28.5623 9.04544C29.0172 13.6841 28.9667 16.0035 28.9667 16.0035C28.9667 16.0035 27.5007 4.96339 23.8608 2.50488Z" fill="url(#paint18_linear_2196_4385)"/>
<path d="M28.0569 18.0444C28.0569 18.0444 29.1691 18.23 29.1691 19.1577C29.1691 20.0391 28.0569 21.8482 28.0569 20.7349C28.0064 19.5752 27.9558 18.4155 28.0569 18.0444Z" fill="url(#paint19_linear_2196_4385)"/>
<path d="M31.8989 20.0389C31.6462 19.7141 29.4218 19.0647 29.4218 19.0647C28.9669 18.9256 28.8152 19.2967 28.7646 19.6214L31.9495 20.5491C32 20.3636 32 20.178 31.8989 20.0389Z" fill="url(#paint20_linear_2196_4385)"/>
<path d="M28.7647 19.5752C28.7141 19.7607 28.7647 19.9463 28.7647 19.9463L31.8989 20.6885C31.8989 20.6885 31.9495 20.5957 32 20.5029L28.7647 19.5752Z" fill="url(#paint21_linear_2196_4385)"/>
<path d="M3.94332 17.998C3.94332 17.998 2.78061 18.1836 2.73005 19.1113C2.6795 19.9927 3.89277 21.8018 3.94332 20.6885C3.94332 19.5288 4.04443 18.3228 3.94332 17.998Z" fill="url(#paint22_linear_2196_4385)"/>
<path d="M2.5782 18.9723C2.5782 18.9723 0.35387 19.6218 0.101106 19.9465C-0.0505529 20.132 0 20.364 0.0505529 20.5031L3.23539 19.5754C3.13428 19.2507 3.03318 18.8332 2.5782 18.9723Z" fill="url(#paint23_linear_2196_4385)"/>
<path d="M0.0507812 20.5029C0.101334 20.5957 0.101334 20.6421 0.101334 20.6421L3.23562 19.8999C3.23562 19.8999 3.23562 19.7607 3.23562 19.5288L0.0507812 20.5029Z" fill="url(#paint24_linear_2196_4385)"/>
<path d="M2.57822 29.8271C2.42656 29.8271 2.2749 29.9663 2.2749 30.1055V32.4248C2.2749 32.564 2.42656 32.7031 2.57822 32.7031V29.8271Z" fill="#595959"/>
<path d="M2.47715 41.3311C2.32549 41.3311 2.17383 41.4702 2.17383 41.6094V43.9287C2.17383 44.0679 2.32549 44.207 2.47715 44.207V41.3311Z" fill="#595959"/>
<path d="M29.3711 29.8271C29.5228 29.8271 29.6744 29.9663 29.6744 30.1055V32.4248C29.6744 32.564 29.5228 32.7031 29.3711 32.7031V29.8271Z" fill="#595959"/>
<path d="M29.5229 41.3311C29.6746 41.3311 29.8263 41.4702 29.8263 41.6094V43.9287C29.8263 44.0679 29.6746 44.207 29.5229 44.207V41.3311Z" fill="#595959"/>
<path d="M9.65548 13.4522C10.1105 13.4058 10.3632 13.1738 10.8182 13.1274C10.8687 13.1274 10.8687 13.0811 10.8687 13.0811C10.8687 13.0347 10.8182 13.0347 10.8182 13.0347C10.3632 13.0811 10.1105 13.313 9.65548 13.3594C9.60492 13.3594 9.60492 13.4058 9.60492 13.4058C9.55437 13.4522 9.60492 13.4985 9.65548 13.4522Z" fill="#9E9E9E"/>
<path d="M10.8183 13.2666C10.3633 13.313 10.1105 13.5449 9.65553 13.5913C9.60498 13.5913 9.60498 13.6377 9.60498 13.6377C9.60498 13.6841 9.65553 13.6841 9.65553 13.6841C10.1105 13.6377 10.3633 13.4058 10.8183 13.3594C10.8688 13.3594 10.8688 13.313 10.8688 13.313C10.8688 13.313 10.8688 13.2666 10.8183 13.2666Z" fill="#9E9E9E"/>
<path d="M10.8183 13.5449C10.3633 13.5913 10.1105 13.8232 9.65553 13.8696C9.60498 13.8696 9.60498 13.916 9.60498 13.916C9.60498 13.9624 9.65553 13.9624 9.65553 13.9624C10.1105 13.916 10.3633 13.6841 10.8183 13.6377C10.8688 13.6377 10.8688 13.5913 10.8688 13.5913C10.8688 13.5913 10.8688 13.5449 10.8183 13.5449Z" fill="#9E9E9E"/>
<path d="M22.3441 13.4522C21.8892 13.4058 21.6364 13.1738 21.1814 13.1274C21.1309 13.1274 21.1309 13.0811 21.1309 13.0811C21.1309 13.0347 21.1814 13.0347 21.1814 13.0347C21.6364 13.0811 21.8892 13.313 22.3441 13.3594C22.3947 13.3594 22.3947 13.4058 22.3947 13.4058C22.3947 13.4522 22.3947 13.4985 22.3441 13.4522Z" fill="#9E9E9E"/>
<path d="M21.1814 13.2666C21.6363 13.313 21.8891 13.5449 22.3441 13.5913C22.3946 13.5913 22.3946 13.6377 22.3946 13.6377C22.3946 13.6841 22.3441 13.6841 22.3441 13.6841C21.8891 13.6377 21.6363 13.4058 21.1814 13.3594C21.1308 13.3594 21.1308 13.313 21.1308 13.313C21.0802 13.313 21.1308 13.2666 21.1814 13.2666Z" fill="#9E9E9E"/>
<path d="M21.1814 13.5449C21.6364 13.5913 21.8892 13.8232 22.3441 13.8696C22.3947 13.8696 22.3947 13.916 22.3947 13.916C22.3947 13.9624 22.3441 13.9624 22.3441 13.9624C21.8892 13.916 21.6364 13.6841 21.1814 13.6377C21.1309 13.6377 21.1309 13.5913 21.1309 13.5913C21.1309 13.5913 21.1309 13.5449 21.1814 13.5449Z" fill="#9E9E9E"/>
<path d="M19.766 59.2827H12.183C11.9808 59.2827 11.7786 59.3755 11.627 59.561C14.0029 59.7466 15.9745 59.7466 15.9745 59.7466C15.9745 59.7466 17.9461 59.793 20.3221 59.561C20.221 59.3755 20.0187 59.2827 19.766 59.2827Z" fill="url(#paint25_linear_2196_4385)"/>
<path d="M24.6696 47.5469C23.1531 47.9644 20.3221 48.4746 15.9745 48.4746C15.1151 48.4746 14.2557 48.4282 13.4975 48.3818C11.0204 49.4487 9.50377 52.7886 9.1499 53.6236C9.80709 53.8091 10.6159 54.041 11.5259 54.1802C13.4975 54.5513 18.5022 54.5513 20.4738 54.1802C23.052 53.7163 24.8213 52.8814 24.8213 52.8814C24.8213 52.8814 25.0741 50.3765 24.6696 47.5469Z" fill="url(#paint26_linear_2196_4385)"/>
<path d="M12.3857 3.06152C12.3857 3.06152 12.3351 6.86525 11.223 8.58157C10.0602 10.2515 8.69531 13.7769 8.69531 13.7769C8.69531 13.7769 9.25139 9.92679 10.5658 8.58157C11.779 7.18996 12.3857 3.29346 12.3857 3.06152Z" fill="#D1D1D1"/>
<path d="M10.515 2.82959C10.515 2.82959 10.3633 6.86525 9.09952 8.58157C7.8357 10.3443 6.26855 13.9625 6.26855 13.9625C6.26855 13.9625 7.02685 9.92679 8.39178 8.53518C9.75671 7.18996 10.515 3.06152 10.515 2.82959Z" fill="#D1D1D1"/>
<path d="M19.665 3.06152C19.665 3.06152 19.7156 6.86525 20.8278 8.58157C21.9905 10.2515 23.3554 13.7769 23.3554 13.7769C23.3554 13.7769 22.7993 9.92679 21.4849 8.58157C20.1706 7.23635 19.665 3.29346 19.665 3.06152Z" fill="#D1D1D1"/>
<path d="M21.5356 2.82959C21.5356 2.82959 21.6873 6.86525 22.9511 8.58157C24.215 10.3443 25.7821 13.9625 25.7821 13.9625C25.7821 13.9625 25.0238 9.92679 23.6589 8.53518C22.2939 7.18996 21.5356 3.06152 21.5356 2.82959Z" fill="#D1D1D1"/>
</g>
<defs>
<radialGradient id="paint0_radial_2196_4385" cx="0" cy="0" r="1" gradientUnits="userSpaceOnUse" gradientTransform="translate(15.9956 30.2008) scale(24.7593 22.7189)">
<stop stop-color="#1481DA"/>
<stop offset="1" stop-color="#0695CA"/>
</radialGradient>
<linearGradient id="paint1_linear_2196_4385" x1="9.25396" y1="1.87504" x2="22.7369" y2="1.87504" gradientUnits="userSpaceOnUse">
<stop stop-color="#525956"/>
<stop offset="1" stop-color="#2C2E2E"/>
</linearGradient>
<radialGradient id="paint2_radial_2196_4385" cx="0" cy="0" r="1" gradientUnits="userSpaceOnUse" gradientTransform="translate(15.9952 29.6164) scale(14.0822 51.3925)">
<stop stop-color="white"/>
<stop offset="1" stop-color="#D2D6D5"/>
</radialGradient>
<linearGradient id="paint3_linear_2196_4385" x1="6.12352" y1="25.4285" x2="25.8663" y2="25.4285" gradientUnits="userSpaceOnUse">
<stop/>
<stop offset="1" stop-color="#1B1C1C"/>
</linearGradient>
<linearGradient id="paint4_linear_2196_4385" x1="4.56444" y1="16.0168" x2="27.4259" y2="16.0168" gradientUnits="userSpaceOnUse">
<stop/>
<stop offset="1" stop-color="#1B1C1C"/>
</linearGradient>
<linearGradient id="paint5_linear_2196_4385" x1="4.66392" y1="20.4733" x2="27.3268" y2="20.4733" gradientUnits="userSpaceOnUse">
<stop stop-color="#363B39"/>
<stop offset="1" stop-color="#1B1C1C"/>
</linearGradient>
<linearGradient id="paint6_linear_2196_4385" x1="6.40603" y1="50.8417" x2="25.5848" y2="50.8417" gradientUnits="userSpaceOnUse">
<stop/>
<stop offset="1" stop-color="#1B1C1C"/>
</linearGradient>
<linearGradient id="paint7_linear_2196_4385" x1="7.07743" y1="50.9876" x2="24.9142" y2="50.9876" gradientUnits="userSpaceOnUse">
<stop stop-color="#363B39"/>
<stop offset="1" stop-color="#1B1C1C"/>
</linearGradient>
<linearGradient id="paint8_linear_2196_4385" x1="3.78884" y1="26.4" x2="6.02282" y2="26.4" gradientUnits="userSpaceOnUse">
<stop stop-color="#363B39"/>
<stop offset="1" stop-color="#1B1C1C"/>
</linearGradient>
<linearGradient id="paint9_linear_2196_4385" x1="25.9674" y1="26.4" x2="28.2016" y2="26.4" gradientUnits="userSpaceOnUse">
<stop stop-color="#363B39"/>
<stop offset="1" stop-color="#1B1C1C"/>
</linearGradient>
<linearGradient id="paint10_linear_2196_4385" x1="3.94811" y1="41.4603" x2="6.25822" y2="41.4603" gradientUnits="userSpaceOnUse">
<stop stop-color="#363B39"/>
<stop offset="1" stop-color="#1B1C1C"/>
</linearGradient>
<linearGradient id="paint11_linear_2196_4385" x1="25.7328" y1="41.4603" x2="28.0426" y2="41.4603" gradientUnits="userSpaceOnUse">
<stop stop-color="#363B39"/>
<stop offset="1" stop-color="#1B1C1C"/>
</linearGradient>
<radialGradient id="paint12_radial_2196_4385" cx="0" cy="0" r="1" gradientUnits="userSpaceOnUse" gradientTransform="translate(6.26597 2.77076) scale(2.1741 2.16463)">
<stop stop-color="white"/>
<stop offset="1" stop-color="#D2D6D5"/>
</radialGradient>
<radialGradient id="paint13_radial_2196_4385" cx="0" cy="0" r="1" gradientUnits="userSpaceOnUse" gradientTransform="translate(25.7247 2.77076) scale(2.17381 2.16433)">
<stop stop-color="white"/>
<stop offset="1" stop-color="#D2D6D5"/>
</radialGradient>
<linearGradient id="paint14_linear_2196_4385" x1="15.8942" y1="18.3713" x2="21.9464" y2="23.0613" gradientUnits="userSpaceOnUse">
<stop stop-color="#363B39"/>
<stop offset="1"/>
</linearGradient>
<linearGradient id="paint15_linear_2196_4385" x1="9.49712" y1="25.7168" x2="31.6713" y2="65.3819" gradientUnits="userSpaceOnUse">
<stop stop-color="#F7F7F7"/>
<stop offset="1" stop-color="#DBDBDB"/>
</linearGradient>
<linearGradient id="paint16_linear_2196_4385" x1="12.6771" y1="50.6961" x2="23.0451" y2="69.2423" gradientUnits="userSpaceOnUse">
<stop stop-color="#F7F7F7"/>
<stop offset="1" stop-color="#DBDBDB"/>
</linearGradient>
<linearGradient id="paint17_linear_2196_4385" x1="0.974086" y1="-3.01289" x2="6.37017" y2="13.9209" gradientUnits="userSpaceOnUse">
<stop stop-color="#F7F7F7"/>
<stop offset="1" stop-color="#DBDBDB"/>
</linearGradient>
<linearGradient id="paint18_linear_2196_4385" x1="31.0414" y1="-3.0134" x2="25.6451" y2="13.9211" gradientUnits="userSpaceOnUse">
<stop stop-color="#F7F7F7"/>
<stop offset="1" stop-color="#DBDBDB"/>
</linearGradient>
<linearGradient id="paint19_linear_2196_4385" x1="27.7729" y1="18.4266" x2="29.9694" y2="23.0616" gradientUnits="userSpaceOnUse">
<stop stop-color="#363B39"/>
<stop offset="1" stop-color="#1B1C1C"/>
</linearGradient>
<linearGradient id="paint20_linear_2196_4385" x1="28.7568" y1="19.7696" x2="31.9811" y2="19.7696" gradientUnits="userSpaceOnUse">
<stop stop-color="white"/>
<stop offset="1" stop-color="#D2D6D5"/>
</linearGradient>
<linearGradient id="paint21_linear_2196_4385" x1="28.7572" y1="20.1575" x2="31.9815" y2="20.1575" gradientUnits="userSpaceOnUse">
<stop stop-color="#363B39"/>
<stop offset="1" stop-color="#1B1C1C"/>
</linearGradient>
<linearGradient id="paint22_linear_2196_4385" x1="3.3473" y1="18.8157" x2="5.25106" y2="23.37" gradientUnits="userSpaceOnUse">
<stop stop-color="#363B39"/>
<stop offset="1" stop-color="#1B1C1C"/>
</linearGradient>
<linearGradient id="paint23_linear_2196_4385" x1="0" y1="19.7289" x2="3.22427" y2="19.7289" gradientUnits="userSpaceOnUse">
<stop stop-color="#D2D6D5"/>
<stop offset="1" stop-color="white"/>
</linearGradient>
<linearGradient id="paint24_linear_2196_4385" x1="-0.000289676" y1="20.1133" x2="3.22404" y2="20.1133" gradientUnits="userSpaceOnUse">
<stop stop-color="#363B39"/>
<stop offset="1" stop-color="#1B1C1C"/>
</linearGradient>
<linearGradient id="paint25_linear_2196_4385" x1="11.6557" y1="59.5043" x2="20.3252" y2="59.5043" gradientUnits="userSpaceOnUse">
<stop stop-color="#363B39"/>
<stop offset="1" stop-color="#1B1C1C"/>
</linearGradient>
<linearGradient id="paint26_linear_2196_4385" x1="11.5722" y1="43.0584" x2="15.7824" y2="50.0943" gradientUnits="userSpaceOnUse">
<stop stop-color="#363B39"/>
<stop offset="1"/>
</linearGradient>
<clipPath id="clip0_2196_4385">
<rect width="32" height="59.7" fill="white"/>
</clipPath>
</defs>
</svg>
