<?xml version="1.0" encoding="utf-8"?>
<!-- Generator: Adobe Illustrator 24.1.2, SVG Export Plug-In . SVG Version: 6.00 Build 0)  -->
<svg version="1.1" id="Layer_1" xmlns="http://www.w3.org/2000/svg" xmlns:xlink="http://www.w3.org/1999/xlink" x="0px" y="0px"
	 viewBox="0 0 60 60" style="enable-background:new 0 0 60 60;" xml:space="preserve">
<style type="text/css">
	.st0{fill:#17191C;}
	.st1{fill:#282F39;}
	.st2{fill:#989B9E;}
	.st3{fill:#545759;}
	.st4{fill:#F7D035;}
	.st5{fill:#DDDDDD;}
	.st6{fill:#E8F2F4;}
	.st7{fill:#E5E5E5;}
	.st8{fill:#B9B9B9;}
	.st9{fill:#1481DA;}
	.st10{fill:#ADA5B0;}
	.st11{fill:#383D4A;}
	.st12{fill:#273033;}
	.st13{fill:#FFFFFF;}
	.st14{fill:#FFFDD1;}
	.st15{fill:#FF6F57;}
</style>
<path d="M55.3,41.2c0,0-2.8-3.5-5.4-3.3c-2.6,0.2-5.4,2.8-5.4,2.8l-27-0.3c0,0-2.1-3.2-5.4-3.3c-3.4-0.1-5.1,3.2-5.1,3.2l-3.1-4.7
	l2.3-5l49.3,2.2l1,6.6L55.3,41.2z"/>
<path class="st0" d="M47.2,44.8c-1.1-0.9-1.9-2.4-2.1-4.1c0-0.3-0.1-0.6-0.1-0.9c0-1,0.2-2,0.6-2.8c0,0,0,0,0,0
	c0.1,0.7,0.3,1.3,0.6,1.9c0,0.3-0.1,0.6-0.1,0.9c0,2.6,1.7,4.6,3.7,4.6c2,0,3.6-1.9,3.7-4.3c0.4-0.5,0.7-1,1-1.6c0-0.1,0-0.2,0-0.2
	c0.1,0.5,0.1,1,0.1,1.5c0,0.3,0,0.6-0.1,0.9c-0.2,1.8-1.1,3.4-2.4,4.3c-0.7,0.5-1.5,0.8-2.4,0.8C48.9,45.7,48,45.4,47.2,44.8z"/>
<path class="st1" d="M49.9,33.8c2.2,0,4.1,1.9,4.6,4.5c0,0.1,0,0.2,0,0.2c-0.3,0.6-0.6,1.1-1,1.6c0-0.1,0-0.2,0-0.3
	c0-2.6-1.7-4.6-3.7-4.6c-1.8,0-3.3,1.6-3.6,3.7c-0.3-0.6-0.5-1.2-0.6-1.9c0,0,0,0,0,0C46.5,35.1,48.1,33.8,49.9,33.8z"/>
<path class="st2" d="M46.3,39.8c0,2.5,1.6,4.5,3.6,4.5s3.6-2,3.6-4.5c0-2.5-1.6-4.5-3.6-4.5C47.9,35.2,46.3,37.3,46.3,39.8z
	 M49,36.1l0.4,2c-0.2,0.1-0.4,0.2-0.6,0.4L47.7,37C48,36.6,48.5,36.2,49,36.1z M49.9,39.1c0.3,0,0.5,0.3,0.5,0.6
	c0,0.3-0.2,0.6-0.5,0.6c-0.3,0-0.5-0.3-0.5-0.6C49.4,39.4,49.6,39.1,49.9,39.1z M50.6,36l-0.4,2c-0.1,0-0.2,0-0.3,0
	c-0.1,0-0.3,0-0.4,0.1L49,36c0.3-0.1,0.6-0.1,0.8-0.1C50.1,35.9,50.4,35.9,50.6,36z M52.1,37l-1.2,1.5c-0.2-0.2-0.4-0.4-0.6-0.5
	l0.4-2C51.2,36.2,51.7,36.6,52.1,37z M52.9,38.8l-1.6,0.5c-0.1-0.3-0.2-0.6-0.3-0.8l1.2-1.5C52.5,37.6,52.8,38.2,52.9,38.8z
	 M52.9,40.9l-1.6-0.6c0-0.2,0.1-0.3,0.1-0.5c0-0.1,0-0.2,0-0.3l1.6-0.5c0.1,0.3,0.1,0.6,0.1,0.9C53,40.2,53,40.5,52.9,40.9z
	 M52,42.6l-1.2-1.5c0.2-0.2,0.3-0.4,0.4-0.7l1.6,0.6C52.7,41.6,52.4,42.1,52,42.6z M50.7,43.5l-0.4-2c0.2-0.1,0.4-0.2,0.6-0.4
	l1.2,1.5C51.6,43.1,51.2,43.4,50.7,43.5z M49.1,43.6l0.4-2c0.1,0,0.2,0,0.3,0c0.1,0,0.2,0,0.3,0l0.4,2c-0.2,0.1-0.5,0.1-0.8,0.1
	C49.6,43.7,49.4,43.6,49.1,43.6z M47.7,42.5l1.2-1.5c0.2,0.2,0.4,0.3,0.6,0.4l-0.4,2C48.5,43.4,48.1,43,47.7,42.5z M46.9,40.8
	l1.6-0.5c0.1,0.3,0.2,0.5,0.3,0.7l-1.2,1.5C47.3,42,47,41.5,46.9,40.8z M46.9,38.8l1.6,0.6c0,0.1,0,0.2,0,0.4c0,0.2,0,0.3,0.1,0.5
	l-1.6,0.5c-0.1-0.3-0.1-0.6-0.1-1C46.8,39.5,46.8,39.1,46.9,38.8z M46.9,38.8c0.1-0.6,0.4-1.2,0.8-1.7l1.2,1.5
	c-0.2,0.2-0.3,0.5-0.3,0.8L46.9,38.8z"/>
<path class="st3" d="M46.2,38.9c0,0.3-0.1,0.6-0.1,0.9c0,2.6,1.7,4.6,3.7,4.6c2,0,3.6-1.9,3.7-4.3c0-0.1,0-0.2,0-0.3
	c0-2.6-1.7-4.6-3.7-4.6C48.1,35.1,46.6,36.7,46.2,38.9z M46.3,39.8c0-2.5,1.6-4.5,3.6-4.5c2,0,3.6,2,3.6,4.5c0,2.5-1.6,4.5-3.6,4.5
	C47.9,44.3,46.3,42.3,46.3,39.8z"/>
<path d="M50.8,41.2l1.2,1.5c-0.4,0.4-0.8,0.7-1.3,0.9l-0.4-2C50.5,41.5,50.7,41.3,50.8,41.2z"/>
<path d="M51.2,40.4l1.6,0.6c-0.2,0.6-0.4,1.2-0.8,1.6l-1.2-1.5C51,40.9,51.2,40.7,51.2,40.4z"/>
<path d="M49.9,41.6c0.1,0,0.2,0,0.3,0l0.4,2c-0.2,0.1-0.5,0.1-0.8,0.1c-0.3,0-0.5,0-0.7-0.1l0.4-2C49.7,41.6,49.8,41.6,49.9,41.6z"
	/>
<path d="M51.3,39.8c0-0.1,0-0.2,0-0.3l1.6-0.5c0.1,0.3,0.1,0.6,0.1,0.9c0,0.4,0,0.7-0.1,1.1l-1.6-0.6C51.3,40.1,51.3,40,51.3,39.8z"
	/>
<path d="M48.8,41l-1.2,1.5c-0.4-0.5-0.6-1-0.8-1.6l1.6-0.5C48.6,40.6,48.7,40.8,48.8,41z"/>
<path d="M49.9,38c-0.1,0-0.3,0-0.4,0.1L49,36c0.3-0.1,0.6-0.1,0.8-0.1c0.3,0,0.5,0,0.7,0.1l-0.4,2C50.1,38,50,38,49.9,38z"/>
<path d="M51,38.6l1.2-1.5c0.4,0.5,0.6,1.1,0.8,1.7l-1.6,0.5C51.2,39,51.1,38.8,51,38.6z"/>
<path d="M50.3,38l0.4-2c0.5,0.2,1,0.5,1.4,1l-1.2,1.5C50.7,38.3,50.5,38.1,50.3,38z"/>
<path d="M48.4,39.8c0,0.2,0,0.3,0.1,0.5l-1.6,0.5c-0.1-0.3-0.1-0.6-0.1-1c0-0.3,0-0.6,0.1-0.9l1.6,0.6
	C48.4,39.5,48.4,39.7,48.4,39.8z"/>
<path d="M49.5,41.5l-0.4,2c-0.5-0.2-1-0.5-1.4-1l1.2-1.5C49,41.3,49.2,41.4,49.5,41.5z"/>
<path d="M48.8,38.5L47.7,37c0.4-0.4,0.8-0.8,1.3-1l0.4,2C49.2,38.1,49,38.3,48.8,38.5z"/>
<path d="M48.8,38.6c-0.2,0.2-0.3,0.5-0.3,0.8l-1.6-0.6c0.1-0.6,0.4-1.2,0.8-1.7L48.8,38.6z"/>
<path class="st2" d="M49.9,39.2c0.2,0,0.4,0.2,0.4,0.5c0,0.3-0.2,0.5-0.4,0.5c-0.2,0-0.4-0.2-0.4-0.5C49.4,39.5,49.6,39.2,49.9,39.2
	z"/>
<path class="st3" d="M49.4,39.8c0,0.3,0.2,0.6,0.5,0.6s0.5-0.3,0.5-0.6c0-0.3-0.2-0.6-0.5-0.6S49.4,39.4,49.4,39.8z M49.4,39.8
	c0-0.3,0.2-0.5,0.4-0.5c0.2,0,0.4,0.2,0.4,0.5c0,0.3-0.2,0.5-0.4,0.5C49.6,40.3,49.4,40.1,49.4,39.8z"/>
<path class="st0" d="M9.5,44.8c-1.1-0.9-1.9-2.4-2.1-4.1c0-0.3-0.1-0.6-0.1-0.9c0-1,0.2-2,0.6-2.8c0,0,0,0,0,0
	c0.1,0.7,0.3,1.3,0.6,1.9c0,0.3-0.1,0.6-0.1,0.9c0,2.6,1.7,4.6,3.7,4.6c2,0,3.6-1.9,3.7-4.3c0.4-0.5,0.7-1,1-1.6c0-0.1,0-0.2,0-0.2
	c0.1,0.5,0.1,1,0.1,1.5c0,0.3,0,0.6-0.1,0.9c-0.2,1.8-1.1,3.4-2.4,4.3c-0.7,0.5-1.5,0.8-2.4,0.8C11.1,45.7,10.2,45.4,9.5,44.8z"/>
<path class="st1" d="M12.1,33.8c2.2,0,4.1,1.9,4.6,4.5c0,0.1,0,0.2,0,0.2c-0.3,0.6-0.6,1.1-1,1.6c0-0.1,0-0.2,0-0.3
	c0-2.6-1.7-4.6-3.7-4.6c-1.8,0-3.3,1.6-3.6,3.7C8.2,38.3,8,37.7,7.9,37c0,0,0,0,0,0C8.7,35.1,10.3,33.8,12.1,33.8z"/>
<path class="st2" d="M8.5,39.8c0,2.5,1.6,4.5,3.6,4.5c2,0,3.6-2,3.6-4.5c0-2.5-1.6-4.5-3.6-4.5C10.1,35.2,8.5,37.3,8.5,39.8z
	 M11.2,36.1l0.4,2c-0.2,0.1-0.4,0.2-0.6,0.4L9.9,37C10.3,36.6,10.7,36.2,11.2,36.1z M12.1,39.1c0.3,0,0.5,0.3,0.5,0.6
	c0,0.3-0.2,0.6-0.5,0.6c-0.3,0-0.5-0.3-0.5-0.6C11.6,39.4,11.8,39.1,12.1,39.1z M12.8,36l-0.4,2c-0.1,0-0.2,0-0.3,0
	c-0.1,0-0.3,0-0.4,0.1l-0.4-2c0.3-0.1,0.6-0.1,0.8-0.1C12.4,35.9,12.6,35.9,12.8,36z M14.3,37l-1.2,1.5c-0.2-0.2-0.4-0.4-0.6-0.5
	l0.4-2C13.5,36.2,13.9,36.6,14.3,37z M15.1,38.8l-1.6,0.5c-0.1-0.3-0.2-0.6-0.3-0.8l1.2-1.5C14.7,37.6,15,38.2,15.1,38.8z
	 M15.1,40.9l-1.6-0.6c0-0.2,0.1-0.3,0.1-0.5c0-0.1,0-0.2,0-0.3l1.6-0.5c0.1,0.3,0.1,0.6,0.1,0.9C15.2,40.2,15.2,40.5,15.1,40.9z
	 M14.3,42.6l-1.2-1.5c0.2-0.2,0.3-0.4,0.4-0.7l1.6,0.6C14.9,41.6,14.6,42.1,14.3,42.6z M12.9,43.5l-0.4-2c0.2-0.1,0.4-0.2,0.6-0.4
	l1.2,1.5C13.9,43.1,13.4,43.4,12.9,43.5z M11.4,43.6l0.4-2c0.1,0,0.2,0,0.3,0c0.1,0,0.2,0,0.3,0l0.4,2c-0.2,0.1-0.5,0.1-0.8,0.1
	C11.9,43.7,11.6,43.6,11.4,43.6z M9.9,42.5l1.2-1.5c0.2,0.2,0.4,0.3,0.6,0.4l-0.4,2C10.8,43.4,10.3,43,9.9,42.5z M9.1,40.8l1.6-0.5
	c0.1,0.3,0.2,0.5,0.3,0.7l-1.2,1.5C9.5,42,9.3,41.5,9.1,40.8z M9.1,38.8l1.6,0.6c0,0.1,0,0.2,0,0.4c0,0.2,0,0.3,0.1,0.5l-1.6,0.5
	C9,40.4,9,40.1,9,39.8C9,39.5,9,39.1,9.1,38.8z M9.1,38.8c0.1-0.6,0.4-1.2,0.8-1.7l1.2,1.5c-0.2,0.2-0.3,0.5-0.3,0.8L9.1,38.8z"/>
<path class="st3" d="M8.5,38.9c0,0.3-0.1,0.6-0.1,0.9c0,2.6,1.7,4.6,3.7,4.6c2,0,3.6-1.9,3.7-4.3c0-0.1,0-0.2,0-0.3
	c0-2.6-1.7-4.6-3.7-4.6C10.3,35.1,8.8,36.7,8.5,38.9z M8.5,39.8c0-2.5,1.6-4.5,3.6-4.5s3.6,2,3.6,4.5c0,2.5-1.6,4.5-3.6,4.5
	S8.5,42.3,8.5,39.8z"/>
<path d="M13.1,41.2l1.2,1.5c-0.4,0.4-0.8,0.7-1.3,0.9l-0.4-2C12.7,41.5,12.9,41.3,13.1,41.2z"/>
<path d="M13.5,40.4l1.6,0.6c-0.2,0.6-0.4,1.2-0.8,1.6l-1.2-1.5C13.3,40.9,13.4,40.7,13.5,40.4z"/>
<path d="M12.1,41.6c0.1,0,0.2,0,0.3,0l0.4,2c-0.2,0.1-0.5,0.1-0.8,0.1c-0.3,0-0.5,0-0.7-0.1l0.4-2C11.9,41.6,12,41.6,12.1,41.6z"/>
<path d="M13.6,39.8c0-0.1,0-0.2,0-0.3l1.6-0.5c0.1,0.3,0.1,0.6,0.1,0.9c0,0.4,0,0.7-0.1,1.1l-1.6-0.6C13.5,40.1,13.6,40,13.6,39.8z"
	/>
<path d="M11.1,41l-1.2,1.5c-0.4-0.5-0.6-1-0.8-1.6l1.6-0.5C10.8,40.6,10.9,40.8,11.1,41z"/>
<path d="M12.1,38c-0.1,0-0.3,0-0.4,0.1l-0.5-2c0.3-0.1,0.6-0.1,0.8-0.1c0.3,0,0.5,0,0.7,0.1l-0.4,2C12.3,38,12.2,38,12.1,38z"/>
<path d="M13.2,38.6l1.2-1.5c0.4,0.5,0.6,1.1,0.8,1.7l-1.6,0.5C13.5,39,13.3,38.8,13.2,38.6z"/>
<path d="M12.5,38l0.4-2c0.5,0.2,1,0.5,1.4,1l-1.2,1.5C13,38.3,12.7,38.1,12.5,38z"/>
<path d="M10.7,39.8c0,0.2,0,0.3,0.1,0.5l-1.6,0.5C9,40.4,9,40.1,9,39.8c0-0.3,0-0.6,0.1-0.9l1.6,0.6C10.7,39.5,10.7,39.7,10.7,39.8z
	"/>
<path d="M11.7,41.5l-0.4,2c-0.5-0.2-1-0.5-1.4-1l1.2-1.5C11.3,41.3,11.5,41.4,11.7,41.5z"/>
<path d="M11.1,38.5L9.9,37c0.4-0.4,0.8-0.8,1.3-1l0.4,2C11.4,38.1,11.2,38.3,11.1,38.5z"/>
<path d="M11,38.6c-0.2,0.2-0.3,0.5-0.3,0.8l-1.6-0.6c0.1-0.6,0.4-1.2,0.8-1.7L11,38.6z"/>
<path class="st2" d="M12.1,39.2c0.2,0,0.4,0.2,0.4,0.5c0,0.3-0.2,0.5-0.4,0.5c-0.2,0-0.4-0.2-0.4-0.5C11.7,39.5,11.9,39.2,12.1,39.2
	z"/>
<path class="st3" d="M11.6,39.8c0,0.3,0.2,0.6,0.5,0.6c0.3,0,0.5-0.3,0.5-0.6c0-0.3-0.2-0.6-0.5-0.6C11.8,39.1,11.6,39.4,11.6,39.8z
	 M11.7,39.8c0-0.3,0.2-0.5,0.4-0.5c0.2,0,0.4,0.2,0.4,0.5c0,0.3-0.2,0.5-0.4,0.5C11.9,40.3,11.7,40.1,11.7,39.8z"/>
<path class="st4" d="M44.5,40.8l-27-0.3c0,0,0.1-6.8-5.2-7.3c-5.3-0.5-5.3,7.2-5.3,7.2s-5.7-1-6.3-1.1C0,39.2-0.1,37.5,0,36
	c0.1-1.4,1.9-7.4,1.9-7.4S1.7,27.1,2,26.7C2.2,26.2,6.4,26,6.4,26s7.8-4.5,12.5-5.6c4.8-1.1,14.2-0.2,16.9,1.1
	c2.7,1.3,8.1,5.1,9.5,5.6c1.4,0.6,9.4,1.7,11.1,3c1.7,1.4,2.9,3.2,3.2,5.2c0.3,1.9,0.2,5,0.2,5s-1.9,1-4.7,0.9c0,0,0.4-7.8-5.1-8.2
	C44.6,32.6,44.5,40.8,44.5,40.8z"/>
<path class="st5" d="M44.5,40.8l-27-0.3c0,0,0.1-7.2-5.2-7.3c-5.6-0.1-5.3,7.2-5.3,7.2s-5.7-1-6.3-1.1C0,39.2-0.1,37.5,0,36
	c0.1-1.4,1.9-7.4,1.9-7.4S1.7,27.1,2,26.7C2.2,26.2,6.4,26,6.4,26s7.8-4.5,12.5-5.6c4.8-1.1,14.2-0.2,16.9,1.1
	c2.7,1.3,8.1,5.1,9.5,5.6c1.4,0.6,9.4,1.7,11.1,3c1.7,1.4,2.9,3.2,3.2,5.2c0.3,1.9,0.2,5,0.2,5s-1.9,1-4.7,0.9c0,0,0.4-7.8-5.1-8.2
	C44.6,32.6,44.5,40.8,44.5,40.8z"/>
<path class="st6" d="M55.8,33.8c0,0-0.2-1.4-1-2.2c-0.8-0.8-0.5-1.4,0.5-1.2c1,0.2,2.5,0.9,3.3,3.4C58.6,33.9,57.3,34.2,55.8,33.8z"
	/>
<path d="M43.7,28.1c0,0-4.8-4-9.4-5.8C29.8,20.4,20.1,21.4,18,22c-2.1,0.6-5.5,2.1-5.6,2.6c-0.1,0.5,1.8,2.1,2.5,2.3
	c0.7,0.2,28.3,1.6,28.3,1.6S43.8,28.4,43.7,28.1z"/>
<path class="st7" d="M51.9,30l-50-1.4l-0.1-1.3l48.4,2L51.9,30z"/>
<path class="st8" d="M30.6,30.3c-1.6-0.1-1.3,1.8-0.1,1.8S31.7,30.4,30.6,30.3z"/>
<path class="st6" d="M32.5,31.1c0,0.3-0.8,0.4-1.7,0.4c-0.9,0-2,0-2-0.4c0-0.4,1.1-0.4,1.8-0.4C31.3,30.8,32.5,30.8,32.5,31.1z"/>
<path class="st8" d="M17.2,29.7c-1.6-0.1-1.3,1.8-0.1,1.8C18.4,31.5,18.3,29.8,17.2,29.7z"/>
<path class="st6" d="M19,30.7c0,0.3-0.8,0.4-1.7,0.3c-0.9,0-2,0-2-0.4c0-0.4,1.1-0.3,1.8-0.3C17.9,30.3,19,30.4,19,30.7z"/>
<path class="st9" d="M17.3,38.8l27.3,0.7c-0.1,0.8-0.1,1.3-0.1,1.3l-27-0.3C17.5,40.5,17.5,39.8,17.3,38.8z"/>
<path class="st9" d="M6.9,40.4c0,0-5.7-1-6.3-1.1C0.1,39.2,0,38.2,0,37.1c0.2,0.3,0.5,0.6,1,0.7c1,0.4,5,0.9,6,1.1
	C6.9,39.8,6.9,40.4,6.9,40.4z"/>
<path class="st9" d="M60,40.3c0,0-1.9,1-4.7,0.9c0,0,0.1-1.3-0.2-2.8c0.6-0.1,1.4-0.2,2.2-0.4c2.4-0.6,2.5-2.6,2.5-2.6
	C60.1,37.3,60,40.3,60,40.3z"/>
<path class="st10" d="M14.3,26.6l1.8-4c0.7-0.3,1.3-0.5,1.9-0.6L16,27.1c-0.6,0-1-0.1-1.1-0.1C14.7,26.9,14.5,26.8,14.3,26.6z"/>
<path class="st7" d="M14.9,27C14.9,27,14.9,27,14.9,27c-0.1,0-0.1-0.1-0.1-0.2l2-4.6c0-0.1,0.1-0.1,0.1,0c0,0,0.1,0.1,0,0.2L14.9,27
	C15,27,14.9,27,14.9,27z"/>
<path class="st11" d="M40.5,28.9c0.1,0,0.2,0,0.2-0.1l0.9-1.6c0.1-0.2,0.1-0.4-0.1-0.5c-0.1-0.1-0.3-0.1-0.4,0.1l-0.9,1.6
	c-0.1,0.2-0.1,0.4,0.1,0.5C40.4,28.9,40.4,28.9,40.5,28.9z"/>
<path class="st11" d="M39.5,25.7l0,1.4c0,0.3,0.2,0.5,0.4,0.5c0.7,0.1,2,0,2-1.1c0-1.3-1.3-1.4-2-1.4C39.7,25.1,39.5,25.4,39.5,25.7
	z"/>
<path class="st12" d="M38.6,28.3c-2.7-0.1-6.4-0.3-9.9-0.5L28,23c0,0,3.5-0.2,5.9,0.8C36,24.6,38.1,27.6,38.6,28.3z"/>
<path class="st12" d="M19.9,23.8c1.3-0.8,5.7-0.7,5.7-0.7l-0.1,4.5c-2.7-0.1-5.2-0.3-7.2-0.4C18.5,26.7,18.7,24.4,19.9,23.8z"/>
<path class="st10" d="M28,21.2c-0.5,0-1.1,0-1.6,0l0.1,6.5l2.6,0.1L28,21.2z"/>
<path class="st13" d="M27.8,27.9c0,0-0.1,0-0.1-0.1l-0.6-6.5c0-0.1,0-0.1,0.1-0.1c0.1,0,0.1,0,0.1,0.1l0.6,6.5
	C27.9,27.8,27.9,27.9,27.8,27.9C27.9,27.9,27.8,27.9,27.8,27.9z"/>
<path class="st14" d="M54.8,31.6c-0.1-0.1-0.1-0.1-0.2-0.2c0.6-0.1,1.2-0.1,1.7,0.3c0.3,0.2,0.5,0.5,0.6,0.9
	c0.2,0.4,0.3,0.9,0.3,1.4c-0.4,0-0.9,0-1.5-0.2C55.8,33.8,55.6,32.4,54.8,31.6z"/>
<path class="st9" d="M42.6,40.8c0,0-0.1,0-0.1-0.1c0-0.1,0-0.1,0.1-0.1c0,0,0.5-0.1,0.7-0.7c0.2-0.6,0.2-8.9,0.1-9.7
	c-0.1-0.8-0.5-1.5-0.5-1.5c0-0.1,0-0.1,0-0.2c0,0,0.1,0,0.1,0c0,0,0.5,0.8,0.6,1.6c0.1,0.7,0.1,9-0.1,9.8
	C43.2,40.6,42.7,40.8,42.6,40.8C42.6,40.8,42.6,40.8,42.6,40.8z"/>
<path class="st9" d="M27.7,40.6C27.7,40.6,27.7,40.6,27.7,40.6c-0.1,0-0.1-0.1-0.1-0.2c0,0,0.2-0.8,0.3-1.5c0-0.6,0.2-8.2,0.1-10.4
	c0-0.2-0.2-0.6-0.3-0.7c0,0,0-0.1,0-0.2c0,0,0.1,0,0.1,0c0,0,0.3,0.5,0.3,0.9c0.1,2.2-0.1,9.8-0.1,10.4
	C28.1,39.6,27.8,40.5,27.7,40.6C27.8,40.6,27.8,40.6,27.7,40.6z"/>
<path class="st9" d="M20.1,40.5C20,40.5,20,40.5,20.1,40.5c-0.1-0.1-6.2-9.4-6.2-10.5c0-1.1,0.9-3,0.9-3.1c0-0.1,0.1-0.1,0.1,0
	s0.1,0.1,0,0.2c0,0-0.9,1.9-0.9,3c0,0.7,4.2,7.3,6.1,10.3C20.2,40.3,20.2,40.4,20.1,40.5C20.1,40.5,20.1,40.5,20.1,40.5z"/>
<path class="st15" d="M3.4,32.7c0.2-0.9-0.2-1.7-1-1.8l-1.2-0.1c-0.2,0.8-0.5,1.8-0.7,2.7l1.8,0.1C2.8,33.6,3.3,33.2,3.4,32.7z"/>
</svg>
