<svg width="30" height="30" viewBox="0 0 30 30" fill="none" xmlns="http://www.w3.org/2000/svg">
<g clip-path="url(#clip0_2152_2671)">
<path d="M30.0002 17.7501C29.4168 16.6668 28.5835 15.9168 27.4168 15.5001C27.0002 15.3334 26.5002 15.3334 26.0835 15.2501C26.0835 15.0834 26.0835 14.9168 26.0835 14.7501C26.0835 14.0834 25.8335 13.9168 25.2502 13.7501C25.1668 13.7501 25.1668 13.7501 25.0835 13.7501C24.4168 13.7501 24.0002 13.3334 23.8335 12.7501C23.3335 11.5834 22.7502 10.5001 22.2502 9.33343C22.5835 9.2501 22.8335 9.2501 23.0835 9.2501C23.2502 9.2501 23.4168 9.08343 23.4168 9.0001C23.5835 8.16677 23.6668 7.41677 23.5002 6.66677C23.3335 6.08343 23.0002 5.91677 22.4168 6.0001C21.6668 6.16677 20.9168 6.41677 20.2502 6.91677C19.9168 7.16677 19.6668 7.33343 19.8335 7.7501C19.4168 7.83343 19.0002 8.0001 18.6668 8.08343C18.4168 8.16677 18.3335 8.33343 18.4168 8.5001C18.5002 8.66677 18.6668 8.7501 18.8335 8.66677C19.2502 8.58343 19.5835 8.5001 20.0002 8.33343C20.0002 8.41677 20.0835 8.58343 20.1668 8.66677C20.0002 8.91677 19.5835 9.0001 19.8335 9.33343C20.0002 9.58343 20.1668 9.5001 20.4168 9.41677C20.4168 9.5001 20.5002 9.58343 20.5002 9.58343C20.8335 10.5001 21.1668 11.4168 21.5002 12.3334C21.8335 13.0834 21.9168 13.8334 21.7502 14.6668C21.5835 15.5834 21.4168 16.5001 21.0002 17.3334C20.6668 18.0001 20.1668 18.4168 19.4168 18.5834C18.0002 18.9168 16.5835 19.0001 15.1668 18.7501C14.2502 18.5834 13.3335 17.5834 13.3335 16.7501C13.3335 16.4168 13.5002 16.0834 13.6668 15.8334C13.9168 15.3334 14.3335 14.9168 14.6668 14.5001C14.7502 14.4168 14.7502 14.3334 14.8335 14.2501C15.0002 14.0001 15.1668 13.8334 15.0002 13.5834C14.9168 13.3334 14.5835 13.4168 14.4168 13.4168C11.2502 13.4168 8.16683 13.4168 5.00016 13.4168C4.75016 13.4168 4.50016 13.5001 4.3335 13.6668C4.00016 14.0001 3.66683 14.2501 3.3335 14.5001C3.25016 14.5834 3.08349 14.6668 2.91683 14.6668C2.08349 14.5834 1.41683 14.8334 0.833496 15.5001C0.583496 15.8334 0.41683 16.0834 0.583496 16.4168C0.66683 16.5001 0.666828 16.6668 0.666828 16.7501C0.666828 17.0001 0.833494 17.2501 1.08349 17.3334C0.833494 17.9168 0.583496 18.4168 0.333496 19.0001C0.250162 19.1668 0.16683 19.4168 0.16683 19.5834C0.0834961 20.0001 0.250162 20.2501 0.583496 20.3334C0.91683 20.4168 1.33349 20.5001 1.66683 20.5834C1.58349 21.9168 2.00016 23.0001 3.00016 23.9168C3.66683 24.5834 4.5835 24.9168 5.50016 24.9168C7.25016 25.0001 9.16683 23.8334 9.5835 21.5834C9.66683 21.5834 9.8335 21.5834 9.91683 21.5834C12.9168 21.5834 15.8335 21.5834 18.8335 21.5834C19.5835 21.5834 20.3335 21.5001 21.0835 21.0834C21.2502 21.0001 21.4168 20.9168 21.5835 20.7501C21.5835 20.9168 21.6668 21.0001 21.6668 21.0834C21.7502 21.4168 21.7502 21.4168 22.0835 21.3334C22.3335 21.2501 22.5002 21.1668 22.7502 21.0001C22.8335 23.0001 23.6668 24.3334 25.5835 24.8334C26.9168 25.1668 28.2502 24.7501 29.1668 23.5001C30.3335 22.0001 30.2502 20.5001 29.2502 19.0001C29.5002 18.6668 29.7502 18.4168 30.0002 18.0834C30.0002 18.0001 30.0002 17.9168 30.0002 17.7501ZM26.3335 23.2501C25.0002 23.2501 24.0002 21.9168 24.5002 20.5834C24.5002 20.5001 24.6668 20.3334 24.7502 20.3334C25.5835 20.0834 26.5002 19.8334 27.3335 19.6668C27.4168 19.6668 27.5835 19.6668 27.6668 19.7501C28.3335 20.2501 28.5002 21.1668 28.1668 21.9168C27.9168 22.7501 27.1668 23.2501 26.3335 23.2501ZM7.91683 20.9168C7.91683 21.8334 7.50016 22.5001 6.75016 22.9168C5.91683 23.4168 5.00016 23.4168 4.16683 22.8334C3.41683 22.3334 3.16683 21.6668 3.16683 20.7501C4.83349 20.8334 6.3335 20.8334 7.91683 20.9168Z" fill="#1481DA"/>
<path d="M9.91667 12.6668C11.6667 12.6668 13.4167 12.6668 15.1667 12.6668C15.5833 12.6668 15.75 12.5835 15.6667 12.1668C15.5833 11.6668 15.5 11.1668 15.4167 10.7502C15.3333 10.5002 15.1667 10.4168 14.9167 10.4168C12.3333 10.3335 9.66667 10.1668 7.08333 10.0835C6.33333 10.0835 5.58333 10.1668 4.91667 10.1668C4.75 10.1668 4.66667 10.2502 4.5 10.2502C3.91667 10.5002 3.66667 10.9168 3.83333 11.5002C3.83333 11.8335 4 12.0835 4.16667 12.4168C4.25 12.6668 4.41667 12.6668 4.66667 12.6668C6.41667 12.6668 8.16667 12.6668 9.91667 12.6668Z" fill="#5F5F5F"/>
</g>
<defs>
<clipPath id="clip0_2152_2671">
<rect width="30" height="18.9167" fill="white" transform="matrix(-1 0 0 1 30 6)"/>
</clipPath>
</defs>
</svg>
