<svg width="30" height="30" viewBox="0 0 30 30" fill="none" xmlns="http://www.w3.org/2000/svg">
<path d="M10.125 10H16.5L16.0166 7H10.6084L10.125 10Z" fill="#1481DA"/>
<path d="M27.6516 20.1189C27.6516 20.1189 26.2522 18.3817 24.9388 18.4794C23.6253 18.5747 22.2572 19.8794 22.2572 19.8794L8.74559 19.7426C8.74559 19.7426 7.71947 18.1544 6.03663 18.0958C4.35379 18.0347 3.46253 19.7084 3.46253 19.7084L1.90479 17.375L3.05795 14.8511L27.7103 15.9335L28.1911 19.2368L27.6516 20.1189Z" fill="black"/>
<path d="M23.6228 21.878C23.0717 21.4211 22.6808 20.6881 22.5791 19.8354C22.5615 19.6888 22.5518 19.5398 22.5518 19.3883C22.5518 18.8801 22.6534 18.4036 22.8313 17.9858C22.8273 17.9932 22.8254 18.0005 22.8215 18.0078C22.8782 18.3426 22.9818 18.6553 23.1205 18.9387C23.0971 19.0853 23.0853 19.2344 23.0853 19.3883C23.0853 20.6662 23.916 21.7046 24.9382 21.7046C25.9155 21.7046 26.7168 20.7566 26.7852 19.5569C26.9807 19.3272 27.1468 19.0585 27.2719 18.7579C27.2661 18.7188 27.2582 18.6822 27.2504 18.6431C27.2993 18.8825 27.3247 19.1318 27.3247 19.3883C27.3247 19.5447 27.3149 19.6986 27.2954 19.8501C27.182 20.7639 26.7364 21.5409 26.1168 21.9831C25.7689 22.2323 25.3663 22.374 24.9363 22.374C24.4515 22.3716 24.0001 22.1883 23.6228 21.878Z" fill="#17191C"/>
<path d="M24.938 16.4023C26.0502 16.4023 26.9844 17.3552 27.2502 18.6429C27.258 18.682 27.2659 18.7186 27.2717 18.7577C27.1466 19.0582 26.9805 19.327 26.785 19.5567C26.789 19.5005 26.7909 19.4443 26.7909 19.3881C26.7909 18.1102 25.9602 17.0718 24.938 17.0718C24.039 17.0718 23.2884 17.8757 23.1203 18.9385C22.9816 18.6551 22.8799 18.3423 22.8213 18.0076C22.8252 18.0003 22.8272 17.9929 22.8311 17.9856C23.2337 17.0425 24.0253 16.4023 24.938 16.4023Z" fill="#282F39"/>
<path d="M23.125 19.3861C23.125 20.637 23.94 21.6559 24.9407 21.6559C25.9415 21.6559 26.7565 20.637 26.7565 19.3861C26.7565 18.1351 25.9415 17.1162 24.9407 17.1162C23.9381 17.1187 23.125 18.1351 23.125 19.3861ZM24.4795 17.5267L24.7043 18.5284C24.5968 18.5749 24.501 18.6482 24.4228 18.7483L23.8423 18.0056C24.0202 17.7857 24.2371 17.6195 24.4795 17.5267ZM24.9388 19.0709C25.0776 19.0709 25.1909 19.2126 25.1909 19.3861C25.1909 19.5595 25.0776 19.7012 24.9388 19.7012C24.8 19.7012 24.6867 19.5595 24.6867 19.3861C24.6867 19.2126 24.8 19.0709 24.9388 19.0709ZM25.3004 17.4925L25.0952 18.4991C25.0443 18.4845 24.9935 18.4771 24.9388 18.4771C24.8704 18.4771 24.8039 18.4894 24.7414 18.5113L24.5166 17.512C24.6515 17.4656 24.7922 17.4387 24.9407 17.4387C25.0639 17.4412 25.1851 17.4583 25.3004 17.4925ZM26.049 18.0227L25.4548 18.7483C25.3668 18.6384 25.2554 18.5553 25.1323 18.5138L25.3375 17.5071C25.6111 17.5951 25.8555 17.7759 26.049 18.0227ZM26.4496 18.9145L25.6444 19.171C25.6151 19.0244 25.5584 18.8901 25.4802 18.7826L26.0744 18.0569C26.2542 18.2939 26.3851 18.5895 26.4496 18.9145ZM26.434 19.9309L25.6346 19.6499C25.6541 19.5669 25.6659 19.4789 25.6659 19.3885C25.6659 19.3299 25.662 19.2737 25.6522 19.2199L26.4575 18.9634C26.4829 19.1002 26.4946 19.2419 26.4946 19.3885C26.4965 19.5766 26.475 19.7574 26.434 19.9309ZM26.0177 20.791L25.4372 20.0482C25.5193 19.9505 25.5818 19.8307 25.6209 19.6964L26.4223 19.9773C26.3441 20.2901 26.2034 20.5686 26.0177 20.791ZM25.359 21.2625L25.1342 20.2632C25.2378 20.2266 25.3316 20.1655 25.4098 20.08L25.9903 20.8252C25.8125 21.0255 25.5975 21.177 25.359 21.2625ZM24.5674 21.2772L24.7727 20.2705C24.8254 20.2852 24.8821 20.295 24.9388 20.295C24.9935 20.295 25.0463 20.2876 25.0971 20.273L25.3219 21.2747C25.1987 21.3138 25.0717 21.3334 24.9388 21.3334C24.8117 21.3334 24.6867 21.3138 24.5674 21.2772ZM23.8462 20.7739L24.4404 20.0482C24.5225 20.1459 24.6241 20.2192 24.7355 20.2583L24.5303 21.265C24.2703 21.177 24.0358 21.006 23.8462 20.7739ZM23.4416 19.9211L24.2469 19.6646C24.2801 19.7965 24.3388 19.9163 24.415 20.014L23.8208 20.7396C23.6449 20.5124 23.514 20.2339 23.4416 19.9211ZM23.428 18.9218L24.2273 19.2028C24.2176 19.2614 24.2117 19.3225 24.2117 19.3861C24.2117 19.4667 24.2215 19.5449 24.2371 19.6182L23.4319 19.8747C23.3986 19.7183 23.383 19.5546 23.383 19.3861C23.383 19.2272 23.3986 19.0709 23.428 18.9218ZM23.4358 18.8754C23.5042 18.5553 23.6371 18.2695 23.8169 18.0373L24.3974 18.7826C24.3212 18.8876 24.2664 19.0171 24.2352 19.1588L23.4358 18.8754Z" fill="#989B9E"/>
<path d="M23.1206 18.936C23.0972 19.0826 23.0854 19.2317 23.0854 19.3856C23.0854 20.6635 23.9161 21.7019 24.9383 21.7019C25.9156 21.7019 26.7169 20.7539 26.7854 19.5542C26.7893 19.498 26.7912 19.4418 26.7912 19.3856C26.7912 18.1077 25.9605 17.0693 24.9383 17.0693C24.0412 17.0693 23.2887 17.8732 23.1206 18.936ZM23.1245 19.3856C23.1245 18.1346 23.9396 17.1158 24.9403 17.1158C25.941 17.1158 26.756 18.1346 26.756 19.3856C26.756 20.6366 25.941 21.6554 24.9403 21.6554C23.9376 21.6554 23.1245 20.6366 23.1245 19.3856Z" fill="#545759"/>
<path d="M25.4094 20.0771L25.9899 20.8224C25.812 21.0252 25.597 21.1766 25.3586 21.2622L25.1338 20.2628C25.2374 20.2262 25.3292 20.1627 25.4094 20.0771Z" fill="black"/>
<path d="M25.6222 19.6934L26.4236 19.9743C26.3434 20.2871 26.2027 20.5656 26.019 20.788L25.4385 20.0452C25.5186 19.9499 25.5831 19.8277 25.6222 19.6934Z" fill="black"/>
<path d="M24.9383 20.2949C24.993 20.2949 25.0458 20.2876 25.0966 20.273L25.3213 21.2747C25.1982 21.3138 25.0712 21.3333 24.9383 21.3333C24.8112 21.3333 24.6861 21.3138 24.5669 21.2772L24.7721 20.2705C24.8268 20.2852 24.8816 20.2949 24.9383 20.2949Z" fill="black"/>
<path d="M25.6656 19.3861C25.6656 19.3274 25.6616 19.2712 25.6519 19.2175L26.4571 18.9609C26.4825 19.0978 26.4943 19.2395 26.4943 19.3861C26.4943 19.5742 26.4728 19.7575 26.4317 19.9285L25.6323 19.6475C25.6538 19.5669 25.6656 19.4789 25.6656 19.3861Z" fill="black"/>
<path d="M24.4148 20.0135L23.8206 20.7391C23.6447 20.5119 23.5137 20.2334 23.4414 19.9206L24.2467 19.6641C24.2818 19.7984 24.3385 19.9157 24.4148 20.0135Z" fill="black"/>
<path d="M24.9383 18.4793C24.8699 18.4793 24.8034 18.4915 24.7409 18.5135L24.5161 17.5142C24.651 17.4678 24.7917 17.4409 24.9402 17.4409C25.0653 17.4409 25.1846 17.4605 25.3018 17.4947L25.0966 18.5013C25.0438 18.4867 24.993 18.4793 24.9383 18.4793Z" fill="black"/>
<path d="M25.4795 18.7823L26.0737 18.0566C26.2515 18.2936 26.3825 18.5893 26.4489 18.9142L25.6437 19.1708C25.6144 19.0242 25.5577 18.8923 25.4795 18.7823Z" fill="black"/>
<path d="M25.1318 18.511L25.3371 17.5044C25.6107 17.5948 25.857 17.7756 26.0485 18.0224L25.4543 18.748C25.3664 18.6356 25.255 18.555 25.1318 18.511Z" fill="black"/>
<path d="M24.2115 19.3861C24.2115 19.4667 24.2213 19.5449 24.2369 19.6182L23.4317 19.8748C23.3984 19.7184 23.3828 19.5547 23.3828 19.3861C23.3828 19.2248 23.3984 19.0709 23.4278 18.9219L24.2272 19.2029C24.2174 19.2639 24.2115 19.325 24.2115 19.3861Z" fill="black"/>
<path d="M24.737 20.258L24.5317 21.2646C24.2698 21.1767 24.0353 21.0032 23.8477 20.7735L24.4418 20.0479C24.5239 20.1456 24.6236 20.2189 24.737 20.258Z" fill="black"/>
<path d="M24.4223 18.7456L23.8418 18.0028C24.0177 17.7854 24.2347 17.6192 24.477 17.5264L24.7018 18.5281C24.5962 18.5721 24.5005 18.6478 24.4223 18.7456Z" fill="black"/>
<path d="M24.3972 18.7823C24.3209 18.8874 24.2662 19.0169 24.2349 19.1586L23.4355 18.8752C23.504 18.5551 23.6369 18.2692 23.8167 18.0371L24.3972 18.7823Z" fill="black"/>
<path d="M24.9386 19.1191C25.0579 19.1191 25.1536 19.2389 25.1536 19.3879C25.1536 19.5369 25.0579 19.6567 24.9386 19.6567C24.8194 19.6567 24.7236 19.5369 24.7236 19.3879C24.7236 19.2389 24.8214 19.1191 24.9386 19.1191Z" fill="#989B9E"/>
<path d="M24.6865 19.3855C24.6865 19.559 24.7999 19.7007 24.9387 19.7007C25.0774 19.7007 25.1908 19.559 25.1908 19.3855C25.1908 19.212 25.0774 19.0703 24.9387 19.0703C24.7999 19.0703 24.6865 19.212 24.6865 19.3855ZM24.7237 19.3855C24.7237 19.2365 24.8194 19.1167 24.9387 19.1167C25.0579 19.1167 25.1537 19.2365 25.1537 19.3855C25.1537 19.5345 25.0579 19.6543 24.9387 19.6543C24.8214 19.6543 24.7237 19.5345 24.7237 19.3855Z" fill="#545759"/>
<path d="M4.73611 21.878C4.18494 21.4211 3.79404 20.6881 3.6924 19.8354C3.67481 19.6888 3.66504 19.5398 3.66504 19.3883C3.66504 18.8801 3.76667 18.4036 3.94453 17.9858C3.94063 17.9932 3.93867 18.0005 3.93476 18.0078C3.99144 18.3426 4.09503 18.6553 4.2338 18.9387C4.21035 19.0853 4.19862 19.2344 4.19862 19.3883C4.19862 20.6662 5.02929 21.7046 6.0515 21.7046C7.02876 21.7046 7.83011 20.7566 7.89852 19.5569C8.09397 19.3272 8.26011 19.0585 8.3852 18.7579C8.37933 18.7188 8.37151 18.6822 8.3637 18.6431C8.41256 18.8825 8.43797 19.1318 8.43797 19.3883C8.43797 19.5447 8.4282 19.6986 8.40865 19.8501C8.29529 20.7639 7.84966 21.5409 7.23008 21.9831C6.88217 22.2323 6.47954 22.374 6.04955 22.374C5.56678 22.3716 5.11334 22.1883 4.73611 21.878Z" fill="#17191C"/>
<path d="M6.05375 16.4023C7.16587 16.4023 8.10013 17.3552 8.36595 18.6429C8.37376 18.682 8.38158 18.7186 8.38745 18.7577C8.26236 19.0582 8.09622 19.327 7.90077 19.5567C7.90468 19.5005 7.90663 19.4443 7.90663 19.3881C7.90663 18.1102 7.07597 17.0718 6.05375 17.0718C5.15468 17.0718 4.40414 17.8757 4.23605 18.9385C4.09728 18.6551 3.99565 18.3423 3.93701 18.0076C3.94092 18.0003 3.94288 17.9929 3.94678 17.9856C4.34746 17.0425 5.14099 16.4023 6.05375 16.4023Z" fill="#282F39"/>
<path d="M4.23828 19.3861C4.23828 20.637 5.05331 21.6559 6.05403 21.6559C7.05474 21.6559 7.86977 20.637 7.86977 19.3861C7.86977 18.1351 7.05474 17.1162 6.05403 17.1162C5.05331 17.1187 4.23828 18.1351 4.23828 19.3861ZM5.59472 17.5267L5.81949 18.5284C5.71199 18.5749 5.61621 18.6482 5.53803 18.7483L4.95754 18.0056C5.13345 17.7857 5.3504 17.6195 5.59472 17.5267ZM6.05403 19.0709C6.1928 19.0709 6.30616 19.2126 6.30616 19.3861C6.30616 19.5595 6.1928 19.7012 6.05403 19.7012C5.91526 19.7012 5.80189 19.5595 5.80189 19.3861C5.80189 19.2126 5.91526 19.0709 6.05403 19.0709ZM6.41366 17.4925L6.20843 18.4991C6.15762 18.4845 6.1068 18.4771 6.05207 18.4771C5.98366 18.4771 5.91721 18.4894 5.85467 18.5113L5.6299 17.5145C5.76476 17.468 5.90548 17.4412 6.05403 17.4412C6.17716 17.4412 6.29834 17.4583 6.41366 17.4925ZM7.16419 18.0227L6.57002 18.7483C6.48207 18.6384 6.37066 18.5553 6.24752 18.5138L6.45275 17.5071C6.72638 17.5951 6.9707 17.7759 7.16419 18.0227ZM7.56487 18.9145L6.75961 19.171C6.73029 19.0244 6.67361 18.8901 6.59543 18.7826L7.1896 18.0569C7.36746 18.2939 7.49841 18.5895 7.56487 18.9145ZM7.54923 19.9309L6.74983 19.6499C6.76938 19.5669 6.78111 19.4789 6.78111 19.3885C6.78111 19.3299 6.7772 19.2737 6.76743 19.2199L7.57269 18.9634C7.59809 19.1002 7.60982 19.2419 7.60982 19.3885C7.60982 19.5766 7.58832 19.7574 7.54923 19.9309ZM7.13292 20.791L6.55243 20.0482C6.63452 19.9505 6.69706 19.8307 6.73615 19.6964L7.5375 19.9773C7.45932 20.2901 7.31664 20.5686 7.13292 20.791ZM6.47425 21.2625L6.24948 20.2632C6.35307 20.2266 6.44688 20.1655 6.52507 20.08L7.10556 20.8252C6.9277 21.0255 6.7127 21.177 6.47425 21.2625ZM5.68267 21.2772L5.88789 20.2705C5.94067 20.2852 5.99735 20.295 6.05403 20.295C6.10875 20.295 6.16153 20.2876 6.21234 20.273L6.43711 21.2747C6.31398 21.3138 6.18693 21.3334 6.05403 21.3334C5.92503 21.3334 5.80189 21.3138 5.68267 21.2772ZM4.96145 20.7739L5.55563 20.0482C5.63772 20.1459 5.73935 20.2192 5.85076 20.2583L5.64553 21.265C5.38363 21.177 5.14909 21.006 4.96145 20.7739ZM4.55687 19.9211L5.36213 19.6646C5.39535 19.7965 5.45399 19.9163 5.53022 20.014L4.93604 20.7396C4.76014 20.5124 4.62723 20.2339 4.55687 19.9211ZM4.54123 18.9218L5.34063 19.2028C5.33086 19.2614 5.32499 19.3225 5.32499 19.3861C5.32499 19.4667 5.33477 19.5449 5.3504 19.6182L4.54709 19.8772C4.51387 19.7208 4.49823 19.5571 4.49823 19.3885C4.49628 19.2272 4.51191 19.0709 4.54123 18.9218ZM4.551 18.8754C4.61941 18.5553 4.75232 18.2695 4.93213 18.0373L5.51263 18.7826C5.4364 18.8876 5.38167 19.0171 5.3504 19.1588L4.551 18.8754Z" fill="#989B9E"/>
<path d="M4.23635 18.936C4.2129 19.0826 4.20117 19.2317 4.20117 19.3856C4.20117 20.6635 5.03184 21.7019 6.05405 21.7019C7.03131 21.7019 7.83266 20.7539 7.90107 19.5542C7.90498 19.498 7.90694 19.4418 7.90694 19.3856C7.90694 18.1077 7.07627 17.0693 6.05405 17.0693C5.15498 17.0693 4.40444 17.8732 4.23635 18.936ZM4.23831 19.3856C4.23831 18.1346 5.05334 17.1158 6.05405 17.1158C7.05477 17.1158 7.8698 18.1346 7.8698 19.3856C7.8698 20.6366 7.05477 21.6554 6.05405 21.6554C5.05334 21.6554 4.23831 20.6366 4.23831 19.3856Z" fill="#545759"/>
<path d="M6.52461 20.0771L7.1051 20.8224C6.92724 21.0252 6.71224 21.1766 6.47379 21.2622L6.24902 20.2628C6.35066 20.2262 6.44447 20.1627 6.52461 20.0771Z" fill="black"/>
<path d="M6.73597 19.6934L7.53732 19.9743C7.45719 20.2871 7.31646 20.5656 7.13274 20.788L6.55225 20.0452C6.63434 19.9499 6.69688 19.8277 6.73597 19.6934Z" fill="black"/>
<path d="M6.05398 20.2949C6.1087 20.2949 6.16147 20.2876 6.21229 20.273L6.43706 21.2747C6.31393 21.3138 6.18688 21.3333 6.05398 21.3333C5.92693 21.3333 5.80184 21.3138 5.68262 21.2772L5.88784 20.2705C5.94061 20.2852 5.99729 20.2949 6.05398 20.2949Z" fill="black"/>
<path d="M6.78079 19.3861C6.78079 19.3274 6.77688 19.2712 6.7671 19.2175L7.57236 18.9609C7.59777 19.0978 7.6095 19.2395 7.6095 19.3861C7.6095 19.5742 7.588 19.7575 7.54696 19.9285L6.74756 19.6475C6.76906 19.5669 6.78079 19.4789 6.78079 19.3861Z" fill="black"/>
<path d="M5.52999 20.0135L4.93582 20.7391C4.75991 20.5119 4.62896 20.2334 4.55664 19.9206L5.3619 19.6641C5.39513 19.7984 5.45376 19.9157 5.52999 20.0135Z" fill="black"/>
<path d="M6.05352 18.4793C5.98512 18.4793 5.91866 18.4915 5.85612 18.5135L5.62939 17.5142C5.76426 17.4678 5.90498 17.4409 6.05352 17.4409C6.17861 17.4409 6.29784 17.4605 6.41511 17.4947L6.20989 18.5013C6.15907 18.4867 6.1063 18.4793 6.05352 18.4793Z" fill="black"/>
<path d="M6.59521 18.7823L7.18939 18.0566C7.36725 18.2936 7.4982 18.5893 7.56466 18.9142L6.75939 19.1708C6.73008 19.0242 6.6734 18.8923 6.59521 18.7823Z" fill="black"/>
<path d="M6.24512 18.511L6.45034 17.5044C6.72397 17.5948 6.97024 17.7756 7.16179 18.0224L6.56761 18.748C6.48161 18.6356 6.37021 18.555 6.24512 18.511Z" fill="black"/>
<path d="M5.32676 19.3856C5.32676 19.4662 5.33653 19.5444 5.35217 19.6177L4.54691 19.8767C4.51368 19.7203 4.49805 19.5566 4.49805 19.3881C4.49805 19.2268 4.51368 19.0729 4.543 18.9238L5.3424 19.2048C5.33263 19.2634 5.32676 19.3245 5.32676 19.3856Z" fill="black"/>
<path d="M5.85024 20.258L5.64502 21.2646C5.38311 21.1767 5.14857 21.0032 4.96094 20.7735L5.55511 20.0479C5.63915 20.1456 5.73883 20.2189 5.85024 20.258Z" fill="black"/>
<path d="M5.53752 18.7456L4.95703 18.0028C5.13294 17.7854 5.34989 17.6192 5.59225 17.5264L5.81702 18.5281C5.71147 18.5721 5.6157 18.6478 5.53752 18.7456Z" fill="black"/>
<path d="M5.5124 18.7823C5.43618 18.8874 5.38145 19.0169 5.35018 19.1586L4.55078 18.8752C4.61919 18.5551 4.7521 18.2692 4.93191 18.0371L5.5124 18.7823Z" fill="black"/>
<path d="M6.05386 19.1191C6.17309 19.1191 6.26886 19.2389 6.26886 19.3879C6.26886 19.5369 6.17309 19.6567 6.05386 19.6567C5.93464 19.6567 5.83887 19.5369 5.83887 19.3879C5.83887 19.2389 5.93464 19.1191 6.05386 19.1191Z" fill="#989B9E"/>
<path d="M5.80176 19.3855C5.80176 19.559 5.91512 19.7007 6.05389 19.7007C6.19266 19.7007 6.30602 19.559 6.30602 19.3855C6.30602 19.212 6.19266 19.0703 6.05389 19.0703C5.91512 19.0703 5.80176 19.212 5.80176 19.3855ZM5.83889 19.3855C5.83889 19.2365 5.93467 19.1167 6.05389 19.1167C6.17312 19.1167 6.26889 19.2365 6.26889 19.3855C6.26889 19.5345 6.17312 19.6543 6.05389 19.6543C5.93467 19.6543 5.83889 19.5345 5.83889 19.3855Z" fill="#545759"/>
<path d="M22.2592 19.8795L8.74761 19.7426C8.74761 19.7426 8.77497 16.3367 6.13246 16.0972C3.49191 15.8529 3.46455 19.706 3.46455 19.706C3.46455 19.706 0.601181 19.2247 0.298231 19.1562C-0.00471915 19.0878 -0.0320824 18.2278 0.0226441 17.5046C0.0793251 16.7813 0.958857 13.7907 0.958857 13.7907C0.958857 13.7907 0.849405 13.0675 0.986221 12.8281C1.12304 12.5862 3.21437 12.5178 3.21437 12.5178C3.21437 12.5178 7.09408 10.2821 9.48837 9.73237C11.8826 9.18263 16.5872 9.62975 17.9358 10.2821C19.2844 10.9369 21.9816 12.8281 22.697 13.1017C23.4123 13.3778 27.4035 13.9275 28.2556 14.6141C29.1078 15.3031 29.7137 16.2316 29.8798 17.1943C30.044 18.1569 29.9893 19.6718 29.9893 19.6718C29.9893 19.6718 29.0257 20.1873 27.6497 20.1189C27.6497 20.1189 27.8432 16.2316 25.0913 16.0264C22.3119 15.8162 22.2592 19.8795 22.2592 19.8795Z" fill="#F7D035"/>
<path d="M22.2592 19.8795L8.74761 19.7426C8.74761 19.7426 8.78083 16.1534 6.13246 16.0972C3.32382 16.0337 3.46455 19.706 3.46455 19.706C3.46455 19.706 0.601181 19.2247 0.298231 19.1562C-0.00471915 19.0878 -0.0320824 18.2278 0.0226441 17.5046C0.0793251 16.7813 0.958857 13.7907 0.958857 13.7907C0.958857 13.7907 0.849405 13.0675 0.986221 12.8281C1.12304 12.5862 3.21437 12.5178 3.21437 12.5178C3.21437 12.5178 7.09408 10.2821 9.48837 9.73237C11.8826 9.18263 16.5872 9.62975 17.9358 10.2821C19.2844 10.9369 21.9816 12.8281 22.697 13.1017C23.4123 13.3778 27.4035 13.9275 28.2556 14.6141C29.1078 15.3031 29.7137 16.2316 29.8798 17.1943C30.044 18.1569 29.9893 19.6718 29.9893 19.6718C29.9893 19.6718 29.0257 20.1873 27.6497 20.1189C27.6497 20.1189 27.8432 16.2316 25.0913 16.0264C22.3119 15.8162 22.2592 19.8795 22.2592 19.8795Z" fill="#1481DA"/>
<path d="M27.8998 16.4051C27.8998 16.4051 27.8177 15.7161 27.4053 15.3031C26.9929 14.8902 27.1571 14.6141 27.6535 14.7192C28.148 14.8218 28.8927 15.1663 29.3051 16.4393C29.3031 16.4393 28.6699 16.5761 27.8998 16.4051Z" fill="#E8F2F4"/>
<path d="M21.8723 13.5495C21.8723 13.5495 19.478 11.5533 17.1951 10.6248C14.9103 9.69636 10.0396 10.2119 8.99398 10.488C7.94832 10.7641 6.24202 11.5533 6.1873 11.7952C6.13257 12.0371 7.09615 12.8604 7.45382 12.9655C7.8115 13.0681 21.5987 13.7571 21.5987 13.7571C21.5987 13.7571 21.9016 13.7205 21.8723 13.5495Z" fill="black"/>
<path d="M25.9729 14.5118L0.959011 13.791L0.921875 13.1387L25.1207 14.1331L25.9729 14.5118Z" fill="#E5E5E5"/>
<path d="M15.3249 14.6509C14.5274 14.5996 14.6916 15.5452 15.2975 15.5452C15.9034 15.5452 15.8467 14.6851 15.3249 14.6509Z" fill="#B9B9B9"/>
<path d="M16.2313 15.0568C16.2313 15.2083 15.8189 15.2351 15.3791 15.2351C14.9394 15.2351 14.3882 15.2351 14.3882 15.0568C14.3882 14.8784 14.9394 14.8784 15.297 14.8784C15.6547 14.8784 16.2313 14.9053 16.2313 15.0568Z" fill="#E8F2F4"/>
<path d="M8.61275 14.3407C7.81531 14.2796 7.97363 15.2301 8.57953 15.235C9.18543 15.2399 9.13461 14.3798 8.61275 14.3407Z" fill="#B9B9B9"/>
<path d="M9.51743 14.8343C9.51548 14.9858 9.10307 15.0102 8.66331 15.0053C8.22354 15.0029 7.67237 14.998 7.67432 14.8197C7.67628 14.6413 8.2255 14.6462 8.58317 14.6486C8.94085 14.6535 9.51743 14.6828 9.51743 14.8343Z" fill="#E8F2F4"/>
<path d="M8.66162 18.8833L22.312 19.2229C22.2611 19.6139 22.2572 19.8777 22.2572 19.8777L8.74567 19.7409C8.74762 19.7409 8.74957 19.3793 8.66162 18.8833Z" fill="#1481DA"/>
<path d="M3.46491 19.7064C3.46491 19.7064 0.603494 19.225 0.300544 19.1566C0.0718658 19.1053 -0.000451282 18.6093 0.00150323 18.0596C0.109002 18.2037 0.273181 18.3503 0.51945 18.4334C1.04326 18.6118 3.00755 18.8927 3.52745 18.966C3.46686 19.401 3.46491 19.7064 3.46491 19.7064Z" fill="#1481DA"/>
<path d="M29.9915 19.6723C29.9915 19.6723 29.0279 20.1879 27.6519 20.1195C27.6519 20.1195 27.6832 19.4842 27.5386 18.7121C27.8591 18.6706 28.2344 18.6071 28.6429 18.502C29.8527 18.1917 29.882 17.1948 29.882 17.1948C30.0462 18.1599 29.9915 19.6723 29.9915 19.6723Z" fill="#1481DA"/>
<path d="M7.12939 12.8089L8.03238 10.7932C8.36465 10.6662 8.69496 10.5538 8.97641 10.478L8.01088 13.0362C7.69034 13.0117 7.49489 12.9946 7.4558 12.9824C7.37371 12.958 7.25644 12.8945 7.12939 12.8089Z" fill="#ADA5B0"/>
<path d="M7.45366 13.0243C7.44584 13.0243 7.43802 13.0218 7.43021 13.0169C7.40675 13.0023 7.39893 12.9656 7.41066 12.9363L8.41333 10.6274C8.42506 10.598 8.45437 10.5883 8.47783 10.6029C8.50128 10.6176 8.5091 10.6542 8.49737 10.6836L7.49471 12.9925C7.48689 13.0145 7.47125 13.0243 7.45366 13.0243Z" fill="#E5E5E5"/>
<path d="M20.2383 13.9563C20.2793 13.9563 20.3223 13.9319 20.3497 13.8879L20.8246 13.0963C20.8696 13.0205 20.8578 12.913 20.7973 12.8544C20.7367 12.7982 20.6507 12.8128 20.6038 12.8886L20.1288 13.6802C20.0839 13.756 20.0956 13.8635 20.1562 13.9221C20.1816 13.9465 20.2109 13.9563 20.2383 13.9563Z" fill="#383D4A"/>
<path d="M19.7399 12.3348L19.7594 13.0434C19.7633 13.1802 19.8474 13.2877 19.9568 13.2999C20.2891 13.3317 20.936 13.3195 20.936 12.7599C20.936 12.088 20.2852 12.0416 19.9412 12.0636C19.8259 12.0685 19.736 12.1882 19.7399 12.3348Z" fill="#383D4A"/>
<path d="M19.3139 13.6396C17.9496 13.5712 16.1378 13.4759 14.3416 13.3807L13.9761 11.0033C13.9761 11.0033 15.7097 10.9007 16.9196 11.382C17.9789 11.8023 19.0598 13.278 19.3139 13.6396Z" fill="#273033"/>
<path d="M9.95756 11.3819C10.6182 11.0032 12.819 11.0374 12.819 11.0374L12.7936 13.2975C11.4391 13.2242 10.1765 13.1533 9.2168 13.0947C9.2383 12.8675 9.36534 11.7216 9.95756 11.3819Z" fill="#273033"/>
<path d="M14.0035 10.0844C13.7357 10.0746 13.4641 10.0722 13.1963 10.0746L13.2432 13.3364L14.5508 13.4L14.0035 10.0844Z" fill="#ADA5B0"/>
<path d="M13.9212 13.4368C13.8977 13.4368 13.8762 13.4149 13.8743 13.3831L13.5615 10.1408C13.5576 10.109 13.5772 10.0773 13.6026 10.0748C13.6299 10.07 13.6534 10.0944 13.6554 10.1262L13.9681 13.3684C13.972 13.4002 13.9524 13.432 13.927 13.4344C13.9251 13.4368 13.9231 13.4368 13.9212 13.4368Z" fill="white"/>
<path d="M27.4039 15.3032C27.3726 15.2714 27.3452 15.2421 27.3198 15.2128C27.6169 15.1712 27.9238 15.1712 28.1661 15.374C28.2951 15.484 28.3948 15.6428 28.473 15.8114C28.5707 16.0191 28.643 16.2512 28.645 16.4906C28.428 16.4882 28.1739 16.4662 27.9003 16.4051C27.9003 16.4051 27.8182 15.7161 27.4039 15.3032Z" fill="#FFFDD1"/>
<path d="M21.3072 19.8897C21.2838 19.8897 21.2642 19.8677 21.2603 19.8384C21.2564 19.8067 21.274 19.7749 21.2994 19.77C21.3092 19.7676 21.5359 19.7163 21.6356 19.4084C21.7392 19.0834 21.7294 14.9762 21.704 14.5829C21.6786 14.1919 21.4519 13.8376 21.4499 13.8352C21.4323 13.8083 21.4362 13.7717 21.4577 13.7497C21.4792 13.7277 21.5085 13.7326 21.5261 13.7595C21.5359 13.7741 21.7724 14.1479 21.8017 14.5731C21.8271 14.9445 21.8447 19.0834 21.7274 19.4524C21.6082 19.8238 21.3307 19.8849 21.3189 19.8873C21.3131 19.8897 21.3111 19.8897 21.3072 19.8897Z" fill="#1481DA"/>
<path d="M13.8662 19.794C13.8603 19.794 13.8545 19.794 13.8506 19.7916C13.8252 19.7794 13.8134 19.7452 13.8212 19.7159C13.8232 19.711 13.9424 19.2932 13.9678 18.9609C13.9913 18.6775 14.0558 14.8439 14.0304 13.7688C14.0284 13.6442 13.9248 13.4756 13.8838 13.4194C13.8662 13.395 13.8682 13.3559 13.8877 13.3339C13.9072 13.3119 13.9385 13.3144 13.9561 13.3388C13.962 13.3486 14.1222 13.5734 14.1261 13.7639C14.1516 14.8414 14.0851 18.6872 14.0636 18.9706C14.0362 19.3176 13.917 19.7379 13.9112 19.755C13.9033 19.7794 13.8857 19.794 13.8662 19.794Z" fill="#1481DA"/>
<path d="M10.0281 19.7452C10.0144 19.7452 10.0007 19.7378 9.99095 19.7232C9.95968 19.6768 6.92822 15.0296 6.92822 14.5189C6.92822 13.9692 7.36799 13.0138 7.38753 12.9723C7.40122 12.943 7.43053 12.9332 7.45399 12.9503C7.47744 12.9674 7.48526 13.0041 7.47158 13.0334C7.46767 13.0432 7.02595 14.0009 7.02595 14.5189C7.02595 14.8805 9.11337 18.1912 10.0672 19.6474C10.0848 19.6743 10.0809 19.711 10.0613 19.733C10.0496 19.7403 10.0379 19.7452 10.0281 19.7452Z" fill="#1481DA"/>
<path d="M11.533 8.87H11.2901V7.92575H10.875V7.75342H11.9482V7.92575H11.533V8.87Z" fill="white"/>
<path d="M13.4102 8.87H13.1363L13.0348 8.65458H12.4032L12.3016 8.87H12.0278L12.571 7.75342H12.8714L13.4102 8.87ZM12.9685 8.48225L12.7212 7.94729L12.4739 8.48225H12.9685Z" fill="white"/>
<path d="M14.8763 8.87017H14.5892L14.205 8.43216L13.8208 8.87017H13.5337L14.0504 8.29573L13.5646 7.75H13.8517L14.205 8.15929L14.5583 7.75H14.8498L14.3684 8.29214L14.8763 8.87017Z" fill="white"/>
<path d="M15.3752 8.87H15.1323V7.75342H15.3752V8.87Z" fill="white"/>
<path d="M1.71147 15.8411C1.83265 15.4159 1.58833 14.9663 1.22675 14.9468L0.636482 14.9175C0.521166 15.3328 0.392168 15.8093 0.282715 16.2466L1.1857 16.2882C1.42024 16.3004 1.63329 16.1196 1.71147 15.8411Z" fill="#FF6F57"/>
</svg>
