<svg width="120" height="39" viewBox="0 0 120 39" fill="none" xmlns="http://www.w3.org/2000/svg">
<g clip-path="url(#clip0_350_5)">
<path fill-rule="evenodd" clip-rule="evenodd" d="M47.6565 37.7817H37.1377V13.0948H31.127V3.4347H53.6672V13.0948H47.6565V37.7817ZM82.2182 37.7817H72.9874V26.8336C72.9874 25.3309 72.7727 24.0429 72.3434 23.3989C71.6994 22.3256 70.6261 21.8962 69.338 21.8962C68.2647 21.8962 67.406 22.3256 66.762 22.9696C66.118 23.6136 65.6887 24.4723 65.6887 25.5456C65.6887 26.619 66.118 27.4776 66.762 28.1216C67.406 28.7657 68.2647 29.195 69.338 29.195C70.1967 29.195 70.8407 28.9803 71.6994 28.551V37.7817C70.8407 38.4258 69.7674 38.6404 68.2647 38.6404C64.6153 38.6404 61.61 37.1377 59.2486 34.347C57.1019 31.9857 56.2432 28.9803 56.2432 25.7603C56.2432 21.8962 57.5312 18.6762 60.3219 16.1002C62.898 13.7388 65.9033 12.6655 69.5527 12.6655C73.8461 12.6655 77.0661 14.1682 79.6422 17.3882C81.5742 19.7496 82.6475 22.7549 82.6475 26.4043V37.7817H82.2182ZM106.69 29.4097V37.7817H104.329C100.465 37.7817 97.889 36.7084 96.1717 34.347C95.313 35.6351 94.2397 36.4937 93.381 36.9231C92.093 37.5671 90.1609 37.7817 87.7996 37.7817H85.4382V29.4097H86.7262C89.7316 29.4097 91.2343 28.1216 91.2343 25.5456C91.2343 22.9696 89.7316 21.6816 86.5116 21.6816H85.2236V13.5241H87.1556C90.1609 13.5241 92.3076 13.9535 93.8103 15.0268C94.4543 15.4562 95.0983 16.1002 95.957 17.1735C97.6744 14.8122 100.465 13.5241 104.329 13.5241H106.261V21.8962H105.402C102.182 21.8962 100.465 23.1843 100.465 25.7603C100.465 27.263 100.894 28.3363 101.968 28.9803C102.612 29.4097 103.685 29.6243 105.188 29.6243H106.69V29.4097ZM118.927 37.7817H109.481V13.5241H118.927V37.7817ZM114.419 0C115.921 0 117.424 0.644007 118.497 1.71735C119.571 2.7907 120.215 4.29338 120.215 5.79606C120.215 7.29875 119.571 8.80143 118.497 9.87478C117.424 10.9481 116.136 11.5921 114.419 11.5921C112.916 11.5921 111.413 10.9481 110.34 9.87478C109.266 8.80143 108.622 7.51342 108.622 5.79606C108.622 4.29338 109.266 2.7907 110.34 1.71735C111.413 0.644007 112.701 0 114.419 0Z" fill="#279CEB"/>
<path fill-rule="evenodd" clip-rule="evenodd" d="M18.4615 3.43481H29.4097L22.7549 31.9858C22.3256 34.1325 21.4669 35.6352 20.3936 36.4938C18.8909 37.7819 16.9589 38.4259 14.3828 38.4259C11.8068 38.4259 9.87478 37.7819 8.37209 36.2792C7.29875 35.2058 6.65474 33.7031 6.2254 31.5565L0 3.43481H10.7335L14.8122 24.4724L18.4615 3.43481Z" fill="#279CEB"/>
</g>
<defs>
<clipPath id="clip0_350_5">
<rect width="120" height="38.6404" fill="white"/>
</clipPath>
</defs>
</svg>
