<svg width="786" height="397" viewBox="0 0 786 397" fill="none" xmlns="http://www.w3.org/2000/svg">
<path d="M-0.000183105 396.662V281.097H38.1477V195.837H74.865V233.798H105.271V221.56V146.334H155.004V226.316L169.898 226.809V146.16H187.261V111.795H197.668V88.711H238.368V111.795H248.775V146.16H266.137V189.863L274.16 190.385L276.572 60.958H330.147V129.804L348.997 130.297V22.707H355.448V0H411.997V22.707H418.449V167.707H430.37V122.496H440.271V100.398H454.661V35.844H475.502V100.398H489.892V122.496H499.821V198.998H506.75L512.219 198.911V110.287L659.061 111.737V311.315H671.459V285.157H716.114V335.443H729.017V316.97H757.292V348.783V354.409H785.566V396.662H-0.000183105Z" fill="#66C3FF" fill-opacity="0.5"/>
</svg>
