<svg width="22" height="20" viewBox="0 0 22 20" fill="none" xmlns="http://www.w3.org/2000/svg">
<g clip-path="url(#clip0_2565_4847)">
<path d="M3.93945 17.1688H17.9319V15.1377H4.02776L3.93945 17.1688Z" fill="#273033"/>
<path d="M1.39551 18.3772C1.39551 19.1235 1.99942 19.7274 2.74576 19.7274C3.4921 19.7274 4.09601 19.1235 4.09601 18.3772V15.9473H1.39551V18.3772Z" fill="#383D4A"/>
<path d="M17.8613 18.3772C17.8613 19.1235 18.4652 19.7274 19.2116 19.7274C19.9579 19.7274 20.5618 19.1235 20.5618 18.3772V15.9473H17.8613V18.3772Z" fill="#383D4A"/>
<path d="M19.4022 7.29849C19.4022 7.29849 17.6873 3.28191 17.0008 2.59539C16.3684 1.96299 12.6936 1.95445 10.936 1.9573C9.17557 1.95445 5.50368 1.96299 4.87128 2.59539C4.18476 3.28191 2.46988 7.29849 2.46988 7.29849C2.46988 7.29849 0.854707 10.1414 0.706578 11.1214C0.558449 12.1013 0.803432 14.8189 0.903134 15.6023C0.999988 16.3856 1.34467 16.5822 1.68651 16.679C2.02834 16.7759 3.64637 16.7759 3.93978 16.6306C4.23319 16.4825 5.65466 15.6023 6.58616 15.4541C7.51766 15.306 10.8961 15.306 10.8961 15.306L10.936 14.1238L10.9759 15.306C10.9759 15.306 14.3572 15.306 15.2859 15.4541C16.2174 15.6023 17.6389 16.4825 17.9323 16.6306C18.2257 16.7787 19.8437 16.7787 20.1855 16.679C20.5274 16.5822 20.8721 16.3856 20.9689 15.6023C21.0658 14.8189 21.3107 12.1013 21.1655 11.1214C21.0202 10.1414 19.4022 7.29849 19.4022 7.29849Z" fill="white"/>
<path d="M2.33081 7.57443C2.29378 7.57159 2.25959 7.59722 2.25674 7.63426L2.10861 9.10415C2.10577 9.14118 2.1314 9.17537 2.16844 9.17822C2.17128 9.17822 2.17413 9.17822 2.17413 9.17822C2.20832 9.17822 2.2368 9.15258 2.2425 9.11839L2.39063 7.6485C2.39633 7.61147 2.36784 7.57728 2.33081 7.57443Z" fill="#C4C4C4"/>
<path d="M2.05971 6.07315C1.81472 5.92502 -0.0482836 6.17 0.00299186 6.95622C0.0514186 7.7396 2.79465 7.59432 2.79465 7.59432L2.89151 7.10435L2.25341 7.15278C2.25341 7.15278 2.30469 6.22128 2.05971 6.07315Z" fill="#273033"/>
<path d="M19.542 7.57443C19.505 7.57728 19.4765 7.61147 19.4822 7.6485L19.6303 9.11839C19.6331 9.15258 19.6645 9.17822 19.6987 9.17822C19.7015 9.17822 19.7044 9.17822 19.7044 9.17822C19.7414 9.17537 19.7699 9.14118 19.7642 9.10415L19.6161 7.63426C19.6132 7.59722 19.579 7.57159 19.542 7.57443Z" fill="#C4C4C4"/>
<path d="M20.2343 12.3743C19.6474 12.8557 16.4627 13.1235 16.4627 13.1235H10.9961H10.8765H5.40997C5.40997 13.1235 2.22519 12.8557 1.63838 12.3743C1.05156 11.8929 1.34497 10.873 1.34497 10.873L0.666992 12.6762C0.69263 14.2344 0.835062 15.4394 0.903429 16.0433C1.00028 16.9008 1.34497 17.1144 1.6868 17.2227C2.02864 17.3309 3.64666 17.3309 3.94007 17.1685C4.23348 17.009 5.65495 16.0433 6.58645 15.8838C7.51796 15.7243 10.8964 15.7243 10.8964 15.7243H10.9734C10.9734 15.7243 14.3547 15.7243 15.2833 15.8838C16.2148 16.0433 17.6363 17.009 17.9297 17.1685C18.2231 17.3281 19.8411 17.3281 20.183 17.2227C20.5248 17.1144 20.8695 16.9008 20.9664 16.0433C21.0347 15.4394 21.1772 14.2344 21.2028 12.6762L20.5248 10.8759C20.5305 10.8759 20.8239 11.8929 20.2343 12.3743Z" fill="white"/>
<path d="M15.4823 11.5596H11.2406H10.6339H6.38942C6.38942 11.5596 5.55762 12.3543 5.55762 13.0124C5.55762 13.6533 6.6344 13.9895 6.87938 14.9836C7.02466 15.5704 7.22122 15.8126 7.22122 15.8126H10.876H10.9928H14.6476C14.6476 15.8126 14.847 15.5676 14.9894 14.9836C15.2344 13.9923 16.3112 13.6533 16.3112 13.0124C16.3169 12.3543 15.4823 11.5596 15.4823 11.5596Z" fill="#ACB6BA"/>
<path d="M15.2322 11.8506H11.2242H10.6487H6.64072C6.64072 11.8506 5.85449 12.5371 5.85449 13.1068C5.85449 13.6623 6.8743 13.9529 7.10504 14.8132C7.24178 15.3202 7.42979 15.531 7.42979 15.531H10.8823H10.9934H14.446C14.446 15.531 14.634 15.3202 14.7707 14.8132C15.0015 13.9529 16.0213 13.6623 16.0213 13.1068C16.0213 12.5371 15.2322 11.8506 15.2322 11.8506Z" fill="#3B4749"/>
<path d="M16.7334 3.23296C16.2007 2.96518 13.0216 2.85978 11.1928 2.84269V2.83984C11.113 2.83984 11.0276 2.83984 10.9393 2.83984C10.851 2.83984 10.7655 2.83984 10.6857 2.83984V2.84269C8.85691 2.85978 5.67784 2.96518 5.14514 3.23296C4.55832 3.52636 3.14825 7.15268 3.34481 7.34923C3.52427 7.5287 9.85963 7.42045 10.9421 7.40051C12.0217 7.42045 18.36 7.5287 18.5394 7.34923C18.7303 7.15268 17.3202 3.52636 16.7334 3.23296Z" fill="#273033"/>
<path d="M19.9401 6.07385C19.6951 6.22198 19.7436 7.15063 19.7436 7.15063L19.1055 7.10221L19.2023 7.59217C19.2023 7.59217 21.9456 7.7403 21.994 6.95408C22.0481 6.17355 20.1851 5.92857 19.9401 6.07385Z" fill="#273033"/>
<path d="M16.7334 3.23296C16.2007 2.96518 13.0216 2.85978 11.1928 2.84269V2.83984H10.6829V2.84269C8.85404 2.85978 5.67497 2.96518 5.14227 3.23296C4.56685 3.52067 3.1995 7.01024 3.33339 7.33214L3.34193 7.34923C3.34193 7.34923 5.11094 4.61169 10.7769 4.61169C16.4428 4.61169 18.5337 7.34923 18.5337 7.34923L18.5508 7.24953C18.5223 6.62283 17.2746 3.50358 16.7334 3.23296Z" fill="black"/>
<path d="M18.7128 8.11924L11.181 7.9939V7.98535L10.9132 7.99105L10.6426 7.98535V7.9939L3.23902 8.11924C3.23902 8.11924 2.38728 8.66048 3.09659 9.19887C3.8059 9.74011 5.93383 10.683 6.64313 10.8197C7.2385 10.9337 10.033 10.8568 10.9132 10.8283C11.8106 10.8568 14.6478 10.9337 15.2546 10.8197C15.9753 10.6859 18.1374 9.74011 18.8581 9.19887C19.5788 8.66048 18.7128 8.11924 18.7128 8.11924Z" fill="white"/>
<path d="M2.74576 18.8727C1.99942 18.8727 1.39551 18.2688 1.39551 17.5225V18.3771C1.39551 19.1234 1.99942 19.7273 2.74576 19.7273C3.4921 19.7273 4.09601 19.1234 4.09601 18.3771V17.5225C4.09601 18.2688 3.4921 18.8727 2.74576 18.8727Z" fill="#273033"/>
<path d="M19.2106 18.8727C18.4643 18.8727 17.8604 18.2688 17.8604 17.5225V18.3771C17.8604 19.1234 18.4643 19.7273 19.2106 19.7273C19.9569 19.7273 20.5609 19.1234 20.5609 18.3771V17.5225C20.5609 18.2688 19.9569 18.8727 19.2106 18.8727Z" fill="#273033"/>
<path d="M6.91464 14.4032H14.9592C14.9763 14.3776 14.9934 14.3548 15.0105 14.332H6.86621C6.8833 14.3548 6.90039 14.3805 6.91464 14.4032Z" fill="#ACB6BA"/>
<path d="M7.28125 15.2978H14.5908C14.6022 15.275 14.6136 15.2522 14.625 15.2266H7.24707C7.25846 15.2494 7.26986 15.275 7.28125 15.2978Z" fill="#ACB6BA"/>
<path d="M7.1023 14.8135C7.10514 14.8277 7.10799 14.8391 7.11369 14.8505H14.7594C14.7623 14.8391 14.768 14.8249 14.7708 14.8135C14.7737 14.8021 14.7794 14.7907 14.7822 14.7793H7.09375C7.0966 14.7907 7.09945 14.8021 7.1023 14.8135Z" fill="#ACB6BA"/>
<path d="M6.51816 13.9589H15.3575C15.3831 13.9333 15.4116 13.9105 15.4372 13.8877H6.43555C6.46403 13.9105 6.48967 13.9333 6.51816 13.9589Z" fill="#ACB6BA"/>
<path d="M6.38974 12.1016C6.3698 12.1244 6.34701 12.15 6.32422 12.1728H15.5509C15.5282 12.1471 15.5082 12.1244 15.4854 12.1016H6.38974Z" fill="#ACB6BA"/>
<path d="M6.03646 13.5116H15.8358C15.8557 13.4889 15.8756 13.4632 15.8956 13.4404H5.97949C5.99658 13.4632 6.01652 13.4889 6.03646 13.5116Z" fill="#ACB6BA"/>
<path d="M6.04566 12.5459C6.03142 12.5687 6.01717 12.5943 6.00293 12.6171H15.8706C15.8564 12.5915 15.8421 12.5687 15.8279 12.5459H6.04566Z" fill="#ACB6BA"/>
<path d="M5.86304 12.9932C5.86019 13.0188 5.85734 13.0416 5.85449 13.0644H16.0184C16.0156 13.0416 16.0156 13.016 16.0099 12.9932H5.86304Z" fill="#ACB6BA"/>
<path d="M13.7651 13.7246H8.1875V15.0008H13.7651V13.7246Z" fill="#F99D1C"/>
<path d="M2.2222 9.11328C1.88037 9.35826 1.04572 10.7797 1.3904 11.5147C1.73509 12.2496 3.54682 12.4462 4.28177 12.2981C5.01671 12.1499 5.75166 11.3181 5.75166 11.3181C5.75166 11.3181 4.08521 10.7313 3.15371 10.2413C2.2222 9.75138 2.2222 9.11328 2.2222 9.11328Z" fill="#DBDBDB"/>
<path d="M2.92531 11.0184C2.35843 10.9216 1.76591 11.178 1.39844 11.6138C1.85422 12.2633 3.52637 12.4371 4.22713 12.2975C4.079 11.6736 3.5634 11.1295 2.92531 11.0184Z" fill="white"/>
<path d="M19.6496 9.11328C19.6496 9.11328 19.6496 9.75138 18.7181 10.2413C17.7866 10.7313 16.1201 11.3181 16.1201 11.3181C16.1201 11.3181 16.8551 12.1499 17.59 12.2981C18.325 12.4462 20.1367 12.2496 20.4814 11.5147C20.8261 10.7797 19.9943 9.35826 19.6496 9.11328Z" fill="#DBDBDB"/>
<path d="M18.8975 11.0194C18.2594 11.1305 17.741 11.6746 17.5957 12.2956C18.2965 12.4352 19.9686 12.2643 20.4244 11.6119C20.0541 11.1789 19.4616 10.9226 18.8975 11.0194Z" fill="white"/>
<path d="M11.9102 1.86035H9.9674C9.82781 1.86035 9.71387 1.9743 9.71387 2.11388C9.71387 2.25346 9.82781 2.36741 9.9674 2.36741H11.9102C12.0497 2.36741 12.1637 2.25346 12.1637 2.11388C12.1665 1.9743 12.0526 1.86035 11.9102 1.86035Z" fill="white"/>
</g>
<defs>
<clipPath id="clip0_2565_4847">
<rect width="22" height="19.7268" fill="white"/>
</clipPath>
</defs>
</svg>
