<svg width="16" height="16" viewBox="0 0 16 16" fill="none" xmlns="http://www.w3.org/2000/svg">
<path d="M10.4432 8.5C9.6538 8.5 8.9138 8.1948 8.3594 7.6406C7.805 7.0864 7.5 6.3462 7.5 5.5568C7.5 4.7674 7.8052 4.0274 8.3594 3.4732L10.473 1.3594C11.0272 0.8052 11.7672 0.5 12.5568 0.5C13.3464 0.5 14.0864 0.8052 14.6406 1.3594C15.1948 1.9136 15.5 2.6538 15.5 3.4432C15.5 4.2326 15.1948 4.9726 14.6406 5.5268L12.527 7.6406C11.9728 8.1948 11.2328 8.5 10.4432 8.5ZM12.5688 1.9112C12.1562 1.9112 11.7704 2.0696 11.483 2.3572L9.3692 4.4708C9.0816 4.7586 8.9232 5.1442 8.9232 5.5568C8.9232 5.9694 9.0816 6.3548 9.3692 6.6426C9.657 6.9302 10.0426 7.0886 10.455 7.0886C10.8676 7.0886 11.2532 6.9302 11.541 6.6426L13.6546 4.529C13.9422 4.2412 14.1006 3.8556 14.1006 3.443C14.1006 3.0306 13.9422 2.645 13.6546 2.3572C13.3668 2.0696 12.9812 1.9112 12.5688 1.9112Z" fill="#1481DA"/>
<path d="M12.5569 0.599902C13.3197 0.599902 14.0347 0.894702 14.5699 1.4301C15.1053 1.9653 15.4001 2.6803 15.4001 3.4431C15.4001 4.2059 15.1053 4.9209 14.5699 5.4561L12.4565 7.5697C11.9211 8.1051 11.2061 8.3999 10.4433 8.3999C9.6805 8.3999 8.9655 8.1051 8.4303 7.5697C7.8949 7.0345 7.6001 6.3195 7.6001 5.5567C7.6001 4.7939 7.8949 4.0789 8.4303 3.5437L10.5439 1.4301C11.0791 0.894702 11.7941 0.599902 12.5569 0.599902ZM10.4553 7.1887C10.8945 7.1887 11.3053 7.0199 11.6119 6.7133L13.7255 4.5997C14.0321 4.2931 14.2009 3.8823 14.2009 3.4431C14.2009 3.0039 14.0321 2.5931 13.7255 2.2865C13.4189 1.9799 13.0081 1.8111 12.5689 1.8111C12.1295 1.8111 11.7189 1.9799 11.4123 2.2865L9.2987 4.4001C8.9921 4.7067 8.8233 5.1175 8.8233 5.5567C8.8233 5.9959 8.9921 6.4067 9.2987 6.7133C9.6053 7.0199 10.0159 7.1887 10.4553 7.1887ZM12.5569 0.399902C11.7759 0.399902 10.9949 0.696102 10.4025 1.2887L8.2889 3.4021C7.1039 4.5871 7.1039 6.5261 8.2889 7.7111C8.8813 8.3037 9.6623 8.5999 10.4433 8.5999C11.2243 8.5999 12.0053 8.3037 12.5979 7.7111L14.7115 5.5975C15.8965 4.4125 15.8965 2.4735 14.7115 1.2885C14.1189 0.696102 13.3379 0.399902 12.5569 0.399902ZM10.4553 6.9887C10.0695 6.9887 9.7089 6.8407 9.4401 6.5719C9.1713 6.3031 9.0233 5.9425 9.0233 5.5567C9.0233 5.1709 9.1713 4.8103 9.4401 4.5415L11.5537 2.4279C11.8225 2.1591 12.1829 2.0111 12.5689 2.0111C12.9547 2.0111 13.3153 2.1591 13.5841 2.4279C13.8529 2.6967 14.0009 3.0571 14.0009 3.4431C14.0009 3.8289 13.8529 4.1895 13.5841 4.4583L11.4705 6.5719C11.2017 6.8407 10.8411 6.9887 10.4553 6.9887Z" fill="#1481DA"/>
<path d="M3.4432 15.5C2.6538 15.5 1.9138 15.1948 1.3594 14.6406C0.805 14.0864 0.5 13.3462 0.5 12.5568C0.5 11.7674 0.8052 11.0274 1.3594 10.4732L3.473 8.35964C4.0272 7.80544 4.7672 7.50024 5.5568 7.50024C6.3464 7.50024 7.0864 7.80544 7.6406 8.35964C8.1948 8.91384 8.5 9.65384 8.5 10.4432C8.5 11.2326 8.1948 11.9726 7.6406 12.5268L5.527 14.6406C4.9728 15.1948 4.2328 15.5 3.4432 15.5ZM5.5688 8.91124C5.1562 8.91124 4.7704 9.06964 4.483 9.35724L2.3692 11.4708C2.0816 11.7586 1.9232 12.1442 1.9232 12.5568C1.9232 12.9694 2.0816 13.3548 2.3692 13.6426C2.657 13.9302 3.0426 14.0886 3.455 14.0886C3.8676 14.0886 4.2532 13.9302 4.541 13.6426L6.6546 11.529C6.9422 11.2412 7.1006 10.8556 7.1006 10.443C7.1006 10.0306 6.9422 9.64504 6.6546 9.35724C6.3668 9.06964 5.9812 8.91124 5.5688 8.91124Z" fill="#1481DA"/>
<path d="M5.5569 7.5999C6.3197 7.5999 7.0347 7.8947 7.5699 8.4301C8.1053 8.9653 8.4001 9.6803 8.4001 10.4431C8.4001 11.2059 8.1053 11.9209 7.5699 12.4561L5.4565 14.5697C4.9211 15.1051 4.2061 15.3999 3.4433 15.3999C2.6805 15.3999 1.9655 15.1051 1.4303 14.5697C0.894897 14.0345 0.600097 13.3195 0.600097 12.5567C0.600097 11.7939 0.894897 11.0789 1.4303 10.5437L3.5439 8.4301C4.0791 7.8947 4.7941 7.5999 5.5569 7.5999ZM3.4553 14.1887C3.8945 14.1887 4.3053 14.0199 4.6119 13.7133L6.7255 11.5997C7.0321 11.2931 7.2009 10.8823 7.2009 10.4431C7.2009 10.0039 7.0321 9.5931 6.7255 9.2865C6.4189 8.9799 6.0081 8.8111 5.5689 8.8111C5.1295 8.8111 4.7189 8.9799 4.4123 9.2865L2.2987 11.4001C1.9921 11.7067 1.8233 12.1175 1.8233 12.5567C1.8233 12.9959 1.9921 13.4067 2.2987 13.7133C2.6053 14.0199 3.0159 14.1887 3.4553 14.1887ZM5.5569 7.3999C4.7759 7.3999 3.9949 7.6961 3.4025 8.2887L1.2889 10.4021C0.103897 11.5871 0.103897 13.5261 1.2889 14.7111C1.8813 15.3037 2.6623 15.5999 3.4433 15.5999C4.2243 15.5999 5.0053 15.3037 5.5979 14.7111L7.7115 12.5975C8.8965 11.4125 8.8965 9.4735 7.7115 8.2885C7.1189 7.6961 6.3379 7.3999 5.5569 7.3999ZM3.4553 13.9887C3.0695 13.9887 2.7089 13.8407 2.4401 13.5719C2.1713 13.3031 2.0233 12.9425 2.0233 12.5567C2.0233 12.1709 2.1713 11.8103 2.4401 11.5415L4.5537 9.4279C4.8225 9.1591 5.1829 9.0111 5.5689 9.0111C5.9547 9.0111 6.3153 9.1591 6.5841 9.4279C6.8529 9.6967 7.0009 10.0571 7.0009 10.4431C7.0009 10.8289 6.8529 11.1895 6.5841 11.4583L4.4705 13.5719C4.2017 13.8407 3.8411 13.9887 3.4553 13.9887Z" fill="#1481DA"/>
<path d="M5.9601 10.7C5.7321 10.7 5.5209 10.5828 5.3949 10.3866C5.2305 10.1304 5.2829 9.77265 5.5197 9.53585L9.5365 5.51905C9.6757 5.37985 9.8657 5.30005 10.0573 5.30005C10.1921 5.30005 10.3189 5.34025 10.4239 5.41625C10.5867 5.53405 10.6849 5.70765 10.7005 5.90465C10.7159 6.09925 10.6457 6.28965 10.5079 6.42745L6.42991 10.5054C6.30431 10.6308 6.1375 10.7 5.9601 10.7Z" fill="#1481DA"/>
<path d="M10.0576 5.39995C10.1712 5.39995 10.2776 5.43355 10.3654 5.49695C10.504 5.59735 10.5876 5.74495 10.601 5.91235C10.614 6.07755 10.5544 6.23955 10.4374 6.35655L6.35942 10.4346C6.25282 10.5412 6.11102 10.6 5.96022 10.6C5.76362 10.6 5.58822 10.5026 5.47922 10.3326C5.34002 10.1156 5.38682 9.81035 5.59062 9.60655L9.60742 5.58975C9.72802 5.46915 9.89222 5.39995 10.0576 5.39995ZM10.0576 5.19995C9.84282 5.19995 9.62562 5.28875 9.46602 5.44835L5.44922 9.46515C5.19122 9.72315 5.11382 10.1334 5.31082 10.4406C5.46462 10.6802 5.71242 10.8 5.96022 10.8C6.15582 10.8 6.35142 10.7254 6.50082 10.576L10.5788 6.49795C10.9066 6.17035 10.8746 5.61875 10.4828 5.33495C10.3556 5.24295 10.2072 5.19995 10.0576 5.19995Z" fill="#1481DA"/>
</svg>
